<svg xmlns="http://www.w3.org/2000/svg" width="18" height="17.998" viewBox="-0.25 -0.25 18 17.998"><g data-name="Path 3827"><path d="M17.627 9.701c-1.91-.51-3.599-2.79-3.616-2.813a.5.5 0 0 0-.682-.115V3.577a.493.493 0 0 0-.11-.31L10.747.186A.505.505 0 0 0 10.36 0h-7.39a.496.496 0 0 0-.387.187L.11 3.267a.497.497 0 0 0-.11.31v10.291a.5.5 0 0 0 .5.501h9.12a6.025 6.025 0 0 0 3.842 3.604.461.461 0 0 0 .297 0A6.024 6.024 0 0 0 18 12.2V10.18a.5.5 0 0 0-.373-.48ZM3.21.999h6.909l1.669 2.08H1.54L3.21 1Zm4.487 3.08v2.133l-.744-.527a.494.494 0 0 0-.578 0l-.743.527V4.078h2.065ZM9.585 9.7a.498.498 0 0 0-.373.483v2.019c0 .4.041.79.116 1.167H.998V4.078H4.63v3.104a.502.502 0 0 0 .791.406l1.245-.886 1.245.886a.5.5 0 0 0 .791-.406V4.075h3.631v3.812c-.682.69-1.68 1.526-2.748 1.814Zm7.416 2.496h-.003v.006a5.025 5.025 0 0 1-3.39 4.768 5.021 5.021 0 0 1-3.119-3.132h.726a.5.5 0 1 0 0-1.002h-.954c-.041-.302-.053-.64-.041-.999h1.997a.5.5 0 1 0 0-1.002H10.22v-.29c1.5-.543 2.77-1.847 3.39-2.57.62.723 1.891 2.027 3.391 2.57v1.65Z" fill="#0c61cb" fill-rule="evenodd"/><path d="M17.627 9.701c-1.91-.51-3.599-2.79-3.616-2.813a.5.5 0 0 0-.682-.115V3.577a.493.493 0 0 0-.11-.31L10.747.186A.505.505 0 0 0 10.36 0h-7.39a.496.496 0 0 0-.387.187L.11 3.267a.497.497 0 0 0-.11.31v10.291a.5.5 0 0 0 .5.501h9.12a6.025 6.025 0 0 0 3.842 3.604.461.461 0 0 0 .297 0A6.024 6.024 0 0 0 18 12.2V10.18a.5.5 0 0 0-.373-.48ZM3.21.999h6.909l1.669 2.08H1.54L3.21 1Zm4.487 3.08v2.133l-.744-.527a.494.494 0 0 0-.578 0l-.743.527V4.078h2.065ZM9.585 9.7a.498.498 0 0 0-.373.483v2.019c0 .4.041.79.116 1.167H.998V4.078H4.63v3.104a.502.502 0 0 0 .791.406l1.245-.886 1.245.886a.5.5 0 0 0 .791-.406V4.075h3.631v3.812c-.682.69-1.68 1.526-2.748 1.814Zm7.416 2.496h-.003v.006a5.025 5.025 0 0 1-3.39 4.768 5.021 5.021 0 0 1-3.119-3.132h.726a.5.5 0 1 0 0-1.002h-.954c-.041-.302-.053-.64-.041-.999h1.997a.5.5 0 1 0 0-1.002H10.22v-.29c1.5-.543 2.77-1.847 3.39-2.57.62.723 1.891 2.027 3.391 2.57v1.65Z" stroke-linejoin="round" stroke-linecap="round" stroke-width=".5" stroke="#0c61cb" fill="transparent"/></g></svg>