<svg xmlns="http://www.w3.org/2000/svg" width="32" height="28.044" viewBox="45 163 32 28.044"><g data-name="Group 9495"><g data-name="Group 5218"><path d="M54.064 176.349a.292.292 0 1 1 0 .1z" fill="#3f3679" fill-rule="evenodd" data-name="Ellipse 436"/></g><path d="m52.937 181.89 1.593-1.003 1.377.21-2.106 1.483-.864-.69Z" fill="#f46275" fill-rule="evenodd" data-name="Path 7925"/><path d="m66.124 181.204 1.488-.227-.142-.09-2.075.317a4.223 4.223 0 0 0-3.322 2.707l-.754 2.034h.728l.754-2.034a4.223 4.223 0 0 1 3.323-2.707Z" fill="#6377e7" fill-rule="evenodd" data-name="Path 7932"/><g data-name="Group 5220"><path d="M67.352 176.349a.292.292 0 1 1 0 .1z" fill="#3f3679" fill-rule="evenodd" data-name="Ellipse 438"/></g><path d="m69.063 181.89-1.593-1.003-1.377.21 2.106 1.483.864-.69Z" fill="#f46275" fill-rule="evenodd" data-name="Path 7935"/><path d="M63.723 180.49v-2.043a5.213 5.213 0 0 1-2.723.766c-.995 0-1.928-.28-2.724-.766v2.043L61 182.208l2.723-1.716Z" fill="#f8af23" fill-rule="evenodd" data-name="Path 7939"/><g data-name="Group 5222"><path d="M54.383 172.03a1.36 1.36 0 1 1 0 .1z" fill="#f87023" fill-rule="evenodd" data-name="Ellipse 440"/></g><g data-name="Group 5223"><path d="M64.896 172.03a1.36 1.36 0 1 1 0 .1z" fill="#f8af23" fill-rule="evenodd" data-name="Ellipse 441"/></g><path d="M72.953 185.662a7.222 7.222 0 0 0-5.681-4.63l-3.55-.541L61 182.207l-2.723-1.716-3.55.542a7.222 7.222 0 0 0-5.681 4.629l-1.29 3.478H74.243l-1.29-3.478Z" fill="#63bce7" fill-rule="evenodd" data-name="Path 7940"/><path d="M72.953 185.662a7.222 7.222 0 0 0-5.681-4.63l-3.55-.541-.21.133 2.678.409a7.222 7.222 0 0 1 5.682 4.629l1.29 3.478h1.081l-1.29-3.478Z" fill="#67dceb" fill-rule="evenodd" data-name="Path 7941"/><path d="m55.81 181.033 2.678-.41-.211-.132-3.55.542a7.222 7.222 0 0 0-5.681 4.629l-1.29 3.478h1.082l1.29-3.479a7.223 7.223 0 0 1 5.681-4.628Z" fill="#6377e7" fill-rule="evenodd" data-name="Path 7942"/><path d="M55.744 168.602v5.354a5.266 5.266 0 0 0 2.532 4.49 5.213 5.213 0 0 0 2.724.767c.995 0 1.928-.28 2.724-.766a5.266 5.266 0 0 0 2.532-4.49v-5.355H55.744Z" fill="#f8af23" fill-rule="evenodd" data-name="Path 7943"/><path d="M59.358 178.945a5.236 5.236 0 0 1-1.082-.498v2.043l1.082.682v-2.227Z" fill="#f87023" fill-rule="evenodd" data-name="Path 7944"/><path d="M56.825 173.956v-5.354h-1.081v5.354a5.266 5.266 0 0 0 2.532 4.49 5.213 5.213 0 0 0 2.724.767c.183 0 .362-.013.54-.031a5.265 5.265 0 0 1-4.715-5.225Z" fill="#f87023" fill-rule="evenodd" data-name="Path 7945"/><g data-name="Group 5224"><path d="M58.074 172.8a.499.499 0 1 1 0 .1z" fill="#3f3679" fill-rule="evenodd" data-name="Ellipse 442"/></g><g data-name="Group 5225"><path d="M62.927 172.8a.499.499 0 1 1 0 .1z" fill="#3f3679" fill-rule="evenodd" data-name="Ellipse 443"/></g><path d="m61 182.207-2.723-1.716-2.355.36 3.6 2.534L61 182.207Z" fill="#f46275" fill-rule="evenodd" data-name="Path 7946"/><path d="m61 182.207 2.723-1.716 2.355.36-3.6 2.534L61 182.207Z" fill="#f46275" fill-rule="evenodd" data-name="Path 7947"/><path d="m55.922 180.85 3.6 2.535.515-.41-3.213-2.263-.902.138Z" fill="#f43075" fill-rule="evenodd" data-name="Path 7948"/><path d="m66.078 180.85-.885-.135-3.22 2.268.504.402 3.6-2.535Z" fill="#f48875" fill-rule="evenodd" data-name="Path 7949"/><path d="M62.478 183.385 61 182.207l-1.478 1.178.884 1.02-.884 4.735h2.956l-.903-4.744.903-1.01Z" fill="#9e9e9e" fill-rule="evenodd" data-name="Path 7950"/><path d="M61 163.193c-3.376 0-6.112 2.422-6.112 5.409 0 1.008.313 1.952.856 2.76v.294h.705v-1.929s1.373-.061 1.905-1.125c0 0 2.405 2.337 5.37 0 0 0 .664 1.175 1.703 1.175v1.88h.829v-.295a4.923 4.923 0 0 0 .856-2.76c0-2.987-2.737-5.409-6.112-5.409Z" fill="#9e9e9e" fill-rule="evenodd" data-name="Path 7951"/><path d="M61 163.193c-.182 0-.362.008-.54.022 3.121.243 5.57 2.561 5.57 5.387 0 .84-.217 1.634-.603 2.343v.711h.829v-.294a4.923 4.923 0 0 0 .856-2.76c0-2.987-2.737-5.409-6.112-5.409Z" fill="#cecece" fill-rule="evenodd" data-name="Path 7952"/><path d="M61.54 163.215a6.946 6.946 0 0 0-.54-.022c-3.376 0-6.112 2.422-6.112 5.409 0 1.008.313 1.952.856 2.76v.294h.705v-.953a4.854 4.854 0 0 1-.48-2.1c0-2.827 2.45-5.145 5.572-5.388Z" fill="#707070" fill-rule="evenodd" data-name="Path 7953"/><path d="m59.522 183.385.884 1.02-.884 4.735H61v-6.933l-1.478 1.178Z" fill="#707070" fill-rule="evenodd" data-name="Path 7954"/><g data-name="Group 5226"><path d="M52.937 177.996a.193.193 0 0 0 .193-.193v-.876a.193.193 0 1 0-.386 0v.876c0 .106.087.193.193.193Z" fill="#3f3679" fill-rule="evenodd" data-name="Path 7955"/><path d="M52.103 178.282a.193.193 0 0 0-.012.273c.02.022.454.491 1.106.491.07 0 .143-.005.219-.018a.193.193 0 1 0-.062-.381c-.56.09-.972-.345-.978-.352a.193.193 0 0 0-.273-.013Z" fill="#3f3679" fill-rule="evenodd" data-name="Path 7956"/><path d="M52.366 175.844a.193.193 0 0 0-.193-.193h-1.31a.193.193 0 1 0 0 .386h1.31a.193.193 0 0 0 .193-.193Z" fill="#3f3679" fill-rule="evenodd" data-name="Path 7957"/><path d="M53.702 176.037h1.308a.193.193 0 0 0 0-.386h-1.308a.193.193 0 1 0 0 .386Z" fill="#3f3679" fill-rule="evenodd" data-name="Path 7958"/><path d="m76.988 185.878-.754-2.034a4.419 4.419 0 0 0-3.474-2.83l-1.911-.293v-.925a3.292 3.292 0 0 0 1.48-2.73v-.098a.99.99 0 0 0 0-1.939v-.102c.242-.122.777-.452 1.047-1.08.233-.542.21-1.166-.069-1.852-.014-.036-.35-.887-1.369-1.26-1.022-.373-2.332-.13-3.893.721a4.307 4.307 0 0 0-.404-.028 1.556 1.556 0 0 0-.794-.734 5.06 5.06 0 0 0 .458-2.092c0-3.089-2.828-5.602-6.305-5.602s-6.305 2.513-6.305 5.602c0 .72.158 1.43.458 2.092a1.544 1.544 0 0 0-.446.278 4.15 4.15 0 0 0-1.77-.393c-2.077 0-3.767 1.506-3.767 3.356 0 .407.085.808.244 1.185a.989.989 0 0 0-.54.878c0 .48.343.88.796.97v.098c0 1.092.566 2.127 1.481 2.73v.925l-1.91.292a4.419 4.419 0 0 0-3.475 2.83l-.754 2.035a.193.193 0 0 0 .181.26h3.47l-1.087 2.935a.193.193 0 0 0 .18.26H74.244a.193.193 0 0 0 .181-.26l-1.088-2.935h3.47a.193.193 0 0 0 .182-.26Zm-7.227-4.199.936-.59.831.127-1.175.827a7.398 7.398 0 0 0-.592-.364Zm-4.187-.71-3.09 2.175-1.15-.919 2.431-1.533 1.81.277Zm-6.059 2.175-3.09-2.175 1.81-.277 2.432 1.533-1.152.92Zm-7.869-1.1-1.174-.828.83-.127.937.59a7.469 7.469 0 0 0-.593.364Zm.992-.57c-.002 0-.003-.002-.004-.003l-1.097-.69v-.767c.437.208.914.32 1.4.32.486 0 .963-.112 1.4-.32v.766l-.307.194-.005.004c-.482.12-.946.287-1.387.496Zm2.085-1.678a3.292 3.292 0 0 0 1.48-2.73v-.546a5.497 5.497 0 0 0 1.88 2.03v1.775l-3.36.513v-1.042Zm10.704-7.946h.636v2.107c0 1.749-.935 3.406-2.44 4.325a5.034 5.034 0 0 1-5.246 0 5.105 5.105 0 0 1-2.44-4.325v-2.107h.512a.193.193 0 0 0 .194-.194v-1.754c.383-.054 1.265-.257 1.762-1.005.627.488 2.757 1.835 5.27-.015.23.328.779.98 1.559 1.076v1.698c0 .107.086.194.193.194Zm-1.896 8.534L61 181.979l-2.53-1.595v-1.607a5.418 5.418 0 0 0 5.06 0v1.607Zm.386-.06v-1.773a5.497 5.497 0 0 0 1.879-2.03v.545c0 1.092.565 2.127 1.48 2.73v.925l-.285.044-.092.015-2.982-.455Zm4.027.646c-.012-.015-.28-.19-.28-.19v-.766c.435.208.913.32 1.399.32s.963-.112 1.4-.32v.766l-1.102.694a7.404 7.404 0 0 0-1.417-.504Zm4-3.904c0 .996-.533 1.938-1.39 2.461a2.863 2.863 0 0 1-2.983 0 2.904 2.904 0 0 1-1.389-2.46v-1.413l-.002-.026c.046-.14.085-.283.12-.427.01-.005.02-.009.03-.016l1.311-1.004c.46.35 2.13 1.447 4.302.879v2.006Zm.795-1.068a.601.601 0 0 1-.41.568v-1.135c.238.08.41.303.41.567Zm-4.687-4.15a.194.194 0 0 0 .124-.023c1.479-.818 2.697-1.063 3.622-.73a1.975 1.975 0 0 1 1.15 1.041c.238.589.264 1.112.075 1.555-.268.629-.892.906-.953.932-2.415.766-4.28-.818-4.3-.834a.194.194 0 0 0-.244-.007l-1.122.86a5.31 5.31 0 0 0 .045-.686v-.286a1.555 1.555 0 0 0 1.328-1.85c.167.01.274.027.275.027Zm-.628.282c0 .578-.423 1.058-.975 1.15v-1.86c.082-.124.156-.25.226-.38.446.172.749.604.749 1.09ZM61 163.386c3.264 0 5.919 2.34 5.919 5.216 0 .934-.285 1.851-.823 2.652a.193.193 0 0 0-.033.108v.101h-.443v-1.686a.193.193 0 0 0-.193-.193c-.912 0-1.53-1.067-1.535-1.077a.193.193 0 0 0-.288-.057c-2.792 2.201-5.022.104-5.116.013a.193.193 0 0 0-.307.053c-.474.946-1.728 1.018-1.74 1.018a.193.193 0 0 0-.185.193v1.736h-.32v-.1a.193.193 0 0 0-.032-.109 4.747 4.747 0 0 1-.823-2.652c0-2.876 2.655-5.216 5.919-5.216Zm-5.675 7.655c.07.128.144.255.226.38v1.86a1.168 1.168 0 0 1-.975-1.15c0-.49.302-.92.75-1.09Zm-2.388-.076c.524 0 1.041.109 1.507.312a1.553 1.553 0 0 0 1.107 2.393v.286c0 .517.078 1.025.22 1.512l-4.31-1.712a.193.193 0 0 0-.244.093c-.255.51-.943.55-.95.551a.193.193 0 0 0-.184.193v.935h-.028a.192.192 0 0 0-.031-.087 2.696 2.696 0 0 1-.468-1.506c0-1.637 1.517-2.97 3.381-2.97Zm-3.676 5.033c0-.227.13-.43.325-.532.027.047.054.095.084.141v.96a.601.601 0 0 1-.409-.569Zm.796 1.068v-1.152h.22a.193.193 0 0 0 .192-.193v-.958c.257-.046.72-.184 1.002-.588l4.344 1.726h.002v1.165c0 .996-.532 1.938-1.388 2.461a2.864 2.864 0 0 1-2.984 0 2.905 2.905 0 0 1-1.388-2.46Zm-4.586 8.686.657-1.774a4.032 4.032 0 0 1 3.17-2.583l.622-.095 1.394.982a7.412 7.412 0 0 0-2.449 3.312l-.058.158H45.47Zm3.756-.023a7.033 7.033 0 0 1 5.53-4.505l1.117-.171 3.518 2.477.807.932-.837 4.485H48.034l1.193-3.218Zm10.528 3.218.841-4.506a.193.193 0 0 0-.044-.162l-.752-.868 1.2-.957 1.197.955-.766.859a.193.193 0 0 0-.046.164l.859 4.515h-2.49Zm2.882 0-.855-4.493.825-.923 3.519-2.478 1.117.17a7.032 7.032 0 0 1 5.53 4.506l1.193 3.218H62.637Zm10.556-3.195-.058-.158a7.413 7.413 0 0 0-2.45-3.312l1.395-.982.621.095a4.032 4.032 0 0 1 3.17 2.583l.658 1.774h-3.336Z" fill="#0c61cb" fill-rule="evenodd" data-name="Path 7959"/><path d="M69.063 177.996a.193.193 0 0 0 .193-.193v-.876a.193.193 0 1 0-.387 0v.876c0 .106.087.193.194.193Z" fill="#3f3679" fill-rule="evenodd" data-name="Path 7960"/><path d="M69.48 178.647c-.56.09-.973-.346-.979-.352a.193.193 0 0 0-.285.26c.02.022.455.491 1.107.491.07 0 .143-.005.218-.018a.193.193 0 0 0-.061-.381Z" fill="#3f3679" fill-rule="evenodd" data-name="Path 7961"/><path d="M68.491 175.844a.193.193 0 0 0-.193-.193H66.99a.193.193 0 1 0 0 .386h1.31a.193.193 0 0 0 .192-.193Z" fill="#3f3679" fill-rule="evenodd" data-name="Path 7962"/><path d="M71.136 175.651h-1.309a.193.193 0 1 0 0 .386h1.309a.193.193 0 1 0 0-.386Z" fill="#3f3679" fill-rule="evenodd" data-name="Path 7963"/><path d="M71.195 190.658h-20.39a.193.193 0 0 0 0 .386h20.39a.193.193 0 1 0 0-.386Z" fill="#3f3679" fill-rule="evenodd" data-name="Path 7964"/><path d="M74.393 190.658H72.75a.193.193 0 0 0 0 .386h1.642a.193.193 0 1 0 0-.386Z" fill="#3f3679" fill-rule="evenodd" data-name="Path 7965"/><path d="M49.249 190.658h-1.642a.193.193 0 0 0 0 .386h1.642a.193.193 0 1 0 0-.386Z" fill="#3f3679" fill-rule="evenodd" data-name="Path 7966"/><path d="M61 175.41a.193.193 0 0 0 .193-.194v-1.497a.193.193 0 0 0-.386 0v1.497c0 .107.086.193.193.193Z" fill="#3f3679" fill-rule="evenodd" data-name="Path 7967"/><path d="M61.735 176.795c-1.034.167-1.784-.631-1.796-.645a.193.193 0 0 0-.285.26c.032.036.736.795 1.79.795.113 0 .231-.009.353-.029a.193.193 0 0 0-.062-.38Z" fill="#3f3679" fill-rule="evenodd" data-name="Path 7968"/><path d="M59.886 171.867a.193.193 0 0 0-.193-.194h-2.239a.193.193 0 1 0 0 .387h2.239a.193.193 0 0 0 .193-.193Z" fill="#3f3679" fill-rule="evenodd" data-name="Path 7969"/><path d="M64.545 171.673h-2.238a.193.193 0 1 0 0 .387h2.238a.193.193 0 1 0 0-.387Z" fill="#3f3679" fill-rule="evenodd" data-name="Path 7970"/></g></g></svg>