<svg xmlns="http://www.w3.org/2000/svg" width="18" height="13.5" viewBox="43 501 18 13.5"><g data-name="coupon"><g data-name="Path 429"><path d="M59.312 514.5H44.688A1.69 1.69 0 0 1 43 512.813V510c0-.31.252-.563.563-.563a1.69 1.69 0 0 0 1.687-1.687 1.69 1.69 0 0 0-1.687-1.688.562.562 0 0 1-.563-.562v-2.812c0-.931.757-1.688 1.688-1.688h14.624c.931 0 1.688.757 1.688 1.688v2.812c0 .31-.252.563-.563.563a1.69 1.69 0 0 0-1.687 1.687c0 .93.757 1.688 1.687 1.688.311 0 .563.251.563.562v2.813a1.69 1.69 0 0 1-1.688 1.687Zm-15.187-3.994v2.307c0 .31.252.562.563.562h14.624c.31 0 .563-.252.563-.562v-2.307a2.817 2.817 0 0 1-2.25-2.756c0-1.358.968-2.494 2.25-2.756v-2.306a.563.563 0 0 0-.563-.563H44.688a.563.563 0 0 0-.563.563v2.306a2.817 2.817 0 0 1 2.25 2.756 2.817 2.817 0 0 1-2.25 2.756Z" fill="#0c61cb" fill-rule="evenodd"/><path d="M59.312 514.5H44.688A1.69 1.69 0 0 1 43 512.813V510c0-.31.252-.563.563-.563a1.69 1.69 0 0 0 1.687-1.687 1.69 1.69 0 0 0-1.687-1.688.562.562 0 0 1-.563-.562v-2.812c0-.931.757-1.688 1.688-1.688h14.624c.931 0 1.688.757 1.688 1.688v2.812c0 .31-.252.563-.563.563a1.69 1.69 0 0 0-1.687 1.687c0 .93.757 1.688 1.687 1.688.311 0 .563.251.563.562v2.813a1.69 1.69 0 0 1-1.688 1.687Zm-15.187-3.994v2.307c0 .31.252.562.563.562h14.624c.31 0 .563-.252.563-.562v-2.307a2.817 2.817 0 0 1-2.25-2.756c0-1.358.968-2.494 2.25-2.756v-2.306a.563.563 0 0 0-.563-.563H44.688a.563.563 0 0 0-.563.563v2.306a2.817 2.817 0 0 1 2.25 2.756 2.817 2.817 0 0 1-2.25 2.756Z" stroke-linejoin="round" stroke-linecap="round" stroke-width=".6" stroke="#0c61cb" fill="transparent"/></g><g data-name="Path 430"><path d="m49.786 512.045 3.374-8.997 1.053.395-3.374 8.997-1.053-.395Z" fill="#0c61cb" fill-rule="evenodd"/><path d="m49.786 512.045 3.374-8.997 1.053.395-3.374 8.997-1.053-.395Z" stroke-linejoin="round" stroke-linecap="round" stroke-width=".59979" stroke="#0c61cb" fill="transparent"/></g><g data-name="path-1_20_"><path d="M49.339 507.94a1.69 1.69 0 0 1-1.688-1.688c0-.93.757-1.688 1.688-1.688.93 0 1.687.757 1.687 1.688a1.69 1.69 0 0 1-1.687 1.687Zm0-2.25a.563.563 0 1 0 0 1.125.563.563 0 0 0 0-1.126Z" fill="#0c61cb" fill-rule="evenodd"/><path d="M49.339 507.94a1.69 1.69 0 0 1-1.688-1.688c0-.93.757-1.688 1.688-1.688.93 0 1.687.757 1.687 1.688a1.69 1.69 0 0 1-1.687 1.687Zm0-2.25a.563.563 0 1 0 0 1.125.563.563 0 0 0 0-1.126Z" stroke-linejoin="round" stroke-linecap="round" stroke-width=".6" stroke="#0c61cb" fill="transparent"/></g><g data-name="path-1_19_"><path d="M55.153 511.428a1.69 1.69 0 0 1-1.687-1.688c0-.93.757-1.687 1.687-1.687s1.688.757 1.688 1.687a1.69 1.69 0 0 1-1.688 1.688Zm0-2.25a.563.563 0 1 0 .001 1.126.563.563 0 0 0 0-1.126Z" fill="#0c61cb" fill-rule="evenodd"/><path d="M55.153 511.428a1.69 1.69 0 0 1-1.687-1.688c0-.93.757-1.687 1.687-1.687s1.688.757 1.688 1.687a1.69 1.69 0 0 1-1.688 1.688Zm0-2.25a.563.563 0 1 0 .001 1.126.563.563 0 0 0 0-1.126Z" stroke-linejoin="round" stroke-linecap="round" stroke-width=".6" stroke="#0c61cb" fill="transparent"/></g></g></svg>