<svg xmlns="http://www.w3.org/2000/svg" width="16" height="10.667"><path d="M16 5.333a.889.889 0 1 0-1.778 0v2.042l-3.77-4.398a.888.888 0 0 0-1.132-.183L5.53 5.068 1.573.32A.89.89 0 0 0 .205 1.458L4.65 6.79a.889.889 0 0 0 1.141.193l3.8-2.28 3.588 4.185h-2.512a.889.889 0 1 0 0 1.778h4.444a.87.87 0 0 0 .324-.066c.043-.017.077-.046.117-.068.046-.027.096-.044.137-.08.009-.008.012-.018.02-.026.05-.045.083-.1.12-.153.03-.043.064-.08.085-.127.022-.047.03-.1.042-.15.016-.062.035-.122.037-.186 0-.012.007-.022.007-.033V5.333Z" fill="#fff" fill-rule="evenodd" data-name="๐จ Icon ะกolor"/></svg>