<svg xmlns="http://www.w3.org/2000/svg" width="16" height="10.666"><path d="M15.993.856c-.002-.064-.02-.124-.037-.186-.014-.051-.02-.104-.042-.15-.02-.047-.055-.084-.086-.127-.037-.054-.07-.109-.119-.153-.008-.008-.011-.019-.02-.026-.032-.027-.071-.037-.106-.06-.053-.034-.106-.07-.166-.093-.06-.021-.118-.026-.18-.035C15.195.02 15.157 0 15.111 0h-4.444a.889.889 0 1 0 0 1.778h2.512L9.59 5.963l-3.8-2.28a.886.886 0 0 0-1.14.192L.205 9.21a.89.89 0 0 0 1.366 1.137l3.957-4.748L9.32 7.874a.89.89 0 0 0 1.133-.184l3.77-4.399v2.042a.889.889 0 1 0 1.777 0V.89c0-.012-.006-.021-.007-.033" fill="#fff" fill-rule="evenodd" data-name="๐จ Icon ะกolor"/></svg>