<svg xmlns="http://www.w3.org/2000/svg" width="24" height="22.4"><g data-name="024---Location-Points"><g data-name="Shape"><path d="M12 2a4.8 4.8 0 1 0 0 9.6A4.8 4.8 0 0 0 12 2Zm0 8.8a4 4 0 1 1 0-8 4 4 0 0 1 0 8Z" fill="#0c61cb" fill-rule="evenodd"/><path d="M12 2a4.8 4.8 0 1 0 0 9.6A4.8 4.8 0 0 0 12 2Zm0 8.8a4 4 0 1 1 0-8 4 4 0 0 1 0 8Z" stroke-linejoin="round" stroke-linecap="round" stroke="#0c61cb" fill="transparent"/></g><g data-name="Shape"><path d="M19.2 3.2a4.66 4.66 0 0 0-1.338.195 6.758 6.758 0 0 0-11.724 0A4.663 4.663 0 0 0 4.8 3.2 4.84 4.84 0 0 0 0 8.052a9.27 9.27 0 0 0 1.553 5.082l.023.035A12.136 12.136 0 0 0 4.4 16.205V18.4h-.8a.4.4 0 0 0 0 .8H6a.4.4 0 0 0 0-.8h-.8v-2.195a12.1 12.1 0 0 0 2.18-2.142l.05.08.033.049a17.362 17.362 0 0 0 4.137 4.415V21.6h-1.2a.4.4 0 0 0 0 .8h3.2a.4.4 0 0 0 0-.8h-1.2v-2.993a17.346 17.346 0 0 0 4.135-4.413l.034-.052c.019-.027.033-.052.051-.08a12.1 12.1 0 0 0 2.18 2.143V18.4H18a.4.4 0 0 0 0 .8h2.4a.4.4 0 1 0 0-.8h-.8v-2.195a12.116 12.116 0 0 0 2.821-3.032l.026-.04A9.277 9.277 0 0 0 24 8.052a4.853 4.853 0 0 0-.422-1.99A4.803 4.803 0 0 0 19.2 3.2Zm-.513 2.457c.16-.036.322-.055.485-.057a2.4 2.4 0 1 1 0 4.8c-.287 0-.572-.052-.84-.155.308-1.102.466-2.24.468-3.384a6.915 6.915 0 0 0-.113-1.204ZM5.662 10.224a2.302 2.302 0 0 1-.89.176 2.4 2.4 0 1 1 0-4.8c.182.002.363.025.539.07A6.925 6.925 0 0 0 5.2 6.86c.002 1.137.157 2.268.462 3.363Zm-.862 5.28a11.536 11.536 0 0 1-2.555-2.773l-.028-.04c-.025-.04-.05-.074-.077-.12A8.488 8.488 0 0 1 .8 8.05a4.061 4.061 0 0 1 .354-1.665A4.002 4.002 0 0 1 4.8 4c.328 0 .654.042.97.124-.107.248-.2.503-.276.762a3.12 3.12 0 0 0-.722-.086 3.2 3.2 0 1 0 0 6.4 3.144 3.144 0 0 0 1.126-.213 14.07 14.07 0 0 0 1.044 2.33A11.636 11.636 0 0 1 4.8 15.504Zm11.104-1.806-.04.058A16.888 16.888 0 0 1 12 17.907a16.906 16.906 0 0 1-3.868-4.154l-.036-.055c-.038-.057-.076-.112-.117-.185A12.486 12.486 0 0 1 6 6.861a6 6 0 0 1 12 0 12.504 12.504 0 0 1-1.986 6.665c-.034.06-.072.114-.11.172Zm5.953-1.124c-.024.04-.049.076-.074.115l-.03.045a11.515 11.515 0 0 1-2.553 2.77 11.588 11.588 0 0 1-2.141-2.187c.414-.738.76-1.511 1.037-2.31.344.126.709.191 1.076.193a3.2 3.2 0 1 0 0-6.4c-.225 0-.45.026-.669.075a6.62 6.62 0 0 0-.274-.751c.317-.082.643-.124.971-.124a4.003 4.003 0 0 1 3.647 2.387c.234.523.354 1.091.353 1.665a8.495 8.495 0 0 1-1.343 4.522Z" fill="#0c61cb" fill-rule="evenodd"/><path d="M19.2 3.2a4.66 4.66 0 0 0-1.338.195 6.758 6.758 0 0 0-11.724 0A4.663 4.663 0 0 0 4.8 3.2 4.84 4.84 0 0 0 0 8.052a9.27 9.27 0 0 0 1.553 5.082l.023.035A12.136 12.136 0 0 0 4.4 16.205V18.4h-.8a.4.4 0 0 0 0 .8H6a.4.4 0 0 0 0-.8h-.8v-2.195a12.1 12.1 0 0 0 2.18-2.142l.05.08.033.049a17.362 17.362 0 0 0 4.137 4.415V21.6h-1.2a.4.4 0 0 0 0 .8h3.2a.4.4 0 0 0 0-.8h-1.2v-2.993a17.346 17.346 0 0 0 4.135-4.413l.034-.052c.019-.027.033-.052.051-.08a12.1 12.1 0 0 0 2.18 2.143V18.4H18a.4.4 0 0 0 0 .8h2.4a.4.4 0 1 0 0-.8h-.8v-2.195a12.116 12.116 0 0 0 2.821-3.032l.026-.04A9.277 9.277 0 0 0 24 8.052a4.853 4.853 0 0 0-.422-1.99A4.803 4.803 0 0 0 19.2 3.2Zm-.513 2.457c.16-.036.322-.055.485-.057a2.4 2.4 0 1 1 0 4.8c-.287 0-.572-.052-.84-.155.308-1.102.466-2.24.468-3.384a6.915 6.915 0 0 0-.113-1.204ZM5.662 10.224a2.302 2.302 0 0 1-.89.176 2.4 2.4 0 1 1 0-4.8c.182.002.363.025.539.07A6.925 6.925 0 0 0 5.2 6.86c.002 1.137.157 2.268.462 3.363Zm-.862 5.28a11.536 11.536 0 0 1-2.555-2.773l-.028-.04c-.025-.04-.05-.074-.077-.12A8.488 8.488 0 0 1 .8 8.05a4.061 4.061 0 0 1 .354-1.665A4.002 4.002 0 0 1 4.8 4c.328 0 .654.042.97.124-.107.248-.2.503-.276.762a3.12 3.12 0 0 0-.722-.086 3.2 3.2 0 1 0 0 6.4 3.144 3.144 0 0 0 1.126-.213 14.07 14.07 0 0 0 1.044 2.33A11.636 11.636 0 0 1 4.8 15.504Zm11.104-1.806-.04.058A16.888 16.888 0 0 1 12 17.907a16.906 16.906 0 0 1-3.868-4.154l-.036-.055c-.038-.057-.076-.112-.117-.185A12.486 12.486 0 0 1 6 6.861a6 6 0 0 1 12 0 12.504 12.504 0 0 1-1.986 6.665c-.034.06-.072.114-.11.172Zm5.953-1.124c-.024.04-.049.076-.074.115l-.03.045a11.515 11.515 0 0 1-2.553 2.77 11.588 11.588 0 0 1-2.141-2.187c.414-.738.76-1.511 1.037-2.31.344.126.709.191 1.076.193a3.2 3.2 0 1 0 0-6.4c-.225 0-.45.026-.669.075a6.62 6.62 0 0 0-.274-.751c.317-.082.643-.124.971-.124a4.003 4.003 0 0 1 3.647 2.387c.234.523.354 1.091.353 1.665a8.495 8.495 0 0 1-1.343 4.522Z" stroke-linejoin="round" stroke-linecap="round" stroke="#0c61cb" fill="transparent"/></g></g></svg>