<svg xmlns="http://www.w3.org/2000/svg" width="53.042" height="51.18" viewBox="180 34.424 53.042 51.18"><g data-name="Group 9287"><path d="M205.59 34.424h.883a25.59 25.59 0 0 1 25.59 25.59 25.59 25.59 0 0 1-25.59 25.59h-.883A25.59 25.59 0 0 1 180 60.015a25.59 25.59 0 0 1 25.59-25.59z" fill="#f71313" fill-rule="evenodd" data-name="Rectangle 3"/><path d="M192 34.424h28.063a12 12 0 0 1 12 12v27.18a12 12 0 0 1-12 12H192a12 12 0 0 1-12-12v-27.18a12 12 0 0 1 12-12z" fill="#fff" fill-rule="evenodd" data-name="Rectangle 4"/><path d="m184.448 49.289 13.535 20.518 8.363-16.208 5.604 23.537 21.092-37.504" stroke-linejoin="round" stroke-linecap="round" stroke-width="6" stroke="#0c61cb" fill="transparent" data-name="Path 1"/><path d="M184.412 50.65a1.324 1.324 0 1 1 0 .1z" fill="#fff" fill-rule="evenodd" data-name="Ellipse 1"/><path d="M196.228 69.18a1.862 1.862 0 1 1 0 .1z" fill="#fff" fill-rule="evenodd" data-name="Ellipse 2"/><path d="M204.708 54.448a1.496 1.593 0 1 1 0 .1z" fill="#fff" fill-rule="evenodd" data-name="Ellipse 3"/><path d="M210.54 76.68a1.593 1.765 0 1 1 0 .1z" fill="#fff" fill-rule="evenodd" data-name="Ellipse 4"/></g></svg>