<svg xmlns="http://www.w3.org/2000/svg" width="24" height="24" viewBox="-0.5 -0.5 24 24"><g data-name="Path 3834"><path d="M22.91 12.1V8.729a2.177 2.177 0 0 0-2.01-2.165l-3.132-5.471a2.156 2.156 0 0 0-2.961-.798L4.067 6.546H2.183A2.184 2.184 0 0 0 0 8.728v13.09C0 23.023.978 24 2.182 24h18.545a2.184 2.184 0 0 0 2.182-2.181v-3.374A1.634 1.634 0 0 0 24 16.91v-3.272c0-.71-.457-1.31-1.09-1.536Zm-3.277-5.554H14.88l3.566-2.076 1.188 2.076Zm-1.73-3.023L12.71 6.546h-2.154l6.807-3.963.539.94Zm-2.547-2.286c.246-.145.535-.183.81-.11.279.075.51.255.655.507l.001.002-8.433 4.91H6.236l9.12-5.31Zm6.462 20.582c0 .6-.49 1.09-1.09 1.09H2.181c-.602 0-1.091-.49-1.091-1.09V8.728c0-.602.49-1.091 1.09-1.091h18.546c.602 0 1.091.49 1.091 1.09V12h-3.273a3.276 3.276 0 0 0-3.272 3.273 3.276 3.276 0 0 0 3.272 3.273h3.273v3.273Zm1.091-4.91c0 .301-.244.546-.545.546h-3.819a2.184 2.184 0 0 1-2.181-2.182c0-1.203.978-2.182 2.181-2.182h3.819c.3 0 .545.245.545.546v3.272Z" fill="#fff" fill-rule="evenodd"/><path d="M22.91 12.1V8.729a2.177 2.177 0 0 0-2.01-2.165l-3.132-5.471a2.156 2.156 0 0 0-2.961-.798L4.067 6.546H2.183A2.184 2.184 0 0 0 0 8.728v13.09C0 23.023.978 24 2.182 24h18.545a2.184 2.184 0 0 0 2.182-2.181v-3.374A1.634 1.634 0 0 0 24 16.91v-3.272c0-.71-.457-1.31-1.09-1.536Zm-3.277-5.554H14.88l3.566-2.076 1.188 2.076Zm-1.73-3.023L12.71 6.546h-2.154l6.807-3.963.539.94Zm-2.547-2.286c.246-.145.535-.183.81-.11.279.075.51.255.655.507l.001.002-8.433 4.91H6.236l9.12-5.31Zm6.462 20.582c0 .6-.49 1.09-1.09 1.09H2.181c-.602 0-1.091-.49-1.091-1.09V8.728c0-.602.49-1.091 1.09-1.091h18.546c.602 0 1.091.49 1.091 1.09V12h-3.273a3.276 3.276 0 0 0-3.272 3.273 3.276 3.276 0 0 0 3.272 3.273h3.273v3.273Zm1.091-4.91c0 .301-.244.546-.545.546h-3.819a2.184 2.184 0 0 1-2.181-2.182c0-1.203.978-2.182 2.181-2.182h3.819c.3 0 .545.245.545.546v3.272Z" stroke-linejoin="round" stroke-linecap="round" stroke="#fff" fill="transparent"/></g></svg>