<svg xmlns="http://www.w3.org/2000/svg" width="133.989" height="133.169"><g data-name="Group 9567"><path d="M131.087.6a4.93 4.93 0 0 0-5.288.801l-13.794 12.204-13.812-12.35a4.924 4.924 0 0 0-6.568 0L77.832 13.59 64.038 1.255a4.922 4.922 0 0 0-6.567 0L43.66 13.605 29.865 1.4a4.926 4.926 0 0 0-8.19 3.69v87.684H4.926A4.926 4.926 0 0 0 0 97.701v11.987c0 12.947 10.534 23.481 23.48 23.481v-9.852c-7.515 0-13.628-6.115-13.628-13.629v-7.06h77.175v7.06c0 12.947 10.534 23.481 23.481 23.481 12.948 0 23.481-10.533 23.481-23.48V5.09A4.925 4.925 0 0 0 131.087.6Zm-6.95 109.088c0 7.514-6.114 13.629-13.628 13.629s-13.63-6.115-13.63-13.629V97.701a4.926 4.926 0 0 0-4.925-4.926H31.527v-76.75l8.888 7.864a4.925 4.925 0 0 0 6.547-.018l13.793-12.335 13.793 12.333a4.924 4.924 0 0 0 6.568 0l13.795-12.335 13.793 12.335a4.927 4.927 0 0 0 6.547.018l8.886-7.862v93.663Z" fill="#b0bece" fill-rule="evenodd" data-name="Path 7989"/></g></svg>