<svg xmlns="http://www.w3.org/2000/svg" width="24" height="23.999"><path d="M11.821 23.999a2.411 2.411 0 0 1-1.711-.707l-8.556-8.557a1.325 1.325 0 0 1-.386-.819L.006 1.456A1.328 1.328 0 0 1 .39.391 1.31 1.31 0 0 1 1.458.007l12.458 1.161c.31.03.6.166.819.384l8.556 8.557c.457.458.709 1.067.709 1.713 0 .648-.252 1.257-.71 1.714l-9.755 9.755a2.407 2.407 0 0 1-1.714.708ZM2.809 2.81l.97 10.379 8.042 8.044 9.412-9.41-8.044-8.044-10.38-.969Zm5.858 7.857a1.987 1.987 0 0 1-1.414-.586 1.985 1.985 0 0 1-.586-1.414c0-.535.208-1.037.586-1.414.377-.378.88-.586 1.414-.586.534 0 1.036.208 1.414.586.378.377.586.88.586 1.414 0 .535-.208 1.037-.586 1.414-.378.378-.88.586-1.414.586Z" fill="#0c61cb" fill-rule="evenodd" data-name="๐จ Icon ะกolor"/></svg>