<svg xmlns="http://www.w3.org/2000/svg" width="385.408" height="344.514" viewBox="478.813 2049.486 385.408 344.514"><g data-name="onboarding3"><g data-name="Group 9753"><path d="M531.065 2207.447h-1.439a3.82 3.82 0 0 0-3.769-3.217c-.306 0-.603.04-.888.108a5.427 5.427 0 0 0-4.742-2.79 5.43 5.43 0 0 0-5.43 5.43c0 .158.011.315.025.47h-.473a3.304 3.304 0 1 0 0 6.608h16.716a3.305 3.305 0 0 0 0-6.609" fill="#3da2ff" fill-rule="evenodd" data-name="path642"/><path d="M819.912 2138.925h-1.44a3.82 3.82 0 0 0-3.769-3.218c-.306 0-.603.04-.888.108a5.427 5.427 0 0 0-4.741-2.789 5.43 5.43 0 0 0-5.43 5.43c0 .158.01.314.024.469h-.473a3.304 3.304 0 1 0 0 6.609h16.717a3.305 3.305 0 0 0 0-6.61" fill="#3da2ff" fill-rule="evenodd" data-name="path646"/><path d="M819.313 2243.405h-1.44a3.819 3.819 0 0 0-3.768-3.218c-.306 0-.603.04-.888.108a5.429 5.429 0 0 0-10.171 2.64c0 .158.01.314.023.47h-.473a3.304 3.304 0 1 0 0 6.609h16.717a3.304 3.304 0 0 0 0-6.61" fill="#3da2ff" fill-rule="evenodd" data-name="path650"/><path d="M795 2187.01h-2.717c-.548-3.439-3.519-6.07-7.112-6.07-.578 0-1.138.074-1.676.203a10.238 10.238 0 0 0-8.95-5.263c-5.659 0-10.246 4.586-10.246 10.246 0 .299.02.593.045.885h-.893a6.236 6.236 0 0 0 0 12.473H795a6.237 6.237 0 1 0 0-12.473Z" stroke-linejoin="round" stroke-linecap="round" stroke-width="1.868" stroke="#3da2ff" fill="transparent" data-name="path654"/><path d="M779.454 2079.226h-2.718c-.546-3.44-3.518-6.071-7.111-6.071-.578 0-1.137.074-1.676.203a10.238 10.238 0 0 0-8.95-5.263c-5.658 0-10.246 4.587-10.246 10.246 0 .3.02.593.045.885h-.893a6.237 6.237 0 0 0 0 12.473h31.549a6.237 6.237 0 1 0 0-12.473Z" stroke-linejoin="round" stroke-linecap="round" stroke-width="1.868" stroke="#3da2ff" fill="transparent" data-name="path658"/><path d="M547.506 2089.405h-2.331a6.184 6.184 0 0 0-6.105-5.212 6.19 6.19 0 0 0-1.438.175 8.789 8.789 0 0 0-7.682-4.518 8.794 8.794 0 0 0-8.794 8.795c0 .256.016.51.038.76h-.766a5.353 5.353 0 0 0 0 10.706h27.078a5.353 5.353 0 0 0 0-10.706Z" stroke-linejoin="round" stroke-linecap="round" stroke-width="1.868" stroke="#3da2ff" fill="transparent" data-name="path662"/><path d="M653.712 2077.886h-1.44a3.82 3.82 0 0 0-3.768-3.218c-.306 0-.603.04-.888.108a5.427 5.427 0 0 0-4.742-2.789 5.43 5.43 0 0 0-5.43 5.43c0 .158.011.314.025.469h-.473a3.305 3.305 0 0 0 0 6.608h16.716a3.304 3.304 0 1 0 0-6.608" fill="#3da2ff" fill-rule="evenodd" data-name="path666"/><path d="M765.532 2057.037h14.434" fill="#3da2ff" fill-rule="evenodd" data-name="path670"/><path d="M765.533 2057.669h14.434a.63.63 0 0 0 0-1.263h-14.434a.631.631 0 1 0 0 1.263" fill="#3da2ff" fill-rule="evenodd" data-name="path674"/><path d="M758.118 2057.04h2.821" fill="#3da2ff" fill-rule="evenodd" data-name="path678"/><path d="M758.118 2057.671h2.82a.632.632 0 0 0 0-1.263h-2.82a.631.631 0 1 0 0 1.263" fill="#3da2ff" fill-rule="evenodd" data-name="path682"/><path d="M778.668 2218.262c0-.349.282-.632.632-.632h1.804a.63.63 0 1 1 0 1.263H779.3a.632.632 0 0 1-.632-.631m-6.315 0c0-.349.284-.632.631-.632h3.158a.631.631 0 0 1 0 1.263h-3.158a.632.632 0 0 1-.63-.631m-6.315 0a.63.63 0 0 1 .63-.632h3.159a.631.631 0 0 1 0 1.263h-3.158a.63.63 0 0 1-.63-.631" fill="#3da2ff" fill-rule="evenodd" data-name="path686"/><path d="M773.586 2140.713a1.286 1.286 0 0 0 2.572 0 1.286 1.286 0 0 0-2.572 0m-1.262 0a2.55 2.55 0 0 1 2.547-2.548 2.552 2.552 0 0 1 2.55 2.548 2.552 2.552 0 0 1-2.55 2.549 2.55 2.55 0 0 1-2.547-2.549" fill="#3da2ff" fill-rule="evenodd" data-name="path690"/><path d="M829.803 2197.238v1.465" fill="#3da2ff" fill-rule="evenodd" data-name="path694"/><path d="M829.803 2199.334a.631.631 0 0 0 .632-.632v-1.464a.631.631 0 0 0-1.264 0v1.464c0 .35.283.632.632.632" fill="#3da2ff" fill-rule="evenodd" data-name="path698"/><path d="M826.685 2200.172h1.466" fill="#3da2ff" fill-rule="evenodd" data-name="path702"/><path d="M826.686 2200.804h1.464a.631.631 0 0 0 0-1.264h-1.464a.632.632 0 0 0 0 1.264" fill="#3da2ff" fill-rule="evenodd" data-name="path706"/><path d="M829.803 2203.207v-1.465" fill="#3da2ff" fill-rule="evenodd" data-name="path710"/><path d="M829.803 2203.838a.631.631 0 0 0 .632-.631v-1.464a.631.631 0 1 0-1.264 0v1.464c0 .348.283.631.632.631" fill="#3da2ff" fill-rule="evenodd" data-name="path714"/><path d="M832.92 2200.273h-1.464" fill="#3da2ff" fill-rule="evenodd" data-name="path718"/><path d="M831.456 2200.904h1.465a.631.631 0 0 0 0-1.263h-1.465a.631.631 0 0 0 0 1.263" fill="#3da2ff" fill-rule="evenodd" data-name="path722"/><path d="M799.355 2272.017v1.465" fill="#3da2ff" fill-rule="evenodd" data-name="path726"/><path d="M799.355 2274.113c.35 0 .632-.283.632-.632v-1.464a.632.632 0 1 0-1.263 0v1.464c0 .349.283.632.631.632" fill="#3da2ff" fill-rule="evenodd" data-name="path730"/><path d="M796.238 2274.951h1.465" fill="#3da2ff" fill-rule="evenodd" data-name="path734"/><path d="M796.237 2275.582h1.466a.631.631 0 0 0 0-1.263h-1.466a.632.632 0 1 0 0 1.263" fill="#3da2ff" fill-rule="evenodd" data-name="path738"/><path d="M799.355 2277.985v-1.464" fill="#3da2ff" fill-rule="evenodd" data-name="path742"/><path d="M799.355 2278.616c.35 0 .632-.282.632-.63v-1.465a.632.632 0 1 0-1.263 0v1.464c0 .349.283.631.631.631" fill="#3da2ff" fill-rule="evenodd" data-name="path746"/><path d="M802.473 2275.052h-1.465" fill="#3da2ff" fill-rule="evenodd" data-name="path750"/><path d="M801.008 2275.682h1.464a.631.631 0 1 0 0-1.262h-1.464a.632.632 0 1 0 0 1.262" fill="#3da2ff" fill-rule="evenodd" data-name="path754"/><path d="M558.775 2215.836h14.434a.631.631 0 0 0 0-1.263h-14.434a.631.631 0 0 0 0 1.263" fill="#3da2ff" fill-rule="evenodd" data-name="path758"/><path d="M577.803 2215.838h2.821a.631.631 0 0 0 0-1.263h-2.82a.632.632 0 1 0 0 1.263" fill="#3da2ff" fill-rule="evenodd" data-name="path762"/><path d="M576.834 2210.807c0-.349.283-.632.631-.632h3.157a.631.631 0 1 1 0 1.264h-3.157a.631.631 0 0 1-.631-.632m-6.314 0c0-.349.282-.632.63-.632h3.158a.63.63 0 0 1 0 1.264h-3.157a.631.631 0 0 1-.631-.632m-4.963 0c0-.349.283-.632.63-.632h1.807a.632.632 0 0 1 0 1.264h-1.806a.631.631 0 0 1-.63-.632" fill="#3da2ff" fill-rule="evenodd" data-name="path766"/><path d="M556.08 2202.81c.35 0 .632-.283.632-.631v-1.465a.632.632 0 0 0-1.263 0v1.465c0 .348.283.631.631.631" fill="#3da2ff" fill-rule="evenodd" data-name="path770"/><path d="M557.733 2204.28h1.464a.631.631 0 0 0 0-1.264h-1.464a.632.632 0 1 0 0 1.263" fill="#3da2ff" fill-rule="evenodd" data-name="path774"/><path d="M556.08 2207.314c.35 0 .632-.283.632-.631v-1.465a.631.631 0 0 0-1.263 0v1.465c0 .348.283.631.631.631" fill="#3da2ff" fill-rule="evenodd" data-name="path778"/><path d="M552.963 2204.38h1.464a.632.632 0 1 0 0-1.263h-1.464a.633.633 0 0 0 0 1.263" fill="#3da2ff" fill-rule="evenodd" data-name="path782"/><path d="M527.506 2264.034c.35 0 .632-.283.632-.632v-1.464a.632.632 0 1 0-1.263 0v1.464c0 .35.283.632.631.632" fill="#3da2ff" fill-rule="evenodd" data-name="path786"/><path d="M529.16 2265.503h1.464a.631.631 0 1 0 0-1.262h-1.465a.631.631 0 1 0 0 1.262" fill="#3da2ff" fill-rule="evenodd" data-name="path790"/><path d="M527.506 2268.537c.35 0 .632-.282.632-.63v-1.465a.632.632 0 1 0-1.263 0v1.464c0 .349.283.631.631.631" fill="#3da2ff" fill-rule="evenodd" data-name="path794"/><path d="M524.389 2265.604h1.465a.632.632 0 0 0 0-1.263h-1.465a.631.631 0 1 0 0 1.263" fill="#3da2ff" fill-rule="evenodd" data-name="path798"/><path d="M641.768 2106.278a1.287 1.287 0 0 0-2.573 0 1.287 1.287 0 0 0 2.572 0m1.263 0a2.551 2.551 0 0 1-2.548 2.549 2.552 2.552 0 0 1-2.549-2.549 2.552 2.552 0 0 1 2.55-2.548 2.551 2.551 0 0 1 2.547 2.548" fill="#3da2ff" fill-rule="evenodd" data-name="path802"/><path d="M820.727 2071.67a2.23 2.23 0 1 0-4.46 0 2.23 2.23 0 0 0 4.46 0" fill="#3da2ff" fill-rule="evenodd" data-name="path834"/><path d="M518.075 2230.165a2.23 2.23 0 1 0-4.46 0 2.23 2.23 0 0 0 4.46 0" fill="#3da2ff" fill-rule="evenodd" data-name="path838"/><path d="M532.48 2137.163h-14.435a.63.63 0 0 0 0 1.263h14.435a.632.632 0 0 0 0-1.263" fill="#3da2ff" fill-rule="evenodd" data-name="path846"/><path d="M513.451 2137.16h-2.82a.631.631 0 0 0 0 1.264h2.82a.632.632 0 1 0 0-1.263" fill="#3da2ff" fill-rule="evenodd" data-name="path850"/><path d="M514.421 2142.193a.631.631 0 0 1-.632.63h-3.157a.632.632 0 1 1 0-1.262h3.157c.35 0 .632.282.632.632m6.314 0a.631.631 0 0 1-.63.63h-3.158a.63.63 0 1 1 0-1.262h3.157c.348 0 .63.282.63.632m4.964 0a.632.632 0 0 1-.631.63h-1.806a.631.631 0 0 1 0-1.262h1.806c.347 0 .63.282.63.632" fill="#3da2ff" fill-rule="evenodd" data-name="path854"/><path d="M535.174 2150.189a.632.632 0 0 0-.632.632v1.464a.632.632 0 1 0 1.264 0v-1.464a.632.632 0 0 0-.632-.632" fill="#3da2ff" fill-rule="evenodd" data-name="path858"/><path d="M533.522 2148.72h-1.465a.631.631 0 0 0 0 1.263h1.465a.631.631 0 1 0 0-1.263" fill="#3da2ff" fill-rule="evenodd" data-name="path862"/><path d="M535.174 2145.685a.631.631 0 0 0-.632.631v1.464a.632.632 0 1 0 1.264 0v-1.464a.631.631 0 0 0-.632-.63" fill="#3da2ff" fill-rule="evenodd" data-name="path866"/><path d="M538.292 2148.619h-1.465a.631.631 0 0 0 0 1.263h1.465a.631.631 0 1 0 0-1.263" fill="#3da2ff" fill-rule="evenodd" data-name="path870"/><path d="M806.728 2126.335h14.434a.631.631 0 0 0 0-1.262h-14.434a.632.632 0 1 0 0 1.262" fill="#3da2ff" fill-rule="evenodd" data-name="path874"/><path d="M825.756 2126.337h2.82a.632.632 0 0 0 0-1.262h-2.82a.631.631 0 1 0 0 1.262" fill="#3da2ff" fill-rule="evenodd" data-name="path878"/><path d="M824.787 2121.306c0-.349.282-.632.631-.632h3.157a.633.633 0 0 1 0 1.263h-3.157a.631.631 0 0 1-.631-.631m-6.315 0c0-.349.283-.632.632-.632h3.156a.631.631 0 0 1 0 1.263h-3.156a.631.631 0 0 1-.632-.631m-4.963 0c0-.349.284-.632.631-.632h1.807a.632.632 0 0 1 0 1.263h-1.807a.632.632 0 0 1-.63-.631" fill="#3da2ff" fill-rule="evenodd" data-name="path882"/><path d="M804.033 2113.31c.35 0 .632-.283.632-.633v-1.464a.632.632 0 1 0-1.263 0v1.464c0 .35.282.632.631.632" fill="#3da2ff" fill-rule="evenodd" data-name="path886"/><path d="M805.685 2114.778h1.465a.631.631 0 0 0 0-1.263h-1.465a.632.632 0 0 0 0 1.263" fill="#3da2ff" fill-rule="evenodd" data-name="path890"/><path d="M804.033 2117.813c.35 0 .632-.282.632-.632v-1.463a.631.631 0 0 0-1.263 0v1.463c0 .35.282.632.631.632" fill="#3da2ff" fill-rule="evenodd" data-name="path894"/><path d="M800.915 2114.88h1.465a.632.632 0 1 0 0-1.264h-1.465a.632.632 0 1 0 0 1.263" fill="#3da2ff" fill-rule="evenodd" data-name="path898"/><path d="M581.172 2077.448h-14.434a.631.631 0 0 0 0 1.263h14.434a.632.632 0 0 0 0-1.263" fill="#3da2ff" fill-rule="evenodd" data-name="path902"/><path d="M588.587 2077.445h-2.821a.631.631 0 0 0 0 1.263h2.82a.632.632 0 1 0 0-1.263" fill="#3da2ff" fill-rule="evenodd" data-name="path906"/></g><g data-name="Path 8026"><path d="M507 2049.486h330c11.046 0 20 8.545 20 19.086v306.341c0 10.542-8.954 19.087-20 19.087H507c-11.046 0-20-8.545-20-19.087v-306.34c0-10.542 8.954-19.087 20-19.087Z" fill="#fff" fill-rule="evenodd"/><path d="M20 0h330c11.046 0 20 8.545 20 19.087v306.34c0 10.542-8.954 19.087-20 19.087H20c-11.046 0-20-8.545-20-19.086V19.087C0 8.545 8.954 0 20 0Z" stroke-linejoin="round" stroke-linecap="round" stroke="#707070" fill="transparent" transform="matrix(.9973 0 0 .9971 487.5 2049.986)"/></g><g data-name="Group 9752"><path d="M478.813 2314.951h385.408v-.192H478.813v.192Z" fill="#ececec" fill-rule="evenodd" data-name="path12"/><g data-name="g14"><g data-name="g16" transform="translate(478.813 2020)" clip-path="url(&quot;#a&quot;)"><g data-name="g22"><path d="M33.85 42.551a4.211 4.211 0 0 0-4.207 4.207v209.223a4.211 4.211 0 0 0 4.207 4.207h148.844a4.212 4.212 0 0 0 4.206-4.207V46.758a4.212 4.212 0 0 0-4.206-4.207H33.85Zm148.844 217.83H33.85a4.405 4.405 0 0 1-4.4-4.4V46.758c0-2.426 1.975-4.4 4.4-4.4h148.844a4.405 4.405 0 0 1 4.4 4.4v209.223c0 2.427-1.975 4.4-4.4 4.4" fill="#ececec" fill-rule="evenodd" data-name="path24"/></g><g data-name="g26"><path d="M200.575 42.551a4.211 4.211 0 0 0-4.206 4.207v209.223a4.211 4.211 0 0 0 4.206 4.207H349.42a4.212 4.212 0 0 0 4.207-4.207V46.758a4.212 4.212 0 0 0-4.207-4.207H200.575Zm148.844 217.83H200.575a4.405 4.405 0 0 1-4.399-4.4V46.758c0-2.426 1.974-4.4 4.4-4.4h148.843c2.426 0 4.4 1.974 4.4 4.4v209.223c0 2.427-1.974 4.4-4.4 4.4" fill="#ececec" fill-rule="evenodd" data-name="path28"/></g><path d="M326.752 307.165h20.04v.193h-20.04v-.193Z" fill="#ececec" fill-rule="evenodd" data-name="path30"/><path d="M239.724 309.257h34.707v.193h-34.707v-.193Z" fill="#ececec" fill-rule="evenodd" data-name="path32"/><path d="M279.12 300.008h46.86v.192h-46.86v-.192Z" fill="#ececec" fill-rule="evenodd" data-name="path34"/><path d="M40.436 301.303h14.826v.193H40.436v-.193Z" fill="#ececec" fill-rule="evenodd" data-name="path36"/><path d="M62.125 301.303h42.62v.193h-42.62v-.193Z" fill="#ececec" fill-rule="evenodd" data-name="path38"/><path d="M130.782 304.558h57.4v.192h-57.4v-.192Z" fill="#ececec" fill-rule="evenodd" data-name="path40"/><path d="M291.83 290.81h6.163V176.688h-6.164V290.81Z" fill="#f0f0f0" fill-rule="evenodd" data-name="path42"/><path d="M262.225 290.81h34.141v3.938h-34.14v-3.938Z" fill="#f0f0f0" fill-rule="evenodd" data-name="path44"/><path d="M291.83 290.81H260.6V176.688h31.23V290.81Z" fill="#f5f5f5" fill-rule="evenodd" data-name="path46"/><path d="M288.5 256.49h-24.57v-20.378h24.57v20.378Z" fill="#f0f0f0" fill-rule="evenodd" data-name="path48"/><path d="M288.5 283.162h-24.57v-20.378h24.57v20.378Z" fill="#f0f0f0" fill-rule="evenodd" data-name="path50"/><g data-name="g52"><path d="M272.941 247.7h6.547a.91.91 0 0 0 .908-.909v-.978a.91.91 0 0 0-.908-.908h-6.547c-.5 0-.909.408-.909.908v.978c0 .5.41.908.91.908" fill="#f5f5f5" fill-rule="evenodd" data-name="path54"/></g><g data-name="g56"><path d="M272.941 274.37h6.547a.91.91 0 0 0 .908-.908v-.978a.91.91 0 0 0-.908-.908h-6.547c-.5 0-.909.409-.909.908v.978c0 .5.41.908.91.908" fill="#f5f5f5" fill-rule="evenodd" data-name="path58"/></g><path d="M288.5 203.359h-24.57V182.98h24.57v20.378Z" fill="#f0f0f0" fill-rule="evenodd" data-name="path60"/><path d="M288.5 229.82h-24.57V209.44h24.57v20.378Z" fill="#f0f0f0" fill-rule="evenodd" data-name="path62"/><g data-name="g64"><path d="M272.941 194.568h6.547a.91.91 0 0 0 .908-.908v-.979a.91.91 0 0 0-.908-.908h-6.547c-.5 0-.909.409-.909.908v.979c0 .499.41.908.91.908" fill="#f5f5f5" fill-rule="evenodd" data-name="path66"/></g><g data-name="g68"><path d="M272.941 221.028h6.547a.91.91 0 0 0 .908-.908v-.978a.91.91 0 0 0-.908-.908h-6.547c-.5 0-.909.408-.909.908v.978c0 .5.41.908.91.908" fill="#f5f5f5" fill-rule="evenodd" data-name="path70"/></g><path d="M326.005 290.81h18.497V176.688h-18.497V290.81Z" fill="#f0f0f0" fill-rule="evenodd" data-name="path72"/><path d="M296.4 290.81h46.209v3.938H296.4v-3.938Z" fill="#f0f0f0" fill-rule="evenodd" data-name="path74"/><path d="M326.005 290.81h-31.23V176.688h31.23V290.81Z" fill="#f5f5f5" fill-rule="evenodd" data-name="path76"/><path d="M322.675 256.49h-24.57v-20.378h24.57v20.378Z" fill="#f0f0f0" fill-rule="evenodd" data-name="path78"/><path d="M322.675 283.162h-24.57v-20.378h24.57v20.378Z" fill="#f0f0f0" fill-rule="evenodd" data-name="path80"/><g data-name="g82"><path d="M307.117 247.7h6.546a.91.91 0 0 0 .908-.909v-.978a.91.91 0 0 0-.908-.908h-6.546c-.5 0-.91.408-.91.908v.978c0 .5.41.908.91.908" fill="#f5f5f5" fill-rule="evenodd" data-name="path84"/></g><g data-name="g86"><path d="M307.117 274.37h6.546a.91.91 0 0 0 .908-.908v-.978a.91.91 0 0 0-.908-.908h-6.546c-.5 0-.91.409-.91.908v.978c0 .5.41.908.91.908" fill="#f5f5f5" fill-rule="evenodd" data-name="path88"/></g><path d="M322.675 203.359h-24.57V182.98h24.57v20.378Z" fill="#f0f0f0" fill-rule="evenodd" data-name="path90"/><path d="M322.675 229.82h-24.57V209.44h24.57v20.378Z" fill="#f0f0f0" fill-rule="evenodd" data-name="path92"/><g data-name="g94"><path d="M307.117 194.568h6.546a.91.91 0 0 0 .908-.908v-.979a.91.91 0 0 0-.908-.908h-6.546c-.5 0-.91.409-.91.908v.979c0 .499.41.908.91.908" fill="#f5f5f5" fill-rule="evenodd" data-name="path96"/></g><g data-name="g98"><path d="M307.117 221.028h6.546a.91.91 0 0 0 .908-.908v-.978a.91.91 0 0 0-.908-.908h-6.546c-.5 0-.91.408-.91.908v.978c0 .5.41.908.91.908" fill="#f5f5f5" fill-rule="evenodd" data-name="path100"/></g><path d="M225.564 152.868H329.4V61.711H225.564v91.157Z" fill="#e7e7e7" fill-rule="evenodd" data-name="path102"/><g data-name="g104"><path d="M214.436 58.165h121.687a1.031 1.031 0 1 1 0 2.062H214.436a1.031 1.031 0 0 1 0-2.062" fill="#e7e7e7" fill-rule="evenodd" data-name="path106"/></g><path d="M221.158 152.868h106.185V61.711H221.158v91.157Z" fill="#f0f0f0" fill-rule="evenodd" data-name="path108"/><g data-name="g110"><path d="M225.564 152.868h103.837v2.92H222.53l3.035-2.92Z" fill="#e7e7e7" fill-rule="evenodd" data-name="path112"/></g><g data-name="g114"><path d="M213.818 152.868h106.184l-3.035 2.92H210.782l3.036-2.92Z" fill="#f0f0f0" fill-rule="evenodd" data-name="path116"/></g><path d="M321.174 67.88h-93.848v78.82h93.848V67.88Z" fill="#fafafa" fill-rule="evenodd" data-name="path118"/><g data-name="g120"><path d="m299.87 146.7-36.204-78.82h-17.09l36.204 78.82h17.09Z" fill="#fff" fill-rule="evenodd" data-name="path122"/></g><g data-name="g124"><path d="m279.108 146.7-36.204-78.82h-6.663l36.204 78.82h6.663Z" fill="#fff" fill-rule="evenodd" data-name="path126"/></g><path d="M228.11 67.88h-.784v78.82h.784V67.88Z" fill="#e7e7e7" fill-rule="evenodd" data-name="path128"/><g data-name="g130"><g data-name="g150"><g data-name="g148" transform="translate(299.87 56.32)" clip-path="url(&quot;#b&quot;)"><path d="M21.232 75.225H31.85V0H21.232v75.225Z" fill="#f0f0f0" fill-rule="evenodd" data-name="path138"/><path d="M17.097 75.225h8.27V0h-8.27v75.225Z" fill="#e7e7e7" fill-rule="evenodd" data-name="path140"/><path d="M10.616 75.225h10.616V0H10.616v75.225Z" fill="#f0f0f0" fill-rule="evenodd" data-name="path142"/><path d="M6.48 75.225h8.271V0h-8.27v75.225Z" fill="#e7e7e7" fill-rule="evenodd" data-name="path144"/><path d="M0 75.225h10.616V0H0v75.225Z" fill="#f0f0f0" fill-rule="evenodd" data-name="path146"/></g></g></g><g data-name="g152"><g data-name="g172"><g data-name="g170" transform="translate(219.042 56.32)" clip-path="url(&quot;#c&quot;)"><path d="M12.235 75.225h6.118V0h-6.118v75.225Z" fill="#f0f0f0" fill-rule="evenodd" data-name="path160"/><path d="M9.853 75.225h4.766V0H9.853v75.225Z" fill="#e7e7e7" fill-rule="evenodd" data-name="path162"/><path d="M6.117 75.225h6.118V0H6.117v75.225Z" fill="#f0f0f0" fill-rule="evenodd" data-name="path164"/><path d="M3.735 75.225H8.5V0H3.735v75.225Z" fill="#e7e7e7" fill-rule="evenodd" data-name="path166"/><path d="M0 75.225h6.118V0H0v75.225Z" fill="#f0f0f0" fill-rule="evenodd" data-name="path168"/></g></g></g><g data-name="g174"><path d="M126.58 116.93h14.697l-1.735-37.262H126.58v37.262Z" fill="#f5f5f5" fill-rule="evenodd" data-name="path176"/></g><g data-name="g178"><path d="m149.574 118.946 3.17 16.552h-3.17l-19.433-16.552h19.433Z" fill="#f5f5f5" fill-rule="evenodd" data-name="path180"/></g><g data-name="g182"><path d="M152.744 118.946v16.552l-19.433-16.552h19.433Z" fill="#e7e7e7" fill-rule="evenodd" data-name="path184"/></g><g data-name="g186"><path d="m73.367 118.946 3.17 16.552h-3.17l-19.433-16.552h19.433Z" fill="#f5f5f5" fill-rule="evenodd" data-name="path188"/></g><g data-name="g190"><path d="M76.537 118.946v16.552l-19.433-16.552h19.433Z" fill="#e7e7e7" fill-rule="evenodd" data-name="path192"/></g><path d="M167.01 119.375h-21.135v-2.388h21.134v2.388Z" fill="#e7e7e7" fill-rule="evenodd" data-name="path194"/><path d="M40.798 119.375h105.077v-2.388H40.798v2.388Z" fill="#f5f5f5" fill-rule="evenodd" data-name="path196"/><g data-name="g198"><path d="M104.992 116.93h31.546l3.9-45.152h-31.546l-3.9 45.152Z" fill="#e7e7e7" fill-rule="evenodd" data-name="path200"/></g><g data-name="g202"><path d="M103.358 116.93h31.545l3.9-45.152h-31.545l-3.9 45.152Z" fill="#f0f0f0" fill-rule="evenodd" data-name="path204"/></g><g data-name="g206"><path d="m132.254 111.931 3.567-35.156H109.91l-3.568 35.156h25.913Z" fill="#fff" fill-rule="evenodd" data-name="path208"/></g><g data-name="g210"><path d="M90.871 116.93h10.12l-1.194-25.656H90.87v25.656Z" fill="#e1e1e1" fill-rule="evenodd" data-name="path212"/></g><g data-name="g214"><path d="M76.007 116.93h21.72l2.686-31.09h-21.72l-2.686 31.09Z" fill="#f0f0f0" fill-rule="evenodd" data-name="path216"/></g><g data-name="g218"><path d="M74.882 116.93h21.72l2.686-31.09h-21.72l-2.686 31.09Z" fill="#f5f5f5" fill-rule="evenodd" data-name="path220"/></g><g data-name="g222"><path d="m94.778 113.488 2.457-24.207H79.393l-2.457 24.207h17.842Z" fill="#e1e1e1" fill-rule="evenodd" data-name="path224"/></g><g data-name="g226"><path d="M202.23 182.25a4.368 4.368 0 1 1-8.706.717 4.368 4.368 0 0 1 8.707-.716" fill="#e1e1e1" fill-rule="evenodd" data-name="path228"/></g><g data-name="g230"><path d="M210.346 184.535a4.368 4.368 0 1 1-8.706.716 4.368 4.368 0 0 1 8.706-.716" fill="#e1e1e1" fill-rule="evenodd" data-name="path232"/></g><g data-name="g234"><path d="M216.212 181.926a4.368 4.368 0 1 1-8.706.716 4.368 4.368 0 0 1 8.706-.716" fill="#e1e1e1" fill-rule="evenodd" data-name="path236"/></g><g data-name="g238"><path d="M222.404 183.544a4.368 4.368 0 1 1-8.707.716 4.368 4.368 0 0 1 8.707-.716" fill="#e1e1e1" fill-rule="evenodd" data-name="path240"/></g><g data-name="g242"><path d="M227.964 184.249s-.509 12.132-20 12.132c-19.492 0-20-12.132-20-12.132h40Z" fill="#f0f0f0" fill-rule="evenodd" data-name="path244"/></g><path d="M46.157 294.758h7.08V196.38h-7.08v98.377Z" fill="#e7e7e7" fill-rule="evenodd" data-name="path246"/><path d="M44.263 294.758h4.17V196.38h-4.17v98.377Z" fill="#f0f0f0" fill-rule="evenodd" data-name="path248"/><path d="M143.529 203.76H42.97v-7.38h100.558v7.38Z" fill="#f0f0f0" fill-rule="evenodd" data-name="path250"/><path d="M238.77 294.758h7.082V196.38h-7.081v98.377Z" fill="#e7e7e7" fill-rule="evenodd" data-name="path252"/><path d="M237.444 294.758h4.17V196.38h-4.17v98.377Z" fill="#f0f0f0" fill-rule="evenodd" data-name="path254"/><path d="M247.116 203.76H146.558v-7.38h100.558v7.38Z" fill="#e7e7e7" fill-rule="evenodd" data-name="path256"/><path d="M144.132 294.758h7.08V196.38h-7.08v98.377Z" fill="#e7e7e7" fill-rule="evenodd" data-name="path258"/><path d="M142.237 294.758h4.17V196.38h-4.17v98.377Z" fill="#f0f0f0" fill-rule="evenodd" data-name="path260"/><g data-name="g262"><path d="M167.378 163.66h-52.506l-9.352 31.005h52.506l9.352-31.006Z" fill="#e7e7e7" fill-rule="evenodd" data-name="path264"/></g><g data-name="g266"><path d="m158.026 194.665-.212 1.714h-52.51l.213-1.714h52.51Z" fill="#e7e7e7" fill-rule="evenodd" data-name="path268"/></g><g data-name="g270"><path d="M165.762 163.66h-52.507l-9.351 31.005h52.506l9.352-31.006Z" fill="#f0f0f0" fill-rule="evenodd" data-name="path272"/></g><g data-name="g274"><path d="m155.38 193.249 8.496-28.173h-49.59l-8.497 28.173h49.59Z" fill="#fff" fill-rule="evenodd" data-name="path276"/></g><g data-name="g278"><path d="m142.729 194.665-.212 1.714H84.696l.212-1.714h57.82Z" fill="#f0f0f0" fill-rule="evenodd" data-name="path280"/></g></g></g><g data-name="g282"><g data-name="g284" transform="translate(478.813 2020)" clip-path="url(&quot;#d&quot;)"><g data-name="g290"><path d="M159.543 214.594c65.54.183 131.982 52.932 147.053-34.066 7.669-44.27 42.105-61.549 21.297-90.064-14.286-19.576-63.247-34.797-86.745-34.467-35.397.497-50.617 24.8-69.672 50.42-21.563 28.996-49.407 31.52-74.28 53.596-18.152 16.11-25.68 57.415-1.928 74.052 29.103 20.383 36.347-19.55 64.275-19.471" fill="#007cff" fill-rule="evenodd" data-name="path292"/></g><g data-name="g294"><g data-name="g308"><g data-name="g306" transform="translate(80.321 55.992)" clip-path="url(&quot;#e&quot;)"><g data-name="g304"><path d="M79.221 158.602c65.54.183 131.983 52.932 147.053-34.067 7.67-44.268 42.106-61.548 21.298-90.063C233.286 14.895 184.324-.325 160.827.005c-35.398.497-50.617 24.8-69.672 50.42-21.563 28.996-49.408 31.52-74.281 53.596-18.151 16.11-25.68 57.415-1.927 74.051 29.103 20.384 36.347-19.549 64.274-19.47" fill="#fff" fill-rule="evenodd" data-name="path302"/></g></g></g></g></g></g><g data-name="g310"><g data-name="g312" transform="translate(478.813 2020)" clip-path="url(&quot;#f&quot;)"><g data-name="g318"><path d="M342.156 320.843c0 4.82-66.912 8.728-149.452 8.728-82.54 0-149.453-3.908-149.453-8.728s66.912-8.728 149.453-8.728c82.54 0 149.452 3.908 149.452 8.728" fill="#f5f5f5" fill-rule="evenodd" data-name="path320"/></g></g></g><g data-name="g322"><g data-name="g324" transform="translate(478.813 2020)" clip-path="url(&quot;#g&quot;)"><g data-name="g330"><path d="M291.023 84.135H202.31c-6.196 0-11.594 5.07-11.996 11.265l-13.767 212.408c-.401 6.197 4.34 11.266 10.536 11.266h88.712c6.196 0 11.594-5.069 11.995-11.266l9.895-152.663c.837-.293 1.479-1.07 1.539-1.984l1.77-27.314a1.956 1.956 0 0 0-1.281-1.985l1.844-28.462c.402-6.196-4.34-11.265-10.535-11.265" fill="#007cff" fill-rule="evenodd" data-name="path332"/></g><g data-name="g334"><path d="M183.133 139.132h1.736c1.1 0 2.058-.9 2.13-2l.74-11.401c.07-1.1-.772-2-1.872-2h-1.735c-1.1 0-2.058.9-2.13 2l-.739 11.402c-.071 1.1.77 2 1.87 2" fill="#007cff" fill-rule="evenodd" data-name="path336"/></g><g data-name="g338"><path d="M181.814 159.494h1.736c1.1 0 2.058-.9 2.13-2l.739-11.401c.07-1.1-.771-2-1.871-2h-1.736c-1.1 0-2.058.9-2.13 2l-.738 11.402c-.072 1.1.77 2 1.87 2" fill="#007cff" fill-rule="evenodd" data-name="path340"/></g><g data-name="g342"><path d="M271.08 319.074h-88.71c-6.197 0-10.938-5.07-10.536-11.265L185.6 95.401c.401-6.197 5.8-11.266 11.996-11.266h88.712c6.195 0 10.937 5.07 10.535 11.266l-13.766 212.408c-.402 6.196-5.8 11.265-11.996 11.265" fill="#1a2e35" fill-rule="evenodd" data-name="path344"/></g><g data-name="g346"><g data-name="g360"><g data-name="g358" transform="translate(220.057 297.17)" clip-path="url(&quot;#h&quot;)"><g data-name="g356"><path d="M15.176 7.58c-.27 4.186-3.884 7.58-8.07 7.58-4.187 0-7.361-3.394-7.09-7.58C.287 3.394 3.901 0 8.087 0c4.187 0 7.36 3.394 7.09 7.58" fill="#fff" fill-rule="evenodd" data-name="path354"/></g></g></g></g><g data-name="g362"><path d="M279.1 291.497H178.25a2.51 2.51 0 0 1-2.506-2.673l11.806-182.159a2.51 2.51 0 0 1 2.505-2.348h100.851a2.51 2.51 0 0 1 2.506 2.673l-11.806 182.159a2.51 2.51 0 0 1-2.505 2.348" fill="#fff" fill-rule="evenodd" data-name="path364"/></g><g data-name="g366"><g data-name="g380"><g data-name="g378" transform="translate(204.852 173.031)" clip-path="url(&quot;#i&quot;)"><g data-name="g376"><path d="M55.096 27.519c-.985 15.198-14.104 27.519-29.303 27.519-15.197 0-26.72-12.32-25.734-27.519C1.043 12.321 14.162 0 29.36 0 44.559 0 56.08 12.32 55.096 27.52" fill="#8dd070" fill-rule="evenodd" data-name="path374"/></g></g></g></g><g data-name="g382"><g data-name="g396"><g data-name="g394" transform="translate(189.882 158.093)" clip-path="url(&quot;#j&quot;)"><g data-name="g392"><path d="M45.25.771C22.262.771 2.35 19.471.86 42.458c-1.49 22.985 15.998 41.685 38.985 41.685 22.985 0 42.898-18.7 44.387-41.685C85.723 19.47 68.235.77 45.25.77m-5.453 84.143C16.384 84.914-1.428 65.868.09 42.458 1.607 19.046 21.888 0 45.3 0c23.41 0 41.22 19.046 39.704 42.458-1.518 23.41-21.798 42.456-45.208 42.456" fill="#8dd070" fill-rule="evenodd" data-name="path390"/></g></g></g></g><g data-name="g398"><path d="m225.856 213.89-2.296-4.456c-5.009-9.721-16.552-18.41-20.578-20.938l3.808-5.698c4.766 2.994 14.303 10.402 20.288 19.2 11.054-13.093 26.687-26.6 47.62-41.158l3.57 5.378c-22.368 15.557-38.442 29.78-49.142 43.484l-3.27 4.188Z" fill="#8dd070" fill-rule="evenodd" data-name="path400"/></g><g data-name="g402"><g data-name="g416"><g data-name="g414" transform="translate(219.608 91.049)" clip-path="url(&quot;#k&quot;)"><g data-name="g412"><path d="M.007 3.07C.117 1.374 1.581 0 3.276 0c1.696 0 2.982 1.374 2.872 3.07-.11 1.696-1.574 3.07-3.27 3.07S-.103 4.766.007 3.07" fill="#fff" fill-rule="evenodd" data-name="path410"/></g></g></g></g><g data-name="g418"><g data-name="g432"><g data-name="g430" transform="translate(230.216 91.049)" clip-path="url(&quot;#l&quot;)"><g data-name="g428"><path d="M3.276 0h25.509a2.85 2.85 0 0 1 2.87 3.07c-.109 1.689-1.58 3.07-3.269 3.07H2.877C1.19 6.14-.103 4.76.007 3.07.115 1.38 1.586 0 3.275 0" fill="#fff" fill-rule="evenodd" data-name="path426"/></g></g></g></g></g></g><g data-name="g434"><g data-name="g436" transform="translate(478.813 2020)" clip-path="url(&quot;#m&quot;)"><g data-name="g442"><path d="M138.545 148.031a103.901 103.901 0 0 0-3.98 4.267 99.55 99.55 0 0 0-3.788 4.51 90.66 90.66 0 0 0-3.452 4.71l-.799 1.21-.75 1.228c-.257.407-.489.823-.711 1.242l-.618 1.135c-.206.411-.357 1.199-.424 2.025-.068.838-.054 1.754.003 2.684.118 1.867.392 3.806.74 5.743a89.932 89.932 0 0 0 1.223 5.837c.444 1.947.959 3.908 1.468 5.822l-2.856 1.07c-1.743-3.793-3.158-7.65-4.332-11.688-.564-2.024-1.06-4.086-1.36-6.265-.144-1.092-.25-2.21-.24-3.405.018-1.197.109-2.463.67-3.942.173-.43.271-.604.392-.861l.352-.732c.231-.49.472-.976.732-1.443l.768-1.417.813-1.379c1.103-1.823 2.276-3.593 3.555-5.267a87.016 87.016 0 0 1 3.953-4.915c1.406-1.582 2.78-3.092 4.379-4.612l4.262 4.443Z" fill="#ce5b51" fill-rule="evenodd" data-name="path444"/></g><g data-name="g446"><path d="M138.876 138.738c-4.176.19-8.142 7.122-8.142 7.122l5.516 11.265s7.476-6.23 7.571-12.35c.062-3.98-.837-6.224-4.945-6.037" fill="#007cff" fill-rule="evenodd" data-name="path448"/></g><g data-name="g450"><g data-name="g464"><g data-name="g462" transform="translate(130.734 138.728)" clip-path="url(&quot;#n&quot;)"><g data-name="g460"><path d="M8.142.01C3.965.2 0 7.132 0 7.132l5.516 11.266s7.476-6.231 7.571-12.351C13.15 2.067 12.25-.176 8.142.01" fill="#fff" fill-rule="evenodd" data-name="path458"/></g></g></g></g><g data-name="g466"><g data-name="g480"><g data-name="g478" transform="translate(137.883 146.45)" clip-path="url(&quot;#o&quot;)"><g data-name="g476"><path d="M1.989.39C.77 2.234.185 7.013 0 9.14c1.387-1.388 3.33-3.6 4.602-6.098C3.8.984 2.79-.819 1.989.391" fill-rule="evenodd" data-name="path474"/></g></g></g></g><g data-name="g482"><path d="m126.666 187.237 5.08 1.51-3.38 3.422s-3.66-1.128-4.172-3.616l2.472-1.316Z" fill="#ce5b51" fill-rule="evenodd" data-name="path484"/></g><g data-name="g486"><path d="m134.821 192.657-.855 3.273-5.6-3.76 3.38-3.424 3.075 3.911Z" fill="#ce5b51" fill-rule="evenodd" data-name="path488"/></g><g data-name="g490"><path d="M168.245 125.37c-.158.456-.044.917.254 1.03.3.113.67-.165.828-.621.158-.457.045-.918-.254-1.032-.298-.112-.669.166-.828.622" fill="#1a2e35" fill-rule="evenodd" data-name="path492"/></g><g data-name="g494"><path d="m168.932 124.723 1.207.1s-.86.642-1.207-.1" fill="#1a2e35" fill-rule="evenodd" data-name="path496"/></g><g data-name="g498"><path d="M168.476 125.959s.093 2.258.617 3.53c-.798.334-1.734-.311-1.734-.311l1.117-3.22Z" fill="#bb221f" fill-rule="evenodd" data-name="path500"/></g><g data-name="g502"><path d="M169.74 123.596a.285.285 0 0 1-.228-.21c-.316-1.24-1.282-1.62-1.323-1.635a.285.285 0 0 1 .198-.534c.052.019 1.285.487 1.678 2.028a.285.285 0 0 1-.325.351" fill="#1a2e35" fill-rule="evenodd" data-name="path504"/></g><g data-name="g506"><path d="M152.411 127.31c.113 3.64-.259 10.2-3.113 12.063 0 0 .377 3.744 6.931 5.014 7.207 1.395 4.032-2.89 4.032-2.89-3.78-1.696-3.199-4.579-2.063-7.17l-5.787-7.017Z" fill="#ce5b51" fill-rule="evenodd" data-name="path508"/></g><g data-name="g510"><path d="M173.831 152.256c.654 1.771 1.39 3.681 2.173 5.492.779 1.831 1.587 3.649 2.464 5.425a98.22 98.22 0 0 0 2.782 5.213c.497.843 1 1.68 1.54 2.483.26.412.532.811.816 1.196l.42.586.21.293.105.148.07.081c.336.437.995.981 1.707 1.483.724.504 1.532.985 2.375 1.439 1.693.904 3.5 1.734 5.342 2.509 1.84.787 3.723 1.52 5.627 2.21 1.892.716 3.83 1.383 5.728 2.04l-.713 2.964c-4.148-.68-8.176-1.648-12.222-2.873-2.013-.635-4.023-1.335-6.024-2.228-1-.451-2.001-.948-3.009-1.548-1.008-.61-2.02-1.3-3.032-2.415l-.184-.207-.128-.16-.256-.32-.51-.641a22.974 22.974 0 0 1-.987-1.3 56.047 56.047 0 0 1-1.845-2.663c-1.17-1.802-2.265-3.643-3.23-5.535a91.314 91.314 0 0 1-2.75-5.735c-.83-1.965-1.612-3.874-2.307-5.981l5.838-1.956Z" fill="#ce5b51" fill-rule="evenodd" data-name="path512"/></g><g data-name="g514"><path d="m204.172 182.809 4.549-1.763-.224 5.253s-3.683.982-5.391-.88l1.066-2.61Z" fill="#ce5b51" fill-rule="evenodd" data-name="path516"/></g><g data-name="g518"><path d="m212.149 182.852 1.561 3.353-5.214.094.225-5.253 3.428 1.806Z" fill="#ce5b51" fill-rule="evenodd" data-name="path520"/></g><g data-name="g522"><path d="m136.73 314.41 6.019.444 1.787-13.82-6.018-.444-1.788 13.82Z" fill="#ce5b51" fill-rule="evenodd" data-name="path524"/></g><g data-name="g526"><path d="m89.045 283.146 3.93 4.668 11.674-7.5-3.93-4.668-11.674 7.5Z" fill="#ce5b51" fill-rule="evenodd" data-name="path528"/></g><g data-name="g530"><path d="m94.829 287.211-3.17-6.09a.48.48 0 0 0-.584-.246l-5.039 1.741c-.523.18-.758.85-.483 1.357 1.14 2.105 1.793 3.065 3.187 5.743.857 1.648 1.944 4.142 3.128 6.418 1.158 2.226 3.43 1.26 3.136.21-1.324-4.711-.45-6.02-.027-8.058.076-.368.02-.75-.148-1.075" fill="#1a2e35" fill-rule="evenodd" data-name="path532"/></g><g data-name="g534"><path d="M143.124 313.997h-6.765a.492.492 0 0 0-.491.411l-.908 5.353c-.094.555.37 1.08.938 1.071 2.36-.04 3.5-.18 6.475-.18 1.83 0 5.61.19 8.138.19 2.472 0 2.726-2.498 1.68-2.725-4.693-1.015-6.514-2.414-8.07-3.75-.28-.24-.637-.37-.997-.37" fill="#1a2e35" fill-rule="evenodd" data-name="path536"/></g><g data-name="g538"><g data-name="g552"><g data-name="g550" transform="translate(137.542 300.593)" clip-path="url(&quot;#p&quot;)"><g data-name="g548"><path d="M6.992.444 6 8.124l-6-.6L.97 0l6.021.444Z" fill-rule="evenodd" data-name="path546"/></g></g></g></g><g data-name="g554"><g data-name="g568"><g data-name="g566" transform="translate(95.734 275.647)" clip-path="url(&quot;#q&quot;)"><g data-name="g564"><path d="m4.98 0 3.933 4.67L4.082 7.77 0 3.197 4.98 0Z" fill-rule="evenodd" data-name="path562"/></g></g></g></g><g data-name="g570"><path d="M137.181 175.402c4.668.902 14.567 2.82 24.142 4.679 11.408-33.585 8.678-34.672 8.678-34.672s-2.422-1.349-5.479-2.543c-.117-.047-.226-.085-.327-.124-1.544-.562-1.869-.647-3.938-1.248-3.555-.84-6.866-1.527-10.961-2.12a31.54 31.54 0 0 0-.782-.108 82.94 82.94 0 0 0-2.188-.239c-.48-.054-.959-.085-1.415-.116-.54-.03-1.065-.061-1.56-.084-2.64-.131-4.527-.093-4.527-.093 1.384 20.959.375 26.979-1.643 36.668" fill="#007cff" fill-rule="evenodd" data-name="path572"/></g><g data-name="g574"><g data-name="g588"><g data-name="g586" transform="translate(137.181 138.729)" clip-path="url(&quot;#r&quot;)"><g data-name="g584"><path d="M0 36.673c4.667.902 14.567 2.82 24.142 4.679C35.55 7.767 32.82 6.68 32.82 6.68s-2.422-1.349-5.479-2.543c-.117-.047-.226-.085-.328-.124-1.543-.562-1.868-.647-3.937-1.248-3.555-.84-6.866-1.527-10.962-2.12a31.54 31.54 0 0 0-.781-.108 82.94 82.94 0 0 0-2.189-.24C8.664.245 8.186.214 7.73.183 7.19.152 6.665.121 6.17.098 3.53-.034 1.644.005 1.644.005 3.026 20.963 2.018 26.984 0 36.673" fill="#fff" fill-rule="evenodd" data-name="path582"/></g></g></g></g><g data-name="g590"><g data-name="g604"><g data-name="g602" transform="translate(164.376 152.876)" clip-path="url(&quot;#s&quot;)"><g data-name="g600"><path d="M2.181.355.001 0c-.024 2.875 1.094 7.808 2.157 10.946.902-3.068 1.604-5.62 2.136-7.755L2.18.355Z" fill-rule="evenodd" data-name="path598"/></g></g></g></g><g data-name="g606"><path d="M169.19 144.979c3.565 1.144 6.162 8.205 7.137 11.252l-6.912 8.142s-7.132-10.21-6.036-13.377c1.143-3.298 4.078-6.573 5.81-6.017" fill="#007cff" fill-rule="evenodd" data-name="path608"/></g><g data-name="g610"><g data-name="g624"><g data-name="g622" transform="translate(163.265 144.917)" clip-path="url(&quot;#t&quot;)"><g data-name="g620"><path d="M5.924.062c3.566 1.144 6.163 8.205 7.138 11.252L6.15 19.456S-.98 9.246.115 6.08C1.257 2.78 4.192-.494 5.925.062" fill="#fff" fill-rule="evenodd" data-name="path618"/></g></g></g></g><g data-name="g626"><path d="M171.495 118.912c-.713 2.105-3.834 2.95-6.97 1.887-3.134-1.064-5.097-3.632-4.383-5.737.713-2.105 3.834-2.95 6.97-1.887 3.134 1.064 5.097 3.632 4.383 5.737" fill="#1a2e35" fill-rule="evenodd" data-name="path628"/></g><g data-name="g630"><path d="M153.398 118.333c-1.602 5.736-2.403 8.126-.568 12.076 2.76 5.94 10.147 6.87 13.428 1.781 2.954-4.58 5.078-13.191.36-17.501-4.646-4.245-11.618-2.093-13.22 3.644" fill="#ce5b51" fill-rule="evenodd" data-name="path632"/></g><g data-name="g634"><path d="M162.349 111.64c-2.34 1.326-7.221-6.98-13.318 0-4.365 4.997-1.584 12.339-1.584 12.339s-3.47-6.112-6.252-3.133c-3.62 3.877.128 17.644 12.075 16.702 11.948-.942 10.802-10.647 10.802-10.647s5.596-5.69 5.315-10.765c-.213-3.862-3.184-6.68-7.038-4.496" fill="#1a2e35" fill-rule="evenodd" data-name="path636"/></g><g data-name="g638"><path d="M163.802 123.26c-.335 1.029-.23 2.268.1 3.247.498 1.472 1.63 1.481 2.23.463.541-.917.934-2.786.079-3.971-.843-1.167-2.026-.917-2.409.26" fill="#ce5b51" fill-rule="evenodd" data-name="path640"/></g><g data-name="g642"><path d="M154.95 178.845s-2.575 8.926-5.882 20.704a2588.563 2588.563 0 0 0-7.03 25.537c-1.318 4.91-2.559 9.643-3.63 13.867-6.059 23.934-36.275 44.507-36.275 44.507l-5.85-6.437s20.303-17.096 26.176-39.427c11.925-45.332 5.219-52.978 14.723-62.19l17.767 3.439Z" fill="#1a2e35" fill-rule="evenodd" data-name="path644"/></g><g data-name="g646"><g data-name="g660"><g data-name="g658" transform="translate(141.482 186.553)" clip-path="url(&quot;#u&quot;)"><g data-name="g656"><path d="M10.847.277c-.894 3.461-2.02 7.832-3.26 12.719a2588.4 2588.4 0 0 0-7.03 25.537C-.43 27.587-1.016 7.461 7.07 1.203 8.658-.032 9.914-.27 10.847.276" fill-rule="evenodd" data-name="path654"/></g></g></g></g><g data-name="g662"><path d="m102.621 284.38-7.31-8.044 2.209-2.216 8.965 8.448-3.864 1.812Z" fill="#007cff" fill-rule="evenodd" data-name="path664"/></g><g data-name="g666"><g data-name="g680"><g data-name="g678" transform="translate(95.311 274.12)" clip-path="url(&quot;#v&quot;)"><g data-name="g676"><path d="M7.31 10.26 0 2.216 2.21 0l8.964 8.448L7.31 10.26Z" fill="#fff" fill-rule="evenodd" data-name="path674"/></g></g></g></g><g data-name="g682"><path d="M94.689 288.29c.312 1.047.717 1.742 1.107 1.882.16.058.322.025.497-.102.095-.068.104-.134.1-.185-.02-.408-.958-1.127-1.704-1.595m1.224 2.194a.703.703 0 0 1-.215-.044c-.721-.26-1.175-1.629-1.38-2.422a.143.143 0 0 1 .209-.16c.216.126 2.113 1.24 2.152 2.013a.484.484 0 0 1-.22.43.853.853 0 0 1-.546.183" fill="#007cff" fill-rule="evenodd" data-name="path684"/></g><g data-name="g686"><path d="M160.961 180.079s1.503 47.653-1.864 65.601c-3.502 18.67-14.167 61.139-14.167 61.139l-8.68-1.12s5.49-42.902 7.82-61.453c2.54-20.222-.79-67.59-.79-67.59l17.681 3.423Z" fill="#1a2e35" fill-rule="evenodd" data-name="path688"/></g><g data-name="g690"><path d="m146.776 307.314-12.373-1.597.154-2.94 13.46.587-1.24 3.95Z" fill="#007cff" fill-rule="evenodd" data-name="path692"/></g><g data-name="g694"><g data-name="g708"><g data-name="g706" transform="translate(134.403 302.777)" clip-path="url(&quot;#w&quot;)"><g data-name="g704"><path d="M12.373 4.537 0 2.94.153 0l13.46.587-1.24 3.95Z" fill="#fff" fill-rule="evenodd" data-name="path702"/></g></g></g></g><g data-name="g710"><path d="M94.767 287.99c.664.308 1.838.481 2.162.222.054-.042.107-.114.04-.291a.48.48 0 0 0-.296-.294c-.485-.186-1.391.133-1.906.364m1.44.626c-.673-.034-1.478-.28-1.83-.516a.143.143 0 0 1 .012-.245c.063-.034 1.568-.81 2.386-.496.223.085.378.24.46.46.131.343-.024.532-.128.616-.191.152-.526.2-.9.18" fill="#007cff" fill-rule="evenodd" data-name="path712"/></g><g data-name="g714"><path d="M143.949 314.632c1.325.22 2.316.162 2.69-.165a.529.529 0 0 0 .18-.46c-.006-.074-.031-.12-.087-.15-.393-.224-1.782.3-2.783.775m1.413.417c-.663 0-1.381-.113-1.89-.215a.143.143 0 0 1-.113-.12.141.141 0 0 1 .076-.146c.275-.142 2.715-1.37 3.438-.96.14.08.22.21.23.38a.805.805 0 0 1-.275.693c-.316.277-.869.368-1.466.368" fill="#007cff" fill-rule="evenodd" data-name="path716"/></g><g data-name="g718"><path d="M145 312.396c-.868 0-1.211 1.43-1.318 2.041.75-.448 1.74-1.472 1.675-1.88-.005-.032-.02-.13-.274-.156a.775.775 0 0 0-.084-.005m-1.5 2.441a.142.142 0 0 1-.141-.158c.012-.11.296-2.716 1.753-2.563.39.04.502.238.527.396.11.68-1.346 1.984-2.08 2.313a.157.157 0 0 1-.059.012" fill="#007cff" fill-rule="evenodd" data-name="path720"/></g><g data-name="g722"><path d="m137.054 173.924-1.444 1.938c-.111.15.06.359.338.413l25.32 4.904c.217.042.415-.029.452-.162l.572-2.107c.04-.146-.128-.308-.366-.354l-24.449-4.736c-.18-.034-.35.008-.423.104" fill="#007cff" fill-rule="evenodd" data-name="path724"/></g><g data-name="g726"><path d="m139.889 177.279-.655-.128c-.13-.024-.219-.11-.196-.19l.768-2.733c.023-.08.147-.124.278-.099l.655.126c.13.026.219.112.196.192l-.768 2.732c-.022.08-.148.125-.278.1" fill="#1a2e35" fill-rule="evenodd" data-name="path728"/></g><g data-name="g730"><path d="m156.424 180.52-.656-.127c-.13-.025-.218-.111-.195-.191l.768-2.732c.022-.08.147-.125.278-.1l.655.127c.13.025.218.112.196.19l-.768 2.733c-.023.08-.148.125-.278.1" fill="#1a2e35" fill-rule="evenodd" data-name="path732"/></g></g></g></g></g><defs><clipPath id="b"><path d="M518.705-569.244h31.849v75.226h-31.849v-75.226Z" data-name="path134" transform="translate(-518.705 569.244)"/></clipPath><clipPath id="c"><path d="M378.891-569.244h18.353v75.226h-18.353v-75.226Z" data-name="path156" transform="translate(-378.891 569.244)"/></clipPath><clipPath id="a"><path d="M0-666.665h385.408v385.408H0v-385.408Z" data-name="path18" transform="translate(0 666.665)"/></clipPath><clipPath id="e"><path d="M138.937-569.812h254.162v183.869H138.937v-183.869Z" data-name="path298" transform="translate(-138.937 569.812)"/></clipPath><clipPath id="d"><path d="M0-666.665h385.408v385.408H0v-385.408Z" data-name="path286" transform="translate(0 666.665)"/></clipPath><clipPath id="f"><path d="M0-666.665h385.408v385.408H0v-385.408Z" data-name="path314" transform="translate(0 666.665)"/></clipPath><clipPath id="h"><path d="M380.647-152.63h15.193v15.16h-15.193v-15.16Z" data-name="path350" transform="translate(-380.647 152.63)"/></clipPath><clipPath id="i"><path d="M354.346-367.362H409.5v55.038h-55.155v-55.038Z" data-name="path370" transform="translate(-354.346 367.362)"/></clipPath><clipPath id="j"><path d="M328.451-393.202h85.094v84.915h-85.094v-84.915Z" data-name="path386" transform="translate(-328.451 393.202)"/></clipPath><clipPath id="k"><path d="M379.87-509.172h6.154v6.14h-6.154v-6.14Z" data-name="path406" transform="translate(-379.87 509.172)"/></clipPath><clipPath id="l"><path d="M398.219-509.172h31.662v6.14h-31.662v-6.14Z" data-name="path422" transform="translate(-398.219 509.172)"/></clipPath><clipPath id="g"><path d="M0-666.665h385.408v385.408H0v-385.408Z" data-name="path326" transform="translate(0 666.665)"/></clipPath><clipPath id="n"><path d="M226.14-426.699h13.09v18.398h-13.09V-426.7Z" data-name="path454" transform="translate(-226.14 426.699)"/></clipPath><clipPath id="o"><path d="M238.506-413.342h4.602v9.14h-4.602v-9.14Z" data-name="path470" transform="translate(-238.506 413.342)"/></clipPath><clipPath id="p"><path d="M237.915-146.709h6.992v8.125h-6.992v-8.125Z" data-name="path542" transform="translate(-237.915 146.709)"/></clipPath><clipPath id="q"><path d="M165.597-189.86h8.913v7.77h-8.913v-7.77Z" data-name="path558" transform="translate(-165.597 189.86)"/></clipPath><clipPath id="r"><path d="M237.291-426.696h33.106v41.35h-33.106v-41.35Z" data-name="path578" transform="translate(-237.291 426.696)"/></clipPath><clipPath id="s"><path d="M284.333-402.226h4.293v10.946h-4.293v-10.946Z" data-name="path594" transform="translate(-284.333 402.226)"/></clipPath><clipPath id="t"><path d="M282.41-415.992h13.062v19.456H282.41v-19.456Z" data-name="path614" transform="translate(-282.41 415.992)"/></clipPath><clipPath id="u"><path d="M244.73-343.972h10.847v38.533H244.73v-38.533Z" data-name="path650" transform="translate(-244.73 343.972)"/></clipPath><clipPath id="v"><path d="M164.866-192.502h11.174v10.26h-11.174v-10.26Z" data-name="path670" transform="translate(-164.866 192.502)"/></clipPath><clipPath id="w"><path d="M232.486-142.932H246.1v4.537h-13.613v-4.537Z" data-name="path698" transform="translate(-232.486 142.932)"/></clipPath><clipPath id="m"><path d="M0-666.665h385.408v385.408H0v-385.408Z" data-name="path438" transform="translate(0 666.665)"/></clipPath></defs></svg>