<svg xmlns="http://www.w3.org/2000/svg" width="370" height="344.514" viewBox="76 2040 370 344.514"><g data-name="onboarding2"><g data-name="Path 8025"><path d="M96 2040h330c11.046 0 20 8.545 20 19.087v306.34c0 10.542-8.954 19.087-20 19.087H96c-11.046 0-20-8.545-20-19.086v-306.341c0-10.542 8.954-19.087 20-19.087Z" fill="#fff" fill-rule="evenodd"/><path d="M20 0h330c11.046 0 20 8.545 20 19.087v306.34c0 10.542-8.954 19.087-20 19.087H20c-11.046 0-20-8.545-20-19.086V19.087C0 8.545 8.954 0 20 0Z" stroke-linejoin="round" stroke-linecap="round" stroke="#707070" fill="transparent" transform="matrix(.9973 0 0 .9971 76.5 2040.5)"/></g><g data-name="Group 9750"><g data-name="Group 9299"><path d="M120.065 2192.447h-1.439a3.82 3.82 0 0 0-3.769-3.217c-.306 0-.603.04-.888.108a5.427 5.427 0 0 0-4.742-2.79 5.43 5.43 0 0 0-5.43 5.43c0 .158.011.315.025.47h-.473a3.304 3.304 0 1 0 0 6.608h16.716a3.305 3.305 0 0 0 0-6.609" fill="#3da2ff" fill-rule="evenodd" data-name="path642"/><path d="M408.912 2123.925h-1.44a3.82 3.82 0 0 0-3.769-3.218c-.306 0-.603.04-.888.108a5.427 5.427 0 0 0-4.741-2.789 5.43 5.43 0 0 0-5.43 5.43c0 .158.01.314.024.469h-.473a3.304 3.304 0 1 0 0 6.609h16.717a3.305 3.305 0 0 0 0-6.61" fill="#3da2ff" fill-rule="evenodd" data-name="path646"/><path d="M408.313 2228.405h-1.44a3.819 3.819 0 0 0-3.768-3.218c-.306 0-.603.04-.888.108a5.429 5.429 0 0 0-10.171 2.64c0 .158.01.314.023.47h-.473a3.304 3.304 0 1 0 0 6.609h16.717a3.304 3.304 0 0 0 0-6.61" fill="#3da2ff" fill-rule="evenodd" data-name="path650"/><path d="M384 2172.01h-2.717c-.548-3.439-3.519-6.07-7.112-6.07-.578 0-1.138.074-1.676.203a10.238 10.238 0 0 0-8.95-5.263c-5.659 0-10.246 4.586-10.246 10.246 0 .299.02.593.045.885h-.893a6.236 6.236 0 0 0 0 12.473H384a6.237 6.237 0 1 0 0-12.473Z" stroke-linejoin="round" stroke-linecap="round" stroke-width="1.868" stroke="#3da2ff" fill="transparent" data-name="path654"/><path d="M368.454 2064.226h-2.718c-.546-3.44-3.518-6.071-7.111-6.071-.578 0-1.137.074-1.676.203a10.238 10.238 0 0 0-8.95-5.263c-5.658 0-10.246 4.587-10.246 10.246 0 .3.02.593.045.885h-.893a6.237 6.237 0 0 0 0 12.473h31.549a6.237 6.237 0 1 0 0-12.473Z" stroke-linejoin="round" stroke-linecap="round" stroke-width="1.868" stroke="#3da2ff" fill="transparent" data-name="path658"/><path d="M136.506 2074.405h-2.331a6.184 6.184 0 0 0-6.105-5.212 6.19 6.19 0 0 0-1.438.175 8.789 8.789 0 0 0-7.682-4.518 8.794 8.794 0 0 0-8.794 8.795c0 .256.016.51.038.76h-.766a5.353 5.353 0 0 0 0 10.706h27.078a5.353 5.353 0 0 0 0-10.706Z" stroke-linejoin="round" stroke-linecap="round" stroke-width="1.868" stroke="#3da2ff" fill="transparent" data-name="path662"/><path d="M242.712 2062.886h-1.44a3.82 3.82 0 0 0-3.768-3.218c-.306 0-.603.04-.888.108a5.427 5.427 0 0 0-4.742-2.789 5.43 5.43 0 0 0-5.43 5.43c0 .158.011.314.025.469h-.473a3.305 3.305 0 0 0 0 6.608h16.716a3.304 3.304 0 1 0 0-6.608" fill="#3da2ff" fill-rule="evenodd" data-name="path666"/><path d="M354.532 2042.037h14.434" fill="#3da2ff" fill-rule="evenodd" data-name="path670"/><path d="M354.533 2042.669h14.434a.63.63 0 0 0 0-1.263h-14.434a.631.631 0 1 0 0 1.263" fill="#3da2ff" fill-rule="evenodd" data-name="path674"/><path d="M347.118 2042.04h2.821" fill="#3da2ff" fill-rule="evenodd" data-name="path678"/><path d="M347.118 2042.671h2.82a.632.632 0 0 0 0-1.263h-2.82a.631.631 0 1 0 0 1.263" fill="#3da2ff" fill-rule="evenodd" data-name="path682"/><path d="M367.668 2203.262c0-.349.282-.632.632-.632h1.804a.63.63 0 1 1 0 1.263H368.3a.632.632 0 0 1-.632-.631m-6.315 0c0-.349.284-.632.631-.632h3.158a.631.631 0 0 1 0 1.263h-3.158a.632.632 0 0 1-.63-.631m-6.315 0a.63.63 0 0 1 .63-.632h3.159a.631.631 0 0 1 0 1.263h-3.158a.63.63 0 0 1-.63-.631" fill="#3da2ff" fill-rule="evenodd" data-name="path686"/><path d="M362.586 2125.713a1.286 1.286 0 0 0 2.572 0 1.286 1.286 0 0 0-2.572 0m-1.262 0a2.55 2.55 0 0 1 2.547-2.548 2.552 2.552 0 0 1 2.55 2.548 2.552 2.552 0 0 1-2.55 2.549 2.55 2.55 0 0 1-2.547-2.549" fill="#3da2ff" fill-rule="evenodd" data-name="path690"/><path d="M418.803 2182.238v1.465" fill="#3da2ff" fill-rule="evenodd" data-name="path694"/><path d="M418.803 2184.334a.631.631 0 0 0 .632-.632v-1.464a.631.631 0 0 0-1.264 0v1.464c0 .35.283.632.632.632" fill="#3da2ff" fill-rule="evenodd" data-name="path698"/><path d="M415.685 2185.172h1.466" fill="#3da2ff" fill-rule="evenodd" data-name="path702"/><path d="M415.686 2185.804h1.464a.631.631 0 0 0 0-1.264h-1.464a.632.632 0 0 0 0 1.264" fill="#3da2ff" fill-rule="evenodd" data-name="path706"/><path d="M418.803 2188.207v-1.465" fill="#3da2ff" fill-rule="evenodd" data-name="path710"/><path d="M418.803 2188.838a.631.631 0 0 0 .632-.631v-1.464a.631.631 0 1 0-1.264 0v1.464c0 .348.283.631.632.631" fill="#3da2ff" fill-rule="evenodd" data-name="path714"/><path d="M421.92 2185.273h-1.464" fill="#3da2ff" fill-rule="evenodd" data-name="path718"/><path d="M420.456 2185.904h1.465a.631.631 0 0 0 0-1.263h-1.465a.631.631 0 0 0 0 1.263" fill="#3da2ff" fill-rule="evenodd" data-name="path722"/><path d="M388.355 2257.017v1.465" fill="#3da2ff" fill-rule="evenodd" data-name="path726"/><path d="M388.355 2259.113c.35 0 .632-.283.632-.632v-1.464a.632.632 0 1 0-1.263 0v1.464c0 .349.283.632.631.632" fill="#3da2ff" fill-rule="evenodd" data-name="path730"/><path d="M385.238 2259.951h1.465" fill="#3da2ff" fill-rule="evenodd" data-name="path734"/><path d="M385.237 2260.582h1.466a.631.631 0 0 0 0-1.263h-1.466a.632.632 0 1 0 0 1.263" fill="#3da2ff" fill-rule="evenodd" data-name="path738"/><path d="M388.355 2262.985v-1.464" fill="#3da2ff" fill-rule="evenodd" data-name="path742"/><path d="M388.355 2263.616c.35 0 .632-.282.632-.63v-1.465a.632.632 0 1 0-1.263 0v1.464c0 .349.283.631.631.631" fill="#3da2ff" fill-rule="evenodd" data-name="path746"/><path d="M391.473 2260.052h-1.465" fill="#3da2ff" fill-rule="evenodd" data-name="path750"/><path d="M390.008 2260.682h1.464a.631.631 0 1 0 0-1.262h-1.464a.632.632 0 1 0 0 1.262" fill="#3da2ff" fill-rule="evenodd" data-name="path754"/><path d="M147.775 2200.836h14.434a.631.631 0 0 0 0-1.263h-14.434a.631.631 0 0 0 0 1.263" fill="#3da2ff" fill-rule="evenodd" data-name="path758"/><path d="M166.803 2200.838h2.821a.631.631 0 0 0 0-1.263h-2.82a.632.632 0 1 0 0 1.263" fill="#3da2ff" fill-rule="evenodd" data-name="path762"/><path d="M165.834 2195.807c0-.349.283-.632.631-.632h3.157a.631.631 0 1 1 0 1.264h-3.157a.631.631 0 0 1-.631-.632m-6.314 0c0-.349.282-.632.63-.632h3.158a.63.63 0 0 1 0 1.264h-3.157a.631.631 0 0 1-.631-.632m-4.963 0c0-.349.283-.632.63-.632h1.807a.632.632 0 0 1 0 1.264h-1.806a.631.631 0 0 1-.63-.632" fill="#3da2ff" fill-rule="evenodd" data-name="path766"/><path d="M145.08 2187.81c.35 0 .632-.283.632-.631v-1.465a.632.632 0 0 0-1.263 0v1.465c0 .348.283.631.631.631" fill="#3da2ff" fill-rule="evenodd" data-name="path770"/><path d="M146.733 2189.28h1.464a.631.631 0 0 0 0-1.264h-1.464a.632.632 0 1 0 0 1.263" fill="#3da2ff" fill-rule="evenodd" data-name="path774"/><path d="M145.08 2192.314c.35 0 .632-.283.632-.631v-1.465a.631.631 0 0 0-1.263 0v1.465c0 .348.283.631.631.631" fill="#3da2ff" fill-rule="evenodd" data-name="path778"/><path d="M141.963 2189.38h1.464a.632.632 0 1 0 0-1.263h-1.464a.633.633 0 0 0 0 1.263" fill="#3da2ff" fill-rule="evenodd" data-name="path782"/><path d="M116.506 2249.034c.35 0 .632-.283.632-.632v-1.464a.632.632 0 1 0-1.263 0v1.464c0 .35.283.632.631.632" fill="#3da2ff" fill-rule="evenodd" data-name="path786"/><path d="M118.16 2250.503h1.464a.631.631 0 1 0 0-1.262h-1.465a.631.631 0 1 0 0 1.262" fill="#3da2ff" fill-rule="evenodd" data-name="path790"/><path d="M116.506 2253.537c.35 0 .632-.282.632-.63v-1.465a.632.632 0 1 0-1.263 0v1.464c0 .349.283.631.631.631" fill="#3da2ff" fill-rule="evenodd" data-name="path794"/><path d="M113.389 2250.604h1.465a.632.632 0 0 0 0-1.263h-1.465a.631.631 0 1 0 0 1.263" fill="#3da2ff" fill-rule="evenodd" data-name="path798"/><path d="M230.768 2091.278a1.287 1.287 0 0 0-2.573 0 1.287 1.287 0 0 0 2.572 0m1.263 0a2.551 2.551 0 0 1-2.548 2.549 2.552 2.552 0 0 1-2.549-2.549 2.552 2.552 0 0 1 2.55-2.548 2.551 2.551 0 0 1 2.547 2.548" fill="#3da2ff" fill-rule="evenodd" data-name="path802"/><path d="M409.727 2056.67a2.23 2.23 0 1 0-4.46 0 2.23 2.23 0 0 0 4.46 0" fill="#3da2ff" fill-rule="evenodd" data-name="path834"/><path d="M107.075 2215.165a2.23 2.23 0 1 0-4.46 0 2.23 2.23 0 0 0 4.46 0" fill="#3da2ff" fill-rule="evenodd" data-name="path838"/><path d="M121.48 2122.163h-14.435a.63.63 0 0 0 0 1.263h14.435a.632.632 0 0 0 0-1.263" fill="#3da2ff" fill-rule="evenodd" data-name="path846"/><path d="M102.451 2122.16h-2.82a.631.631 0 0 0 0 1.264h2.82a.632.632 0 1 0 0-1.263" fill="#3da2ff" fill-rule="evenodd" data-name="path850"/><path d="M103.421 2127.193a.631.631 0 0 1-.632.63h-3.157a.632.632 0 1 1 0-1.262h3.157c.35 0 .632.282.632.632m6.314 0a.631.631 0 0 1-.63.63h-3.158a.63.63 0 1 1 0-1.262h3.157c.348 0 .63.282.63.632m4.964 0a.632.632 0 0 1-.631.63h-1.806a.631.631 0 0 1 0-1.262h1.806c.347 0 .63.282.63.632" fill="#3da2ff" fill-rule="evenodd" data-name="path854"/><path d="M124.174 2135.189a.632.632 0 0 0-.632.632v1.464a.632.632 0 1 0 1.264 0v-1.464a.632.632 0 0 0-.632-.632" fill="#3da2ff" fill-rule="evenodd" data-name="path858"/><path d="M122.522 2133.72h-1.465a.631.631 0 0 0 0 1.263h1.465a.631.631 0 1 0 0-1.263" fill="#3da2ff" fill-rule="evenodd" data-name="path862"/><path d="M124.174 2130.685a.631.631 0 0 0-.632.631v1.464a.632.632 0 1 0 1.264 0v-1.464a.631.631 0 0 0-.632-.63" fill="#3da2ff" fill-rule="evenodd" data-name="path866"/><path d="M127.292 2133.619h-1.465a.631.631 0 0 0 0 1.263h1.465a.631.631 0 1 0 0-1.263" fill="#3da2ff" fill-rule="evenodd" data-name="path870"/><path d="M395.728 2111.335h14.434a.631.631 0 0 0 0-1.262h-14.434a.632.632 0 1 0 0 1.262" fill="#3da2ff" fill-rule="evenodd" data-name="path874"/><path d="M414.756 2111.337h2.82a.632.632 0 0 0 0-1.262h-2.82a.631.631 0 1 0 0 1.262" fill="#3da2ff" fill-rule="evenodd" data-name="path878"/><path d="M413.787 2106.306c0-.349.282-.632.631-.632h3.157a.633.633 0 0 1 0 1.263h-3.157a.631.631 0 0 1-.631-.631m-6.315 0c0-.349.283-.632.632-.632h3.156a.631.631 0 0 1 0 1.263h-3.156a.631.631 0 0 1-.632-.631m-4.963 0c0-.349.284-.632.631-.632h1.807a.632.632 0 0 1 0 1.263h-1.807a.632.632 0 0 1-.63-.631" fill="#3da2ff" fill-rule="evenodd" data-name="path882"/><path d="M393.033 2098.31c.35 0 .632-.283.632-.633v-1.464a.632.632 0 1 0-1.263 0v1.464c0 .35.282.632.631.632" fill="#3da2ff" fill-rule="evenodd" data-name="path886"/><path d="M394.685 2099.778h1.465a.631.631 0 0 0 0-1.263h-1.465a.632.632 0 0 0 0 1.263" fill="#3da2ff" fill-rule="evenodd" data-name="path890"/><path d="M393.033 2102.813c.35 0 .632-.282.632-.632v-1.463a.631.631 0 0 0-1.263 0v1.463c0 .35.282.632.631.632" fill="#3da2ff" fill-rule="evenodd" data-name="path894"/><path d="M389.915 2099.88h1.465a.632.632 0 1 0 0-1.264h-1.465a.632.632 0 1 0 0 1.263" fill="#3da2ff" fill-rule="evenodd" data-name="path898"/><path d="M170.172 2062.448h-14.434a.631.631 0 0 0 0 1.263h14.434a.632.632 0 0 0 0-1.263" fill="#3da2ff" fill-rule="evenodd" data-name="path902"/><path d="M177.587 2062.445h-2.821a.631.631 0 0 0 0 1.263h2.82a.632.632 0 1 0 0-1.263" fill="#3da2ff" fill-rule="evenodd" data-name="path906"/></g><path d="M83 2306.91h355.302v-.176H83v.177Z" fill="#ececec" fill-rule="evenodd" data-name="path12"/><path d="M379.164 2318.349h23.537v-.177h-23.537v.177Z" fill="#ececec" fill-rule="evenodd" data-name="path14"/><path d="M312.189 2320.277h6.177v-.177h-6.177v.177Z" fill="#ececec" fill-rule="evenodd" data-name="path16"/><path d="M364.815 2311.75h13.638v-.178h-13.638v.178Z" fill="#ececec" fill-rule="evenodd" data-name="path18"/><path d="M120.278 2312.945h30.693v-.178h-30.693v.178Z" fill="#ececec" fill-rule="evenodd" data-name="path20"/><path d="M157.298 2312.945h4.5v-.178h-4.5v.178Z" fill="#ececec" fill-rule="evenodd" data-name="path22"/><path d="M176.424 2315.945h66.566v-.178h-66.566v.178Z" fill="#ececec" fill-rule="evenodd" data-name="path24"/><g data-name="g26"><g data-name="g28" transform="translate(83 2035)" clip-path="url(&quot;#a&quot;)"><g data-name="g34"><path d="M31.206 39.227a3.883 3.883 0 0 0-3.878 3.878v192.88a3.883 3.883 0 0 0 3.878 3.88h137.217a3.883 3.883 0 0 0 3.878-3.88V43.106a3.883 3.883 0 0 0-3.878-3.878H31.206Zm137.217 200.815H31.206a4.061 4.061 0 0 1-4.056-4.056V43.106a4.062 4.062 0 0 1 4.056-4.057h137.217a4.061 4.061 0 0 1 4.055 4.056v192.88a4.06 4.06 0 0 1-4.055 4.057" fill="#ececec" fill-rule="evenodd" data-name="path36"/></g><g data-name="g38"><path d="M184.907 39.227a3.883 3.883 0 0 0-3.877 3.878v192.88a3.883 3.883 0 0 0 3.877 3.88h137.217a3.883 3.883 0 0 0 3.879-3.88V43.106a3.883 3.883 0 0 0-3.879-3.878H184.907Zm137.217 200.815H184.907a4.06 4.06 0 0 1-4.055-4.056V43.106a4.061 4.061 0 0 1 4.055-4.057h137.217a4.062 4.062 0 0 1 4.056 4.056v192.88a4.061 4.061 0 0 1-4.056 4.057" fill="#ececec" fill-rule="evenodd" data-name="path40"/></g><path d="M46.915 171.19h32.238v100.543H46.915V171.191Z" fill="#f0f0f0" fill-rule="evenodd" data-name="path42"/><path d="M48.684 173.713h28.7v29.596h-28.7v-29.596Z" fill="#e7e7e7" fill-rule="evenodd" data-name="path44"/><path d="M48.684 205.966h28.7v29.596h-28.7v-29.596Z" fill="#e7e7e7" fill-rule="evenodd" data-name="path46"/><path d="M48.684 238.218h28.7v29.597h-28.7v-29.597Z" fill="#e7e7e7" fill-rule="evenodd" data-name="path48"/><path d="M66.095 173.713h11.288v29.596H66.095v-29.596Z" fill="#e1e1e1" fill-rule="evenodd" data-name="path50"/><path d="M66.095 205.966h11.288v29.596H66.095v-29.596Z" fill="#e1e1e1" fill-rule="evenodd" data-name="path52"/><path d="M73.078 191.487h-7.82v11.822h7.82v-11.822Z" fill="#f0f0f0" fill-rule="evenodd" data-name="path54"/><path d="M61.957 191.487h3.301v11.822h-3.301v-11.822Z" fill="#e1e1e1" fill-rule="evenodd" data-name="path56"/><path d="M63.607 194.562H53.565v8.747h10.042v-8.747Z" fill="#f0f0f0" fill-rule="evenodd" data-name="path58"/><path d="M49.324 194.562h4.24v8.747h-4.24v-8.747Z" fill="#e1e1e1" fill-rule="evenodd" data-name="path60"/><path d="M66.095 238.218h11.288v29.597H66.095v-29.597Z" fill="#e1e1e1" fill-rule="evenodd" data-name="path62"/><path d="M38.16 171.19h8.755v100.543H38.16V171.191Z" fill="#f5f5f5" fill-rule="evenodd" data-name="path64"/><path d="M52.852 250.463h21.317v17.35H52.852v-17.35Z" fill="#f0f0f0" fill-rule="evenodd" data-name="path66"/><path d="M52.852 250.463h-4.17v17.35h4.17v-17.35Z" fill="#e1e1e1" fill-rule="evenodd" data-name="path68"/><path d="M51.487 221.794h18.942v13.768H51.487v-13.768Z" fill="#fafafa" fill-rule="evenodd" data-name="path70"/><path d="M51.487 221.794h-2.803v13.768h2.803v-13.768Z" fill="#f0f0f0" fill-rule="evenodd" data-name="path72"/><path d="M284.979 171.19h32.238v100.543H284.98V171.191Z" fill="#f0f0f0" fill-rule="evenodd" data-name="path74"/><path d="M286.748 173.713h28.7v29.596h-28.7v-29.596Z" fill="#e7e7e7" fill-rule="evenodd" data-name="path76"/><path d="M286.748 205.966h28.7v29.596h-28.7v-29.596Z" fill="#e7e7e7" fill-rule="evenodd" data-name="path78"/><path d="M286.748 238.218h28.7v29.597h-28.7v-29.597Z" fill="#e7e7e7" fill-rule="evenodd" data-name="path80"/><path d="M304.159 173.713h11.288v29.596H304.16v-29.596Z" fill="#e1e1e1" fill-rule="evenodd" data-name="path82"/><path d="M304.159 205.966h11.288v29.596H304.16v-29.596Z" fill="#e1e1e1" fill-rule="evenodd" data-name="path84"/><path d="M299.105 226.97h-7.819v8.592h7.819v-8.593Z" fill="#f0f0f0" fill-rule="evenodd" data-name="path86"/><path d="M287.985 226.97h3.301v8.592h-3.301v-8.593Z" fill="#e1e1e1" fill-rule="evenodd" data-name="path88"/><path d="M306.177 218.378h-7.819v8.591h7.82v-8.591Z" fill="#f0f0f0" fill-rule="evenodd" data-name="path90"/><path d="M295.057 218.378h3.301v8.591h-3.301v-8.591Z" fill="#e1e1e1" fill-rule="evenodd" data-name="path92"/><path d="M311.738 226.97h-7.819v8.592h7.819v-8.593Z" fill="#f0f0f0" fill-rule="evenodd" data-name="path94"/><path d="M300.617 226.97h3.302v8.592h-3.302v-8.593Z" fill="#e1e1e1" fill-rule="evenodd" data-name="path96"/><path d="M304.159 238.218h11.288v29.597H304.16v-29.597Z" fill="#e1e1e1" fill-rule="evenodd" data-name="path98"/><path d="M276.226 171.19h8.753v100.543h-8.753V171.191Z" fill="#f5f5f5" fill-rule="evenodd" data-name="path100"/><path d="M290.196 244.318h17.632v23.497h-17.632v-23.497Z" fill="#f0f0f0" fill-rule="evenodd" data-name="path102"/><path d="M290.196 244.318h-3.449v23.497h3.449v-23.497Z" fill="#e1e1e1" fill-rule="evenodd" data-name="path104"/><path d="M290.196 184.658h23.303v18.65h-23.303v-18.65Z" fill="#fafafa" fill-rule="evenodd" data-name="path106"/><path d="M290.196 184.658h-3.449v18.65h3.449v-18.65Z" fill="#f0f0f0" fill-rule="evenodd" data-name="path108"/><path d="M257.442 166.044H92.898V57.967h164.544v108.077Z" fill="#e7e7e7" fill-rule="evenodd" data-name="path110"/><path d="M259.662 166.044H95.118V57.967h164.544v108.077Z" fill="#f5f5f5" fill-rule="evenodd" data-name="path112"/><path d="M99.105 62.445h156.57v99.121H99.106V62.445Z" fill="#fff" fill-rule="evenodd" data-name="path114"/><path d="M253.997 62.445h1.68v99.121h-1.68V62.445Z" fill="#e7e7e7" fill-rule="evenodd" data-name="path116"/><path d="M258.014 136.525H96.768v-6.01h161.246v6.01Z" fill="#f5f5f5" fill-rule="evenodd" data-name="path118"/><g data-name="g120"><path d="M264.008 50.556H88.553a.615.615 0 0 0 0 1.228h175.455a.615.615 0 0 0 0-1.228" fill="#e7e7e7" fill-rule="evenodd" data-name="path122"/></g><g data-name="g124"><path d="M266.156 51.17a1.535 1.535 0 1 1-3.069-.001 1.535 1.535 0 0 1 3.07 0" fill="#e7e7e7" fill-rule="evenodd" data-name="path126"/></g><g data-name="g128"><path d="M93.727 54.607a.83.83 0 0 1-.829-.829v-1.78a.83.83 0 0 1 .829-.828c.455 0 .828.373.828.828v1.78a.831.831 0 0 1-.828.829" fill="#e7e7e7" fill-rule="evenodd" data-name="path130"/></g><g data-name="g132"><path d="M254.753 54.607a.83.83 0 0 1-.828-.829v-1.78a.83.83 0 0 1 .828-.828c.456 0 .829.373.829.828v1.78a.831.831 0 0 1-.829.829" fill="#e7e7e7" fill-rule="evenodd" data-name="path134"/></g><g data-name="g136"><g data-name="g148"><g data-name="g146" transform="translate(96.768 51.17)" clip-path="url(&quot;#b&quot;)"><path d="M167.044 106.193H0V0h167.045v106.193Z" fill="#e1e1e1" fill-rule="evenodd" data-name="path144"/></g></g></g><g data-name="g150"><path d="M105.13 51.17a1.534 1.534 0 1 1-3.069 0 1.534 1.534 0 0 1 3.069 0" fill="#e7e7e7" fill-rule="evenodd" data-name="path152"/></g><path d="M115.803 214.247h150.87v-6.199h-150.87v6.199Z" fill="#f0f0f0" fill-rule="evenodd" data-name="path154"/><path d="M115.803 214.247H97.94v-6.199h17.863v6.199Z" fill="#e7e7e7" fill-rule="evenodd" data-name="path156"/><path d="M264.193 217.841H100.7v-3.594h163.493v3.594Z" fill="#e1e1e1" fill-rule="evenodd" data-name="path158"/><path d="M264.193 271.733h-1.752V217.05h1.752v54.684Z" fill="#e1e1e1" fill-rule="evenodd" data-name="path160"/><path d="M117.555 271.733h-1.752V217.05h1.752v54.684Z" fill="#e1e1e1" fill-rule="evenodd" data-name="path162"/><path d="M102.45 271.733H100.7V217.05h1.751v54.684Z" fill="#e1e1e1" fill-rule="evenodd" data-name="path164"/><path d="M249.088 271.733h-1.751V217.05h1.751v54.684Z" fill="#e1e1e1" fill-rule="evenodd" data-name="path166"/><g data-name="g168"><path d="m213.073 151.204 6.063 10.805c-.186 23.353 1.893 24.699 1.912 28.716h-6.415c-.585-19.547-4.364-17.883-1.56-39.52" fill="#e1e1e1" fill-rule="evenodd" data-name="path170"/></g><g data-name="g172"><path d="M217.747 179.519c-2.154-22.52-37.604-18.913-40.97-8.338-3.366 10.575 42.208 21.29 40.97 8.338" fill="#e1e1e1" fill-rule="evenodd" data-name="path174"/></g><g data-name="g176"><path d="M215.072 170.384c4.686-16.614-16.657-19.75-26.19-14.945-5.613 5.638 23.495 24.5 26.19 14.945" fill="#e1e1e1" fill-rule="evenodd" data-name="path178"/></g><g data-name="g180"><path d="M209.195 159.917c10.988-3.568 3.872-15.093-2.686-18.054-5.393-.753-3.634 20.106 2.686 18.054" fill="#e1e1e1" fill-rule="evenodd" data-name="path182"/></g><g data-name="g184"><path d="M221.267 170.842c-12.428-9.406 2.644-18.442 12.645-18.394 7.37 1.879-5.497 23.804-12.645 18.394" fill="#e1e1e1" fill-rule="evenodd" data-name="path186"/></g><g data-name="g188"><path d="M219.035 161.381c-16.56-4.184-6.656-15.988 2.927-18.83 7.978-.574 6.597 21.236-2.927 18.83" fill="#e1e1e1" fill-rule="evenodd" data-name="path190"/></g><g data-name="g192"><path d="M215.992 180.885c-3.084-20.32 30.255-19.342 32.953-11.288 2.697 8.054-31.18 22.973-32.953 11.288" fill="#e1e1e1" fill-rule="evenodd" data-name="path194"/></g><g data-name="g196"><path d="M214.244 208.048c-12.065 0-22.246-.528-24.722-11.98-.655-3.029-1.4-6.038-2.577-8.906l-.19-.461h54.978l-.19.461c-1.175 2.868-1.92 5.877-2.576 8.906-2.476 11.452-12.657 11.98-24.723 11.98" fill="#fafafa" fill-rule="evenodd" data-name="path198"/></g><g data-name="g200"><path d="M245.294 187.75h-62.098l-1.778-5.185h65.654l-1.778 5.185Z" fill="#f0f0f0" fill-rule="evenodd" data-name="path202"/></g></g></g><g data-name="g204"><g data-name="g206" transform="translate(83 2035)" clip-path="url(&quot;#c&quot;)"><g data-name="g212"><path d="M131.855 69.142c32.654 20.994 46.574 20.53 82.945 29.006 29.735 6.93 62.2 24.741 78.849 51.015 43.858 69.217-58.687 96.393-111.601 92.936-37.254-2.433-56.581-19.432-74.304-50.091-6.894-11.924-11.632-25.287-20.585-36.225-9.619-11.75-23.803-15.843-33.11-26.013C8.945 80.48 88.33 41.156 131.856 69.142" fill="#007cff" fill-rule="evenodd" data-name="path214"/></g><g data-name="g216"><g data-name="g230"><g data-name="g228" transform="translate(40.618 59.816)" clip-path="url(&quot;#d&quot;)"><g data-name="g226"><path d="M91.237 9.326c32.653 20.994 46.574 20.53 82.945 29.006 29.735 6.93 62.2 24.742 78.848 51.016 43.859 69.217-58.686 96.392-111.6 92.936-37.255-2.433-56.582-19.433-74.305-50.092-6.893-11.924-11.632-25.287-20.584-36.224-9.62-11.751-23.804-15.843-33.11-26.014-45.105-49.291 34.28-88.614 77.806-60.628" fill="#fff" fill-rule="evenodd" data-name="path224"/></g></g></g></g></g></g><g data-name="g232"><g data-name="g234" transform="translate(83 2035)" clip-path="url(&quot;#e&quot;)"><g data-name="g240"><path d="M315.429 295.78c0 4.444-61.685 8.046-137.778 8.046-76.093 0-137.778-3.602-137.778-8.046 0-4.444 61.685-8.046 137.778-8.046 76.093 0 137.778 3.602 137.778 8.046" fill="#f5f5f5" fill-rule="evenodd" data-name="path242"/></g></g></g><g data-name="g244"><path d="m353.382 2324.935-5.694-.09-.023-13.23 5.694.09.023 13.23Z" fill="#ffb670" fill-rule="evenodd" data-name="path246"/></g><g data-name="g248"><path d="M382.322 2324.956h-5.704l-1.692-13.209h5.703l1.693 13.209Z" fill="#ffb670" fill-rule="evenodd" data-name="path250"/></g><g data-name="g252"><g data-name="g254" transform="translate(83 2035)" clip-path="url(&quot;#f&quot;)"><g data-name="g260"><path d="M293.018 289.296h6.954c.233 0 .427.162.469.39l.913 5.07c.094.525-.34 1.023-.879 1.014-2.235-.039-3.862-.17-6.68-.17-1.734 0-6.97.18-9.364.18-2.341 0-2.607-2.368-1.618-2.582 4.436-.96 7.803-2.288 9.264-3.552.263-.228.6-.35.94-.35" fill="#1a2e35" fill-rule="evenodd" data-name="path262"/></g><g data-name="g264"><path d="m264.409 289.186 6.223.098c.233.004.424.169.458.397l.778 5.086a.882.882 0 0 1-.89 1.003c-2.242-.074-5.476-.256-8.298-.3-3.299-.052-3.663.083-7.532.022-2.34-.037-2.827-2.414-1.832-2.613 4.524-.906 5.674-.953 9.69-3.27.436-.252.911-.43 1.403-.423" fill="#1a2e35" fill-rule="evenodd" data-name="path266"/></g><g data-name="g268"><path d="M266.938 120.181a126.778 126.778 0 0 1-5.222 12.049 99.704 99.704 0 0 1-3.117 5.834 63.468 63.468 0 0 1-3.655 5.705l-1.077 1.442a7.815 7.815 0 0 1-2.422 2.058c-1.008.556-2.166.813-3.179.838a8.683 8.683 0 0 1-2.698-.357c-1.553-.466-2.748-1.128-3.812-1.841a26.58 26.58 0 0 1-2.871-2.26c-3.458-3.176-6.107-6.633-8.52-10.413l3.378-2.634c1.456 1.404 2.994 2.856 4.543 4.18 1.548 1.338 3.121 2.619 4.714 3.696a19.56 19.56 0 0 0 2.353 1.41c.76.378 1.502.66 2.014.728.252.04.424.014.464-.017.048-.035-.05-.045-.133-.024-.084.02-.108.04-.061-.057l.748-1.18c2.04-3.339 3.865-7.05 5.576-10.806 1.711-3.744 3.36-7.64 4.892-11.413l8.085 3.062Z" fill="#ffb670" fill-rule="evenodd" data-name="path270"/></g><g data-name="g272"><path d="M269.073 116.46c1.877 5.12-7.995 20.06-7.995 20.06l-11.352-6.297s2.726-7.472 6.71-13.293c4.092-5.978 10.578-6.09 12.637-.47" fill="#007cff" fill-rule="evenodd" data-name="path274"/></g><g data-name="g276"><g data-name="g290"><g data-name="g288" transform="translate(249.726 112.343)" clip-path="url(&quot;#g&quot;)"><g data-name="g286"><path d="M19.347 4.117c1.877 5.12-7.995 20.06-7.995 20.06L0 17.881s2.726-7.472 6.71-13.294c4.092-5.978 10.578-6.09 12.637-.47" fill="#fff" fill-rule="evenodd" data-name="path284"/></g></g></g></g><g data-name="g292"><g data-name="g306"><g data-name="g304" transform="translate(254.176 121.97)" clip-path="url(&quot;#h&quot;)"><g data-name="g302"><path d="M8.595.095C6.417 1.2 1.455 6.61 0 10.722l6.9 3.827s3.804-5.754 6.237-11.346C11.57 1.696 9.746-.485 8.595.095" fill="#007cff" fill-rule="evenodd" data-name="path300"/></g></g></g></g><g data-name="g308"><path d="m234.136 130.684-3.466-3.135-3.274 5.607s3.328 3.907 7.02 2.004l.496-1.396a2.86 2.86 0 0 0-.776-3.08" fill="#ffb670" fill-rule="evenodd" data-name="path310"/></g><g data-name="g312"><path d="m225.07 125.189-.963 5.446 3.29 2.52 3.273-5.607-5.6-2.359Z" fill="#ffb670" fill-rule="evenodd" data-name="path314"/></g><g data-name="g316"><g data-name="g330"><g data-name="g328" transform="translate(264.665 276.619)" clip-path="url(&quot;#i&quot;)"><g data-name="g326"><path d="M0 0 .01 6.82l5.697.09L5.697.09 0 0Z" fill-rule="evenodd" data-name="path324"/></g></g></g></g><g data-name="g332"><g data-name="g346"><g data-name="g344" transform="translate(291.925 276.75)" clip-path="url(&quot;#j&quot;)"><g data-name="g342"><path d="M5.706 0H0l.875 6.808h5.706L5.706 0Z" fill-rule="evenodd" data-name="path340"/></g></g></g></g><g data-name="g348"><path d="M294.293 112.49c-4.715 22.021-1.977 44.89-2.226 49.569-4.473-.032-21.323-.185-30.508-.27-6.103-32.134.778-49.3.778-49.3s1.927-.507 4.564-.953c.827-.14 1.72-.274 2.652-.384a38.551 38.551 0 0 1 1.57-.16c3.43-.282 9.075-.103 12.97.116.815.048 1.648.115 2.452.193a80.316 80.316 0 0 1 7.748 1.19" fill="#007cff" fill-rule="evenodd" data-name="path350"/></g><g data-name="g352"><g data-name="g366"><g data-name="g364" transform="translate(259.035 110.847)" clip-path="url(&quot;#k&quot;)"><g data-name="g362"><path d="M35.259 1.643c-4.716 22.021-1.977 44.89-2.227 49.569-4.473-.032-21.323-.185-30.508-.27-6.103-32.134.778-49.3.778-49.3S5.23 1.136 7.866.69c.828-.14 1.72-.273 2.652-.384a38.551 38.551 0 0 1 1.57-.16c3.43-.282 9.075-.103 12.97.116.816.048 1.648.115 2.452.193a80.316 80.316 0 0 1 7.748 1.19" fill="#fff" fill-rule="evenodd" data-name="path360"/></g></g></g></g><g data-name="g368"><g data-name="g382"><g data-name="g380" transform="translate(288.346 122.189)" clip-path="url(&quot;#l&quot;)"><g data-name="g378"><path d="M.077 0c-.41 2.127.84 11.631 3.178 13.842.097-3.075.286-6.292.597-9.589L.077 0Z" fill-rule="evenodd" data-name="path376"/></g></g></g></g><g data-name="g384"><path d="M282.936 96.493c-.855 4.165-1.74 11.803 1.155 14.613-2.288 2.234-5.276 4.813-10.233 4.943-4.956.13-4.06-3.27-2.736-5.058 4.663-1.07 4.575-4.523 3.792-7.772l8.022-6.726Z" fill="#ffb670" fill-rule="evenodd" data-name="path386"/></g><g data-name="g388"><path d="M283.246 109.512s-1.504 3.948-9.582 6.539c2.082.883 3 2.935 3 2.935s9.448-2.405 8.73-8.384c-.598-.527-2.148-1.09-2.148-1.09" fill="#fff" fill-rule="evenodd" data-name="path390"/></g><g data-name="g392"><path d="M270.574 118.65s1.105-1.953 3.09-2.599c-.915-.834-2.38-3.428-1.737-5.449-1.278.024-1.897.243-1.897.243s-3.376 3.235.544 7.805" fill="#fff" fill-rule="evenodd" data-name="path394"/></g><g data-name="g396"><path d="M273.432 120.648c-.06.564-.356.994-.66.961-.303-.033-.5-.517-.438-1.08.06-.564.357-.993.66-.961.304.033.5.517.438 1.08" fill="#fff" fill-rule="evenodd" data-name="path398"/></g><g data-name="g400"><path d="M272.883 126.49c-.012.566-.268 1.02-.574 1.015-.305-.007-.543-.47-.532-1.038.011-.567.269-1.02.573-1.015.306.006.544.47.533 1.037" fill="#fff" fill-rule="evenodd" data-name="path402"/></g><g data-name="g404"><g data-name="g418"><g data-name="g416" transform="translate(274.918 99.237)" clip-path="url(&quot;#m&quot;)"><g data-name="g414"><path d="M4.748 0 0 3.98c.188.769.332 1.548.38 2.305 1.78-.242 4.239-2.17 4.444-4.03.102-.928.072-1.82-.076-2.254" fill-rule="evenodd" data-name="path412"/></g></g></g></g><g data-name="g420"><path d="M274.504 86.99c-2.708 2.925-2.595 6.391-2.29 7.437-1.312 1.133-3.688.932-3.688.932l-.753-.756a3.53 3.53 0 0 1-1.02-2.78c.136-1.662.514-4.184 1.565-5.781 1.68-2.551 6.186.948 6.186.948" fill="#1a2e35" fill-rule="evenodd" data-name="path422"/></g><g data-name="g424"><path d="M283.489 90.218c-.398 5.647-.344 8.972-3.223 11.847-4.331 4.324-11.282 1.674-12.58-3.978-1.168-5.087-.322-13.467 5.229-15.666 5.468-2.166 10.97 2.15 10.574 7.797" fill="#ffb670" fill-rule="evenodd" data-name="path426"/></g><g data-name="g428"><path d="M278.77 86.792c1.195 2.729.803 5.226.265 6.685-.344.93.134 1.987 1.082 2.278.788.242 1.516.207 1.516.207l2.724-.518s1.145-4.052.395-7.013c-.75-2.961-5.981-1.639-5.981-1.639" fill="#1a2e35" fill-rule="evenodd" data-name="path430"/></g><g data-name="g432"><path d="M278.751 87.542c-6.488.672-12.495-.651-12.495-.651s1.336-4.224 4.335-5.675c2.998-1.45 9.335-1.332 11.289-.503 1.954.829 4.51 3.335 3.547 9.475-2.014 2.22-6.676-2.646-6.676-2.646" fill="#1a2e35" fill-rule="evenodd" data-name="path434"/></g><g data-name="g436"><path d="M286.283 89.274s-15.915-2.31-22.508-3.467c-.487-.086-.467-.788.022-.855 3.73-.516 8.268.371 8.268.371l14.218 3.951Z" fill="#007cff" fill-rule="evenodd" data-name="path438"/></g><g data-name="g440"><path d="M266.369 84.962c.288-1.412 2.746-8.766 13.064-6.535 9.555 2.066 6.85 10.847 6.85 10.847l-19.914-4.312Z" fill="#007cff" fill-rule="evenodd" data-name="path442"/></g><g data-name="g444"><path d="m272.835 78.65 3.456-1.024 4.16.34v.72l-2.642.613-4.974-.65Z" fill="#007cff" fill-rule="evenodd" data-name="path446"/></g><g data-name="g448"><g data-name="g462"><g data-name="g460" transform="translate(273.086 78.142)" clip-path="url(&quot;#n&quot;)"><g data-name="g458"><path d="M.266 7.56A.267.267 0 0 1 0 7.293C0 7.236.078 1.522 6.84.006a.269.269 0 0 1 .318.202.268.268 0 0 1-.201.319C.62 1.947.534 7.076.533 7.294c0 .146-.12.266-.267.266" fill-rule="evenodd" data-name="path456"/></g></g></g></g><g data-name="g464"><path d="M285.9 95.975c-.76 1.323-2.062 2.172-3.278 2.478-1.83.462-2.696-1.186-2.148-2.887.493-1.532 2.039-3.618 3.857-3.324 1.79.288 2.44 2.22 1.57 3.733" fill="#ffb670" fill-rule="evenodd" data-name="path466"/></g><g data-name="g468"><path d="m262.902 282.088 9.656.146s2.619-38.209 2.328-55.98c-.088-5.407.5-13.015 1.395-21.186 1.131-10.295 1.73-14.412 3.214-27.427 1.058-9.282 2.12-15.671 2.12-15.671l-20.056-.177s-2.568 46.541-2.04 63.942c.545 18.093 3.383 56.353 3.383 56.353" fill="#1a2e35" fill-rule="evenodd" data-name="path470"/></g><g data-name="g472"><g data-name="g486"><g data-name="g484" transform="translate(273.618 174.585)" clip-path="url(&quot;#o&quot;)"><g data-name="g482"><path d="M1.771 0c-3.004 9.17-1.704 30.106.334 35.89.17-1.762.358-3.57.557-5.405 1.135-10.3 1.735-14.413 3.219-27.428.026-.258.06-.51.085-.76C4.66 1.291 3.247.465 1.77 0" fill-rule="evenodd" data-name="path480"/></g></g></g></g><g data-name="g488"><path d="M272.38 161.888s6.81 47.904 9.235 64.44c2.656 18.107 8.545 55.912 8.545 55.912h10.447s-1.964-35.63-4.211-53.333c-2.56-20.165-4.331-66.843-4.331-66.843l-19.685-.176Z" fill="#1a2e35" fill-rule="evenodd" data-name="path490"/></g><g data-name="g492"><path d="M288.91 282.467h12.301v-3.675l-13.751-.24 1.45 3.915Z" fill="#007cff" fill-rule="evenodd" data-name="path494"/></g><g data-name="g496"><path d="m261.449 282.293 11.485.18.527-3.718-12.81-.396.798 3.934Z" fill="#007cff" fill-rule="evenodd" data-name="path498"/></g><g data-name="g500"><path d="M274.904 91.72c-.004.46-.251.832-.551.83-.301-.004-.541-.379-.537-.84.004-.458.25-.83.551-.827.3.003.542.378.537.838" fill="#1a2e35" fill-rule="evenodd" data-name="path502"/></g><g data-name="g504"><path d="M269.705 91.675c-.005.46-.252.83-.552.828-.301-.003-.542-.378-.538-.838.005-.46.252-.832.553-.829.3.003.541.379.537.839" fill="#1a2e35" fill-rule="evenodd" data-name="path506"/></g><g data-name="g508"><path d="M271.199 92.155s-1.07 2.645-2.233 3.915c.807.767 2.194.432 2.194.432l.039-4.347Z" fill="#ff8a35" fill-rule="evenodd" data-name="path510"/></g><g data-name="g512"><path d="M273.245 97.87c1.752-.22 2.575-1.428 2.612-1.485a.135.135 0 0 0-.225-.15c-.009.015-.97 1.416-2.984 1.4a.135.135 0 1 0-.002.27c.21 0 .41-.011.6-.035" fill="#1a2e35" fill-rule="evenodd" data-name="path514"/></g><g data-name="g516"><path d="M276.523 90.056a.27.27 0 0 0 .183-.43c-.891-1.2-2.137-1.137-2.19-1.134a.271.271 0 0 0 .032.54c.041-.002 1.013-.04 1.724.917a.27.27 0 0 0 .25.107" fill="#1a2e35" fill-rule="evenodd" data-name="path518"/></g><g data-name="g520"><path d="M267.48 89.866a.266.266 0 0 0 .208-.148c.532-1.068 1.495-1.202 1.536-1.207a.272.272 0 0 0 .234-.302.27.27 0 0 0-.299-.235c-.053.008-1.29.165-1.954 1.504a.27.27 0 0 0 .275.388" fill="#1a2e35" fill-rule="evenodd" data-name="path522"/></g><g data-name="g524"><path d="M292.206 289.898c-.977.194-1.72.159-2.02-.104-.133-.115-.185-.274-.163-.49.01-.104.054-.14.092-.158.335-.169 1.362.32 2.091.752m-1.117.395c.528 0 1.101-.11 1.501-.206a.142.142 0 0 0 .106-.11.129.129 0 0 0-.055-.136c-.203-.13-1.995-1.26-2.64-.935a.454.454 0 0 0-.248.382c-.03.301.053.541.25.713.25.217.651.292 1.086.292" fill="#007cff" fill-rule="evenodd" data-name="path526"/></g><g data-name="g528"><path d="M291.504 287.779a.46.46 0 0 1 .306.119c.41.346.552 1.306.598 1.787-.568-.446-1.255-1.39-1.168-1.766.009-.034.027-.114.203-.136a.45.45 0 0 1 .061-.004m1.054 2.312a.142.142 0 0 0 .14-.145c-.001-.07-.069-1.716-.708-2.258a.717.717 0 0 0-.569-.173c-.324.04-.418.238-.444.353-.148.636.941 1.886 1.517 2.206.02.012.042.017.064.017" fill="#007cff" fill-rule="evenodd" data-name="path530"/></g><g data-name="g532"><path d="M260.815 288.974c.44-.142 1.65.352 2.524.797-1.272.19-2.207.12-2.537-.196-.115-.112-.159-.255-.132-.438.01-.07.039-.113.095-.142a.676.676 0 0 1 .05-.021m2.98.992a.15.15 0 0 0 .096-.108.129.129 0 0 0-.062-.14c-.25-.138-2.46-1.336-3.18-.961a.463.463 0 0 0-.247.356c-.039.269.03.491.208.661.587.564 2.235.365 3.166.196l.018-.004" fill="#007cff" fill-rule="evenodd" data-name="path534"/></g><g data-name="g536"><path d="M262.432 287.507h-.003Zm-.135.16a.69.69 0 0 1 .678.154c.449.4.589 1.322.63 1.772-.672-.434-1.532-1.418-1.443-1.804.005-.024.02-.085.135-.121m1.497 2.298a.145.145 0 0 0 .1-.14c-.002-.065-.05-1.603-.734-2.21a.945.945 0 0 0-.732-.243c-.374.03-.494.218-.53.368-.148.644 1.13 1.9 1.797 2.218.03.015.066.017.099.007" fill="#007cff" fill-rule="evenodd" data-name="path538"/></g><g data-name="g540"><path d="M286.227 109.642a2.242 2.242 0 0 0-1.955.689c-1.962 2.106-6.638 8.645-7.608 23.854-1.235 19.364 3.138 34.169 3.138 34.169l12.149-3.448a1.708 1.708 0 0 0 1.231-1.839c-.332-2.869-1.035-9.682-1.231-17.334-.138-5.392.268-10.24.247-12.443-1.333-2.618-3.738-6.888-2.872-11.54.967-5.195 3.829-5.909 5.77-6.86 1.133-.555 1.095-2.194-.04-2.744-3.248-1.573-7.016-2.252-8.83-2.504" fill="#007cff" fill-rule="evenodd" data-name="path542"/></g><g data-name="g544"><path d="m269.123 168.354-8.331-2.612a1.708 1.708 0 0 1-1.183-1.41c-.722-5.497-3.679-30.744.159-49.49a3.716 3.716 0 0 1 2.417-2.778c1.63-.563 4.17-1.274 7.393-1.616a.455.455 0 0 1 .483.574c-1.584 5.777-4.208 37.522-.938 57.332" fill="#007cff" fill-rule="evenodd" data-name="path546"/></g><g data-name="g548"><path d="M258.197 149.027c.15 2.658.341 5.11.533 7.263 3.02.34 6.111.575 9.181.725a181.057 181.057 0 0 1-.291-7.185c-3.184-.17-6.353-.426-9.423-.803" fill="#fff" fill-rule="evenodd" data-name="path550"/></g><g data-name="g552"><path d="M267.698 136.493c-3.375-.142-6.694-.405-9.849-.811-.021 2.459.007 4.875.078 7.199 3.134.384 6.374.632 9.643.767.007-2.423.057-4.825.128-7.155" fill="#fff" fill-rule="evenodd" data-name="path554"/></g><g data-name="g556"><path d="M292.079 149.354c-4.441.434-9.721.697-15.278.704.199 2.608.469 5.01.775 7.15 5.436-.037 10.573-.32 14.98-.755-.186-2.16-.356-4.575-.477-7.099" fill="#fff" fill-rule="evenodd" data-name="path558"/></g><g data-name="g560"><path d="M292.136 135.725c-4.726.49-10.098.824-15.598.896-.1 2.48-.114 4.874-.064 7.155 5.436-.07 10.723-.39 15.455-.867.008-2.771.128-5.28.207-7.184" fill="#fff" fill-rule="evenodd" data-name="path562"/></g><g data-name="g564"><path d="m314.44 172.675-32.28 5.385c-.903.15-1.69-.463-1.76-1.372l-1.543-20.01c-.07-.907.605-1.765 1.507-1.916l32.28-5.385c.902-.15 1.69.464 1.76 1.372l1.542 20.01c.07.908-.604 1.765-1.506 1.916" fill="#007cff" fill-rule="evenodd" data-name="path566"/></g><g data-name="g568"><g data-name="g582"><g data-name="g580" transform="translate(279.598 149.355)" clip-path="url(&quot;#p&quot;)"><g data-name="g578"><path d="M34.842 23.32 3.307 28.582c-.902.15-1.69-.464-1.76-1.371L.005 7.2c-.07-.908.605-1.767 1.507-1.917L33.046.023c.902-.15 1.69.463 1.76 1.372l1.542 20.01c.07.907-.604 1.765-1.506 1.916" fill-rule="evenodd" data-name="path576"/></g></g></g></g><g data-name="g584"><path d="M295.586 116.11c1.795 4.092 3.39 8.17 4.831 12.371.735 2.091 1.402 4.21 2.055 6.344.317 1.073.622 2.146.911 3.236l.22.815.23.937c.166.64.254 1.275.368 1.91.694 5.096-.055 9.862-1.26 14.319a55.166 55.166 0 0 1-2.242 6.495 68.528 68.528 0 0 1-1.408 3.102 40.17 40.17 0 0 1-1.616 3.05l-3.867-1.838c.616-1.925 1.243-3.999 1.707-6.03a66.39 66.39 0 0 0 1.21-6.11c.28-2.03.495-4.049.487-6.015.027-1.965-.147-3.873-.539-5.63-.114-.43-.199-.873-.343-1.279l-.205-.637-.268-.747c-.348-.994-.735-1.986-1.101-2.983-.738-1.996-1.542-3.98-2.32-5.978l-4.802-11.938 7.952-3.395Z" fill="#ffb670" fill-rule="evenodd" data-name="path586"/></g><g data-name="g588"><path d="M294.292 112.491c5.12 1.878 8.442 16.619 8.442 16.619l-11.339 7.816s-3.481-8.705-5.397-15.488c-2.086-7.389 2.092-11.222 8.294-8.947" fill="#007cff" fill-rule="evenodd" data-name="path590"/></g><g data-name="g592"><g data-name="g606"><g data-name="g604" transform="translate(285.456 111.838)" clip-path="url(&quot;#q&quot;)"><g data-name="g602"><path d="M8.837.653c5.12 1.878 8.44 16.619 8.44 16.619L5.94 25.088S2.458 16.383.543 9.6C-1.544 2.211 2.635-1.622 8.837.653" fill="#fff" fill-rule="evenodd" data-name="path600"/></g></g></g></g><g data-name="g608"><path d="m293.359 167.743-.99 4.37 6.833-.197s.546-5.28-2.157-6.113l-2.108.41a2.01 2.01 0 0 0-1.578 1.53" fill="#ffb670" fill-rule="evenodd" data-name="path610"/></g><g data-name="g612"><path d="m294.512 177.57 4.102-.837c.5-.1.847-.555.816-1.063l-.228-3.754-6.832.197.936 4.656c.111.555.652.913 1.206.8" fill="#ffb670" fill-rule="evenodd" data-name="path614"/></g></g></g><g data-name="g616"><g data-name="g618" transform="translate(83 2035)" clip-path="url(&quot;#r&quot;)"><g data-name="g624"><path d="M234.838 81.74H112.17a2.59 2.59 0 0 0-2.59 2.667l4.948 168.941a2.591 2.591 0 0 0 2.59 2.516h122.668a2.591 2.591 0 0 0 2.591-2.668L237.43 84.255a2.592 2.592 0 0 0-2.59-2.516" fill="#007cff" fill-rule="evenodd" data-name="path626"/></g><g data-name="g628"><g data-name="g642"><g data-name="g640" transform="translate(109.578 81.74)" clip-path="url(&quot;#s&quot;)"><g data-name="g638"><path d="M125.26 0H2.592a2.59 2.59 0 0 0-2.59 2.668l4.948 168.94a2.591 2.591 0 0 0 2.59 2.516h122.668a2.591 2.591 0 0 0 2.591-2.667L127.851 2.516A2.592 2.592 0 0 0 125.261 0" fill-rule="evenodd" data-name="path636"/></g></g></g></g><path d="M139.102 79.963h-11.509v-.71h11.509v.71Z" fill="#007cff" fill-rule="evenodd" data-name="path644"/><path d="M123.486 79.963h-2.92v-.71h2.92v.71Z" fill="#007cff" fill-rule="evenodd" data-name="path646"/><g data-name="g648"><path d="M236.022 81.74H113.353a2.59 2.59 0 0 0-2.59 2.667l4.948 168.941a2.592 2.592 0 0 0 2.59 2.516H240.97a2.591 2.591 0 0 0 2.591-2.668l-4.948-168.941a2.592 2.592 0 0 0-2.59-2.516" fill="#007cff" fill-rule="evenodd" data-name="path650"/></g><g data-name="g652"><g data-name="g666"><g data-name="g664" transform="translate(116.017 88.363)" clip-path="url(&quot;#t&quot;)"><g data-name="g662"><path d="m.001 2.53 4.61 157.353a2.622 2.622 0 0 0 2.603 2.53h111.081a2.442 2.442 0 0 0 2.456-2.53L116.142 2.531a2.622 2.622 0 0 0-2.604-2.532H2.458A2.443 2.443 0 0 0 0 2.531" fill-rule="evenodd" data-name="path660"/></g></g></g></g><g data-name="g668"><path d="m116.786 90.125 4.61 157.353a2.622 2.622 0 0 0 2.604 2.53h111.08a2.442 2.442 0 0 0 2.456-2.53l-4.609-157.353a2.621 2.621 0 0 0-2.604-2.53h-111.08a2.443 2.443 0 0 0-2.457 2.53" fill="#fff" fill-rule="evenodd" data-name="path670"/></g><g data-name="g672"><path d="M150.939 140.804H129.59l-.625-21.348h21.347l.626 21.348Z" fill="#f5f5f5" fill-rule="evenodd" data-name="path674"/></g><g data-name="g676"><path d="M220.438 127.934h-60.36l-.116-3.984h60.358l.118 3.984Z" fill="#e1e1e1" fill-rule="evenodd" data-name="path678"/></g><g data-name="g680"><path d="M207.555 136.31h-47.23l-.117-3.984h47.23l.117 3.984Z" fill="#e1e1e1" fill-rule="evenodd" data-name="path682"/></g><g data-name="g684"><path d="M152.06 179.1h-21.348l-.624-21.347h21.347l.625 21.347Z" fill="#f5f5f5" fill-rule="evenodd" data-name="path686"/></g><g data-name="g688"><path d="M183.374 166.231H161.2l-.116-3.983h22.174l.116 3.983Z" fill="#e1e1e1" fill-rule="evenodd" data-name="path690"/></g><g data-name="g692"><path d="M204.378 166.231h-16.31l-.117-3.983h16.31l.117 3.983Z" fill="#e1e1e1" fill-rule="evenodd" data-name="path694"/></g><g data-name="g696"><path d="M214.264 174.606h-52.819l-.116-3.983h52.818l.117 3.983Z" fill="#e1e1e1" fill-rule="evenodd" data-name="path698"/></g><g data-name="g700"><path d="M153.182 217.398h-21.348l-.625-21.348h21.348l.625 21.348Z" fill="#f5f5f5" fill-rule="evenodd" data-name="path702"/></g><g data-name="g704"><path d="M222.81 208.92h-60.36l.117 3.984h60.36l-.118-3.984Z" fill="#e1e1e1" fill-rule="evenodd" data-name="path706"/></g><g data-name="g708"><path d="M209.437 200.544h-47.231l.116 3.984h47.231l-.116-3.984Z" fill="#e1e1e1" fill-rule="evenodd" data-name="path710"/></g><g data-name="g712"><path d="M141.323 135.258c-.377.549-1.207.51-1.563-.074-1.386-2.276-4.035-4.35-5.559-5.378a.939.939 0 0 1-.3-1.241l.002-.002c.264-.46.865-.588 1.318-.284 1.297.873 3.112 2.288 4.594 3.948.388.435 1.06.442 1.413.001 2.578-3.216 6.139-6.532 10.804-10.067.405-.307.996-.216 1.312.201a.923.923 0 0 1-.165 1.296c-5.456 4.133-9.338 7.933-11.856 11.6" fill="#007cff" fill-rule="evenodd" data-name="path714"/></g><g data-name="g716"><path d="M142.445 173.556c-.378.548-1.207.509-1.563-.075-1.386-2.276-4.035-4.35-5.559-5.377a.94.94 0 0 1-.3-1.242l.002-.002c.264-.46.865-.587 1.317-.283 1.298.873 3.112 2.287 4.595 3.948.388.434 1.06.442 1.413 0 2.578-3.215 6.138-6.532 10.803-10.067.406-.306.997-.215 1.313.201a.923.923 0 0 1-.166 1.297c-5.455 4.132-9.338 7.932-11.855 11.6" fill="#007cff" fill-rule="evenodd" data-name="path718"/></g><g data-name="g720"><path d="M143.569 211.936c-.377.548-1.207.509-1.563-.075-1.386-2.276-4.035-4.35-5.559-5.377a.94.94 0 0 1-.3-1.242l.002-.002c.263-.46.865-.587 1.317-.283 1.298.873 3.113 2.288 4.595 3.948.388.434 1.06.442 1.413 0 2.578-3.216 6.139-6.532 10.804-10.067.405-.306.996-.215 1.312.201a.923.923 0 0 1-.166 1.297c-5.455 4.132-9.337 7.933-11.855 11.6" fill="#007cff" fill-rule="evenodd" data-name="path722"/></g><g data-name="g724"><path d="M192.868 240.447c-3.271 0-5.02-1.209-6.564-2.276-1.475-1.02-2.868-1.984-5.634-1.984-2.764 0-4.101.964-5.518 1.984-1.48 1.067-3.158 2.276-6.43 2.276-3.27 0-5.02-1.209-6.562-2.276-1.476-1.02-2.87-1.984-5.634-1.984-2.764 0-4.101.964-5.516 1.984-1.48 1.067-3.158 2.276-6.43 2.276-3.27 0-5.02-1.209-6.562-2.276-1.476-1.02-2.87-1.984-5.633-1.984l-.047-1.597c3.271 0 5.02 1.21 6.563 2.276 1.475 1.02 2.869 1.984 5.632 1.984 2.765 0 4.102-.964 5.517-1.984 1.48-1.067 3.158-2.276 6.43-2.276 3.27 0 5.02 1.21 6.562 2.276 1.476 1.02 2.869 1.984 5.634 1.984 2.764 0 4.102-.964 5.518-1.984 1.48-1.067 3.158-2.276 6.43-2.276s5.02 1.21 6.563 2.276c1.476 1.02 2.87 1.984 5.634 1.984l.047 1.597Z" fill="#ececec" fill-rule="evenodd" data-name="path726"/></g><g data-name="g728"><path d="M203.435 86.61h-.13l-.01-.039c-1.639-5.209-5.575-8.661-9.873-8.661h-8.75c-1.307 0-2.514-.908-3.006-2.3-1.176-3.321-4.05-5.687-7.353-5.687s-6.055 2.366-7.06 5.687c-.42 1.392-1.58 2.3-2.886 2.3h-8.751c-4.299 0-8.056 3.452-9.426 8.661l-.01.039h-.128c-.99 0-1.774.918-1.745 2.042.03 1.123.86 2.042 1.85 2.042h57.383c.989 0 1.774-.919 1.745-2.042-.03-1.124-.861-2.042-1.85-2.042" fill="#1a2e35" fill-rule="evenodd" data-name="path730"/></g></g></g><g data-name="g796"><g data-name="g798" transform="translate(83 2035)" clip-path="url(&quot;#u&quot;)"><g data-name="g804"><path d="M89.355 161.469s-2.015 44.221-2.4 62.131c-.4 18.628-.579 62.131-.579 62.131h-4.701s-7.499-36.155-5.28-62.13c-3.358-19.948-5.626-62.132-5.626-62.132h18.586Z" fill="#ff8c7b" fill-rule="evenodd" data-name="path806"/></g><g data-name="g808"><path d="M83.122 161.469s-11.201 46.31-15.78 63.628c-4.81 18.188-11.306 59.285-11.344 60.634h-4.065s-1.28-47.479 5.154-63.629c.027-20.226 8.417-60.633 8.417-60.633h17.618Z" fill="#ff8c7b" fill-rule="evenodd" data-name="path810"/></g><g data-name="g812"><path d="M51.83 283.264c-.772.882-1.386 5.444-.229 7.477 1.157 2.033 0 5.039 3.912 5.039s4.298-.851 3.306-2.67c-.992-1.817-2.128-5.24-2.092-7.379.046-2.751 1.105-4.174-4.898-2.467" fill="#1a2e35" fill-rule="evenodd" data-name="path814"/></g><g data-name="g816"><path d="M51.35 288.02c-.085 2.343-.035 6.177-.035 6.177l.618-.018s.459-4.188.853-5.742l-1.436-.418Z" fill="#1a2e35" fill-rule="evenodd" data-name="path818"/></g><g data-name="g820"><path d="M93.361 133.183c.506 3.605.952 7.217 1.362 10.836.429 3.615.815 7.237 1.176 10.864.091.902.162 1.854.32 2.605.06.394.138.802.231 1.23.091.422.16.845.269 1.269.387 1.69.873 3.39 1.394 5.085a92.648 92.648 0 0 0 1.698 5.083 171.686 171.686 0 0 0 1.902 5.033l-2.622 1.402c-2.058-3.17-3.773-6.452-5.304-9.905-.744-1.731-1.448-3.49-2.023-5.326-.156-.45-.279-.923-.419-1.385a18.48 18.48 0 0 1-.38-1.44c-.274-1.027-.376-1.898-.524-2.807a577.527 577.527 0 0 1-1.612-10.882 413.68 413.68 0 0 1-1.426-10.911l5.958-.75Z" fill="#ff8c7b" fill-rule="evenodd" data-name="path822"/></g><g data-name="g824"><path d="M92.327 127.917c1.495 2.791 2.271 13.81 3.516 21.385.09.549-.232 1.077-.755 1.27-1.853.682-3.474 1.857-4.564 2.784-.667.567-1.694.211-1.879-.644l-3.545-16.43 1.542-3.106a7.509 7.509 0 0 1 5.685-5.26" fill="#1a2e35" fill-rule="evenodd" data-name="path826"/></g><g data-name="g828"><path d="m101.669 174.619 5.171 2.906-5.592 2.095s-2.863-2.456-2.336-4.84l2.757-.161Z" fill="#ff8c7b" fill-rule="evenodd" data-name="path830"/></g><g data-name="g832"><path d="m108.74 182.082-4.778 1.5-2.715-3.962 5.593-2.095 1.9 4.557Z" fill="#ff8c7b" fill-rule="evenodd" data-name="path834"/></g><g data-name="g836"><path d="m99.384 180.817 54.762-6.458.065.52-54.671 7.186-.156-1.248Z" fill="#1a2e35" fill-rule="evenodd" data-name="path838"/></g><g data-name="g840"><path d="M92.851 129.954c.093 4.258-.166 16.29-3.159 34.69H64.759c.4-9.707 1.618-18.964-3.022-38.887 0 0 4.536-.992 9.667-1.238 4.013-.194 7.302-.323 10.83 0 2.333.212 4.822.59 6.725.914a4.684 4.684 0 0 1 3.892 4.52" fill="#1a2e35" fill-rule="evenodd" data-name="path842"/></g><g data-name="g844"><g data-name="g858"><g data-name="g856" transform="translate(79.973 134.846)" clip-path="url(&quot;#v&quot;)"><g data-name="g854"><path d="M.089 29.887h-.01A.088.088 0 0 1 0 29.789C2.27 8.63.276.194.255.11A.09.09 0 0 1 .32.003a.087.087 0 0 1 .108.065c.02.083 2.021 8.55-.251 29.74a.09.09 0 0 1-.088.08" fill="#fff" fill-rule="evenodd" data-name="path852"/></g></g></g></g><g data-name="g860"><path d="M82.235 124.519h-10.83s3.723 6.252 8.657 9.549c3.08-4.62 2.173-9.55 2.173-9.55" fill="#e1e1e1" fill-rule="evenodd" data-name="path862"/></g><g data-name="g864"><path d="M76.092 109.12c2.435 4.117 1.46 9.198-2.176 11.349-3.637 2.15-8.559.556-10.994-3.562-2.435-4.117-1.46-9.198 2.176-11.35 3.636-2.15 8.559-.555 10.994 3.562" fill="#1a2e35" fill-rule="evenodd" data-name="path866"/></g><g data-name="g868"><path d="M60.782 113.615c-.116-2.354.585-4.608 1.975-6.348 1.395-1.745 3.316-2.762 5.408-2.865 2.1-.106 4.105.72 5.664 2.321 1.554 1.594 2.474 3.768 2.59 6.123l-.356.017c-.111-2.267-.995-4.36-2.488-5.893-1.488-1.525-3.404-2.311-5.392-2.213-1.99.098-3.818 1.068-5.148 2.733-1.336 1.67-2.01 3.84-1.898 6.108l-.355.017Z" fill="#1a2e35" fill-rule="evenodd" data-name="path870"/></g><g data-name="g872"><path d="M88.717 115.648c-1.932 3.99-6.572 5.737-10.364 3.9-3.792-1.836-5.3-6.558-3.367-10.55 1.932-3.99 6.572-5.737 10.364-3.9 3.792 1.836 5.3 6.56 3.367 10.55" fill="#1a2e35" fill-rule="evenodd" data-name="path874"/></g><g data-name="g876"><path d="M72.477 112.323c.683 3.485 1.365 9.87-1.073 12.196 0 0 1.884 3.686 7.45 4.989 3.465-2.162 3.38-4.99 3.38-4.99-3.885-.927-3.785-3.81-3.109-6.518l-6.648-5.677Z" fill="#ff8c7b" fill-rule="evenodd" data-name="path878"/></g><g data-name="g880"><path d="m76.583 128.777-4.854-5.724-1.678.888-.277 8.27 3.593-4.717 3.216 1.283Z" fill="#fff" fill-rule="evenodd" data-name="path882"/></g><g data-name="g884"><path d="m79.875 128.773 1.577-5.142 1.982.888 2.171 6.962-3.24-3.987-2.49 1.28Z" fill="#fff" fill-rule="evenodd" data-name="path886"/></g><g data-name="g888"><g data-name="g902"><g data-name="g900" transform="translate(75.065 114.64)" clip-path="url(&quot;#w&quot;)"><g data-name="g898"><path d="m.123 0 3.935 3.358c-.162.64-.289 1.29-.334 1.922C2.24 5.065.2 3.436.043 1.88c-.08-.775-.046-1.52.08-1.88" fill-rule="evenodd" data-name="path896"/></g></g></g></g><g data-name="g904"><path d="M68.801 105.931c1.367 5.667 1.825 8.094 5.238 10.521 5.136 3.652 11.796.734 12.15-5.225.319-5.365-1.969-13.73-7.98-15.017-5.922-1.267-10.774 4.055-9.408 9.721" fill="#ff8c7b" fill-rule="evenodd" data-name="path906"/></g><g data-name="g908"><path d="M70.096 108.545c3.547-2.132 3.082-8.503 3.082-8.503 6.15-.084 8.55.009 10.4.258 1.85.25.73-2.234-2.027-4.278-2.756-2.045-10.158-1.453-12.467 2.456-2.843 1.125-5.556 7.58 1.012 10.067" fill="#1a2e35" fill-rule="evenodd" data-name="path910"/></g><g data-name="g912"><path d="M65.269 103.061s19.994-4.301 24.209-5.5c.007-2.51-10.29.596-10.29.596l-13.919 4.904Z" fill="#007cff" fill-rule="evenodd" data-name="path914"/></g><g data-name="g916"><path d="M84.846 97.41c-.383-1.39-3.334-8.56-13.477-5.636-9.393 2.709-6.1 11.287-6.1 11.287l19.577-5.65Z" fill="#007cff" fill-rule="evenodd" data-name="path918"/></g><g data-name="g920"><path d="m77.967 91.55-3.56-.893-4.086.727.05.718 2.678.433 4.918-.985Z" fill="#007cff" fill-rule="evenodd" data-name="path922"/></g><g data-name="g924"><g data-name="g938"><g data-name="g936" transform="translate(70.462 91.439)" clip-path="url(&quot;#x&quot;)"><g data-name="g934"><path d="M7.448 7.272a.356.356 0 0 1-.354-.33C7.078 6.726 6.644 1.681.3.705A.356.356 0 0 1 .004.3.36.36 0 0 1 .41.003c6.919 1.066 7.388 6.832 7.393 6.89a.355.355 0 0 1-.355.379" fill-rule="evenodd" data-name="path932"/></g></g></g></g><g data-name="g940"><g data-name="g954"><g data-name="g952" transform="translate(74.291 207.385)" clip-path="url(&quot;#y&quot;)"><g data-name="g950"><path d="M12.801 10.87.92 7.975C.595 5.45.291 2.764 0 0L13.08 2.288c-.106 3.068-.198 5.97-.278 8.583" fill-rule="evenodd" data-name="path948"/></g></g></g></g><g data-name="g956"><g data-name="g970"><g data-name="g968" transform="translate(57.676 204.601)" clip-path="url(&quot;#z&quot;)"><g data-name="g966"><path d="m.681 0 13.601 2.374c-.621 2.48-1.224 4.88-1.791 7.147L0 6.473C.191 4.377.416 2.208.68 0" fill-rule="evenodd" data-name="path964"/></g></g></g></g><g data-name="g972"><path d="M78.825 105.993c.083.466.397.8.702.747.305-.053.485-.476.402-.942-.083-.467-.396-.801-.702-.747-.304.054-.484.476-.402.942" fill="#1a2e35" fill-rule="evenodd" data-name="path974"/></g><g data-name="g976"><path d="M84.098 105.059c.082.467.397.8.7.747.306-.054.486-.476.404-.942-.083-.467-.397-.8-.702-.747-.305.054-.485.476-.402.942" fill="#1a2e35" fill-rule="evenodd" data-name="path978"/></g><g data-name="g980"><path d="m84.37 104.167 1.063-.521s-.42.977-1.063.52" fill="#1a2e35" fill-rule="evenodd" data-name="path982"/></g><g data-name="g984"><path d="M82.846 106.107s1.148 1.869 2.19 2.682c-.514.685-1.607.608-1.607.608l-.583-3.29Z" fill="#ff5551" fill-rule="evenodd" data-name="path986"/></g><g data-name="g988"><path d="M80.642 111.595c.25 0 .514-.021.794-.07a.14.14 0 0 0-.049-.274c-2.045.363-3.256-.899-3.268-.911a.138.138 0 0 0-.196-.007.138.138 0 0 0-.007.196c.046.05 1.021 1.066 2.726 1.066" fill="#1a2e35" fill-rule="evenodd" data-name="path990"/></g><g data-name="g992"><path d="M68.009 109.162a4.26 4.26 0 0 0 2.307 2.294c1.386.557 2.242-.643 1.994-2.036-.224-1.254-1.214-3.056-2.67-3.02-1.436.036-2.152 1.482-1.631 2.762" fill="#ff8c7b" fill-rule="evenodd" data-name="path994"/></g><g data-name="g996"><path d="M76.504 103.868a.277.277 0 0 0 .194-.104c.771-.972 1.791-.888 1.803-.887a.278.278 0 0 0 .052-.554c-.053-.005-1.334-.111-2.291 1.095a.279.279 0 0 0 .242.45" fill="#1a2e35" fill-rule="evenodd" data-name="path998"/></g><g data-name="g1000"><path d="M85.083 102.144a.28.28 0 0 0 .027-.51c-1.38-.68-2.493-.036-2.54-.008a.278.278 0 0 0 .285.48c.042-.026.912-.512 2.01.027.07.035.15.037.218.011" fill="#1a2e35" fill-rule="evenodd" data-name="path1002"/></g><g data-name="g1004"><path d="m79.098 105.1 1.063-.52s-.42.976-1.063.52" fill="#1a2e35" fill-rule="evenodd" data-name="path1006"/></g><g data-name="g1008"><path d="m89.692 164.645-1.025 49.478-31.898-4.545c-1.275-25.876 3.196-39.452 7.99-44.933h24.933Z" fill="#1a2e35" fill-rule="evenodd" data-name="path1010"/></g><g data-name="g1012"><g data-name="g1026"><g data-name="g1024" transform="translate(73.728 177.244)" clip-path="url(&quot;#A&quot;)"><g data-name="g1022"><path d="M7.595 16.355 0 7.216V0l7.595 16.355Z" fill-rule="evenodd" data-name="path1020"/></g></g></g></g><g data-name="g1028"><path d="M64.86 132.153a278.285 278.285 0 0 0-2.733 8.72c-.85 2.925-1.636 5.87-2.251 8.787-.288 1.457-.58 2.915-.73 4.328l-.033.267-.017.133c-.006.041-.004.012-.007.022-.012.002-.022.007-.027.027-.015.035-.003.139.05.29.114.306.435.751.857 1.177.845.877 2.025 1.72 3.248 2.498a53.324 53.324 0 0 0 3.858 2.21l-.91 2.831a28.549 28.549 0 0 1-4.772-1.341c-1.56-.606-3.105-1.321-4.634-2.466-.754-.588-1.522-1.288-2.187-2.333a5.87 5.87 0 0 1-.77-1.886 5.309 5.309 0 0 1-.121-1.132l.005-.27.01-.158.021-.314c.05-.842.116-1.677.22-2.488.079-.827.219-1.622.339-2.428.509-3.208 1.265-6.303 2.084-9.375a95.482 95.482 0 0 1 1.325-4.567c.476-1.52.955-3.004 1.515-4.535l5.66 2.003Z" fill="#ff8c7b" fill-rule="evenodd" data-name="path1030"/></g><g data-name="g1032"><path d="m83.325 151.835-3.838-2.84-8.79 13.155-10.008 12.253 3.838 2.84 8.79-13.155 10.008-12.253Z" fill="#fafafa" fill-rule="evenodd" data-name="path1034"/></g><g data-name="g1036"><path d="M79.483 148.996c.914 1.444 2.195 2.391 3.843 2.843-.914-1.444-2.195-2.391-3.843-2.843" fill="#e7e7e7" fill-rule="evenodd" data-name="path1038"/></g><g data-name="g1040"><path d="M60.686 174.402c.914 1.444 2.195 2.39 3.843 2.842-.914-1.443-2.195-2.391-3.843-2.842" fill="#e7e7e7" fill-rule="evenodd" data-name="path1042"/></g><g data-name="g1044"><path d="m66.447 160.396 6.33.418-4.14 4.304s-3.641-.98-4.195-3.358l2.005-1.364Z" fill="#ff8c7b" fill-rule="evenodd" data-name="path1046"/></g><g data-name="g1048"><path d="m74.833 164.142-1.78 2.515a1.1 1.1 0 0 1-1.438.324l-3.882-2.18 5.044-3.988 1.932 1.91c.383.378.435.98.124 1.419" fill="#ff8c7b" fill-rule="evenodd" data-name="path1050"/></g><g data-name="g1052"><path d="M66.877 131.017c-.446-2.744-2.505-4.369-5.14-5.26-3.879 2.807-5.778 12.086-7.923 22.893-.128.646.22 1.294.827 1.547a69.18 69.18 0 0 1 4.118 1.88c.72.36 1.59.025 1.891-.721l6.935-17.206-.708-3.133Z" fill="#1a2e35" fill-rule="evenodd" data-name="path1054"/></g><g data-name="g1056"><path d="M95.305 294.625c-.59-.494-1.537-.903-2.374-1.198h.002s-4.21-2.376-6.4-9.522l-4.864-1.216a.879.879 0 0 0-1.088.746c-.046.385-.075.824-.124 1.18-.09.664-.01 1.668 0 2.324.042 2.414.312 7.843.312 7.843h.565s.017-3.338.299-4.928c.281-1.59 1.404.293 2.034 2.092.63 1.8 3.16 3.72 6.837 3.809 4.305.104 6.05-.084 4.8-1.13" fill="#1a2e35" fill-rule="evenodd" data-name="path1058"/></g></g></g></g></g><defs><clipPath id="b"><path d="M181.569-570.653h167.044v106.192H181.57v-106.192Z" data-name="path140" transform="translate(-181.569 570.653)"/></clipPath><clipPath id="a"><path d="M0-666.665h355.302v355.301H0v-355.301Z" data-name="path30" transform="translate(0 666.665)"/></clipPath><clipPath id="d"><path d="M76.214-554.43h263.668v182.574H76.214v-182.575Z" data-name="path220" transform="translate(-76.214 554.43)"/></clipPath><clipPath id="c"><path d="M0-666.665h355.302v355.301H0v-355.301Z" data-name="path208" transform="translate(0 666.665)"/></clipPath><clipPath id="e"><path d="M0-666.665h355.302v355.301H0v-355.301Z" data-name="path236" transform="translate(0 666.665)"/></clipPath><clipPath id="g"><path d="M468.57-455.872h19.584v24.177H468.57v-24.177Z" data-name="path280" transform="translate(-468.57 455.872)"/></clipPath><clipPath id="h"><path d="M476.919-437.808h13.136v14.55h-13.136v-14.55Z" data-name="path296" transform="translate(-476.919 437.808)"/></clipPath><clipPath id="i"><path d="M496.601-147.636h5.708v6.91h-5.708v-6.91Z" data-name="path320" transform="translate(-496.601 147.636)"/></clipPath><clipPath id="j"><path d="M547.75-147.388h6.58v6.809h-6.58v-6.809Z" data-name="path336" transform="translate(-547.75 147.388)"/></clipPath><clipPath id="k"><path d="M486.036-458.679h35.259v51.212h-35.259v-51.212Z" data-name="path356" transform="translate(-486.036 458.679)"/></clipPath><clipPath id="l"><path d="M541.035-437.398h3.852v13.843h-3.852v-13.843Z" data-name="path372" transform="translate(-541.035 437.398)"/></clipPath><clipPath id="m"><path d="M515.839-480.463h4.884v6.284h-4.884v-6.284Z" data-name="path408" transform="translate(-515.839 480.463)"/></clipPath><clipPath id="n"><path d="M512.401-520.044h7.165v7.56h-7.165v-7.56Z" data-name="path452" transform="translate(-512.401 520.044)"/></clipPath><clipPath id="o"><path d="M513.399-339.085h5.966v35.892h-5.966v-35.892Z" data-name="path476" transform="translate(-513.399 339.085)"/></clipPath><clipPath id="p"><path d="M524.62-386.426h36.353v28.604H524.62v-28.604Z" data-name="path572" transform="translate(-524.62 386.426)"/></clipPath><clipPath id="q"><path d="M535.61-456.819h17.279v25.087h-17.278v-25.087Z" data-name="path596" transform="translate(-535.61 456.819)"/></clipPath><clipPath id="f"><path d="M0-666.665h355.302v355.301H0v-355.301Z" data-name="path256" transform="translate(0 666.665)"/></clipPath><clipPath id="s"><path d="M205.605-513.295h132.8v174.124h-132.8v-174.124Z" data-name="path632" transform="translate(-205.605 513.295)"/></clipPath><clipPath id="t"><path d="M217.687-500.867H338.44v162.413H217.687v-162.413Z" data-name="path656" transform="translate(-217.687 500.867)"/></clipPath><clipPath id="r"><path d="M0-666.665h355.302v355.301H0v-355.301Z" data-name="path620" transform="translate(0 666.665)"/></clipPath><clipPath id="v"><path d="M150.057-413.648h1.261v29.887h-1.261v-29.887Z" data-name="path848" transform="translate(-150.057 413.648)"/></clipPath><clipPath id="w"><path d="M140.846-451.563h4.059v5.28h-4.059v-5.28Z" data-name="path892" transform="translate(-140.846 451.563)"/></clipPath><clipPath id="x"><path d="M132.21-495.095h7.804v7.272h-7.803v-7.272Z" data-name="path928" transform="translate(-132.21 495.095)"/></clipPath><clipPath id="y"><path d="M139.396-277.542h13.078v10.87h-13.078v-10.87Z" data-name="path944" transform="translate(-139.396 277.542)"/></clipPath><clipPath id="z"><path d="M108.219-282.765H122.5v9.522h-14.282v-9.522Z" data-name="path960" transform="translate(-108.219 282.765)"/></clipPath><clipPath id="A"><path d="M138.338-334.095h7.595v16.355h-7.595v-16.355Z" data-name="path1016" transform="translate(-138.338 334.095)"/></clipPath><clipPath id="u"><path d="M0-666.665h355.302v355.301H0v-355.301Z" data-name="path800" transform="translate(0 666.665)"/></clipPath></defs></svg>