<svg xmlns="http://www.w3.org/2000/svg" width="370" height="344.514" viewBox="18 2419.486 370 344.514"><g data-name="onboarding4"><g data-name="Path 8027"><path d="M38 2419.486h330c11.046 0 20 8.545 20 19.086v306.341c0 10.542-8.954 19.087-20 19.087H38c-11.046 0-20-8.545-20-19.087v-306.34c0-10.542 8.954-19.087 20-19.087Z" fill="#fff" fill-rule="evenodd"/><path d="M20 0h330c11.046 0 20 8.545 20 19.087v306.34c0 10.542-8.954 19.087-20 19.087H20c-11.046 0-20-8.545-20-19.086V19.087C0 8.545 8.954 0 20 0Z" stroke-linejoin="round" stroke-linecap="round" stroke="#707070" fill="transparent" transform="matrix(.9973 0 0 .9971 18.5 2419.986)"/></g><g data-name="Group 9755"><g data-name="g22"><g data-name="g36"><g data-name="g34" transform="translate(59.576 2731.09)" clip-path="url(&quot;#a&quot;)"><g data-name="g32"><path d="M286.848 10.752c0 5.938-64.213 10.753-143.424 10.753C64.214 21.505 0 16.69 0 10.752S64.213 0 143.424 0c79.211 0 143.424 4.814 143.424 10.752" fill="#0849b1" fill-rule="evenodd" data-name="path30"/></g></g></g></g><g data-name="Group 9297"><g data-name="g38"><path d="M221.089 2733.186c0 8.259-36.178 8.259-36.178 0l12.67-157.853a5.445 5.445 0 0 1 10.838 0l12.67 157.853Z" fill="#fff" fill-rule="evenodd" data-name="path40"/></g><g data-name="g42"><path d="M202.986 2550.472a9.565 9.565 0 1 1 0-19.13 9.565 9.565 0 1 1 0 19.13" fill="#fff" fill-rule="evenodd" data-name="path44"/></g><g data-name="g46"><path d="M261.225 2497.331c4.688 4.582 7.882 9.534 11.097 15.662 6.514 12.416 8.947 26.77 5.625 40.5-2.789 11.527-9.046 21.76-16.722 30.685-3.918 4.554 2.688 11.217 6.633 6.631 13.428-15.61 22.832-35.068 20.667-56.104-1.385-13.451-6.726-26.28-14.834-37.067-1.806-2.403-3.678-4.833-5.833-6.94-4.321-4.221-10.96 2.405-6.633 6.633" fill="#fff" fill-rule="evenodd" data-name="path48"/></g><g data-name="g50"><path d="M239.976 2509.98c4.539 4.615 8.48 11.267 10.801 18.1 5.449 16.042.31 31.461-10.801 43.757-4.039 4.469 2.574 11.123 6.632 6.632 12.84-14.208 19.442-32.496 13.714-51.33-2.618-8.608-7.354-17.325-13.714-23.791-4.24-4.31-10.871 2.323-6.632 6.632" fill="#fff" fill-rule="evenodd" data-name="path52"/></g><g data-name="g54"><path d="M218.726 2522.937c2.87 2.568 4.998 5.689 6.52 9.529 3.746 9.461-.05 18.56-6.52 25.796-4.013 4.488 2.599 11.145 6.632 6.633 8.257-9.235 13.373-21.153 9.43-33.498-1.77-5.54-5.054-11.178-9.43-15.092-4.487-4.014-11.143 2.598-6.632 6.632" fill="#fff" fill-rule="evenodd" data-name="path56"/></g><g data-name="g58"><path d="M144.775 2584.178c-4.688-4.582-7.882-9.535-11.096-15.663-6.515-12.415-8.948-26.77-5.626-40.5 2.789-11.527 9.046-21.76 16.722-30.684 3.918-4.555-2.688-11.218-6.633-6.633-13.428 15.612-22.832 35.07-20.666 56.106 1.384 13.45 6.725 26.28 14.833 37.067 1.806 2.402 3.678 4.832 5.833 6.938 4.321 4.223 10.96-2.404 6.633-6.631" fill="#fff" fill-rule="evenodd" data-name="path60"/></g><g data-name="g62"><path d="M166.025 2571.528c-4.54-4.614-8.481-11.266-10.802-18.099-5.45-16.043-.31-31.462 10.802-43.757 4.038-4.47-2.575-11.123-6.633-6.633-12.84 14.209-19.442 32.496-13.714 51.33 2.618 8.608 7.354 17.326 13.714 23.792 4.24 4.31 10.871-2.324 6.633-6.633" fill="#fff" fill-rule="evenodd" data-name="path64"/></g><g data-name="g66"><path d="M187.274 2558.57c-2.87-2.566-4.998-5.687-6.52-9.527-3.746-9.462.05-18.561 6.52-25.797 4.013-4.488-2.599-11.144-6.632-6.632-8.256 9.234-13.373 21.153-9.43 33.497 1.77 5.54 5.053 11.178 9.43 15.093 4.487 4.013 11.143-2.599 6.632-6.633" fill="#fff" fill-rule="evenodd" data-name="path68"/></g></g><g data-name="g70"><path d="m206.943 2744.937-12.878-.572a3.383 3.383 0 0 1-.26-6.736l12.795-1.563a4.454 4.454 0 1 1 .343 8.871" fill="#001056" fill-rule="evenodd" data-name="path72"/></g><g data-name="g74"><path d="M211.711 2738.987a4.499 4.499 0 1 1-8.998 0 4.499 4.499 0 0 1 8.998 0" fill="#001056" fill-rule="evenodd" data-name="path76"/></g><g data-name="g78"><path d="M200.234 2741.41a.518.518 0 0 1-.52-.52v-2.768a.519.519 0 1 1 1.038 0v2.769a.518.518 0 0 1-.518.518" fill="#3da2ff" fill-rule="evenodd" data-name="path80"/></g><g data-name="g82"><path d="M197.58 2741.41a.519.519 0 0 1-.519-.52v-2.768a.52.52 0 1 1 1.038 0v2.769a.518.518 0 0 1-.518.518" fill="#3da2ff" fill-rule="evenodd" data-name="path84"/></g><g data-name="g86"><path d="m207.016 2735.511 17.83-8.26a3.288 3.288 0 0 1 2.71 5.991l-17.83 8.26a3.289 3.289 0 0 1-2.71-5.99" fill="#fefdfe" fill-rule="evenodd" data-name="path88"/></g><g data-name="g90"><path d="m214.983 2729.371 24.887-11.421a5.461 5.461 0 0 1 4.502 9.949l-24.888 11.421a5.46 5.46 0 1 1-4.501-9.949" fill="#eaab35" fill-rule="evenodd" data-name="path92"/></g><g data-name="g94"><path d="m232.205 2745.11 12.879-.572a3.382 3.382 0 0 0 .26-6.736l-12.796-1.564a4.454 4.454 0 1 0-.343 8.872" fill="#001056" fill-rule="evenodd" data-name="path96"/></g><g data-name="g98"><path d="M227.437 2739.16a4.499 4.499 0 1 0 8.998 0 4.499 4.499 0 0 0-8.998 0" fill="#001056" fill-rule="evenodd" data-name="path100"/></g><g data-name="g102"><path d="M238.914 2741.583a.52.52 0 0 0 .52-.52v-2.768a.52.52 0 0 0-1.038 0v2.768c0 .288.232.52.518.52" fill="#3da2ff" fill-rule="evenodd" data-name="path104"/></g><g data-name="g106"><path d="M241.568 2741.583a.519.519 0 0 0 .519-.52v-2.768a.52.52 0 0 0-1.038 0v2.768c0 .288.232.52.52.52" fill="#3da2ff" fill-rule="evenodd" data-name="path108"/></g><g data-name="g110"><path d="m229.62 2741.753-18.45-6.767a3.287 3.287 0 1 1 2.32-6.152l18.449 6.768a3.287 3.287 0 1 1-2.32 6.151" fill="#fefdfe" fill-rule="evenodd" data-name="path112"/></g><g data-name="g114"><path d="m219.644 2740.462-25.674-9.522a5.46 5.46 0 0 1-3.184-7.035 5.46 5.46 0 0 1 7.036-3.183l25.674 9.522a5.46 5.46 0 1 1-3.852 10.218" fill="#facb53" fill-rule="evenodd" data-name="path116"/></g><g data-name="g118"><path d="M200.534 2704.41a3.896 3.896 0 0 1-.468-5.49l6.927-8.76a3.43 3.43 0 0 1 4.834-.412l.712.6a3.43 3.43 0 0 1 .412 4.834l-6.926 8.761a3.897 3.897 0 0 1-5.49.468" fill="#3da2ff" fill-rule="evenodd" data-name="path120"/></g><g data-name="g122"><path d="M196.119 2709.668a3.03 3.03 0 0 1-.364-4.271l4.15-5.102a2.668 2.668 0 0 1 3.759-.32l.554.466a2.668 2.668 0 0 1 .32 3.76l-4.149 5.102a3.03 3.03 0 0 1-4.27.365" fill="#f9b48d" fill-rule="evenodd" data-name="path124"/></g><g data-name="g126"><path d="M195.882 2705.178a2.968 2.968 0 0 0-.14 4.18l9.598 10.345a2.97 2.97 0 0 0 4.321-4.074l-9.566-10.31a2.969 2.969 0 0 0-4.213-.14" fill="#f9b48d" fill-rule="evenodd" data-name="path128"/></g><g data-name="g130"><path d="M204.458 2716.158a1.386 1.386 0 0 0 1.59 1.144l7.646-1.243a1.385 1.385 0 1 0-.447-2.736l-7.645 1.243a1.386 1.386 0 0 0-1.144 1.592" fill="#f9b48d" fill-rule="evenodd" data-name="path132"/></g><g data-name="g134"><path d="M206.706 2719.37a1.387 1.387 0 0 0 1.591 1.145l7.645-1.244a1.387 1.387 0 0 0-.447-2.736l-7.645 1.244a1.386 1.386 0 0 0-1.144 1.592" fill="#f9b48d" fill-rule="evenodd" data-name="path136"/></g><g data-name="g138"><path d="M212.54 2714.816a4.335 4.335 0 1 1-5.044 7.053 4.335 4.335 0 0 1 5.043-7.053" fill="#f9b48d" fill-rule="evenodd" data-name="path140"/></g><g data-name="g142"><path d="M237.74 2704.41a3.895 3.895 0 0 0 .468-5.49l-6.926-8.76a3.43 3.43 0 0 0-4.834-.412l-.712.6a3.43 3.43 0 0 0-.412 4.834l6.926 8.761a3.896 3.896 0 0 0 5.49.468" fill="#3da2ff" fill-rule="evenodd" data-name="path144"/></g><g data-name="g146"><path d="M242.156 2709.668a3.03 3.03 0 0 0 .363-4.271l-4.15-5.102a2.668 2.668 0 0 0-3.758-.32l-.555.466a2.668 2.668 0 0 0-.32 3.76l4.149 5.102a3.03 3.03 0 0 0 4.27.365" fill="#f9b48d" fill-rule="evenodd" data-name="path148"/></g><g data-name="g150"><path d="M242.393 2705.178a2.968 2.968 0 0 1 .14 4.18l-9.598 10.345a2.97 2.97 0 0 1-4.322-4.074l9.566-10.31a2.97 2.97 0 0 1 4.214-.14" fill="#f9b48d" fill-rule="evenodd" data-name="path152"/></g><g data-name="g154"><path d="M233.817 2716.158a1.386 1.386 0 0 1-1.591 1.144l-7.645-1.243a1.385 1.385 0 1 1 .446-2.736l7.645 1.243a1.386 1.386 0 0 1 1.145 1.592" fill="#f9b48d" fill-rule="evenodd" data-name="path156"/></g><g data-name="g158"><path d="M231.569 2719.37a1.387 1.387 0 0 1-1.592 1.145l-7.644-1.244a1.387 1.387 0 0 1 .446-2.736l7.645 1.244a1.387 1.387 0 0 1 1.145 1.592" fill="#f9b48d" fill-rule="evenodd" data-name="path160"/></g><g data-name="g162"><path d="M225.736 2714.816a4.334 4.334 0 0 0-1.004 6.048 4.336 4.336 0 1 0 1.003-6.048" fill="#f9b48d" fill-rule="evenodd" data-name="path164"/></g><g data-name="g166"><path d="M230.087 2727.568h-21.904l-1.26-37.028c0-4.306 24.425-4.306 24.425 0l-1.26 37.028Z" fill="#3da2ff" fill-rule="evenodd" data-name="path168"/></g><g data-name="g170"><path d="M219.135 2690.155v19.148" stroke-linejoin="round" stroke-linecap="round" stroke-width=".416" stroke="#0171fe" fill="transparent" data-name="path172"/></g><g data-name="g174"><path d="M219.885 2693.02a.75.75 0 1 1-1.5 0 .75.75 0 0 1 1.5 0" fill="#facb53" fill-rule="evenodd" data-name="path176"/></g><g data-name="g178"><path d="M219.885 2701.21a.75.75 0 1 1-1.5 0 .75.75 0 0 1 1.5 0" fill="#facb53" fill-rule="evenodd" data-name="path180"/></g><g data-name="g182"><path d="M222.85 2689.002h-7.43v-2.247c0-.33.268-.599.6-.599h6.231c.332 0 .599.269.599.6v2.246Z" fill="#e2e2e2" fill-rule="evenodd" data-name="path184"/></g><path d="M221.45 2689.963h-4.629v-10.073h4.63v10.073Z" fill="#f9b48d" fill-rule="evenodd" data-name="path186"/><g data-name="g188"><path d="M230.796 2677.668a2.721 2.721 0 1 1-5.443.001 2.721 2.721 0 0 1 5.443 0" fill="#f9b48d" fill-rule="evenodd" data-name="path190"/></g><g data-name="g192"><path d="M212.917 2677.668a2.721 2.721 0 1 1-5.443.001 2.721 2.721 0 0 1 5.443 0" fill="#f9b48d" fill-rule="evenodd" data-name="path194"/></g><g data-name="g196"><path d="M219.135 2685.865c4.938 0 8.94-3.31 8.94-8.247v-5.036a8.939 8.939 0 0 0-8.94-8.939 8.939 8.939 0 0 0-8.939 8.94v5.035c0 4.937 4.002 8.247 8.94 8.247" fill="#f9b48d" fill-rule="evenodd" data-name="path198"/></g><g data-name="g200"><path d="M221.536 2682.277h-4.812c0 1.107.897 2.004 2.005 2.004h.802a2.005 2.005 0 0 0 2.005-2.004" fill="#f7f4f5" fill-rule="evenodd" data-name="path202"/></g><g data-name="g204"><path d="M219.13 2679.89c.632 0 1.146-.513 1.146-1.147h-2.292c0 .634.514 1.147 1.146 1.147" fill="#dc7a63" fill-rule="evenodd" data-name="path206"/></g><g data-name="g208"><path d="M214.853 2677.238a1.03 1.03 0 1 1 2.06 0" stroke-linejoin="round" stroke-linecap="round" stroke-width=".688" stroke="#4f1111" fill="transparent" data-name="path210"/></g><g data-name="g212"><path d="M221.32 2677.238a1.03 1.03 0 1 1 2.061 0" stroke-linejoin="round" stroke-linecap="round" stroke-width=".688" stroke="#4f1111" fill="transparent" data-name="path214"/></g><g data-name="g216"><path d="M223.804 2659.318h-5.269c-.306 0-.605.022-.902.06l.902-1.098c-4.867 0-6.833 3.616-7.3 7.226a7.976 7.976 0 0 0-1.675 4.9v3.827c0 .63.242 1.203.636 1.635v-3.286c0-.43.033-.853.091-1.267a2.174 2.174 0 0 1 2.679-.876v-2.226c2.796.332 8.219.415 12.342.251v1.975a2.17 2.17 0 0 1 2.675.873c.06.416.091.839.091 1.27v3.286a2.42 2.42 0 0 0 .637-1.635v-3.827c0-.742-.104-1.46-.293-2.142 1.412-.14 2.31-.333 2.31-.579v-.98c0-4.08-3.1-7.387-6.924-7.387" fill="#001056" fill-rule="evenodd" data-name="path218"/></g><g data-name="g220"><path d="M216.751 2691.04a1.307 1.307 0 0 1-1.307-1.308v-3.058a.48.48 0 0 1 .48-.48h.047c1.153 0 2.088.936 2.088 2.088v1.45c0 .722-.585 1.308-1.308 1.308" fill="#fefdfe" fill-rule="evenodd" data-name="path222"/></g><g data-name="g224"><path d="M221.52 2691.04c.722 0 1.307-.586 1.307-1.308v-3.058a.48.48 0 0 0-.48-.48h-.047a2.089 2.089 0 0 0-2.088 2.089v1.449c0 .722.585 1.308 1.307 1.308" fill="#fefdfe" fill-rule="evenodd" data-name="path226"/></g><g data-name="g228"><path d="M231.91 2727.914h-25.07a1.549 1.549 0 1 1 0-3.098h25.07a1.549 1.549 0 1 1 0 3.098" fill="#bcbbb8" fill-rule="evenodd" data-name="path230"/></g><g data-name="g232"><path d="M230.812 2725.554H207.94a2.481 2.481 0 0 1-2.44-2.022l-2.639-14.014a2.646 2.646 0 0 1 2.6-3.136h27.83a2.646 2.646 0 0 1 2.6 3.136l-2.64 14.014a2.481 2.481 0 0 1-2.438 2.022" fill="#d3d3d3" fill-rule="evenodd" data-name="path234"/></g><g data-name="g236"><path d="M221.493 2716.41c0 1.018-.948 1.843-2.118 1.843s-2.119-.825-2.119-1.843.95-1.843 2.12-1.843c1.169 0 2.117.825 2.117 1.843" fill="#fefdfe" fill-rule="evenodd" data-name="path238"/></g><path d="M151.887 2693.396h-20.635v-15.477h20.635v15.477Z" fill="#001056" fill-rule="evenodd" data-name="path240"/><g data-name="g242"><path d="m134.988 2738.025.38-18.115c.02-1.674-1.305-3.048-2.96-3.068-1.657-.02-3.015 1.32-3.034 2.994l-.38 18.114c-.02 1.674 1.305 3.049 2.96 3.069 1.656.02 3.014-1.32 3.034-2.994" fill="#facb53" fill-rule="evenodd" data-name="path244"/></g><g data-name="g246"><path d="m132.11 2675.217-3.93 30.193c-.366 2.755 1.546 5.289 4.27 5.659 2.726.37 5.23-1.563 5.596-4.32l3.931-30.191c.366-2.756-1.546-5.29-4.27-5.66-2.726-.37-5.231 1.563-5.597 4.319" fill="#001056" fill-rule="evenodd" data-name="path248"/></g><g data-name="g250"><path d="m127.996 2706.665-.881 23.978c-.128 2.778 1.994 5.134 4.741 5.264 2.746.128 5.076-2.018 5.204-4.796l.881-23.978c.128-2.778-1.995-5.134-4.741-5.263-2.746-.13-5.076 2.018-5.204 4.795" fill="#001056" fill-rule="evenodd" data-name="path252"/></g><g data-name="g254"><path d="m136.797 2743.349-20.446.004c-.213-1.45.785-2.796 2.22-2.996l14.802-2.063c.091-.012.182-.02.272-.025 1.65-.08 3.01 1.31 3.073 2.978l.08 2.102Z" fill="#001056" fill-rule="evenodd" data-name="path256"/></g><g data-name="g258"><path d="m135.477 2739.533-9.687.01a1.399 1.399 0 0 1 1.18-1.592l7.866-1.096a1.621 1.621 0 0 1 1.76 1.104c.256.774-.312 1.574-1.119 1.574" fill="#001056" fill-rule="evenodd" data-name="path260"/></g><g data-name="g262"><path d="M122.213 2738.186c1.025.481 1.716 1.177 1.543 1.553-.172.375-1.143.29-2.169-.192-1.025-.482-1.716-1.178-1.543-1.553.173-.376 1.143-.29 2.169.192Z" stroke-linejoin="round" stroke-linecap="round" stroke-width=".645" stroke="#3da2ff" fill="transparent" data-name="path264"/></g><g data-name="g266"><path d="M125.37 2738.344c-.407.885-.994 1.481-1.311 1.333-.317-.15-.244-.987.163-1.873.406-.885.993-1.48 1.31-1.332.317.15.244.988-.163 1.872Z" stroke-linejoin="round" stroke-linecap="round" stroke-width=".645" stroke="#3da2ff" fill="transparent" data-name="path268"/></g><g data-name="g270"><path d="m151.715 2739.707-2.555-17.938a3.031 3.031 0 0 1 6.01-.801l2.554 17.937a3.031 3.031 0 1 1-6.009.802" fill="#facb53" fill-rule="evenodd" data-name="path272"/></g><g data-name="g274"><path d="m150.936 2675.217 7.343 54.767a5.034 5.034 0 1 1-9.978 1.34l-7.344-54.766a5.035 5.035 0 0 1 9.979-1.341" fill="#001056" fill-rule="evenodd" data-name="path276"/></g><g data-name="g278"><path d="m149.056 2743.349 20.678.004a2.634 2.634 0 0 0-2.246-2.996l-14.969-2.063a3.143 3.143 0 0 0-.275-.025c-1.667-.08-3.045 1.31-3.108 2.978l-.08 2.102Z" fill="#001056" fill-rule="evenodd" data-name="path280"/></g><g data-name="g282"><path d="m150.39 2739.533 9.797.01a1.4 1.4 0 0 0-1.193-1.592l-7.955-1.096a1.64 1.64 0 0 0-1.78 1.104 1.195 1.195 0 0 0 1.132 1.574" fill="#001056" fill-rule="evenodd" data-name="path284"/></g><g data-name="g286"><path d="M163.805 2738.186c-1.036.481-1.736 1.177-1.56 1.553.174.375 1.156.29 2.192-.192 1.038-.482 1.736-1.178 1.562-1.553-.174-.376-1.157-.29-2.194.192Z" stroke-linejoin="round" stroke-linecap="round" stroke-width=".648" stroke="#3da2ff" fill="transparent" data-name="path288"/></g><g data-name="g290"><path d="M160.612 2738.344c.412.885 1.005 1.481 1.326 1.333.321-.15.247-.987-.164-1.873-.411-.885-1.005-1.48-1.326-1.332-.32.15-.247.988.164 1.872Z" stroke-linejoin="round" stroke-linecap="round" stroke-width=".648" stroke="#3da2ff" fill="transparent" data-name="path292"/></g><g data-name="g294"><path d="M149.151 2679.227h-18.097l-1.261-37.027c0-4.306 20.62-4.306 20.62 0l-1.262 37.027Z" fill="#3da2ff" fill-rule="evenodd" data-name="path296"/></g><g data-name="g298"><path d="M130.743 2682.96v-14.137h7.387v6.751a7.386 7.386 0 0 1-7.387 7.386" fill="#3da2ff" fill-rule="evenodd" data-name="path300"/></g><g data-name="g302"><path d="M143.783 2683.312h5.837v-25.472h-13.31v17.999a7.473 7.473 0 0 0 7.473 7.473" fill="#3da2ff" fill-rule="evenodd" data-name="path304"/></g><g data-name="g306"><path d="M160.936 2659.241a4.363 4.363 0 0 0 .48-6.154l-10.021-12.4a3.842 3.842 0 0 0-5.42-.424l-.792.679a3.842 3.842 0 0 0-.423 5.418l10.021 12.401a4.365 4.365 0 0 0 6.155.48" fill="#3da2ff" fill-rule="evenodd" data-name="path308"/></g><g data-name="g310"><path d="M157.261 2659.473a3.296 3.296 0 0 1 1.905 4.235l-5.499 14.668a3.297 3.297 0 0 1-6.155-2.363l5.481-14.62a3.296 3.296 0 0 1 4.268-1.92" fill="#f9b48d" fill-rule="evenodd" data-name="path312"/></g><g data-name="g314"><path d="M153.08 2674.363a1.539 1.539 0 0 1-1.153 1.846l-8.375 1.944a1.539 1.539 0 1 1-.694-3l8.375-1.943a1.54 1.54 0 0 1 1.847 1.153" fill="#f9b48d" fill-rule="evenodd" data-name="path316"/></g><g data-name="g318"><path d="M152.124 2678.61a1.538 1.538 0 0 1-1.153 1.845l-8.375 1.944a1.538 1.538 0 1 1-.693-3l8.375-1.942a1.54 1.54 0 0 1 1.846 1.153" fill="#f9b48d" fill-rule="evenodd" data-name="path320"/></g><g data-name="g322"><path d="M144.215 2676.39a4.812 4.812 0 1 0 8.15 5.118 4.812 4.812 0 0 0-8.15-5.118" fill="#f9b48d" fill-rule="evenodd" data-name="path324"/></g><g data-name="g326"><path d="M150.549 2675.134a4.366 4.366 0 0 0 5.656-2.474l6.223-14.679a3.844 3.844 0 0 0-2.178-4.98l-.971-.38a3.845 3.845 0 0 0-4.981 2.178l-6.223 14.678a4.366 4.366 0 0 0 2.474 5.657" fill="#3da2ff" fill-rule="evenodd" data-name="path328"/></g><g data-name="g330"><path d="m156.443 2674.647-1.21 2.683a1.771 1.771 0 0 1-2.387.76l-6.297-3.251a1.77 1.77 0 0 1-.76-2.387l1.21-2.683a1.77 1.77 0 0 1 2.387-.76l6.296 3.25c.869.45 1.21 1.518.761 2.388" fill="#0171fe" fill-rule="evenodd" data-name="path332"/></g><g data-name="g334"><path d="M129.795 2642.259a3.823 3.823 0 0 0-1.72 1.543l-8.485 13.499a4.365 4.365 0 1 0 7.519 4.438l3.177-5.056-.491-14.424Z" fill="#0171fe" fill-rule="evenodd" data-name="path336"/></g><g data-name="g338"><path d="M119.088 2658.146a2.97 2.97 0 0 1-3.899 1.515l-12.937-5.635a2.97 2.97 0 0 1 2.415-5.426l12.894 5.616a2.97 2.97 0 0 1 1.527 3.93" fill="#dc7a63" fill-rule="evenodd" data-name="path340"/></g><g data-name="g342"><path d="M104.159 2650.86a1.693 1.693 0 0 1-1.692 1.695l-9.464.017a1.694 1.694 0 0 1-.003-3.387l9.463-.017c.936-.001 1.695.756 1.696 1.692" fill="#dc7a63" fill-rule="evenodd" data-name="path344"/></g><g data-name="g346"><path d="M104.573 2651.905a4.366 4.366 0 0 0 2.474 5.656l14.678 6.223a3.845 3.845 0 0 0 4.98-2.179l.38-.97a3.844 3.844 0 0 0-2.178-4.981l-14.678-6.223a4.366 4.366 0 0 0-5.656 2.474" fill="#0171fe" fill-rule="evenodd" data-name="path348"/></g><g data-name="g350"><path d="m104.346 2648.794.017-.942.544-.53-.019.943-.542.529Z" fill="#001056" fill-rule="evenodd" data-name="path352"/></g><g data-name="g354"><path d="M104.889 2648.265a.953.953 0 0 1-.982.934l-14.729-.45a.953.953 0 1 1 .037-1.907l15.691.48-.017.943Z" fill="#001056" fill-rule="evenodd" data-name="path356"/></g><g data-name="g358"><path d="m82.711 2631.333 7.829 16.529-1.42.589-7.828-16.53 1.42-.588Z" fill="#001056" fill-rule="evenodd" data-name="path360"/></g><g data-name="g362"><path d="m93.263 2647.862-7.828-16.529h-2.724l7.828 16.529h2.724Z" fill="#001056" fill-rule="evenodd" data-name="path364"/></g><g data-name="g366"><path d="m90.836 2647.393-7.384-15.59h1.686l7.384 15.59h-1.686Z" fill="#3da2ff" fill-rule="evenodd" data-name="path368"/></g><g data-name="g370"><path d="M104.346 2648.794a.954.954 0 0 1-.983.934l-14.728-.45a.953.953 0 1 1 .036-1.907l15.692.48-.017.943Z" fill="#001056" fill-rule="evenodd" data-name="path372"/></g><g data-name="g374"><path d="m105.06 2657.799-2.683-1.212a1.77 1.77 0 0 1-.761-2.385l3.251-6.297a1.772 1.772 0 0 1 2.388-.76l2.683 1.21c.87.45 1.21 1.517.76 2.386l-3.25 6.297a1.773 1.773 0 0 1-2.388.76" fill="#0050d2" fill-rule="evenodd" data-name="path376"/></g><g data-name="g378"><path d="M137.994 2639.03v-2.284a.598.598 0 0 0-.599-.598h-.06a2.609 2.609 0 0 0-2.608 2.608v.641a29.15 29.15 0 0 1 3.267-.366" fill="#0171fe" fill-rule="evenodd" data-name="path380"/></g><g data-name="g382"><path d="M138.775 2642.497a2.892 2.892 0 0 1-2.891-2.892v-9.694h5.783v9.694a2.892 2.892 0 0 1-2.892 2.892" fill="#f9b48d" fill-rule="evenodd" data-name="path384"/></g><g data-name="g386"><path d="m131.544 2637.174 10.118-.018-.03-16.932a6.417 6.417 0 0 0-6.428-6.404l-2.976.005a9.392 9.392 0 0 0-9.375 9.41l.01 5.29a8.664 8.664 0 0 0 8.68 8.65" fill="#f9b48d" fill-rule="evenodd" data-name="path388"/></g><g data-name="g390"><path d="M123.357 2627.092c0 1.636-.94 2.963-2.101 2.963-1.16 0-2.1-1.327-2.1-2.963 0-1.636.94-2.962 2.1-2.962 1.16 0 2.1 1.326 2.1 2.962Z" stroke-linejoin="round" stroke-linecap="round" stroke-width=".559" stroke="#4f1111" fill="transparent" data-name="path392"/></g><g data-name="g394"><path d="M129.358 2633.246a1.076 1.076 0 1 1-2.154.004 1.076 1.076 0 0 1 2.154-.004" fill="#f7f4f5" fill-rule="evenodd" data-name="path396"/></g><g data-name="g398"><path d="M126.705 2629.732a2.859 2.859 0 1 1-5.717.01 2.859 2.859 0 0 1 5.717-.01" fill="#f9b48d" fill-rule="evenodd" data-name="path400"/></g><g data-name="g402"><path d="M129.102 2627.092c0 2.192-1.26 3.968-2.814 3.968s-2.814-1.776-2.814-3.968c0-2.191 1.26-3.968 2.814-3.968s2.814 1.777 2.814 3.968Z" stroke-linejoin="round" stroke-linecap="round" stroke-width=".749" stroke="#4f1111" fill="transparent" data-name="path404"/></g><g data-name="g406"><path d="M138.953 2626.388a3.537 3.537 0 1 1-7.074.013 3.537 3.537 0 0 1 7.074-.013" fill="#f9b48d" fill-rule="evenodd" data-name="path408"/></g><g data-name="g410"><path d="M134.231 2618.358h-12.398a3.693 3.693 0 1 1 0-7.387h12.398a3.693 3.693 0 1 1 0 7.387" fill="#001056" fill-rule="evenodd" data-name="path412"/></g><g data-name="g414"><path d="M128.955 2612.026a6.331 6.331 0 1 1-12.663.001 6.331 6.331 0 0 1 12.663-.001" fill="#001056" fill-rule="evenodd" data-name="path416"/></g><g data-name="g418"><path d="M142.314 2628.714a2.419 2.419 0 0 0-2.423-2.415l-.942.002c0 .029.004.058.004.087a3.534 3.534 0 0 1-1.54 2.925l.002.752a2.418 2.418 0 0 0 2.423 2.415l2.482-.004-.006-3.762Z" fill="#001056" fill-rule="evenodd" data-name="path420"/></g><g data-name="g422"><path d="M143.475 2621.524c-.01-5.28-4.299-9.552-9.578-9.542l-3.94.007.014 7.461a9.514 9.514 0 0 0 2.063 5.902 3.538 3.538 0 0 1 6.919 1.035 3.521 3.521 0 0 1-.996 2.465 9.41 9.41 0 0 0 1.591.14l1.042-.001a2.9 2.9 0 0 0 2.893-2.904l-.008-4.563Z" fill="#001056" fill-rule="evenodd" data-name="path424"/></g><g data-name="g426"><path d="M127.173 2626.926a1.082 1.082 0 1 1-2.162.112" stroke-linejoin="round" stroke-linecap="round" stroke-width=".723" stroke="#4f1111" fill="transparent" data-name="path428"/></g><g data-name="g430"><path d="M136.908 2643.841h4.019a1.914 1.914 0 0 0 1.913-1.912v-3.997c0-.925-.75-1.675-1.675-1.675h-.988a3.306 3.306 0 0 0-3.306 3.307v4.24c0 .021.017.037.037.037" fill="#3da2ff" fill-rule="evenodd" data-name="path432"/></g><path d="M296.619 2693.285h-17.951v-15.477h17.95v15.477Z" fill="#001056" fill-rule="evenodd" data-name="path434"/><g data-name="g436"><path d="m326.157 2728.025-13.41-12.184c-1.25-1.115-3.156-1.017-4.258.217-1.103 1.235-.984 3.14.264 4.254l13.411 12.184c1.249 1.115 3.155 1.018 4.257-.217 1.104-1.235.985-3.139-.264-4.254" fill="#fefdfe" fill-rule="evenodd" data-name="path438"/></g><g data-name="g440"><path d="m286.98 2681.665 9.642 28.88c.874 2.639 3.7 4.084 6.313 3.227 2.614-.857 4.024-3.69 3.15-6.329l-9.643-28.88c-.874-2.639-3.7-4.083-6.313-3.227-2.612.856-4.024 3.69-3.15 6.33" fill="#001056" fill-rule="evenodd" data-name="path442"/></g><g data-name="g444"><path d="m297.917 2712.7 17.502 16.415c2.01 1.92 5.182 1.867 7.083-.119 1.901-1.986 1.813-5.153-.197-7.074l-17.503-16.414c-2.01-1.92-5.181-1.867-7.083.119-1.9 1.986-1.812 5.152.198 7.074" fill="#001056" fill-rule="evenodd" data-name="path446"/></g><g data-name="g448"><path d="m331.698 2730.578-14.232 14.68c-1.189-.857-1.46-2.511-.605-3.681l8.824-12.061c.055-.074.111-.145.171-.213 1.091-1.24 3.037-1.248 4.279-.131l1.563 1.406Z" fill="#001056" fill-rule="evenodd" data-name="path450"/></g><g data-name="g452"><path d="m328.04 2728.868-6.737 6.96a1.397 1.397 0 0 1-.321-1.955l4.69-6.41a1.62 1.62 0 0 1 2.018-.493c.733.354.91 1.319.35 1.898" fill="#001056" fill-rule="evenodd" data-name="path454"/></g><g data-name="g456"><path d="M317.838 2737.452c1.06-.4 2.04-.413 2.189-.027.15.385-.589 1.022-1.648 1.423-1.06.4-2.039.412-2.19.027-.149-.386.59-1.023 1.649-1.423Z" stroke-linejoin="round" stroke-linecap="round" stroke-width=".645" stroke="#3da2ff" fill="transparent" data-name="path458"/></g><g data-name="g460"><path d="M320.15 2735.296c.352.909.371 1.744.044 1.868-.328.124-.879-.512-1.232-1.42-.351-.908-.37-1.744-.044-1.868.328-.124.879.512 1.231 1.42Z" stroke-linejoin="round" stroke-linecap="round" stroke-width=".645" stroke="#3da2ff" fill="transparent" data-name="path462"/></g><g data-name="g464"><path d="m278.549 2739.596 2.554-17.937a3.031 3.031 0 1 0-6.01-.802l-2.554 17.938a3.031 3.031 0 1 0 6.01.801" fill="#fefdfe" fill-rule="evenodd" data-name="path466"/></g><g data-name="g468"><path d="m279.328 2675.107-7.344 54.768a5.035 5.035 0 0 0 9.98 1.34l7.343-54.768a5.034 5.034 0 1 0-9.979-1.34" fill="#001056" fill-rule="evenodd" data-name="path470"/></g><g data-name="g472"><path d="m281.207 2743.239-20.677.003a2.635 2.635 0 0 1 2.245-2.995l14.97-2.063c.092-.013.183-.021.274-.026 1.668-.08 3.045 1.31 3.108 2.979l.08 2.102Z" fill="#001056" fill-rule="evenodd" data-name="path474"/></g><g data-name="g476"><path d="m279.873 2739.423-9.797.01a1.4 1.4 0 0 1 1.193-1.593l7.955-1.096a1.64 1.64 0 0 1 1.78 1.105 1.195 1.195 0 0 1-1.131 1.574" fill="#001056" fill-rule="evenodd" data-name="path478"/></g><g data-name="g480"><path d="M266.458 2738.076c1.036.48 1.736 1.176 1.56 1.552-.174.376-1.156.29-2.192-.192-1.037-.482-1.736-1.177-1.562-1.553.175-.375 1.158-.289 2.194.193Z" stroke-linejoin="round" stroke-linecap="round" stroke-width=".648" stroke="#3da2ff" fill="transparent" data-name="path482"/></g><g data-name="g484"><path d="M269.65 2738.233c-.41.885-1.004 1.482-1.325 1.333-.32-.149-.247-.987.165-1.872.41-.885 1.004-1.48 1.325-1.332.32.149.247.987-.164 1.871Z" stroke-linejoin="round" stroke-linecap="round" stroke-width=".648" stroke="#3da2ff" fill="transparent" data-name="path486"/></g><g data-name="g488"><path d="M285.169 2662.908a4.151 4.151 0 0 0 2.675-5.224l-4.25-14.549a3.654 3.654 0 0 0-4.6-2.355l-.943.305a3.654 3.654 0 0 0-2.356 4.599l4.25 14.549a4.152 4.152 0 0 0 5.224 2.675" fill="#eaab35" fill-rule="evenodd" data-name="path490"/></g><g data-name="g492"><path d="M297.3 2680.64h-18.782l-1.309-38.43c0-4.469 21.399-4.469 21.399 0l-1.309 38.43Z" fill="#eaab35" fill-rule="evenodd" data-name="path494"/></g><g data-name="g496"><path d="m277.87 2685 1.041-16.844 7.098 1.27v7.437a8.137 8.137 0 0 1-8.138 8.137" fill="#eaab35" fill-rule="evenodd" data-name="path498"/></g><g data-name="g500"><path d="M293.896 2686.055h6.42l-2.933-17.36-11.706-10.657v19.798a8.22 8.22 0 0 0 8.22 8.22" fill="#eaab35" fill-rule="evenodd" data-name="path502"/></g><g data-name="g504"><path d="M299.852 2644.941a5.706 5.706 0 1 1-11.412 0 5.706 5.706 0 0 1 11.412 0" fill="#eaab35" fill-rule="evenodd" data-name="path506"/></g><g data-name="g508"><path d="M285.41 2638.92v-2.285a.598.598 0 0 0-.598-.598h-.06a2.609 2.609 0 0 0-2.609 2.609v.641c1.013-.177 2.122-.3 3.267-.366" fill="#d38e20" fill-rule="evenodd" data-name="path510"/></g><g data-name="g512"><path d="M286.192 2642.386a2.892 2.892 0 0 1-2.892-2.892v-9.694h5.783v9.694a2.892 2.892 0 0 1-2.89 2.892" fill="#f9b48d" fill-rule="evenodd" data-name="path514"/></g><g data-name="g516"><path d="m278.96 2637.064 10.119-.019-.031-16.931a6.416 6.416 0 0 0-6.428-6.405l-2.976.005a9.392 9.392 0 0 0-9.374 9.41l.01 5.29a8.664 8.664 0 0 0 8.68 8.65" fill="#f9b48d" fill-rule="evenodd" data-name="path518"/></g><g data-name="g520"><path d="M270.27 2623.124c-.01-5.187 4.188-9.4 9.374-9.41l2.976-.005a6.388 6.388 0 0 1 4.717 2.066c.254-1.071.393-2.186.393-3.335 0-7.972-6.464-14.435-14.436-14.435-7.973 0-14.436 6.463-14.436 14.435 0 6.938 4.894 12.73 11.418 14.119l-.006-3.435Z" fill="#001056" fill-rule="evenodd" data-name="path522"/></g><g data-name="g524"><path d="M283.681 2613.694a8.11 8.11 0 0 1-8.11 8.11 8.11 8.11 0 0 1-8.11-8.11 8.11 8.11 0 1 1 16.22 0" fill="#001056" fill-rule="evenodd" data-name="path526"/></g><g data-name="g528"><path d="M289.73 2628.604a2.418 2.418 0 0 0-2.423-2.415l-.942.001c0 .03.004.058.004.087a3.533 3.533 0 0 1-1.54 2.926l.002.752a2.42 2.42 0 0 0 2.423 2.414l2.483-.004-.007-3.761Z" fill="#001056" fill-rule="evenodd" data-name="path530"/></g><g data-name="g532"><path d="M290.89 2621.414c-.01-5.28-4.297-9.552-9.576-9.543l-3.94.007.013 7.462a9.516 9.516 0 0 0 2.063 5.903l.001-.001c.05-.163.114-.318.187-.47.014-.029.027-.059.042-.087a3.43 3.43 0 0 1 .249-.418c.014-.022.031-.042.047-.064a3.52 3.52 0 0 1 .293-.352l.037-.043a3.754 3.754 0 0 1 .858-.643c.017-.01.033-.015.05-.024.135-.07.278-.131.424-.184l.081-.03c.156-.051.316-.09.481-.12.034-.007.068-.012.102-.017.17-.026.345-.043.524-.043.68-.001 1.312.193 1.852.523a3.532 3.532 0 0 1 1.691 3.007v.008c0 .118-.005.234-.017.35-.007.063-.018.124-.028.185-.008.053-.013.108-.023.16-.018.084-.04.166-.063.247l-.021.087c-.03.095-.064.188-.1.28-.006.012-.01.025-.015.037a3.318 3.318 0 0 1-.14.298l-.002.006a3.551 3.551 0 0 1-.584.804l-.003.002a9.395 9.395 0 0 0 1.591.14h1.042a2.899 2.899 0 0 0 2.893-2.905l-.008-4.562Z" fill="#001056" fill-rule="evenodd" data-name="path534"/></g><g data-name="g536"><path d="M284.714 2610.411a8.11 8.11 0 0 0-5.101 14.412 3.537 3.537 0 0 1 6.756 1.454c0 .063-.005.124-.008.186a8.11 8.11 0 0 0-1.647-16.052" fill="#001056" fill-rule="evenodd" data-name="path538"/></g><g data-name="g540"><path d="M272.44 2631.359h-.154a4.57 4.57 0 0 1-4.57-4.57h4.725v4.57Z" fill="#f9b48d" fill-rule="evenodd" data-name="path542"/></g><g data-name="g544"><path d="M286.37 2626.277a3.537 3.537 0 1 1-7.076.014 3.538 3.538 0 0 1 7.075-.014" fill="#f9b48d" fill-rule="evenodd" data-name="path546"/></g><g data-name="g548"><path d="M274.065 2626.729a.704.704 0 1 1-1.407-.002.704.704 0 0 1 1.407.002" fill="#4f1111" fill-rule="evenodd" data-name="path550"/></g><g data-name="g552"><path d="M275.866 2631.862a1.082 1.082 0 0 1-1.024 1.137" stroke-linejoin="round" stroke-linecap="round" stroke-width=".723" stroke="#4f1111" fill="transparent" data-name="path554"/></g><g data-name="g556"><path d="M284.324 2643.73h4.019a1.913 1.913 0 0 0 1.914-1.912v-3.997c0-.925-.75-1.674-1.675-1.674h-.989a3.306 3.306 0 0 0-3.306 3.306v4.24c0 .022.017.038.037.038" fill="#eaab35" fill-rule="evenodd" data-name="path558"/></g><g data-name="g560"><path d="M259.572 2642.204a4.592 4.592 0 0 0 .98 6.42l13.233 10.305a4.044 4.044 0 0 0 5.653-.863l.65-.885a4.043 4.043 0 0 0-.864-5.652l-13.232-10.306a4.592 4.592 0 0 0-6.42.98" fill="#facb53" fill-rule="evenodd" data-name="path562"/></g><g data-name="g564"><path d="m257.198 2625.403 1.02-.151c.162-.024.316.107.344.294l1.602 10.856c.032.218-.074.426-.253.498l-1.807.723-1.457.214-1.658-11.238c-.028-.193.064-.375.221-.438l1.712-.683c.09-.037.182-.061.276-.075" fill="#eaab35" fill-rule="evenodd" data-name="path566"/></g><g data-name="g568"><path d="m259.192 2636.929.599-.09a.433.433 0 0 0 .365-.491l-1.598-10.825a.318.318 0 0 0-.36-.268l-.827.122a.318.318 0 0 0-.268.361l1.597 10.825c.035.236.256.4.492.366" fill="#facb53" fill-rule="evenodd" data-name="path570"/></g><g data-name="g572"><path d="m258.708 2636.617-1.569-10.629c-.043-.291-.308-.475-.547-.38l-1.345.539c-.178.07-.284.279-.252.496l1.57 10.63c.041.29.307.474.546.379l1.345-.538c.179-.071.284-.279.252-.497" fill="#eaab35" fill-rule="evenodd" data-name="path574"/></g><g data-name="g576"><path d="M256.078 2629.9c.154.72.394 1.118.535.889.14-.229.128-.999-.028-1.719-.154-.72-.394-1.118-.534-.888-.14.228-.128.998.027 1.718" fill="#f7f4f5" fill-rule="evenodd" data-name="path578"/></g><g data-name="g580"><path d="M258.192 2626.335a.18.18 0 0 1-.152.204.18.18 0 1 1 .152-.204" fill="#f7f4f5" fill-rule="evenodd" data-name="path582"/></g><g data-name="g584"><path d="M258.267 2626.849a.178.178 0 0 1-.15.203.18.18 0 1 1 .151-.204" fill="#f7f4f5" fill-rule="evenodd" data-name="path586"/></g><g data-name="g588"><path d="M258.347 2628.614a.127.127 0 0 1-.146-.108l-.153-1.038a.128.128 0 0 1 .254-.038l.153 1.038a.129.129 0 0 1-.108.146" fill="#f7f4f5" fill-rule="evenodd" data-name="path590"/></g><g data-name="g592"><path d="M272.633 2652.484a3.123 3.123 0 0 1-4.374.482l-11.62-9.236a3.123 3.123 0 1 1 3.924-4.86l11.584 9.206a3.123 3.123 0 0 1 .486 4.408" fill="#f9b48d" fill-rule="evenodd" data-name="path594"/></g><g data-name="g596"><path d="M261.166 2642.705a1.39 1.39 0 0 1-1.593-1.152l-1.233-7.668a1.39 1.39 0 0 1 2.745-.44l1.234 7.668a1.39 1.39 0 0 1-1.153 1.592" fill="#f9b48d" fill-rule="evenodd" data-name="path598"/></g><g data-name="g600"><path d="M256.63 2639.42a1.39 1.39 0 0 1-1.722-.948l-2.163-7.46a1.39 1.39 0 0 1 2.67-.771l2.163 7.458a1.39 1.39 0 0 1-.948 1.721" fill="#f9b48d" fill-rule="evenodd" data-name="path602"/></g><g data-name="g604"><path d="M259.888 2634.591a4.347 4.347 0 1 0-5.116 7.03 4.347 4.347 0 0 0 5.116-7.03" fill="#f9b48d" fill-rule="evenodd" data-name="path606"/></g><g data-name="g608"><path d="M259.624 2643.031a3.932 3.932 0 0 0 .84 5.498l11.329 8.824a3.463 3.463 0 0 0 4.84-.74l.557-.757a3.462 3.462 0 0 0-.74-4.84l-11.33-8.824a3.932 3.932 0 0 0-5.496.84" fill="#facb53" fill-rule="evenodd" data-name="path610"/></g><g data-name="g612"><path d="M274.28 2657.085a4.592 4.592 0 0 0 6.358 1.324l14.28-8.797a4.043 4.043 0 0 0 1.166-5.597l-.601-.918a4.042 4.042 0 0 0-5.598-1.167l-14.28 8.797a4.592 4.592 0 0 0-1.324 6.358" fill="#facb53" fill-rule="evenodd" data-name="path614"/></g><g data-name="g616"><path d="m277.858 2661.295-7.631 10.837a4.15 4.15 0 0 0 6.917 4.588l1.183-1.68-.469-13.745Z" fill="#d38e20" fill-rule="evenodd" data-name="path618"/></g><g data-name="g620"><path d="M277.99 2665.139a2.814 2.814 0 0 0-1.845 1.14l-7.805 10.854a2.823 2.823 0 0 0 4.557 3.333l5.36-7.455-.267-7.872Z" fill="#dc7a63" fill-rule="evenodd" data-name="path622"/></g><g data-name="g624"><path d="M271.775 2676.424a1.258 1.258 0 0 1-.97 1.488l-6.869 1.446a1.256 1.256 0 1 1-.517-2.458l6.868-1.447a1.257 1.257 0 0 1 1.488.97" fill="#dc7a63" fill-rule="evenodd" data-name="path626"/></g><g data-name="g628"><path d="M269.007 2680.662a1.255 1.255 0 0 1-.782 1.594l-6.638 2.276a1.256 1.256 0 1 1-.814-2.376l6.639-2.277a1.257 1.257 0 0 1 1.595.783" fill="#dc7a63" fill-rule="evenodd" data-name="path630"/></g><g data-name="g632"><path d="M264.507 2677.93a3.928 3.928 0 1 0 6.567 4.313 3.928 3.928 0 0 0-6.567-4.312" fill="#dc7a63" fill-rule="evenodd" data-name="path634"/></g><g data-name="g636"><path d="m277.925 2663.241-6.785 9.636a3.553 3.553 0 1 0 5.922 3.928l1.264-1.795-.401-11.769Z" fill="#d38e20" fill-rule="evenodd" data-name="path638"/></g><g data-name="g640"><path d="M62.29 2588.447h-1.44a3.82 3.82 0 0 0-3.769-3.217c-.306 0-.603.04-.888.108a5.427 5.427 0 0 0-4.742-2.79 5.43 5.43 0 0 0-5.429 5.43c0 .159.01.315.024.47h-.473a3.304 3.304 0 1 0 0 6.608H62.29a3.305 3.305 0 0 0 0-6.609" fill="#3da2ff" fill-rule="evenodd" data-name="path642"/></g><g data-name="g644"><path d="M351.136 2519.925h-1.44a3.82 3.82 0 0 0-3.768-3.218c-.307 0-.604.04-.888.108a5.427 5.427 0 0 0-4.742-2.789 5.43 5.43 0 0 0-5.43 5.43c0 .158.01.314.024.469h-.473a3.304 3.304 0 1 0 0 6.609h16.717a3.305 3.305 0 0 0 0-6.61" fill="#3da2ff" fill-rule="evenodd" data-name="path646"/></g><g data-name="g648"><path d="M350.537 2624.405h-1.439a3.819 3.819 0 0 0-3.769-3.218c-.306 0-.603.04-.888.108a5.429 5.429 0 0 0-10.171 2.64c0 .158.01.314.024.47h-.473a3.304 3.304 0 1 0 0 6.609h16.716a3.304 3.304 0 0 0 0-6.61" fill="#3da2ff" fill-rule="evenodd" data-name="path650"/></g><g data-name="g652"><path d="M326.224 2568.01h-2.717c-.548-3.439-3.519-6.07-7.112-6.07-.578 0-1.137.074-1.676.203a10.238 10.238 0 0 0-8.95-5.263c-5.659 0-10.246 4.586-10.246 10.246 0 .299.02.593.045.885h-.893a6.236 6.236 0 0 0 0 12.473h31.549a6.237 6.237 0 1 0 0-12.473Z" stroke-linejoin="round" stroke-linecap="round" stroke-width="1.868" stroke="#3da2ff" fill="transparent" data-name="path654"/></g><g data-name="g656"><path d="M310.678 2460.226h-2.717c-.547-3.44-3.518-6.071-7.112-6.071-.578 0-1.137.074-1.676.203a10.238 10.238 0 0 0-8.95-5.263c-5.658 0-10.245 4.587-10.245 10.246 0 .3.019.593.044.885h-.892a6.237 6.237 0 0 0 0 12.473h31.548a6.237 6.237 0 1 0 0-12.473Z" stroke-linejoin="round" stroke-linecap="round" stroke-width="1.868" stroke="#3da2ff" fill="transparent" data-name="path658"/></g><g data-name="g660"><path d="M78.73 2470.405H76.4a6.184 6.184 0 0 0-6.104-5.212 6.19 6.19 0 0 0-1.439.175 8.789 8.789 0 0 0-7.682-4.518 8.794 8.794 0 0 0-8.794 8.795c0 .256.016.51.038.76h-.766a5.353 5.353 0 0 0 0 10.706H78.73a5.353 5.353 0 0 0 0-10.706Z" stroke-linejoin="round" stroke-linecap="round" stroke-width="1.868" stroke="#3da2ff" fill="transparent" data-name="path662"/></g><g data-name="g664"><path d="M184.936 2458.886h-1.439a3.82 3.82 0 0 0-3.769-3.218c-.306 0-.603.04-.888.108a5.427 5.427 0 0 0-4.742-2.789 5.43 5.43 0 0 0-5.429 5.43c0 .158.01.314.024.469h-.473a3.305 3.305 0 0 0 0 6.608h16.716a3.304 3.304 0 1 0 0-6.608" fill="#3da2ff" fill-rule="evenodd" data-name="path666"/></g><g data-name="g668"><path d="M296.757 2438.037h14.433" fill="#3da2ff" fill-rule="evenodd" data-name="path670"/></g><g data-name="g672"><path d="M296.757 2438.669h14.434a.63.63 0 0 0 0-1.263h-14.434a.631.631 0 1 0 0 1.263" fill="#3da2ff" fill-rule="evenodd" data-name="path674"/></g><g data-name="g676"><path d="M289.342 2438.04h2.821" fill="#3da2ff" fill-rule="evenodd" data-name="path678"/></g><g data-name="g680"><path d="M289.342 2438.671h2.821a.632.632 0 0 0 0-1.263h-2.82a.631.631 0 1 0 0 1.263" fill="#3da2ff" fill-rule="evenodd" data-name="path682"/></g><g data-name="g684"><path d="M309.892 2599.262c0-.349.282-.632.632-.632h1.805a.63.63 0 1 1 0 1.263h-1.805a.632.632 0 0 1-.632-.631m-6.315 0c0-.349.284-.632.632-.632h3.157a.631.631 0 0 1 0 1.263h-3.157a.632.632 0 0 1-.632-.631m-6.313 0a.63.63 0 0 1 .63-.632h3.158a.631.631 0 0 1 0 1.263h-3.158a.63.63 0 0 1-.63-.631" fill="#3da2ff" fill-rule="evenodd" data-name="path686"/></g><g data-name="g688"><path d="M304.81 2521.713a1.286 1.286 0 0 0 2.572 0 1.286 1.286 0 0 0-2.572 0m-1.262 0a2.55 2.55 0 0 1 2.547-2.548 2.552 2.552 0 0 1 2.55 2.548 2.552 2.552 0 0 1-2.55 2.549 2.55 2.55 0 0 1-2.547-2.549" fill="#3da2ff" fill-rule="evenodd" data-name="path690"/></g><g data-name="g692"><path d="M361.028 2578.238v1.465" fill="#3da2ff" fill-rule="evenodd" data-name="path694"/></g><g data-name="g696"><path d="M361.027 2580.334a.631.631 0 0 0 .632-.632v-1.464a.631.631 0 0 0-1.263 0v1.464c0 .35.282.632.631.632" fill="#3da2ff" fill-rule="evenodd" data-name="path698"/></g><g data-name="g700"><path d="M357.91 2581.172h1.465" fill="#3da2ff" fill-rule="evenodd" data-name="path702"/></g><g data-name="g704"><path d="M357.91 2581.804h1.464a.631.631 0 0 0 0-1.264h-1.464a.632.632 0 0 0 0 1.264" fill="#3da2ff" fill-rule="evenodd" data-name="path706"/></g><g data-name="g708"><path d="M361.028 2584.207v-1.465" fill="#3da2ff" fill-rule="evenodd" data-name="path710"/></g><g data-name="g712"><path d="M361.027 2584.838a.631.631 0 0 0 .632-.631v-1.464a.631.631 0 1 0-1.263 0v1.464c0 .348.282.631.631.631" fill="#3da2ff" fill-rule="evenodd" data-name="path714"/></g><g data-name="g716"><path d="M364.145 2581.273h-1.465" fill="#3da2ff" fill-rule="evenodd" data-name="path718"/></g><g data-name="g720"><path d="M362.68 2581.904h1.465a.631.631 0 0 0 0-1.263h-1.465a.631.631 0 0 0 0 1.263" fill="#3da2ff" fill-rule="evenodd" data-name="path722"/></g><g data-name="g724"><path d="M330.58 2653.017v1.465" fill="#3da2ff" fill-rule="evenodd" data-name="path726"/></g><g data-name="g728"><path d="M330.58 2655.113c.348 0 .631-.283.631-.632v-1.464a.632.632 0 1 0-1.263 0v1.464c0 .349.283.632.631.632" fill="#3da2ff" fill-rule="evenodd" data-name="path730"/></g><g data-name="g732"><path d="M327.462 2655.951h1.465" fill="#3da2ff" fill-rule="evenodd" data-name="path734"/></g><g data-name="g736"><path d="M327.462 2656.582h1.465a.631.631 0 0 0 0-1.263h-1.465a.632.632 0 1 0 0 1.263" fill="#3da2ff" fill-rule="evenodd" data-name="path738"/></g><g data-name="g740"><path d="M330.58 2658.985v-1.464" fill="#3da2ff" fill-rule="evenodd" data-name="path742"/></g><g data-name="g744"><path d="M330.58 2659.616c.348 0 .631-.282.631-.63v-1.465a.632.632 0 1 0-1.263 0v1.464c0 .349.283.631.631.631" fill="#3da2ff" fill-rule="evenodd" data-name="path746"/></g><g data-name="g748"><path d="M333.697 2656.052h-1.465" fill="#3da2ff" fill-rule="evenodd" data-name="path750"/></g><g data-name="g752"><path d="M332.232 2656.682h1.464a.631.631 0 1 0 0-1.262h-1.464a.632.632 0 1 0 0 1.262" fill="#3da2ff" fill-rule="evenodd" data-name="path754"/></g><g data-name="g756"><path d="M89.999 2596.836h14.434a.631.631 0 0 0 0-1.263H90a.631.631 0 0 0 0 1.263" fill="#3da2ff" fill-rule="evenodd" data-name="path758"/></g><g data-name="g760"><path d="M109.027 2596.838h2.821a.631.631 0 0 0 0-1.263h-2.82a.632.632 0 1 0 0 1.263" fill="#3da2ff" fill-rule="evenodd" data-name="path762"/></g><g data-name="g764"><path d="M108.058 2591.807c0-.349.283-.632.631-.632h3.157a.631.631 0 1 1 0 1.264h-3.157a.631.631 0 0 1-.63-.632m-6.315 0c0-.349.282-.632.63-.632h3.158a.63.63 0 0 1 0 1.264h-3.157a.631.631 0 0 1-.631-.632m-4.963 0c0-.349.283-.632.63-.632h1.807a.632.632 0 0 1 0 1.264h-1.806a.631.631 0 0 1-.63-.632" fill="#3da2ff" fill-rule="evenodd" data-name="path766"/></g><g data-name="g768"><path d="M87.304 2583.81c.35 0 .632-.283.632-.631v-1.465a.632.632 0 0 0-1.263 0v1.465c0 .348.283.631.631.631" fill="#3da2ff" fill-rule="evenodd" data-name="path770"/></g><g data-name="g772"><path d="M88.957 2585.28h1.464a.631.631 0 0 0 0-1.264h-1.464a.632.632 0 1 0 0 1.263" fill="#3da2ff" fill-rule="evenodd" data-name="path774"/></g><g data-name="g776"><path d="M87.304 2588.314c.35 0 .632-.283.632-.631v-1.465a.631.631 0 0 0-1.263 0v1.465c0 .348.283.631.631.631" fill="#3da2ff" fill-rule="evenodd" data-name="path778"/></g><g data-name="g780"><path d="M84.187 2585.38h1.464a.632.632 0 1 0 0-1.263h-1.464a.633.633 0 0 0 0 1.263" fill="#3da2ff" fill-rule="evenodd" data-name="path782"/></g><g data-name="g784"><path d="M58.73 2645.034c.35 0 .632-.283.632-.632v-1.464a.632.632 0 1 0-1.263 0v1.464c0 .35.283.632.631.632" fill="#3da2ff" fill-rule="evenodd" data-name="path786"/></g><g data-name="g788"><path d="M60.383 2646.503h1.465a.631.631 0 1 0 0-1.262h-1.465a.631.631 0 1 0 0 1.262" fill="#3da2ff" fill-rule="evenodd" data-name="path790"/></g><g data-name="g792"><path d="M58.73 2649.537c.35 0 .632-.282.632-.63v-1.465a.632.632 0 1 0-1.263 0v1.464c0 .349.283.631.631.631" fill="#3da2ff" fill-rule="evenodd" data-name="path794"/></g><g data-name="g796"><path d="M55.613 2646.604h1.465a.632.632 0 0 0 0-1.263h-1.465a.631.631 0 1 0 0 1.263" fill="#3da2ff" fill-rule="evenodd" data-name="path798"/></g><g data-name="g800"><path d="M172.992 2487.278a1.287 1.287 0 0 0-2.573 0 1.287 1.287 0 0 0 2.572 0m1.263 0a2.551 2.551 0 0 1-2.548 2.549 2.552 2.552 0 0 1-2.549-2.549 2.552 2.552 0 0 1 2.55-2.548 2.551 2.551 0 0 1 2.547 2.548" fill="#3da2ff" fill-rule="evenodd" data-name="path802"/></g><g data-name="g804"><path d="M159.438 2621.71h14.433a.631.631 0 1 0 0-1.264h-14.433a.631.631 0 1 0 0 1.263" fill="#3da2ff" fill-rule="evenodd" data-name="path806"/></g><g data-name="g808"><path d="M178.465 2621.712h2.82a.631.631 0 0 0 0-1.263h-2.82a.631.631 0 1 0 0 1.263" fill="#3da2ff" fill-rule="evenodd" data-name="path810"/></g><g data-name="g812"><path d="M177.496 2616.68c0-.349.283-.631.632-.631h3.156a.631.631 0 1 1 0 1.263h-3.156a.632.632 0 0 1-.632-.632m-6.314 0c0-.349.282-.631.63-.631h3.158a.631.631 0 0 1 0 1.263h-3.157a.631.631 0 0 1-.631-.632m-4.963 0c0-.349.283-.631.631-.631h1.806a.631.631 0 0 1 0 1.263h-1.806a.631.631 0 0 1-.63-.632" fill="#3da2ff" fill-rule="evenodd" data-name="path814"/></g><g data-name="g816"><path d="M156.743 2608.683a.631.631 0 0 0 .631-.631v-1.465a.631.631 0 1 0-1.263 0v1.465c0 .349.283.631.632.631" fill="#3da2ff" fill-rule="evenodd" data-name="path818"/></g><g data-name="g820"><path d="M158.395 2610.153h1.464a.632.632 0 0 0 0-1.264h-1.464a.631.631 0 0 0 0 1.264" fill="#3da2ff" fill-rule="evenodd" data-name="path822"/></g><g data-name="g824"><path d="M156.743 2613.187a.631.631 0 0 0 .631-.631v-1.464a.631.631 0 1 0-1.263 0v1.464c0 .348.283.631.632.631" fill="#3da2ff" fill-rule="evenodd" data-name="path826"/></g><g data-name="g828"><path d="M153.625 2610.254h1.464a.632.632 0 0 0 0-1.263h-1.464a.631.631 0 0 0 0 1.263" fill="#3da2ff" fill-rule="evenodd" data-name="path830"/></g><g data-name="g832"><path d="M351.951 2452.67a2.23 2.23 0 1 0-4.46 0 2.23 2.23 0 0 0 4.46 0" fill="#3da2ff" fill-rule="evenodd" data-name="path834"/></g><g data-name="g836"><path d="M49.299 2611.165a2.23 2.23 0 1 0-4.46 0 2.23 2.23 0 0 0 4.46 0" fill="#3da2ff" fill-rule="evenodd" data-name="path838"/></g><g data-name="g840"><path d="M238.456 2610.902a2.23 2.23 0 1 0-4.46 0 2.23 2.23 0 0 0 4.46 0" fill="#3da2ff" fill-rule="evenodd" data-name="path842"/></g><g data-name="g844"><path d="M63.704 2518.163H49.269a.63.63 0 0 0 0 1.263h14.435a.632.632 0 0 0 0-1.263" fill="#3da2ff" fill-rule="evenodd" data-name="path846"/></g><g data-name="g848"><path d="M44.675 2518.16h-2.82a.631.631 0 0 0 0 1.264h2.82a.632.632 0 1 0 0-1.263" fill="#3da2ff" fill-rule="evenodd" data-name="path850"/></g><g data-name="g852"><path d="M45.645 2523.193a.631.631 0 0 1-.632.63h-3.157a.632.632 0 1 1 0-1.262h3.157c.35 0 .632.282.632.632m6.314 0a.631.631 0 0 1-.63.63H48.17a.63.63 0 1 1 0-1.262h3.157c.348 0 .63.282.63.632m4.964 0a.632.632 0 0 1-.631.63h-1.806a.631.631 0 0 1 0-1.262h1.806c.348 0 .631.282.631.632" fill="#3da2ff" fill-rule="evenodd" data-name="path854"/></g><g data-name="g856"><path d="M66.398 2531.189a.632.632 0 0 0-.632.632v1.464a.632.632 0 1 0 1.264 0v-1.464a.632.632 0 0 0-.632-.632" fill="#3da2ff" fill-rule="evenodd" data-name="path858"/></g><g data-name="g860"><path d="M64.746 2529.72H63.28a.631.631 0 0 0 0 1.263h1.465a.631.631 0 1 0 0-1.263" fill="#3da2ff" fill-rule="evenodd" data-name="path862"/></g><g data-name="g864"><path d="M66.398 2526.685a.631.631 0 0 0-.632.631v1.464a.632.632 0 1 0 1.264 0v-1.464a.631.631 0 0 0-.632-.63" fill="#3da2ff" fill-rule="evenodd" data-name="path866"/></g><g data-name="g868"><path d="M69.516 2529.619H68.05a.631.631 0 0 0 0 1.263h1.465a.631.631 0 1 0 0-1.263" fill="#3da2ff" fill-rule="evenodd" data-name="path870"/></g><g data-name="g872"><path d="M337.952 2507.335h14.434a.631.631 0 0 0 0-1.262h-14.434a.632.632 0 1 0 0 1.262" fill="#3da2ff" fill-rule="evenodd" data-name="path874"/></g><g data-name="g876"><path d="M356.98 2507.337h2.82a.632.632 0 0 0 0-1.262h-2.82a.631.631 0 1 0 0 1.262" fill="#3da2ff" fill-rule="evenodd" data-name="path878"/></g><g data-name="g880"><path d="M356.01 2502.306c0-.349.283-.632.632-.632h3.157a.633.633 0 0 1 0 1.263h-3.157a.631.631 0 0 1-.631-.631m-6.315 0c0-.349.283-.632.632-.632h3.156a.631.631 0 0 1 0 1.263h-3.156a.631.631 0 0 1-.632-.631m-4.963 0c0-.349.284-.632.631-.632h1.807a.632.632 0 0 1 0 1.263h-1.807a.632.632 0 0 1-.63-.631" fill="#3da2ff" fill-rule="evenodd" data-name="path882"/></g><g data-name="g884"><path d="M335.257 2494.31c.35 0 .632-.283.632-.633v-1.464a.632.632 0 1 0-1.263 0v1.464c0 .35.282.632.631.632" fill="#3da2ff" fill-rule="evenodd" data-name="path886"/></g><g data-name="g888"><path d="M336.91 2495.778h1.464a.631.631 0 0 0 0-1.263h-1.464a.632.632 0 0 0 0 1.263" fill="#3da2ff" fill-rule="evenodd" data-name="path890"/></g><g data-name="g892"><path d="M335.257 2498.813c.35 0 .632-.282.632-.632v-1.463a.631.631 0 0 0-1.263 0v1.463c0 .35.282.632.631.632" fill="#3da2ff" fill-rule="evenodd" data-name="path894"/></g><g data-name="g896"><path d="M332.14 2495.88h1.464a.632.632 0 1 0 0-1.264h-1.464a.632.632 0 1 0 0 1.263" fill="#3da2ff" fill-rule="evenodd" data-name="path898"/></g><g data-name="g900"><path d="M112.396 2458.448H97.962a.631.631 0 0 0 0 1.263h14.434a.632.632 0 0 0 0-1.263" fill="#3da2ff" fill-rule="evenodd" data-name="path902"/></g><g data-name="g904"><path d="M119.81 2458.445h-2.82a.631.631 0 0 0 0 1.263h2.82a.632.632 0 1 0 0-1.263" fill="#3da2ff" fill-rule="evenodd" data-name="path906"/></g></g></g><defs><clipPath id="a"><path d="M74.911-88.127H361.76v21.504H74.911v-21.504Z" data-name="path26" transform="translate(-74.911 88.127)"/></clipPath></defs></svg>