<svg xmlns="http://www.w3.org/2000/svg" width="370" height="344.514" viewBox="454 1632 370 344.514"><g data-name="onboarding1"><g data-name="Group 9748"><path d="M498.065 1789.962h-1.439a3.82 3.82 0 0 0-3.769-3.218c-.306 0-.603.04-.888.108a5.427 5.427 0 0 0-4.742-2.789 5.43 5.43 0 0 0-5.43 5.43c0 .158.011.314.025.469h-.473a3.304 3.304 0 1 0 0 6.609h16.716a3.305 3.305 0 0 0 0-6.61" fill="#3da2ff" fill-rule="evenodd" data-name="path642"/><path d="M786.912 1721.44h-1.44a3.82 3.82 0 0 0-3.769-3.218c-.306 0-.603.04-.888.108a5.427 5.427 0 0 0-4.741-2.79 5.43 5.43 0 0 0-5.43 5.43c0 .158.01.314.024.47h-.473a3.304 3.304 0 1 0 0 6.608h16.717a3.305 3.305 0 0 0 0-6.609" fill="#3da2ff" fill-rule="evenodd" data-name="path646"/><path d="M786.313 1825.92h-1.44a3.819 3.819 0 0 0-3.768-3.218c-.306 0-.603.04-.888.108a5.429 5.429 0 0 0-10.171 2.64c0 .158.01.314.023.47h-.473a3.304 3.304 0 1 0 0 6.608h16.717a3.304 3.304 0 0 0 0-6.609" fill="#3da2ff" fill-rule="evenodd" data-name="path650"/><path d="M762 1769.525h-2.717c-.548-3.44-3.519-6.071-7.112-6.071-.578 0-1.138.074-1.676.203a10.238 10.238 0 0 0-8.95-5.263c-5.659 0-10.246 4.587-10.246 10.246 0 .3.02.593.045.885h-.893a6.236 6.236 0 0 0 0 12.473H762a6.237 6.237 0 1 0 0-12.473Z" stroke-linejoin="round" stroke-linecap="round" stroke-width="1.868" stroke="#3da2ff" fill="transparent" data-name="path654"/><path d="M746.454 1661.74h-2.718c-.546-3.439-3.518-6.07-7.111-6.07-.578 0-1.137.074-1.676.203a10.238 10.238 0 0 0-8.95-5.263c-5.658 0-10.246 4.586-10.246 10.246 0 .299.02.593.045.885h-.893a6.237 6.237 0 0 0 0 12.473h31.549a6.237 6.237 0 1 0 0-12.473Z" stroke-linejoin="round" stroke-linecap="round" stroke-width="1.868" stroke="#3da2ff" fill="transparent" data-name="path658"/><path d="M514.506 1671.92h-2.331a6.184 6.184 0 0 0-6.105-5.212 6.19 6.19 0 0 0-1.438.174 8.789 8.789 0 0 0-7.682-4.517 8.794 8.794 0 0 0-8.794 8.794c0 .257.016.51.038.76h-.766a5.353 5.353 0 0 0 0 10.706h27.078a5.353 5.353 0 0 0 0-10.706Z" stroke-linejoin="round" stroke-linecap="round" stroke-width="1.868" stroke="#3da2ff" fill="transparent" data-name="path662"/><path d="M620.712 1660.4h-1.44a3.82 3.82 0 0 0-3.768-3.218c-.306 0-.603.041-.888.108a5.427 5.427 0 0 0-4.742-2.789 5.43 5.43 0 0 0-5.43 5.43c0 .158.011.314.025.469h-.473a3.305 3.305 0 0 0 0 6.609h16.716a3.304 3.304 0 1 0 0-6.61" fill="#3da2ff" fill-rule="evenodd" data-name="path666"/><path d="M732.532 1639.552h14.434" fill="#3da2ff" fill-rule="evenodd" data-name="path670"/><path d="M732.533 1640.183h14.434a.63.63 0 0 0 0-1.263h-14.434a.631.631 0 1 0 0 1.263" fill="#3da2ff" fill-rule="evenodd" data-name="path674"/><path d="M725.118 1639.554h2.821" fill="#3da2ff" fill-rule="evenodd" data-name="path678"/><path d="M725.118 1640.186h2.82a.632.632 0 0 0 0-1.263h-2.82a.631.631 0 1 0 0 1.263" fill="#3da2ff" fill-rule="evenodd" data-name="path682"/><path d="M745.668 1800.776c0-.349.282-.631.632-.631h1.804a.63.63 0 1 1 0 1.263H746.3a.632.632 0 0 1-.632-.632m-6.315 0c0-.349.284-.631.631-.631h3.158a.631.631 0 0 1 0 1.263h-3.158a.632.632 0 0 1-.63-.632m-6.315 0a.63.63 0 0 1 .63-.631h3.159a.631.631 0 0 1 0 1.263h-3.158a.63.63 0 0 1-.63-.632" fill="#3da2ff" fill-rule="evenodd" data-name="path686"/><path d="M740.586 1723.228a1.286 1.286 0 0 0 2.572 0 1.286 1.286 0 0 0-2.572 0m-1.262 0a2.55 2.55 0 0 1 2.547-2.549 2.552 2.552 0 0 1 2.55 2.549 2.552 2.552 0 0 1-2.55 2.548 2.55 2.55 0 0 1-2.547-2.548" fill="#3da2ff" fill-rule="evenodd" data-name="path690"/><path d="M796.803 1779.753v1.464" fill="#3da2ff" fill-rule="evenodd" data-name="path694"/><path d="M796.803 1781.849a.631.631 0 0 0 .632-.632v-1.465a.631.631 0 0 0-1.264 0v1.465c0 .35.283.632.632.632" fill="#3da2ff" fill-rule="evenodd" data-name="path698"/><path d="M793.685 1782.687h1.466" fill="#3da2ff" fill-rule="evenodd" data-name="path702"/><path d="M793.686 1783.318h1.464a.631.631 0 0 0 0-1.263h-1.464a.632.632 0 0 0 0 1.263" fill="#3da2ff" fill-rule="evenodd" data-name="path706"/><path d="M796.803 1785.721v-1.464" fill="#3da2ff" fill-rule="evenodd" data-name="path710"/><path d="M796.803 1786.352a.631.631 0 0 0 .632-.63v-1.464a.631.631 0 1 0-1.264 0v1.463c0 .349.283.631.632.631" fill="#3da2ff" fill-rule="evenodd" data-name="path714"/><path d="M799.92 1782.787h-1.464" fill="#3da2ff" fill-rule="evenodd" data-name="path718"/><path d="M798.456 1783.419h1.465a.631.631 0 0 0 0-1.263h-1.465a.631.631 0 0 0 0 1.263" fill="#3da2ff" fill-rule="evenodd" data-name="path722"/><path d="M766.355 1854.531v1.465" fill="#3da2ff" fill-rule="evenodd" data-name="path726"/><path d="M766.355 1856.627c.35 0 .632-.283.632-.632v-1.464a.632.632 0 1 0-1.263 0v1.464c0 .35.283.632.631.632" fill="#3da2ff" fill-rule="evenodd" data-name="path730"/><path d="M763.238 1857.465h1.465" fill="#3da2ff" fill-rule="evenodd" data-name="path734"/><path d="M763.237 1858.096h1.466a.631.631 0 0 0 0-1.262h-1.466a.632.632 0 1 0 0 1.262" fill="#3da2ff" fill-rule="evenodd" data-name="path738"/><path d="M766.355 1860.5v-1.465" fill="#3da2ff" fill-rule="evenodd" data-name="path742"/><path d="M766.355 1861.13c.35 0 .632-.282.632-.63v-1.464a.632.632 0 1 0-1.263 0v1.463c0 .349.283.632.631.632" fill="#3da2ff" fill-rule="evenodd" data-name="path746"/><path d="M769.473 1857.566h-1.465" fill="#3da2ff" fill-rule="evenodd" data-name="path750"/><path d="M768.008 1858.197h1.464a.631.631 0 1 0 0-1.263h-1.464a.632.632 0 1 0 0 1.263" fill="#3da2ff" fill-rule="evenodd" data-name="path754"/><path d="M525.775 1798.35h14.434a.631.631 0 0 0 0-1.263h-14.434a.631.631 0 0 0 0 1.264" fill="#3da2ff" fill-rule="evenodd" data-name="path758"/><path d="M544.803 1798.353h2.821a.631.631 0 0 0 0-1.263h-2.82a.632.632 0 1 0 0 1.263" fill="#3da2ff" fill-rule="evenodd" data-name="path762"/><path d="M543.834 1793.321c0-.349.283-.631.631-.631h3.157a.631.631 0 1 1 0 1.263h-3.157a.631.631 0 0 1-.631-.632m-6.314 0c0-.349.282-.631.63-.631h3.158a.63.63 0 0 1 0 1.263h-3.157a.631.631 0 0 1-.631-.632m-4.963 0c0-.349.283-.631.63-.631h1.807a.632.632 0 0 1 0 1.263h-1.806a.631.631 0 0 1-.63-.632" fill="#3da2ff" fill-rule="evenodd" data-name="path766"/><path d="M523.08 1785.324c.35 0 .632-.282.632-.63v-1.466a.632.632 0 0 0-1.263 0v1.465c0 .349.283.631.631.631" fill="#3da2ff" fill-rule="evenodd" data-name="path770"/><path d="M524.733 1786.794h1.464a.631.631 0 0 0 0-1.264h-1.464a.632.632 0 1 0 0 1.264" fill="#3da2ff" fill-rule="evenodd" data-name="path774"/><path d="M523.08 1789.828c.35 0 .632-.282.632-.63v-1.465a.631.631 0 0 0-1.263 0v1.464c0 .349.283.631.631.631" fill="#3da2ff" fill-rule="evenodd" data-name="path778"/><path d="M519.963 1786.894h1.464a.632.632 0 1 0 0-1.263h-1.464a.633.633 0 0 0 0 1.263" fill="#3da2ff" fill-rule="evenodd" data-name="path782"/><path d="M494.506 1846.548c.35 0 .632-.282.632-.632v-1.463a.632.632 0 1 0-1.263 0v1.463c0 .35.283.632.631.632" fill="#3da2ff" fill-rule="evenodd" data-name="path786"/><path d="M496.16 1848.017h1.464a.631.631 0 1 0 0-1.262h-1.465a.631.631 0 1 0 0 1.262" fill="#3da2ff" fill-rule="evenodd" data-name="path790"/><path d="M494.506 1851.052c.35 0 .632-.283.632-.631v-1.464a.632.632 0 1 0-1.263 0v1.464c0 .348.283.63.631.63" fill="#3da2ff" fill-rule="evenodd" data-name="path794"/><path d="M491.389 1848.119h1.465a.632.632 0 0 0 0-1.264h-1.465a.631.631 0 1 0 0 1.264" fill="#3da2ff" fill-rule="evenodd" data-name="path798"/><path d="M608.768 1688.793a1.287 1.287 0 0 0-2.573 0 1.287 1.287 0 0 0 2.572 0m1.263 0a2.551 2.551 0 0 1-2.548 2.548 2.552 2.552 0 0 1-2.549-2.548 2.552 2.552 0 0 1 2.55-2.549 2.551 2.551 0 0 1 2.547 2.549" fill="#3da2ff" fill-rule="evenodd" data-name="path802"/><path d="M787.727 1654.185a2.23 2.23 0 1 0-4.46-.001 2.23 2.23 0 0 0 4.46 0" fill="#3da2ff" fill-rule="evenodd" data-name="path834"/><path d="M485.075 1812.68a2.23 2.23 0 1 0-4.46 0 2.23 2.23 0 0 0 4.46 0" fill="#3da2ff" fill-rule="evenodd" data-name="path838"/><path d="M499.48 1719.678h-14.435a.63.63 0 0 0 0 1.263h14.435a.632.632 0 0 0 0-1.263" fill="#3da2ff" fill-rule="evenodd" data-name="path846"/><path d="M480.451 1719.675h-2.82a.631.631 0 0 0 0 1.263h2.82a.632.632 0 1 0 0-1.263" fill="#3da2ff" fill-rule="evenodd" data-name="path850"/><path d="M481.421 1724.707a.631.631 0 0 1-.632.631h-3.157a.632.632 0 1 1 0-1.263h3.157c.35 0 .632.283.632.632m6.314 0a.631.631 0 0 1-.63.631h-3.158a.63.63 0 1 1 0-1.263h3.157c.348 0 .63.283.63.632m4.964 0a.632.632 0 0 1-.631.631h-1.806a.631.631 0 0 1 0-1.263h1.806c.347 0 .63.283.63.632" fill="#3da2ff" fill-rule="evenodd" data-name="path854"/><path d="M502.174 1732.703a.632.632 0 0 0-.632.632v1.465a.632.632 0 1 0 1.264 0v-1.465a.632.632 0 0 0-.632-.632" fill="#3da2ff" fill-rule="evenodd" data-name="path858"/><path d="M500.522 1731.234h-1.465a.631.631 0 0 0 0 1.264h1.465a.631.631 0 1 0 0-1.264" fill="#3da2ff" fill-rule="evenodd" data-name="path862"/><path d="M502.174 1728.2a.631.631 0 0 0-.632.63v1.464a.632.632 0 1 0 1.264 0v-1.463a.631.631 0 0 0-.632-.631" fill="#3da2ff" fill-rule="evenodd" data-name="path866"/><path d="M505.292 1731.133h-1.465a.631.631 0 0 0 0 1.263h1.465a.631.631 0 1 0 0-1.263" fill="#3da2ff" fill-rule="evenodd" data-name="path870"/><path d="M773.728 1708.85h14.434a.631.631 0 0 0 0-1.263h-14.434a.632.632 0 1 0 0 1.262" fill="#3da2ff" fill-rule="evenodd" data-name="path874"/><path d="M792.756 1708.852h2.82a.632.632 0 0 0 0-1.263h-2.82a.631.631 0 1 0 0 1.263" fill="#3da2ff" fill-rule="evenodd" data-name="path878"/><path d="M791.787 1703.82c0-.348.282-.632.631-.632h3.157a.633.633 0 0 1 0 1.264h-3.157a.631.631 0 0 1-.631-.632m-6.315 0c0-.348.283-.632.632-.632h3.156a.631.631 0 0 1 0 1.264h-3.156a.631.631 0 0 1-.632-.632m-4.963 0c0-.348.284-.632.631-.632h1.807a.632.632 0 0 1 0 1.264h-1.807a.632.632 0 0 1-.63-.632" fill="#3da2ff" fill-rule="evenodd" data-name="path882"/><path d="M771.033 1695.824c.35 0 .632-.283.632-.632v-1.465a.632.632 0 1 0-1.263 0v1.465c0 .35.282.632.631.632" fill="#3da2ff" fill-rule="evenodd" data-name="path886"/><path d="M772.685 1697.293h1.465a.631.631 0 0 0 0-1.264h-1.465a.632.632 0 0 0 0 1.264" fill="#3da2ff" fill-rule="evenodd" data-name="path890"/><path d="M771.033 1700.328c.35 0 .632-.283.632-.632v-1.464a.631.631 0 0 0-1.263 0v1.464c0 .35.282.632.631.632" fill="#3da2ff" fill-rule="evenodd" data-name="path894"/><path d="M767.915 1697.394h1.465a.632.632 0 1 0 0-1.263h-1.465a.632.632 0 1 0 0 1.263" fill="#3da2ff" fill-rule="evenodd" data-name="path898"/><path d="M548.172 1659.962h-14.434a.631.631 0 0 0 0 1.263h14.434a.632.632 0 0 0 0-1.263" fill="#3da2ff" fill-rule="evenodd" data-name="path902"/><path d="M555.587 1659.96h-2.821a.631.631 0 0 0 0 1.263h2.82a.632.632 0 1 0 0-1.264" fill="#3da2ff" fill-rule="evenodd" data-name="path906"/></g><g data-name="Path 8024"><path d="M474 1632h330c11.046 0 20 8.545 20 19.087v306.34c0 10.542-8.954 19.087-20 19.087H474c-11.046 0-20-8.545-20-19.086v-306.341c0-10.542 8.954-19.087 20-19.087Z" fill="#fff" fill-rule="evenodd"/><path d="M20 0h330c11.046 0 20 8.545 20 19.087v306.34c0 10.542-8.954 19.087-20 19.087H20c-11.046 0-20-8.545-20-19.086V19.087C0 8.545 8.954 0 20 0Z" stroke-linejoin="round" stroke-linecap="round" stroke="#707070" fill="transparent" transform="matrix(.9973 0 0 .9971 454.5 1632.5)"/></g><g data-name="undraw_wallet_aym5"><path d="M758.384 1862.122c0 2.217-12.92 8.679-28.269 8.679-15.348 0-27.308-6.462-27.308-8.68 0-2.216 12.44-1.502 27.804-1.502 15.363 0 27.773-.718 27.773 1.503Z" fill="#504f60" fill-rule="evenodd" data-name="Path 1"/><path d="M758.384 1862.122c0 2.216-12.92 8.679-28.269 8.679-15.348 0-27.308-6.463-27.308-8.68" fill-rule="evenodd" data-name="Path 2"/><path d="M603.816 1821.446c2.491.32 5.076.522 7.462-.252.375-.116.789-.376.751-.751a.91.91 0 0 0-.169-.376 23.198 23.198 0 0 1-2.254-4.294.376.376 0 0 0-.14-.196.352.352 0 0 0-.24 0c-1.1.29-2.051 1-3.144 1.304a4.473 4.473 0 0 1-1.714.128c-.496-.057-1.172-.466-1.623-.414.256 1.642.88 3.175 1.07 4.851Z" fill="#4285f4" fill-rule="evenodd" data-name="Path 3"/><path d="M650.928 1817.287c1.642-1.128 3.344-2.311 4.313-4.05a.703.703 0 0 0 .117-.35.722.722 0 0 0-.14-.338 13.96 13.96 0 0 0-3.505-3.784 10.215 10.215 0 0 0-1.954 1.804c-.413.436-1.555 1.127-1.567 1.792 0 .376.436.811.64 1.127.274.406.533.82.78 1.24.143.207 1.447 2.476 1.316 2.559Z" fill="#4285f4" fill-rule="evenodd" data-name="Path 4"/><path d="M613.581 1826.477c.03.387-.077.772-.3 1.09a1.475 1.475 0 0 1-.632.375c-3.483 1.248-7.514-.308-10.99.92-.714.253-1.39.617-2.107.857-.856.258-1.739.414-2.63.466a55.295 55.295 0 0 1-3.698.226 8.893 8.893 0 0 1-2.787-.244 3.348 3.348 0 0 1-2.138-1.695 1.626 1.626 0 0 1-.106-1.206c.055-.137.132-.265.23-.376.235-.264.512-.489.819-.665l1.28-.826a8.6 8.6 0 0 1 1.943-1.03c.508-.165 1.045-.237 1.56-.376 1.8-.526 3.175-1.953 4.452-3.325l1.743-1.86c.163-.204.37-.37.605-.484.242-.08.499-.105.752-.072 1.693.121 3.328.67 4.753 1.593.364.273.757.505 1.172.692 1.022.398 2.333.097 3.276-.406.447-.24.35-.376.537-.804.188-.428.647-.703 1.045-.312.12.135.205.298.248.473.376 1.24.233 2.574.233 3.874-.011.203.014.407.075.601a3.4 3.4 0 0 0 .342.556c.027.046.05.094.071.143.23.576.316 1.199.252 1.815Z" fill="#514e7f" fill-rule="evenodd" data-name="Path 5"/><path d="M613.581 1826.477c.03.387-.077.772-.3 1.09a1.476 1.476 0 0 1-.632.375c-3.483 1.248-7.514-.308-10.99.92-.714.252-1.39.617-2.107.857-.856.258-1.739.414-2.63.466a55.377 55.377 0 0 1-3.698.226 8.891 8.891 0 0 1-2.787-.245 3.347 3.347 0 0 1-2.138-1.694 1.626 1.626 0 0 1-.106-1.206c.055-.137.132-.264.23-.376.202.425.349.988.477 1.191.349.608.943 1.037 1.63 1.176a4.055 4.055 0 0 0 1.503-.191c3.156-.782 6.512-.793 9.544-1.977 1.04-.41 2.032-.954 3.126-1.202 1.093-.248 2.254-.18 3.381-.274 1.781-.143 3.506-.68 5.26-.962.227.58.308 1.207.237 1.826Z" fill="#464353" fill-rule="evenodd" data-name="Path 6"/><path d="M658.904 1817.058c-.165 1.322-1.003 2.46-1.923 3.426-.92.966-1.962 1.834-2.694 2.946-.902 1.379-1.308 3.088-2.48 4.253-.45.424-.956.784-1.503 1.07-.613.363-1.261.661-1.935.891-1.75.56-3.637.432-5.467.297a4.922 4.922 0 0 1-1.735-.334 5.263 5.263 0 0 1-.722-.444 3.445 3.445 0 0 1-1.127-1.127 1.128 1.128 0 0 1-.109-.819c.105-.305.284-.579.522-.796.412-.429.854-.827 1.323-1.192a7.911 7.911 0 0 0 1.72-1.502c.306-.46.531-.968.666-1.503.266-.938.428-1.902.484-2.874a9.109 9.109 0 0 1 .2-1.924c.278-.992 1.014-1.879.931-2.905a.725.725 0 0 1 .038-.44.612.612 0 0 1 .345-.213 6.133 6.133 0 0 1 1.796-.417 2.093 2.093 0 0 1 1.669.654c.255.308.424.75.8.871.186.051.381.059.571.023.924-.094 1.901-.21 2.63-.808a3.28 3.28 0 0 0 1.09-2.393c0-.342-.154-.7.375-.752.399-.053.714.376.917.639.733.98 1.484 2.006 1.759 3.2a.947.947 0 0 1 .334-.063c.476-.004.923.225 1.199.613.299.484.415 1.06.326 1.623Z" fill="#514e7f" fill-rule="evenodd" data-name="Path 7"/><path d="M658.904 1817.057c-.165 1.323-1.003 2.461-1.923 3.427-.92.966-1.962 1.834-2.694 2.946-.902 1.379-1.308 3.088-2.48 4.253-.45.424-.956.784-1.503 1.07-.613.362-1.261.66-1.935.891-1.75.56-3.637.432-5.467.297a4.92 4.92 0 0 1-1.736-.334 5.237 5.237 0 0 1-.721-.444 3.446 3.446 0 0 1-1.127-1.127c.352-.17.736-.261 1.127-.27.812.045 1.405.811 2.183 1.048 1.108.334 2.213-.447 3.337-.714.732-.173 1.502-.128 2.227-.376a5.508 5.508 0 0 0 1.65-1 8.388 8.388 0 0 0 1.762-1.697c.416-.65.763-1.341 1.033-2.063a29.485 29.485 0 0 1 2.09-3.998c.117-.202.26-.389.424-.556.176-.161.376-.274.575-.417.751-.567 1.063-1.503 1.326-2.42.071-.278.17-.549.297-.807.475-.005.923.224 1.198.612.324.496.45 1.095.357 1.68Z" fill="#464353" fill-rule="evenodd" data-name="Path 8"/><path d="M580.12 1699.915a7.97 7.97 0 0 1 2.253 2.63c.526 1.03 3.559 9.017 3.382 10.178.988-.996 4.884-1.157 5.884-2.153.417-.417 2.667-2.498 3.006-2.983.338-.485 2.847-1.503 3.122-2.014 1.026-1.837-7.274-8.8-6.21-10.614a.473.473 0 0 0 .086-.286.465.465 0 0 0-.14-.221c-.68-.695-1.581-1.127-2.4-1.642-.82-.515-1.608-1.233-1.83-2.18a7.891 7.891 0 0 0-2.123 1.436 162.297 162.297 0 0 0-4.49 3.994c-.575.533-1.687 1.244-1.954 2.006-.315.82.865 1.402 1.413 1.849Z" fill="#a1616a" fill-rule="evenodd" data-name="Path 9"/><path d="M593.555 1696.958a24.45 24.45 0 0 0-3.554 2.908c-1.03 1.018-2.007 2.198-2.255 3.622-.105.56-.09 1.127-.176 1.694-.376 2.461-2.503 4.265-3.442 6.568a11.39 11.39 0 0 0-.597 2.198 25.988 25.988 0 0 0-.432 4.313c-.023 1.402 1.352 2.367 1.856 3.675.503 1.307.638 2.652.894 3.994.48 2.532 1.364 4.974 2.254 7.402 1.853 5.117 7.857 19.263 9.709 24.384 5.677-1.424 20.789-4.697 25.816-7.699 1.675-.999-11.629-12.275-9.837-13.052a.668.668 0 0 0 .504-.943c-1.792-7.838-7.398-14.278-9.942-21.909-.883-2.649-2.468-4.91-3.67-7.428-1.09-2.28-1.673-4.801-2.976-6.97a4.398 4.398 0 0 0-.95-1.183 5.61 5.61 0 0 0-1.05-.635c-.743-.36-1.434-.575-2.152-.94Z" fill="#514e7f" fill-rule="evenodd" data-name="Path 10"/><path d="M571.534 1690.038a8.886 8.886 0 1 1 0 .1z" fill="#ff8c7b" fill-rule="evenodd" data-name="Ellipse 1"/><path d="M589.46 1694.313a2.98 2.98 0 0 1 3.34-.481c.6.312 1.127.943.992 1.604l4.407.068a8.85 8.85 0 0 1 2.089.191c.69.15 1.307.537 1.743 1.094.053.071.113.158.203.169a.323.323 0 0 0 .203-.068 3.825 3.825 0 0 1 2.194-.376c2.382.155 4.584 1.346 6.451 2.833.337.232.598.557.752.936.154.5-.03 1.127.376 1.484 0 4.133 1.42 7.995 2.367 12.023.169.718.856 1.353 1.333 1.916a7.728 7.728 0 0 1 1.424 2.127c.804 2.089-.304 4.546.477 6.643.331.886.97 1.615 1.503 2.386a6.17 6.17 0 0 1 1.285 3.08c.034.504-.03 1.011 0 1.503a9.09 9.09 0 0 0 .376 1.996c.32 1.212.656 2.423 1.007 3.633.571 1.954 1.315 4.061 3.066 5.102-4.227.718-8.683 1.42-12.71-.049a6.593 6.593 0 0 1-1.586-.793c-1.454-1.037-2.157-2.81-2.784-4.486-.7-1.878-1.41-3.79-1.552-5.79a6.647 6.647 0 0 0-.267-1.878c-.41-1.09-1.503-1.747-2.495-2.352a11.98 11.98 0 0 1-3.005-2.337 4.67 4.67 0 0 1-1.218-3.51c.075-.62.32-1.217.342-1.84.023-.624-.255-1.338-.853-1.503-3.077-.932-4.546-4.577-5.23-7.718a24.777 24.777 0 0 1-.394-4.922l-.042-3.205a4.231 4.231 0 0 1-1.382-3.04c.04-.334.034-.673-.02-1.006a2.776 2.776 0 0 0-.705-1.07 9.562 9.562 0 0 1-1.687-2.364Z" fill="#464353" fill-rule="evenodd" data-name="Path 11"/><path d="M579.995 1704.472c-.101.992.124 2.01-.098 2.984-.086.375-.236.75-.345 1.1a6.462 6.462 0 0 0 .41 4.182 23.29 23.29 0 0 0 2.137 3.701c.279.398.509.828.684 1.281.142.476.23.966.263 1.462.217 1.99.567 3.963 1.045 5.906.42 1.683 5.2 16.074 6.312 17.407.201.296.507.504.856.583.252.01.502-.042.73-.15l2.253-.865c.192-.058.37-.155.523-.285.211-.247.326-.562.323-.887.161-1.833-4.63-16.325-5.238-18.057-1.84-5.23-4.29-10.272-5.489-15.687-.334-1.502-.511-3.817-1.612-5.015-.455-.496-.3-.286-.845-.027-.276.12-.542.26-.797.417a2.608 2.608 0 0 0-1.112 1.95Z" fill="#464353" fill-rule="evenodd" data-name="Path 12"/><path d="M586.837 1714.395c.605 3.197 1.229 6.387 1.849 9.585l8.822-2.31c.07-.925-.421-1.782-.752-2.631-.804-2.018-.823-4.264-1.473-6.338-.492-1.578-1.349-3.029-1.81-4.618-.267-.924-.403-1.879-.666-2.814a20.456 20.456 0 0 0-1.037-2.687 16.822 16.822 0 0 0-1.923-3.565c-1.128.42-2.33.91-2.972 1.927a4.164 4.164 0 0 0-.549 1.879c-.154 1.98.564 3.971.327 5.94a17.475 17.475 0 0 0 .184 5.632Z" fill="#4285f4" fill-rule="evenodd" data-name="Path 14"/><path d="M597.654 1756.927c.496 1.878-.222 3.855-.808 5.715a44.29 44.29 0 0 0-1.796 8.604 7.444 7.444 0 0 1-.443 2.175c-.278.628-.751 1.157-1.075 1.755-.886 1.57-.864 3.486-.672 5.282.128 1.184.32 2.364.556 3.528.29 1.424.646 2.912.23 4.302.698-.154 1.171.752 1.126 1.462-.045.71-.274 1.503.068 2.115.864.316.872 1.503.845 2.424.015 1.596.216 3.185.601 4.734a752.976 752.976 0 0 0 4.163 18.809c3.175.984 6.884 2.01 9.912.646.564-.252 1.127-.654 1.255-1.263a2.203 2.203 0 0 0-.12-.969l-1.436-5.223c-.349-1.262-.698-2.566-.514-3.862.139-.966.56-2.006.086-2.86-.161-.292-.417-.522-.605-.8-.751-1.1-.357-2.573-.297-3.907.024-.3.004-.6-.06-.894a4.467 4.467 0 0 0-.428-.98 14.998 14.998 0 0 1-1.653-7.463c.045-.33 0-.666-.132-.973a3.15 3.15 0 0 1-.244-.398 1.09 1.09 0 0 1 .079-.718 6.577 6.577 0 0 1-1.157-1.127 1.62 1.62 0 0 0 .278-2.532.845.845 0 0 0 .402-1.454c-.184-.128-.429-.184-.56-.376-.203-.278-.038-.665.128-.962l.875-1.582c.654-1.176.8-2.63 1.503-3.757 1.007-1.642 1.665-3.472 2.314-5.283l2.529-6.977 1.702 1.477a5.38 5.38 0 0 1 1.398 1.593 6.88 6.88 0 0 1 .454 1.909c.624 3.787 3.006 7.07 3.89 10.802.195.83.326 1.702.803 2.412.17.218.324.449.459.691.124.37.189.756.191 1.146a5.347 5.347 0 0 0 2.254 3.832c.838.575 1.88.97 2.334 1.879.09.282.217.55.376.8.405.489 1.28.545 1.453 1.158.098.341-.082.75.11 1.052.108.139.252.246.416.311l2.446 1.221c2.736 1.368 4.133 4.51 6.151 6.797a14.662 14.662 0 0 1 1.841 2.435c.872 1.56 1.274 3.517 2.747 4.509.396.205.756.473 1.067.792.462.61.293 1.462.334 2.228.041.767.628 1.68 1.356 1.447a5.347 5.347 0 0 0 0 2.837c3.2-.165 6.252-1.4 8.665-3.51.713-.623 1.4-1.42 1.409-2.367a.85.85 0 0 0-.106-.47 1.343 1.343 0 0 0-.552-.416c-2.288-1.24-2.976-4.115-4.133-6.448-1.01-2.059-2.506-3.832-3.757-5.745-2.72-4.114-4.577-9.092-8.69-11.808-.906-.598-1.958-1.128-2.413-2.116-.251-.552-.282-1.183-.48-1.754-.2-.572-.677-1.128-1.286-1.128.338-.826.27-1.833.293-2.727a3.447 3.447 0 0 0-.135-1.176 5.717 5.717 0 0 0-.605-1.165 11.175 11.175 0 0 1-1.548-6.012c.03-1.085.222-2.205-.105-3.242-.165-.522-.455-1-.654-1.503a9.393 9.393 0 0 1-.47-2.825l-.225-3.611a17.778 17.778 0 0 0-.466-3.57c-.751-2.802-1.502-14.544-4.076-15.866-2.574-1.323-6.996 7.713-9.893 7.89a12.887 12.887 0 0 0-3.757.725c-1.928.721-3.543 2.066-5.118 3.382l-5.327 4.474c-1.127.928-2.06 1.815-3.303 2.469Z" fill="#464353" fill-rule="evenodd" data-name="Path 15"/><path d="M572.082 1680.272c1.173-1.6 3.186-2.45 5.17-2.521 1.984-.072 3.938.552 5.715 1.435a7.061 7.061 0 0 0 1.668.684c.94.192 1.984-.064 2.833.376 1.127.597 1.345 2.119 1.248 3.381-.098 1.263-.335 2.664.338 3.757.238.312.455.64.65.981.29.65.12 1.401-.053 2.09-.44-.377-.687-.944-1.078-1.38-.39-.436-1.071-.729-1.556-.402-.484.327-.477.92-.503 1.454-.026.534-.162 1.172-.665 1.345a1.078 1.078 0 0 1-1.127-.44c-.86-1.051-.515-2.73-1.368-3.79-.485-.602-1.292-.895-1.74-1.526-.353-.496-.443-1.127-.751-1.66-.308-.534-1.026-.925-1.503-.557a2.033 2.033 0 0 0-.402.538 2.31 2.31 0 0 1-2.743.826c-.37-.227-.769-.4-1.187-.514a1.47 1.47 0 0 0-1.356.751c-.27.478-.4 1.022-.376 1.57 0 .752.135 1.552-.293 2.153-.163.227-.367.42-.601.572-.628.402-1.503.672-2.082.214a1.563 1.563 0 0 1-.466-1.458c.113-.523.261-1.038.444-1.54.33-1.165-.102-2.477.259-3.574.378-.988.891-1.918 1.525-2.765Z" fill="#464353" fill-rule="evenodd" data-name="Path 16"/><path d="M576.843 1706.78c-.057.273-.028.558.082.814.112.175.264.321.444.425a9.115 9.115 0 0 0 4.185 1.356c.202.004.4.055.579.15.353.234.376.752.244 1.165-.175.39-.266.813-.267 1.24.11.786 1.041 1.128 1.826 1.244 1.101.139 2.307.068 3.179-.62a4.91 4.91 0 0 0 1.311-1.965c2.157-4.956 2.912-10.434 5.095-15.375.165-.322.276-.67.327-1.029a1.015 1.015 0 0 0-.406-.947c-.406-.252-1.037-.109-1.311-.503-.135-.2-.12-.47-.24-.68-.252-.448-.914-.376-1.364-.635-.354-.188-.598-.575-.992-.65a1.247 1.247 0 0 0-1.026.443c-1.281 1.195-1.954 2.89-2.668 4.49a52.632 52.632 0 0 1-3.817 7.078c.169-.263-.812-2.254-1.195-2.34-.672-.136-1.533 1.044-1.897 1.484a9.454 9.454 0 0 0-2.09 4.854Z" fill="#4285f4" fill-rule="evenodd" data-name="Path 17"/><path d="M590.493 1691.77a1.8 1.8 0 0 0-1.394.698c-.402.522-.481 1.214-.583 1.879a16.324 16.324 0 0 1-2.212 5.943" fill-rule="evenodd" data-name="Path 18"/><path d="M592.409 1693.268a2.145 2.145 0 0 0-1.822 1.094 6.141 6.141 0 0 0-.459 1.856 10.187 10.187 0 0 1-1.822 3.903" fill-rule="evenodd" data-name="Path 19"/><path d="M681.703 1766.722v-4.666c-.002-7.154-5.801-12.952-12.955-12.952H484.46c-7.153 0-12.953 5.798-12.955 12.952v8.604l210.198-3.938Z" fill="#33323d" fill-rule="evenodd" data-name="Path 20"/><path d="M535.727 1743.634s-.526 32.635 5.26 43.373c5.787 10.738 8.267 57.452 8.267 57.452s60.656 6.274 102.925-7.514c42.269-13.79 132.21-19.43 132.21-19.43l-15.157-102.154s-74.878-4.802-117.474 15.513c-42.595 20.316-116.03 12.76-116.03 12.76Z" fill="#8dd070" fill-rule="evenodd" data-name="Path 21"/><path d="M535.727 1743.634s-.526 32.635 5.26 43.373c5.787 10.738 8.267 57.452 8.267 57.452s60.656 6.274 102.925-7.514c42.269-13.79 132.21-19.43 132.21-19.43l-15.157-102.154s-74.878-4.802-117.474 15.513c-42.595 20.316-116.03 12.76-116.03 12.76Z" fill-rule="evenodd" data-name="Path 22"/><path d="M549.152 1755.556s-1.897 26.928 2.863 35.532c4.76 8.604 4.982 47.014 4.982 47.014s54.589 2.532 93.42-10.686c38.83-13.218 120.43-21.792 120.43-21.792l-9.273-83.542s-67.517-.695-106.923 17.911c-39.406 18.606-105.499 15.563-105.499 15.563Z" fill="#8dd070" fill-rule="evenodd" data-name="Path 23"/><path d="M636.218 1783.61a14.172 30.396-7.1 1 1 .012.1z" fill-rule="evenodd" data-name="Ellipse 2"/><path d="M728.18 1665.596s-72.744 18.41-107.047 50.817c-34.304 32.406-106.517 47.75-106.517 47.75s9.513 31.22 18.312 39.665c8.8 8.447 25.49 52.15 25.49 52.15s59.653-12.646 95.647-38.751c35.994-26.106 119.882-59.075 119.882-59.075l-45.767-92.556Z" fill-rule="evenodd" data-name="Path 24"/><path d="M513.522 1759.49s9.51 31.222 18.302 39.668c8.792 8.446 25.489 52.147 25.489 52.147s59.66-12.643 95.659-38.749c35.998-26.105 119.878-59.063 119.878-59.063l-45.767-92.567s-72.74 18.41-107.043 50.816c-34.304 32.407-106.518 47.747-106.518 47.747Z" fill="#8dd070" fill-rule="evenodd" data-name="Path 25"/><path d="M513.522 1759.49s9.51 31.222 18.302 39.668c8.792 8.446 25.489 52.147 25.489 52.147s59.66-12.643 95.659-38.749c35.998-26.105 119.878-59.063 119.878-59.063l-45.767-92.567s-72.74 18.41-107.043 50.816c-34.304 32.407-106.518 47.747-106.518 47.747Z" fill-rule="evenodd" data-name="Path 26"/><path d="M529.945 1766.718s6.459 26.214 13.631 32.94c7.173 6.725 19.162 43.208 19.162 43.208s52.729-14.345 85.631-38.842 107.941-57.662 107.941-57.662l-34.457-76.693s-64.47 20.052-96.268 49.855c-31.797 29.802-95.64 47.194-95.64 47.194Z" fill="#8dd070" fill-rule="evenodd" data-name="Path 27"/><path d="M621.431 1766.701a30.396 14.172 65.03 1 1 .042.09z" fill-rule="evenodd" data-name="Ellipse 3"/><path d="M686.678 1771.302v129.624c0 6.192-5.02 11.21-11.212 11.208H482.721c-6.189-.002-11.205-5.02-11.205-11.208v-142.692c5.524 2.052 5.524 2.052 11.205 1.879h192.745c6.183 0 11.2 5.006 11.212 11.19Z" fill-rule="evenodd" data-name="Path 28"/><path d="M686.678 1772.951v129.625c-.002 6.19-5.021 11.207-11.212 11.207H482.721c-6.189-.001-11.205-5.019-11.205-11.207V1759.88c5.524 2.048 5.524 2.048 11.205 1.879h192.745c6.185 0 11.201 5.008 11.212 11.192Z" fill="#504f60" fill-rule="evenodd" data-name="Path 29"/><path d="M686.13 1820.875v41.453h-40.203c-11.448.002-20.729-9.278-20.729-20.726 0-11.449 9.28-20.729 20.729-20.729l40.202.002Z" fill-rule="evenodd" data-name="Path 30"/><path d="M686.678 1819.77v41.461h-40.203c-11.448.002-20.728-9.279-20.728-20.727s9.28-20.728 20.728-20.728l40.203-.006Z" fill="#33323d" fill-rule="evenodd" data-name="Path 31"/><path d="M640.321 1841.503a8.082 8.082 0 1 1 0 .1z" fill-rule="evenodd" data-name="Ellipse 4"/><path d="M640.87 1840.406a8.082 8.082 0 1 1 0 .1z" fill="#4285f4" fill-rule="evenodd" data-name="Ellipse 5"/><path d="M756.46 1819.413c.32 3.46-2.299 6.82-1.536 10.209.165.725.477 1.409.59 2.141.316 2.014-.883 3.919-2.03 5.602l-9.843 14.443a8.967 8.967 0 0 1-1.405 1.736c-1.879 1.676-4.704 1.503-7.176 2.002a12.263 12.263 0 0 0-4.81 2.127.308.308 0 0 0-.045.42 4.133 4.133 0 0 0 3.577 1.68c.26.342 0 .842-.376 1.086-.53.376-1.255.466-1.36 1.36-.037.312.026.628.18.902a2.799 2.799 0 0 0 1.721 1.199c3.408 1.04 7.09-.79 9.642-3.28 2.55-2.492 4.38-5.636 6.883-8.172 1.386-1.402 2.96-2.604 4.388-3.964 2.848-2.713 5.061-6.012 7.199-9.314.642-.996 1.289-2.018 1.56-3.172.27-1.153.142-2.318.446-3.434.399-1.465 1.47-2.63 2.36-3.858 1.747-2.405 2.912-5.347 2.683-8.308-.23-2.96-2.067-5.887-4.862-6.894a4.321 4.321 0 0 0-2.724-.165c-1.146.353-1.992 1.3-2.773 2.205l-1.879 2.16a5.065 5.065 0 0 0-1.09 1.654 1.733 1.733 0 0 0 .376 1.837" fill="#fbbebe" fill-rule="evenodd" data-name="Path 32"/><path d="M756.46 1819.413c.32 3.46-2.299 6.82-1.536 10.209.165.725.477 1.409.59 2.141.316 2.014-.883 3.919-2.03 5.602l-9.843 14.443a8.967 8.967 0 0 1-1.405 1.736c-1.879 1.676-4.704 1.503-7.176 2.002a12.263 12.263 0 0 0-4.81 2.127.308.308 0 0 0-.045.42 4.133 4.133 0 0 0 3.577 1.68c.26.342 0 .842-.376 1.086-.53.376-1.255.466-1.36 1.36-.037.312.026.628.18.902a2.799 2.799 0 0 0 1.721 1.199c3.408 1.04 7.09-.79 9.642-3.28 2.55-2.492 4.38-5.636 6.883-8.172 1.386-1.402 2.96-2.604 4.388-3.964 2.848-2.713 5.061-6.012 7.199-9.314.642-.996 1.289-2.018 1.56-3.172.27-1.153.142-2.318.446-3.434.399-1.465 1.47-2.63 2.36-3.858 1.747-2.405 2.912-5.347 2.683-8.308-.23-2.96-2.067-5.887-4.862-6.894a4.321 4.321 0 0 0-2.724-.165c-1.146.353-1.992 1.3-2.773 2.205l-1.879 2.16a5.065 5.065 0 0 0-1.09 1.654 1.733 1.733 0 0 0 .376 1.837" fill-rule="evenodd" data-name="Path 33"/><path d="M763.911 1908.497c-2.149 1.312-4.828 1.39-7.326 1.086-.402-.049-.88-.079-1.127.233-.376.45.067 1.127.526 1.477a10.84 10.84 0 0 0 5.03 2.07c1.63.231 3.276.34 4.922.327 4.51.078 9.018.154 13.455-.492.263-.02.519-.095.752-.218.285-.201.484-.504.556-.846.304-1.157-.282-2.397-1.169-3.201-.887-.804-2.025-1.251-3.137-1.683l-3.908-1.522c-.917-.357-2.386-1.304-3.381-1.229-1.871.136-3.641 3.089-5.193 3.998Z" fill="#3f3d56" fill-rule="evenodd" data-name="Path 34"/><path d="M763.911 1908.497c-2.149 1.312-4.828 1.39-7.326 1.086-.402-.049-.88-.079-1.127.233-.376.45.067 1.127.526 1.477a10.84 10.84 0 0 0 5.03 2.07c1.63.231 3.276.34 4.922.327 4.51.078 9.018.154 13.455-.492.263-.02.519-.095.752-.218.285-.201.484-.504.556-.846.304-1.157-.282-2.397-1.169-3.201-.887-.804-2.025-1.251-3.137-1.683l-3.908-1.522c-.917-.357-2.386-1.304-3.381-1.229-1.871.136-3.641 3.089-5.193 3.998Z" fill-rule="evenodd" data-name="Path 35"/><path d="M766.65 1856.625c-1.627 2.164-3.31 4.663-2.908 7.341.218 1.443 1.026 2.717 1.62 4.05.804 1.812 1.224 3.758 1.638 5.697.608 2.833 1.22 5.673 1.593 8.551.424 3.25-1.57 12.654-1.755 15.927-.045.79-.139 1.642-.687 2.21-.215.225-.5.405-.598.698-.057.282-.01.576.132.827.917 2.066 2.791 3.607 4.884 4.486 2.093.879 7.139 2.397 9.42 2.476.3.033.604-.007.886-.117.303-.185.542-.459.684-.785 1.634-3.126.064-14.24.086-17.768.023-2.942.718-5.865.59-8.803-.105-2.36-.751-4.666-.966-7.019-.375-3.854.331-7.728 1.041-11.538.541-2.923 1.086-5.846 1.781-8.732.425-1.762.917-3.539 1.879-5.068.751-1.214 1.807-2.228 2.683-3.382 2.43-3.185 3.509-7.199 3.005-11.174-.052-.375-5.636 1.417-6.128 1.631a19.093 19.093 0 0 0-5.463 3.513c-1.292 1.232-2.31 2.878-3.441 4.257a392.683 392.683 0 0 0-4.742 5.895 331.534 331.534 0 0 0-5.234 6.827Z" fill="#464353" fill-rule="evenodd" data-name="Path 36"/><path d="M766.65 1856.493c-1.627 2.164-3.31 4.667-2.908 7.342.218 1.446 1.026 2.72 1.62 4.054.804 1.807 1.224 3.757 1.638 5.692.608 2.837 1.22 5.677 1.593 8.551.424 3.254-1.57 12.655-1.755 15.927-.045.79-.139 1.646-.687 2.214-.215.221-.5.402-.598.695-.057.282-.01.575.132.826.917 2.07 2.791 3.607 4.884 4.509 2.093.902 7.139 1.687 9.42 1.762.3.033.604-.007.886-.117.304-.182.543-.455.684-.781 1.634-3.126.064-13.526.086-17.058.023-2.946.718-5.865.59-8.807-.105-2.36-.751-4.666-.966-7.015-.375-3.858.331-7.732 1.041-11.542.541-2.92 1.086-5.842 1.781-8.732.425-1.761.917-3.539 1.879-5.068.751-1.214 1.807-2.228 2.683-3.381 2.43-3.186 3.51-7.2 3.005-11.174-.052-.376-5.636 1.416-6.128 1.63a19.18 19.18 0 0 0-5.463 3.517c-1.292 1.229-2.31 2.874-3.441 4.253a381.568 381.568 0 0 0-4.742 5.899 283.999 283.999 0 0 0-5.234 6.804Z" fill-rule="evenodd" data-name="Path 37"/><path d="M739.43 1799.742a9.119 9.119 0 1 1 0 .1z" fill="#fbbebe" fill-rule="evenodd" data-name="Ellipse 6"/><path d="M756.761 1799.459a11.809 11.809 0 0 0 7.571 5.282l-.687 2.499c-1.188 4.29-2.522 8.83-5.835 11.805.375-1.454-.106-3.006-.925-4.268-.819-1.263-1.969-2.254-3.096-3.235l-5.249-4.546a1.58 1.58 0 0 1-.375-.444c-.13-.32-.13-.679 0-1 .668-2.08 2.577-3.38 4.133-4.786a14.303 14.303 0 0 0 2.077-2.42c1.049-1.495 1.699.008 2.386 1.113Z" fill="#fbbebe" fill-rule="evenodd" data-name="Path 38"/><path d="m736.536 1790.674-.206-1.713c1.439.376 2.806-.85 3.727-2.115.92-1.267 1.773-2.758 3.175-3.288 1.702-.639 3.505.376 5.132 1.232a16.227 16.227 0 0 0 5.887 1.917c.33.01.657.064.974.158 1.06.375 1.562 1.705 1.717 2.911.154 1.206.112 2.488.635 3.562.375.815 1.074 1.42 1.503 2.224 1.127 2.157.037 5.106 1.213 7.222l-2.923-2.68c-.267-.243-.642-.499-.94-.292-.232.165-.25.522-.345.808-.282.834-1.326 1.082-2.082.751-.755-.33-1.307-1.048-1.878-1.702-1.293-1.525-2.833-2.867-4.636-3.517a5.951 5.951 0 0 0-4.885.324c-1.364.77-2.363 2.566-4.035 2.63-2.292.086-3.246-4.182-4.306-5.87a2.067 2.067 0 0 0 .601-2.584c.154-.064 1.638-.24 1.672.022Z" fill="#464353" fill-rule="evenodd" data-name="Path 39"/><path d="M623.748 1737.363a17.735 17.735 0 0 0-2.025 2.127 4.257 4.257 0 0 0-.932 2.731c.003.288.095.567.263.8a.676.676 0 0 0 .751.23c.151-.077.28-.191.376-.331.397-.477.819-.934 1.263-1.368.161-.161.375-.33.593-.27a.636.636 0 0 1 .256.169c.253.218.436.505.53.826.131.575-.203 1.15-.583 1.601-.38.45-.826.883-.98 1.45a.642.642 0 0 0 0 .466.7.7 0 0 0 .292.248c1.09.6 2.389.685 3.547.233.752-.304 1.42-.826 2.195-1.097a5.08 5.08 0 0 0 .969-.376c.447-.297.757-.761.86-1.288a5.317 5.317 0 0 0 .057-1.582 18.183 18.183 0 0 0-1.293-5.948.75.75 0 0 0-.218-.316.694.694 0 0 0-.375-.101c-.962-.101-2.54-.594-3.468-.237a2.45 2.45 0 0 0-.82.73c-.172.19-1.258 1.051-1.258 1.303Z" fill="#a1616a" fill-rule="evenodd" data-name="Path 40"/><path d="M623.444 1736.514c0-.917-1.127-3.13.665-3.276 0-.981-1.387-1.59-1.127-2.63.082-.346.375-.628.409-.981.113-1.003-1.698-1.548-1.398-2.51.113-.376.511-.594.598-.966.203-.867-1.35-1.254-1.38-2.145 0-.3.17-.582.155-.883 0-.376-.327-.661-.507-.988-.47-.838-.24-2.134-1.097-2.566.567.049.751-.793.518-1.308-.233-.514-.71-.962-.714-1.533a2.32 2.32 0 0 0 0-.623c-.158-.549-1.056-.594-1.206-1.128a4.819 4.819 0 0 1-.019-.616c-.06-.424-.496-.695-.905-.815a3.694 3.694 0 0 1-1.21-.432c-.263-.2-.567-.53-.85-.376-.104.064-.157.184-.236.274-.338.395-.984.222-1.409-.067-1.255-.853-1.878-2.382-2.145-3.874-.267-1.492-.26-3.032-.594-4.509a9.618 9.618 0 0 0-.406-1.352c-.142-.376-.6-.966-.63-1.345-.068-.864 1.72-.275 2.4-.188.66.064 1.313.19 1.95.376.68.256 1.346.549 1.995.875 2.713 1.199 5.99 1.345 8.169 3.359.717.661 1.322 1.53 2.254 1.83.427.082.849.19 1.262.327 1.033.484 1.195 1.856 1.759 2.848.177.262.331.538.462.826.108.34.16.696.15 1.052l.079 2.604c.128 4.362.255 8.736-.21 13.071-.15 1.432-.376 2.905.048 4.28.113.376.27.729.376 1.108.093.445.14.898.143 1.353l.06 1.687a.526.526 0 0 1-.083.376.54.54 0 0 1-.454.109c-2.349-.21-4.723-1.533-6.94-.733" fill="#464353" fill-rule="evenodd" data-name="Path 41"/><path d="M702.819 1862.022a27.788 4.016 0 1 1 0 .1z" fill="#504f60" fill-rule="evenodd" data-name="Ellipse 7"/><path d="M762.095 355.552c-.488-2.093-.793-3.93-.793-3.93s.113-2.277-.91-3.986v-4.78c.292-.764.648-1.502 1.064-2.205.752-1.323 0-6.17 0-6.17s-2.806-6.834-2.126-11.17c.68-4.336-5.764-19.252-5.764-19.252a19.01 19.01 0 0 1 .605-4.26 3.25 3.25 0 0 0 .083-.895v-.109.034c-.098-2.86-2.36-8.217-2.36-8.217l.304-10.212s1.443-6.012-.909-14.108c-.823-2.822-1.349-5.08-1.683-6.823-.038-.196-.075-.376-.105-.568 4.843-.751 8.544-1.352 8.544-1.352s-2.81-11.757-4.708-13.816c-1.898-2.059-3.416-8.525-3.416-8.525s-.988-8.3.61-10.727c1.596-2.427 1.821-6.613 1.821-6.613s3.641-2.63 4.1-3.82c.458-1.192 1.213-3.822 1.213-5.216 0-1.394-.455-2.63-.304-3.381.15-.752-1.064-3.528-.455-4.85a3.564 3.564 0 0 0 .24-1.312 17.836 17.836 0 0 0-.319-3.45 9.79 9.79 0 0 0-3.607-1.927l-.079-.315-.206-.827a4.033 4.033 0 0 0-.357-.21v-.3l-.034-1.196.571-2.682c1.127-4.667-5.106-5.362-5.106-5.362a3.287 3.287 0 0 0-1.766-1.548c-1.25-.44-.207 7.019.376 7.515.44.375 1.8 2.697 2.457 3.847l.105.188a2.613 2.613 0 0 0-.285.3l.237 1.62.037.248a6.722 6.722 0 0 0-.996 1.694s1.128 1.248.913 2.63c-.214 1.383.35 3.138.376 3.232-.068-.08-.868-.943-1.668-.733-.8.21-3.036.883-3.036.883s-1.668.293-1.503.661c.165.368-1.127 1.984-1.127 1.984l-4.486-4.253c-.045-.128-.094-.256-.132-.376a10.336 10.336 0 0 1-.375-1.879c.488-.116.968-.268 1.435-.454a3.099 3.099 0 0 0 1.24-.797c.454-.537.54-1.266.725-1.935.353-1.307 1.127-2.468 1.664-3.712a12.068 12.068 0 0 0 .846-6.68 4.356 4.356 0 0 0-.688-1.954c-.732-1.007-2.062-1.416-3.028-2.22-.966-.804-1.59-2.033-2.717-2.63-1.018-.545-2.254-.481-3.404-.294a18.344 18.344 0 0 0-6.36 2.315c-.654.376-1.376.838-2.127.699-.646-.117-1.127-.631-1.533-1.127.005-.02.01-.041.019-.06a.378.378 0 0 1-.05-.06 7.923 7.923 0 0 0-.698 3.358c0 .18 0 .376.023.538V184.362a.86.86 0 0 1-.034.236 1.71 1.71 0 0 1-.421.605 4.061 4.061 0 0 0-.376.5c0-.06.038-.12.06-.184a2.67 2.67 0 0 0-.465 1.416c-.022.37.1.732.338 1.015.224.218.47.414.732.586-.089.496-.134.999-.135 1.503a8.683 8.683 0 0 0 4.23 7.405c.053.124.102.252.151.376.575 1.503 1.007 3.269.815 4.884 0 .117-.034.237-.052.354-.02.116-.113.123-.162.187 0 0-7.413.075-9.156-1.503-1.744-1.578-4.404 3.86-4.404 3.86s-2.656.514-3.19 0c-.533-.516-3.64-.072-3.64-.072a6.699 6.699 0 0 0-4.633-1.691 13.598 13.598 0 0 0-3.382-1.879l-.082-.03a3.787 3.787 0 0 0-1.672-.21s-3.645-3.006-4.708-4.629c-1.063-1.623-6.124-7.616-6.147-7.642v-.29l-.056-.871c-.15.023-.303.036-.455.037-.026-.086-.064-.187-.101-.304a16.802 16.802 0 0 0-1.075-2.468s0-1.101.32-1.38c.319-.277-.132-4.316-.132-4.316s-3.284-7.676-6.226-1.947c0 0-5.56 3.709-.894 8.03 0 0 1.879.901 2.127 1.615.172.462.804 1.759 1.228 2.63l.192.376-.053.045.068.721.03.278c-.88.5-1.477.996-1.33 1.368.259.637.437 1.303.53 1.984 0 0 6.455 8.085 7.289 11.538 0 0 17.31 10.288 23.002 11.02l-1.008 5.129a40.995 40.995 0 0 0-.225 4.19c.075 1.1-.684 6.097-.684 6.097s-.988 7.35-1.822 8.379c-.834 1.03-.684 5.437-.684 5.437a37.13 37.13 0 0 1-1.127 6.244c-.834 2.792-.23 6.248-.23 6.248s-2.88 6.613 4.025 2.13c0 0 3.381-.21 7.296-.345v.376c0 .503 0 1.048-.026 1.619-.053 3.787-.075 9.017.098 12.955.304 6.98 2.43 20.796 2.43 20.796v6.955a9.477 9.477 0 0 0-.202 1.984 12.912 12.912 0 0 0 1.878 6.947l.534 4.629s1.247 3.05 1.27 4.884a2.577 2.577 0 0 1-.053.44 2.948 2.948 0 0 0-.06.71c-.071 2.104 1.195 7.139 1.195 7.139s.075 5.068.834 5.365c.65.252-.868 2.92-1.319 3.686a1.024 1.024 0 0 1-.026-.143l-.094.15c-.157.41-.237.846-.237 1.285-.087.707.24 1.4.842 1.781 1.443.883 2.217 1.616.992 1.909-.45.07-.897.164-1.338.282 0-.057-.045-.117-.064-.17a.804.804 0 0 0-.5.887c.012.596.166 1.18.448 1.706 1.213 2.72 2.055 3.757 2.055 3.757l.582-.064a2.84 2.84 0 0 1-.338.628 2.418 2.418 0 0 1-.856.751c-.319.19-.673.312-1.041.357a2.93 2.93 0 0 0-2.15 1.045c-.75.98-1.232 2.314.264 3.486l5.429 1.879s9.34 1.214 8.844-.883c-.496-2.096-.796-3.93-.796-3.93a8.281 8.281 0 0 0-.752-3.716 4.844 4.844 0 0 0-.33-.548l.33-.034s.684-4.633 1.593-5.512c.211-.203.26-.376.211-.481.094-.252-.147-.398-.451-.485l-.068.184a4.432 4.432 0 0 0-.905-.101s-.304-2.424.684-3.306a.936.936 0 0 0 .191-.722 3.872 3.872 0 0 0-.105-.988.475.475 0 0 1-.034.06c-.496-2.202-2.179-5.7-2.179-5.7s-.075-2.201.534-3.084c.608-.883-.08-11.978-.08-11.978s.23-5.362-.454-7.86c-.684-2.499.834-5.44.834-5.44v-.196l-.086-.846a.217.217 0 0 0 0 .053c-.154-1.42-.444-3.994-.658-5.181-.304-1.691.08-9.769.08-9.769l1.363-3.457 2.431 5.956 2.581 7.935s1.278 1.676 1.308 3.381v.248c-.021.176-.031.353-.03.53a4.72 4.72 0 0 0 .785 2.83s.684 3.756 1.747 4.7c1.063.943 1.063 2.791 1.063 2.791s1.289 5.44 1.879 6.387c.51.804.537 3.006.533 3.694v.195s.18 1.946.173 3.577v.582a5.656 5.656 0 0 1-.158 1.281l-.022.076c0-.094 0-.184.026-.274a13.822 13.822 0 0 0-.376 3.381c-.033 1.954.263 4.268 1.447 5.636 2.051 2.352 3.34 2.059 3.34 2.059s-.984 2.938-2.202 3.528a.574.574 0 0 0-.127.083c0-.06-.023-.117-.03-.173a1.43 1.43 0 0 0-.376 1.097c-.086 1.292.729 3.381 1.503 4.354.287.282.64.488 1.025.602-.06.043-.125.082-.191.116-.135.074-.275.14-.417.2a2.194 2.194 0 0 1-.62.16 2.893 2.893 0 0 0-2.149 1.045c-.752.977-1.233 2.311.263 3.483l5.429 1.879s9.28 1.19 8.792-.902Z" fill-rule="evenodd" fill="url(&quot;#a&quot;)" transform="translate(-7.58 1506.765)" data-name="Path 42"/><path d="m718.855 1865.789-5.26-1.879c-1.45-1.172-.989-2.506-.256-3.487a2.811 2.811 0 0 1 2.081-1.044 2.496 2.496 0 0 0 1.004-.357c.333-.181.62-.439.834-.752.384-.609.59-1.312.597-2.032 0 0 5.771-1.691 7.35 0 .281.306.516.651.698 1.026a8.584 8.584 0 0 1 .752 3.715s.293 1.834.77 3.93c.477 2.097-8.57.88-8.57.88Z" fill="#2d293d" fill-rule="evenodd" data-name="Path 43"/><path d="m744.569 1863.196-5.26-1.878c-1.45-1.173-.988-2.507-.256-3.483a2.777 2.777 0 0 1 2.078-1.045c.208-.021.41-.076.601-.162.14-.058.275-.125.406-.199 1.47-.807 1.432-2.791 1.432-2.791s5.767-1.69 7.349 0c.211.229.397.48.552.751.988 1.71.88 3.99.88 3.99s.292 1.838.75 3.93c.46 2.093-8.532.887-8.532.887Z" fill="#2d293d" fill-rule="evenodd" data-name="Path 44"/><path d="M725.208 1856.234c.282.306.517.652.699 1.026l-8.642 1.003c.384-.609.591-1.313.598-2.033 0 0 5.767-1.687 7.345.004Z" fill-rule="evenodd" data-name="Path 45"/><path d="M751.479 1854.397v1.62c-1.345 2.212-7.85 1.728-9.74.62.14-.06.275-.126.407-.2 1.469-.808 1.431-2.792 1.431-2.792s5.768-1.69 7.35 0c.211.23.396.481.552.752Z" fill-rule="evenodd" data-name="Path 46"/><path d="M752.504 1847.416a14.694 14.694 0 0 0-1.025 2.205v5.805c-1.473 2.424-9.112 1.616-10.145.293-1.033-1.322-2.111-4.764-.95-5.361 1.16-.598 2.13-3.528 2.13-3.528s-1.251.293-3.235-2.06c-1.984-2.351-1.394-7.566-1.026-8.814.368-1.247 0-5.436 0-5.436s.075-2.942-.51-3.897c-.587-.954-1.838-6.387-1.838-6.387s0-1.837-1.03-2.792c-1.029-.954-1.69-4.704-1.69-4.704a4.822 4.822 0 0 1-.733-3.16c.218-1.837-1.251-3.82-1.251-3.82l-2.499-7.94-2.352-5.95-1.322 3.452s-.376 8.082-.072 9.769c.305 1.687.752 6.173.752 6.173s-1.47 2.938-.808 5.437c.661 2.498.42 7.867.42 7.867s.662 11.091.072 11.974c-.59.883-.515 3.089-.515 3.089s3.006 6.462 2.06 7.345c-.947.883-.662 3.307-.662 3.307s2.055 0 1.176.883c-.879.883-1.544 5.511-1.544 5.511l-8.886 1.041s-.811-1.026-1.987-3.757c-1.177-2.732.217-2.424 1.4-2.72 1.184-.297.437-1.026-.96-1.909-1.398-.883-.587-2.867-.587-2.867s2.13-3.6 1.394-3.892c-.736-.293-.808-5.366-.808-5.366s-1.469-6.011-1.1-7.642c.368-1.63-1.177-5.508-1.177-5.508l-.515-4.629a12.737 12.737 0 0 1-1.615-8.747v-7.138s-2.059-13.812-2.352-20.793c-.188-4.47-.135-10.573-.075-14.379.037-2.134.075-3.55.075-3.55l31.741-3.307s-.03 1.466.575 4.716c.327 1.743.834 4.001 1.63 6.823 2.277 8.082.883 14.104.883 14.104l-.296 10.216s2.791 6.831 2.205 9.183a19.599 19.599 0 0 0-.594 4.268s6.245 14.916 5.584 19.252c-.662 4.336 2.055 11.17 2.055 11.17s.744 4.847.007 6.17Z" fill="#464353" fill-rule="evenodd" data-name="Path 47"/><path d="m734.357 1809.137 9.664-1.288s-5.475 5.587-9.664 1.288Z" fill-rule="evenodd" data-name="Path 48"/><path d="M742.623 1798.407s.33 3.419-1.762 4.704c0 0 3.746-.586 1.762-4.704Z" fill-rule="evenodd" data-name="Path 49"/><path d="M742.03 1787.533s-8.079 6.65-11.017 6.098c-2.938-.552 11.016-6.098 11.016-6.098Z" fill-rule="evenodd" data-name="Path 50"/><path d="M722.38 1812.256s-6.137 1.394-6.32 3.859c-.185 2.464 6.32-3.86 6.32-3.86Z" fill-rule="evenodd" data-name="Path 51"/><path d="M723.728 1842.9s-8.668 1.615-6.207 2.716c2.46 1.101 6.503 1.984 6.503 1.984s2.8.147-.296-4.7Z" fill-rule="evenodd" data-name="Path 52"/><g data-name="Group 1"><path d="M715.77 1847.367a1.71 1.71 0 0 1-.793-1.255l-.09.154s-.808 1.984.59 2.863c.158.102.312.203.45.3.26-.048.538-.086.805-.153 1.183-.293.436-1.026-.962-1.909Z" fill-rule="evenodd" data-name="Path 53"/><path d="M726.937 1846.777c.24-.218.233-.781.086-1.503-.376.568-.485 1.454-.492 2.127.091-.234.23-.446.406-.624Z" fill-rule="evenodd" data-name="Path 54"/><path d="M725.602 1810.223c-.319.87-.516 1.778-.585 2.702.167-.638.392-1.26.672-1.856l-.087-.846Z" fill-rule="evenodd" data-name="Path 55"/><path d="M745.456 1806.368c.057-.264.084-.534.079-.804a21.4 21.4 0 0 0-.24 1.503c.048-.23.1-.447.16-.699Z" fill-rule="evenodd" data-name="Path 56"/><path d="M725.396 1836.347c.12-.18.188-.789.218-1.634a5.547 5.547 0 0 0-.425 2.062c.052-.15.12-.294.207-.428Z" fill-rule="evenodd" data-name="Path 57"/><path d="M727.2 1850.204a29.134 29.134 0 0 0-1.011 4.509l-8.886 1.025s-.812-1.025-1.988-3.757a6.827 6.827 0 0 1-.251-.646c-.534.244-.752.796-.045 2.408 1.176 2.72 1.99 3.757 1.99 3.757l8.887-1.03s.661-4.628 1.54-5.511c.451-.425.173-.646-.237-.755Z" fill-rule="evenodd" data-name="Path 58"/><path d="M715.477 1837.008s.071 5.069.808 5.362c.375-.838.62-1.635.289-1.766-.752-.293-.808-5.365-.808-5.365s-1.469-6.012-1.1-7.643c.368-1.63-1.177-5.508-1.177-5.508l-.515-4.629a12.736 12.736 0 0 1-1.615-8.746v-7.14s-2.06-13.81-2.352-20.792c-.188-4.47-.135-10.572-.075-14.379 0-.687.022-1.296.034-1.81l-.252.026s-.042 1.413-.075 3.55c-.06 3.806-.117 9.908.075 14.376.293 6.98 2.348 20.796 2.348 20.796v7.139a12.744 12.744 0 0 0 1.62 8.743l.51 4.628s1.545 3.893 1.176 5.512c-.368 1.62 1.109 7.646 1.109 7.646Z" fill-rule="evenodd" data-name="Path 59"/><path d="M741.635 1853.758a8.59 8.59 0 0 1-1.41-3.49c-.905.819.136 3.997 1.128 5.26 1.026 1.322 8.668 2.13 10.144-.297v-1.398c-2.002 1.965-8.893 1.176-9.862-.075Z" fill-rule="evenodd" data-name="Path 60"/><path d="M752.801 1845.455a14.87 14.87 0 0 0-1.03 2.205v1.04c.17-.375.407-.878.752-1.472a4.508 4.508 0 0 0 .323-1.822s-.034.034-.045.049Z" fill-rule="evenodd" data-name="Path 61"/><path d="M742.085 1846.616c.28-.566.522-1.15.726-1.748 0 0-1.251.293-3.235-2.059-1.443-1.71-1.526-4.94-1.319-7.052-.376 1.251-.958 6.466 1.026 8.818 1.296 1.537 2.277 1.943 2.802 2.04Z" fill-rule="evenodd" data-name="Path 62"/><path d="M738.253 1830.32a39.25 39.25 0 0 1 .147 4.355c.037-.23.087-.456.15-.68.376-1.251 0-5.437 0-5.437s.075-2.942-.515-3.896c-.59-.954-1.818-6.395-1.818-6.395s0-1.837-1.03-2.791c-1.029-.955-1.69-4.704-1.69-4.704a4.834 4.834 0 0 1-.752-3.16c.222-1.837-1.247-3.821-1.247-3.821l-2.499-7.935-2.352-5.952-1.326 3.457s0 .436-.045 1.127l1.074-2.807 2.352 5.94 2.499 7.936s1.47 1.983 1.247 3.82a4.835 4.835 0 0 0 .752 3.16s.661 3.758 1.69 4.705c1.03.946 1.026 2.791 1.026 2.791s1.251 5.437 1.837 6.388c.587.95.5 3.9.5 3.9Z" fill-rule="evenodd" data-name="Path 63"/></g><path d="m744.422 1695.136-.552 2.682.034 1.195.023.88-3.066.315-.342-.635c-.635-1.15-1.954-3.487-2.378-3.848-.568-.473-1.579-7.935-.376-7.491.74.285 1.348.836 1.705 1.544 0 0 6.038.691 4.952 5.358Z" fill="#ffcdd3" fill-rule="evenodd" data-name="Path 64"/><path d="m743.927 1699.892-3.066.316-.342-.635a2.702 2.702 0 0 1 3.381-.556l.027.875Z" fill-rule="evenodd" data-name="Path 65"/><path d="m744.7 1701.346-4.042.936-.087-.601-.229-1.62s1.601-2.134 3.915-.533l.203.823.24.995Z" fill="#4285f4" fill-rule="evenodd" data-name="Path 66"/><path d="m679.212 1695.429-4.317 2.314-.376-.811c-.41-.86-1.022-2.157-1.19-2.63-.256-.714-2.056-1.616-2.056-1.616-4.509-4.317.864-8.03.864-8.03 2.848-5.73 6.012 1.947 6.012 1.947s.443 4.046.131 4.317c-.311.27-.311 1.379-.311 1.379a16.932 16.932 0 0 1 1.243 3.13Z" fill="#ffcdd3" fill-rule="evenodd" data-name="Path 67"/><path d="m679.212 1695.429-4.317 2.314-.376-.811c.61-.511 2.77-2.255 3.48-2.183a5.2 5.2 0 0 0 1.022.026c.12.402.191.654.191.654Z" fill-rule="evenodd" data-name="Path 68"/><path d="m679.652 1696.732-4.85 2.39-.099-1.04-.067-.722s2.81-2.409 3.64-2.315c.42.061.847.061 1.267 0l.056.872.053.815Z" fill="#4285f4" fill-rule="evenodd" data-name="Path 69"/><path d="M732.666 1712.956s-21.145 2.386-17.193 1.101c2.75-.898 3.844-2.63 4.073-4.584.188-1.627-.233-3.381-.785-4.884a21.286 21.286 0 0 0-1.879-3.821s16.156-8.89 12.929-.808a13.026 13.026 0 0 0-.917 3.828 10.816 10.816 0 0 0 .417 3.878c.61 2.039 1.77 3.87 3.355 5.29Z" fill="#ffcdd3" fill-rule="evenodd" data-name="Path 70"/><path d="M729.8 1699.949a13.036 13.036 0 0 0-.917 3.828c-1.522 1.281-3.19 1.195-5.336 1.195-1.645 0-3.471.398-4.786-.395a21.305 21.305 0 0 0-1.879-3.82s16.152-8.89 12.917-.808Z" fill-rule="evenodd" data-name="Path 71"/><path d="M714.519 1696.692a8.743 8.743 0 1 1 0 .1z" fill="#ffcdd3" fill-rule="evenodd" data-name="Ellipse 8"/><path d="M732.666 1712.956s-21.145 2.386-17.193 1.1c2.75-.897 3.844-2.63 4.073-4.583 1.052-1.127 3.167-1.965 4.509-2.4a6.327 6.327 0 0 1 3.832-.065c.493.149.962.366 1.394.647a11.548 11.548 0 0 0 3.385 5.301Z" fill-rule="evenodd" data-name="Path 72"/><path d="m744.7 1701.346-4.042.936-.087-.601a3.577 3.577 0 0 1 3.89-1.33l.24.995Z" fill-rule="evenodd" data-name="Path 73"/><path d="m679.652 1696.732-4.85 2.39-.099-1.04a35.383 35.383 0 0 1 4.885-2.169l.064.82Z" fill-rule="evenodd" data-name="Path 74"/><path d="M741.03 1766.237c-8.195 1.308-19.842 2.976-21.69 2.412-1.537-.466-6.437-.417-10.701-.27.038-2.134.075-3.55.075-3.55l31.741-3.307s-.03 1.465.575 4.715Z" fill-rule="evenodd" data-name="Path 75"/><path d="M749.198 1764.314s-26.966 4.629-29.859 3.757c-2.893-.872-17.753.071-17.753.071-6.688 4.483-3.896-2.13-3.896-2.13s-.586-3.453.222-6.245c.542-2.05.913-4.14 1.108-6.252 0 0-.146-4.41.661-5.44.808-1.03 1.766-8.375 1.766-8.375s.733-4.997.662-6.098c-.072-1.1.218-4.19.218-4.19l.958-5.143c-5.512-.733-22.266-11.02-22.266-11.02-.808-3.453-7.052-11.535-7.052-11.535a8.49 8.49 0 0 0-.515-1.983c-.44-1.176 6.173-3.528 6.173-3.528s4.922 6.011 5.952 7.642c1.03 1.63 4.553 4.629 4.553 4.629.548-.057 1.101.015 1.616.21l.087.026a13.1 13.1 0 0 1 3.287 1.879 6.387 6.387 0 0 1 4.483 1.69s3.005-.443 3.528.072c.522.515 3.084 0 3.084 0s2.57-5.437 4.261-3.858c1.69 1.578 8.863 1.502 8.863 1.502.955-1.27 3.28-2.179 4.734-2.63a6.354 6.354 0 0 1 3.833-.063c.54.16 1.05.415 1.503.75l4.362 4.262s1.247-1.62 1.1-1.984c-.146-.365 1.47-.661 1.47-.661s2.13-.662 2.938-.883c.808-.222 1.548.653 1.615.732-.026-.094-.578-1.878-.375-3.231.203-1.353-.883-2.63-.883-2.63 2.57-6.32 8.375-1.03 8.375-1.03s.66 3.453.075 4.776c-.586 1.322.586 4.114.44 4.85-.147.737.296 1.984.296 3.382 0 1.398-.751 4.039-1.176 5.215-.424 1.176-3.968 3.821-3.968 3.821s-.221 4.19-1.765 6.613c-1.545 2.423-.575 10.712-.575 10.712s1.469 6.466 3.306 8.525 4.554 13.793 4.554 13.793Z" fill="#3f3d56" fill-rule="evenodd" data-name="Path 76"/><path d="M709.89 1715.966s-.808-2.424-1.544-2.63a17.007 17.007 0 0 1-2.13-.955l.473-.905s2.758.751 3.2 1.566c.444.816 0 2.924 0 2.924Z" fill-rule="evenodd" data-name="Path 77"/><path d="M695.12 1710.604c-.146.751-6.688 1.394-6.688 1.394l3.307-3.314.082.03a13.1 13.1 0 0 1 3.3 1.89Z" fill-rule="evenodd" data-name="Path 78"/><path d="M675.613 1700.42a.586.586 0 1 1 0 .1z" fill="#575988" fill-rule="evenodd" data-name="Ellipse 9"/><path d="M676.364 1701.596a.586.586 0 1 1 0 .1z" fill="#575988" fill-rule="evenodd" data-name="Ellipse 10"/><path d="M677.1 1702.682a.586.586 0 1 1 0 .1z" fill="#575988" fill-rule="evenodd" data-name="Ellipse 11"/><path d="M677.87 1703.854a.586.586 0 1 1 0 .1z" fill="#575988" fill-rule="evenodd" data-name="Ellipse 12"/><path d="M747.24 1703.79a.477.477 0 1 1 0 .1z" fill="#575988" fill-rule="evenodd" data-name="Ellipse 13"/><path d="M747.316 1704.876a.477.477 0 1 1 0 .1z" fill="#575988" fill-rule="evenodd" data-name="Ellipse 14"/><path d="M747.38 1705.958a.477.477 0 1 1 0 .1z" fill="#575988" fill-rule="evenodd" data-name="Ellipse 15"/><path d="M709.916 1735.879c-.071-.086 16.495 20.83 29.352 8.743.01.004-20.304 2.758-29.352-8.743Z" fill-rule="evenodd" data-name="Path 79"/><path d="M700.41 1746.752s9.912.27 10.949 3.123v2.968a1.901 1.901 0 0 1-1.845 0c-1-.541-6.992-3.585-9.104-2.12v-3.97Z" fill-rule="evenodd" data-name="Path 80"/><path d="M700.595 1746.752s9.479.26 10.471 2.98v2.825a1.819 1.819 0 0 1-1.766 0c-.954-.51-6.684-3.415-8.705-2.017v-3.788Z" fill="#3f3d56" fill-rule="evenodd" data-name="Path 81"/><path d="M705.82 1725.23a31.893 31.893 0 0 0 3.844 6.595 25.87 25.87 0 0 0 6.012 5.812s-9.69-11.046-9.855-12.406Z" fill-rule="evenodd" data-name="Path 82"/><path d="M702.578 1713.715s1.654 7.139 5.914 9.562l-5.914-9.562Z" fill-rule="evenodd" data-name="Path 83"/><path d="M700.042 1714.436c-.041-.131-1.469 5.636 5.493 8.841 0 0-2.957-1.003-5.493-8.84Z" fill-rule="evenodd" data-name="Path 84"/><path d="M743.322 1709.65c-.11 0 3.434 2.254 4.4 3.306 0 0-2.307-3.457-4.4-3.306Z" fill-rule="evenodd" data-name="Path 85"/><path d="M720.898 1704.716a1.38 1.38 0 0 0 1.503 1.364c2.664.166 5.44.282 7.89-.751.46-.164.873-.437 1.203-.797.436-.537.522-1.266.699-1.935.345-1.307 1.082-2.468 1.611-3.712a12.436 12.436 0 0 0 .868-6.669 4.507 4.507 0 0 0-.668-1.95c-.707-1.01-1.995-1.42-2.93-2.224-.936-.804-1.538-2.033-2.631-2.63-.984-.549-2.19-.481-3.299-.293-2.18.37-4.27 1.154-6.154 2.31-.635.376-1.33.838-2.06.7-.638-.12-1.104-.658-1.502-1.162a8.14 8.14 0 0 0-.627 3.814c.027.191.02.386-.02.575a1.732 1.732 0 0 1-.409.605c-.657.751-1.067 1.972-.417 2.746.282.335.718.519.992.86.492.613.327 1.504.316 2.285-.027.273.042.547.195.774.29.27.698.368 1.078.26.373-.113.763-.15 1.15-.11.408.133.76.397 1 .752 1.213 1.582 1.694 3.302 2.212 5.188Z" fill="#2d293d" fill-rule="evenodd" data-name="Path 86"/><g data-name="Group 2"><path d="M731.806 1703.867c-.33.36-.743.633-1.203.797-2.464 1.026-5.237.91-7.89.751a1.848 1.848 0 0 1-.823-.184c-.405-.236-.56-.732-.683-1.183-.519-1.879-.996-3.603-2.228-5.17a1.932 1.932 0 0 0-1-.77c-.387-.037-.776 0-1.15.109-.379.11-.788.012-1.078-.256a1.177 1.177 0 0 1-.195-.774c0-.789.176-1.672-.316-2.284-.274-.342-.71-.526-.992-.865a1.714 1.714 0 0 1-.169-1.75c-.47.751-.669 1.694-.124 2.34.282.335.718.519.992.86.492.617.327 1.504.316 2.285-.03.273.039.547.191.774.29.271.701.37 1.082.26.373-.113.764-.15 1.15-.11.408.133.76.397 1 .752 1.228 1.567 1.71 3.287 2.227 5.174.061.464.293.888.65 1.19.258.125.541.187.827.181 2.664.165 5.44.286 7.89-.751.46-.163.873-.437 1.203-.797.165-.212.292-.45.375-.706.004.048-.022.09-.052.127Z" fill-rule="evenodd" data-name="Path 87"/><path d="M714.8 1691.127c.119-.129.21-.28.267-.444.034-.19.034-.385 0-.575a8.147 8.147 0 0 1 .41-3.163l-.05-.057a8.081 8.081 0 0 0-.627 3.81c.012.143.012.286 0 .429Z" fill-rule="evenodd" data-name="Path 88"/></g><path d="M719.34 1710.014s10.922 1.45 11.902-.191" fill-rule="evenodd" data-name="Path 89"/><path d="M740.571 1705.494s6.072 0 7.406 2.285" fill-rule="evenodd" data-name="Path 90"/><path d="M774.54 1908.44a9.63 9.63 0 0 1-6.556 2.45c-.616 0-1.469.117-1.473.733.015.18.077.354.18.504a6.03 6.03 0 0 0 3.382 2.656c1.315.398 2.72.33 4.092.26l4.001-.207c.752-.042 1.503-.08 2.255-.173.751-.094 1.57-.248 2.356-.376a30.8 30.8 0 0 1 5.827-.27c.518.018 1.127 0 1.435-.376.308-.376.15-1.094.034-1.657-.24-1.161 0-2.379-.222-3.543-.375-2.044-2.145-3.61-4.084-4.351-1.803-.684-4.997-1.47-6.703-.327-1.8 1.199-2.9 3.201-4.523 4.678Z" fill="#3f3d56" fill-rule="evenodd" data-name="Path 91"/><path d="M778.516 1839.962c.353 1.68 1.98 2.964 2.025 4.677.041 1.375-.94 2.529-1.646 3.705a24.702 24.702 0 0 0-1.68 3.802 58.086 58.086 0 0 1-4.929 9.807c-.94 1.502-1.991 3.107-1.777 4.854.15.817.438 1.602.853 2.322l2.818 5.598a16.235 16.235 0 0 1 1.439 3.536c.244 1.063.266 2.164.41 3.246.443 3.434 2.054 6.89 1.1 10.22-.082.285-.375.63-.605.432.932 1.74 1.68 3.49 1.609 5.463-.038 1.033-.354 2.111.026 3.073.161.402.443.778.44 1.21 0 .286-.132.552-.162.83-.08.793.65 1.454 1.405 1.706s1.578.233 2.34.462c1.466.44 2.514 1.702 3.758 2.578a8 8 0 0 0 4.328 1.409 1.09 1.09 0 0 0 .639-.128c.223-.195.352-.477.353-.774a4.299 4.299 0 0 0-1.548-3.735 1.69 1.69 0 0 1-.575-.601 1.447 1.447 0 0 1-.052-.672c.226-3.08.171-6.174-.165-9.243a14.016 14.016 0 0 1-.147-2.942c.079-.82.327-1.63.237-2.446-.09-.815-.508-1.56-.752-2.345-.435-1.397-.315-2.9-.376-4.362-.075-2.54-.657-5.034-1.236-7.514-.229-.973-.48-1.992-1.168-2.713-.586-.612-1.533-1.198-1.312-2.014.123-.3.306-.573.538-.8.55-.69.792-1.576.668-2.45.51.13 1.04-.119 1.267-.593 4.576-2.16 8.266-6.482 9.911-11.272.097-.356.247-.695.444-1.007.424-.594 1.16-.85 1.815-1.176 2.05-1.033 3.467-2.968 4.767-4.862.752-1.097 1.503-2.232 1.841-3.524.178-.836.263-1.69.252-2.544l.117-4.415a2.38 2.38 0 0 0-.083-.864 2.167 2.167 0 0 0-.477-.699 8.489 8.489 0 0 0-4.682-2.524c-1.202-.215-2.43-.173-3.648-.275-2.36-.195-4.69-.928-7.048-.751-3.709.274-7.011 2.844-8.759 6.128-.612 1.157-1.258 2.164-2.573 2.187Z" fill="#464353" fill-rule="evenodd" data-name="Path 92"/><path d="M757.926 1811.256a4.938 4.938 0 0 1-.27 2.01c-.29.617-1.015 1.097-1.65.846.192-.432-.316-.924-.79-.872a1.476 1.476 0 0 0-1.04.894 3.326 3.326 0 0 0-.3 2.04c.15.865.65 1.695.518 2.563-.105.721-.635 1.439-.353 2.108.183.305.412.58.68.815a2.3 2.3 0 0 1-.244 3.156l7.108.143c-.259 1.187.275 2.4.883 3.457a21.792 21.792 0 0 0 16.247 10.606 1.413 1.413 0 0 0-.342 2.16c.578.576 1.56.504 2.284.132.725-.372 1.293-.988 1.954-1.465a6.012 6.012 0 0 1 4.016-1.082c.89.086 1.755.375 2.65.42 2.63.14 4.884-1.754 7.416-2.528 1.845-.567 3.938-.567 5.486-1.721.668-.496 1.217-1.311 1.021-2.115a3.533 3.533 0 0 0-.751-1.244c-.89-1.153-1.416-2.54-2.055-3.85a23.036 23.036 0 0 0-5.136-6.884 45.925 45.925 0 0 0-5.095-3.863 8.682 8.682 0 0 0-1.375-.83c-.624-.274-1.315-.406-1.879-.751-.834-.526-1.315-1.455-1.957-2.202-1.41-1.646-3.573-2.401-5.31-3.694-1.164-.867-2.194-2.01-3.584-2.427-.676-.206-1.394-.221-2.07-.424-1.537-.466-2.656-1.83-4.163-2.382-1.191-.436-2.506-.324-3.757-.478a8.794 8.794 0 0 1-3.926-1.495 4.66 4.66 0 0 0-1.252-.729c-1.904-.578-2.059 2.969-2.254 4.197-.252 1.826-.71 3.64-.71 5.49Z" fill="#4285f4" fill-rule="evenodd" data-name="Path 93"/><path d="M759.782 1823.152c.32 3.464-2.296 6.82-1.533 10.212.162.721.474 1.409.586 2.141.32 2.01-.883 3.915-2.029 5.599l-9.844 14.446a9.08 9.08 0 0 1-1.405 1.736c-1.878 1.672-4.704 1.503-7.176 1.999a12.399 12.399 0 0 0-4.81 2.127.312.312 0 0 0-.06.432 4.133 4.133 0 0 0 3.574 1.68c.259.337 0 .84-.357 1.085-.526.376-1.255.462-1.36 1.36-.036.312.027.627.18.902a2.807 2.807 0 0 0 1.72 1.195c3.409 1.044 7.09-.79 9.642-3.28 2.55-2.491 4.38-5.636 6.883-8.169 1.386-1.405 2.96-2.603 4.388-3.964 2.848-2.716 5.065-6.011 7.2-9.314.642-.995 1.292-2.017 1.558-3.17.267-1.154.143-2.323.448-3.439.398-1.461 1.469-2.63 2.36-3.854 1.746-2.405 2.915-5.347 2.682-8.312-.233-2.964-2.067-5.887-4.862-6.894a4.371 4.371 0 0 0-2.724-.165c-1.146.353-1.991 1.3-2.773 2.209l-1.878 2.157a5.032 5.032 0 0 0-1.056 1.656c-.248.635-.1 1.355.376 1.842" fill="#fbbebe" fill-rule="evenodd" data-name="Path 94"/><path d="M764.772 1808.942c-1.293.075-2.717.203-3.63 1.127-.383.424-.693.91-.917 1.435-.886 1.808-1.75 3.697-1.814 5.711-.053 1.608.413 3.183.657 4.772.203 1.323-.312 2.671-.41 4.009 1.605-.492 3.724-1.161 5.178-1.991.992-.568 1.95-1.214 3.032-1.575 1.544-.515 4.133.376 5.602 1.09.079-1.03-.695-2.826-.612-3.859.01-.435.088-.866.229-1.277.22-.436.48-.85.778-1.236a5.057 5.057 0 0 0-.455-5.926c-1.304-1.465-3.344-2.013-5.29-2.254a22.873 22.873 0 0 0-3.694-.128" fill="#4285f4" fill-rule="evenodd" data-name="Path 95"/></g></g><defs><linearGradient x1=".5" y1="1" x2=".5" y2="0" id="a"><stop stop-color="rgba(128,128,128,0.25098039215686274 )" offset="0"/><stop stop-color="rgba(128,128,128,0.12156862745098039 )" offset=".54"/><stop stop-color="rgba(128,128,128,0.10196078431372549 )" offset="1"/></linearGradient></defs></svg>