<svg xmlns="http://www.w3.org/2000/svg" width="370" height="344.514" viewBox="22 144 370 344.514"><g data-name="Path 8025"><path d="M42 144h330c11.046 0 20 8.545 20 19.087v306.34c0 10.542-8.954 19.087-20 19.087H42c-11.046 0-20-8.545-20-19.086V163.087C22 152.545 30.954 144 42 144Z" fill="#fff" fill-rule="evenodd"/><path d="M20 0h330c11.046 0 20 8.545 20 19.087v306.34c0 10.542-8.954 19.087-20 19.087H20c-11.046 0-20-8.545-20-19.086V19.087C0 8.545 8.954 0 20 0Z" stroke-linejoin="round" stroke-linecap="round" stroke="#707070" fill="transparent" transform="matrix(.9973 0 0 .9971 22.5 144.5)"/></g></svg>