<svg xmlns="http://www.w3.org/2000/svg" width="32" height="32" viewBox="269 830 32 32"><g data-name="Group 9357"><path d="M269 830h32v32h-32v-32z" fill="#fff" fill-rule="evenodd" data-name="Rectangle 1688"/><g data-name="Group 2524"><g data-name="Group 2529"><g data-name="user"><g data-name="Group 237"><g data-name="Group 2505"><path d="M288.286 837.603a2.703 2.703 0 1 1 0 .1z" stroke-linejoin="round" stroke-linecap="round" stroke-width="1.5" stroke="#64819f" fill="transparent" data-name="Ellipse 34"/><path d="M288.53 842.962h4.971a3.498 3.498 0 0 1 3.499 3.499h0a3.498 3.498 0 0 1-3.499 3.498h-4.972a3.498 3.498 0 0 1-3.498-3.498h0a3.498 3.498 0 0 1 3.498-3.499z" stroke-linejoin="round" stroke-linecap="round" stroke-width="1.5" stroke="#64819f" fill="transparent" data-name="Rectangle 113"/></g></g></g><g data-name="user"><g data-name="Group 237"><g data-name="Group 2505"><path d="M276.255 837.603a2.703 2.703 0 1 1 0 .1z" stroke-linejoin="round" stroke-linecap="round" stroke-width="1.5" stroke="#64819f" fill="transparent" data-name="Ellipse 34"/><path d="M276.498 842.962h4.972a3.498 3.498 0 0 1 3.499 3.499h0a3.498 3.498 0 0 1-3.499 3.498h-4.972a3.498 3.498 0 0 1-3.498-3.498h0a3.498 3.498 0 0 1 3.498-3.499z" stroke-linejoin="round" stroke-linecap="round" stroke-width="1.5" stroke="#64819f" fill="transparent" data-name="Rectangle 113"/></g></g></g><g data-name="Group 2521"><g data-name="Ellipse 33"><path d="M281.857 840.47a3.434 3.434 0 1 1 0 .1z" fill="#64819f" fill-rule="evenodd"/><path d="M281.857 840.47a3.434 3.434 0 1 1 0 .1z" stroke-linejoin="round" stroke-linecap="round" stroke-width="2" stroke="#64819f" fill="transparent"/></g><g data-name="Rectangle 110"><path d="M283.127 846.687h4.326a3.631 3.631 0 0 1 3.631 3.63 3.631 3.631 0 0 1-3.631 3.632h-4.326a3.631 3.631 0 0 1-3.631-3.631 3.631 3.631 0 0 1 3.631-3.631z" fill="#64819f" fill-rule="evenodd"/><path d="M283.127 846.687h4.326a3.631 3.631 0 0 1 3.631 3.63h0a3.631 3.631 0 0 1-3.631 3.632h-4.326a3.631 3.631 0 0 1-3.631-3.631h0a3.631 3.631 0 0 1 3.631-3.631z" stroke-linejoin="round" stroke-linecap="round" stroke-width="2" stroke="#64819f" fill="transparent"/></g></g></g></g></g></svg>