<svg xmlns="http://www.w3.org/2000/svg" width="361.413" height="385.958" viewBox="27.136 2844.072 361.413 385.958"><g data-name="print"><g data-name="g12"><g data-name="g14" transform="translate(0 2826.49)" clip-path="url(&quot;#a&quot;)"><g data-name="g20"><path d="M335.621 220.56c70.57 41.859 70.57 109.725 0 151.585-70.571 41.859-184.987 41.859-255.558 0-70.57-41.86-70.57-109.726 0-151.586 70.571-41.858 184.989-41.86 255.558 0" fill="#f0f0f0" fill-rule="evenodd" data-name="path22"/></g></g></g><g data-name="g24"><g data-name="g26" transform="translate(0 2826.49)" clip-path="url(&quot;#b&quot;)"><g data-name="g32"><path d="M233.553 304.268c-22.978-13.266-22.978-34.776 0-48.042 22.978-13.266 60.232-13.266 83.21.001 22.977 13.266 22.977 34.775 0 48.04-22.978 13.267-60.232 13.267-83.21 0" fill="#e0e0e0" fill-rule="evenodd" data-name="path34"/></g><g data-name="g36"><path d="M165.503 293.975c21.12 12.194 21.12 31.965 0 44.16-21.122 12.194-55.366 12.194-76.487 0-21.121-12.194-21.121-31.966 0-44.16 21.122-12.194 55.366-12.194 76.487 0" fill="#e0e0e0" fill-rule="evenodd" data-name="path38"/></g><g data-name="g40"><path d="m136.36 341.109 92.758 53.554c.496.287 1.303.287 1.8 0l48.855-28.207c.497-.287.497-.753 0-1.04l-92.757-53.554c-.497-.287-1.303-.287-1.8 0L136.36 340.07c-.498.287-.498.752 0 1.039" fill="#e0e0e0" fill-rule="evenodd" data-name="path42"/></g></g></g><g data-name="g44"><g data-name="g46" transform="translate(0 2826.49)" clip-path="url(&quot;#c&quot;)"><g data-name="g52"><path d="m353.551 259.518-7.92-4.572s-1.94-16.962-.649-30.097c1.814-18.459 13.734-40.67 27.955-35.453 14.222 5.216-6.52 24.015-11.136 39.67-4.618 15.656-8.25 30.452-8.25 30.452" fill="#8dd070" fill-rule="evenodd" data-name="path54"/></g><g data-name="g56"><g data-name="g70"><g data-name="g68" transform="translate(344.54 188.623)" clip-path="url(&quot;#d&quot;)"><g data-name="g66"><path d="m9.012 70.896-7.92-4.573s-1.94-16.962-.65-30.097C2.258 17.768 14.178-4.444 28.399.773c14.222 5.217-6.52 24.015-11.137 39.67-4.617 15.657-8.25 30.453-8.25 30.453" fill-rule="evenodd" data-name="path64"/></g></g></g></g><g data-name="g72"><path d="M349.386 257.593h.017a.48.48 0 0 0 .463-.496c-1.392-41.014 19.026-61.645 19.231-61.848a.478.478 0 1 0-.673-.683c-.21.207-20.923 21.135-19.518 62.564a.48.48 0 0 0 .48.463" fill="#fff" fill-rule="evenodd" data-name="path74"/></g><g data-name="g76"><path d="m358.531 262.37-5.636-3.254s-.96-11.64 4.748-25.779c4.968-12.309 17.294-22.52 23.493-20.375 6.2 2.146 6.047 6.542 3.024 11.154-3.023 4.611-21.412 15.603-25.629 38.254" fill="#8dd070" fill-rule="evenodd" data-name="path78"/></g><g data-name="g80"><path d="M355.558 261.133h.003a.481.481 0 0 0 .477-.482c-.113-25.931 24.237-43.459 24.484-43.633a.48.48 0 1 0-.555-.782c-.249.176-25.003 17.994-24.888 44.42a.48.48 0 0 0 .479.477" fill="#fff" fill-rule="evenodd" data-name="path82"/></g><g data-name="g84"><path d="m66.204 252.19 6.678-3.86s3.975-16.514 2.39-31.374c-2.226-20.892-15.979-28.754-21.208-26.952-5.23 1.802-6.744 7.881 1.909 20.324 5.105 7.342 11.376 22.634 10.231 41.861" fill="#8dd070" fill-rule="evenodd" data-name="path86"/></g><g data-name="g88"><g data-name="g102"><g data-name="g100" transform="translate(49.812 189.755)" clip-path="url(&quot;#e&quot;)"><g data-name="g98"><path d="m16.393 62.434 6.677-3.859s3.975-16.514 2.391-31.374C23.234 6.309 9.481-1.553 4.252.249-.978 2.05-2.492 8.13 6.161 20.573c5.105 7.342 11.376 22.634 10.232 41.861" fill-rule="evenodd" data-name="path96"/></g></g></g></g><g data-name="g104"><path d="M68.971 244.076c-.021 0-.042-.004-.064-.007a.463.463 0 0 1-.368-.542c3.66-19.27-3.071-40.924-11.407-49.935a.463.463 0 1 1 .68-.628c8.488 9.175 15.35 31.182 11.636 50.736a.463.463 0 0 1-.477.376" fill="#fff" fill-rule="evenodd" data-name="path106"/></g><g data-name="g108"><path d="M48.71 262.292c-1.054.537-3.86-1.865-4.642-2.448-1.338-1-2.395-2.373-3.065-3.9-.78-1.776-.905-3.645-.537-5.548.19-.987.518-1.942.844-2.893l.96-2.801c.316-.922.637-1.875.561-2.846-.15-1.957-1.807-3.405-3.317-4.66-1.669-1.386-3.389-3.191-3.26-5.53.098-1.806 1.118-3.436 2.308-4.797 1.19-1.36 2.581-2.546 3.669-3.99.782-1.041 1.414-2.278 1.36-3.578-.032-.808-.328-1.583-.677-2.312-.75-1.565-1.769-3.016-2.257-4.682-.486-1.665-.303-3.698 1.034-4.805 1.097-.908 2.662-.964 4.077-.799 1.31.153 2.562.811 3.68 1.508 3.61 2.254 5.509 6.76 9.371 8.549 1.49.69 3.15.908 4.713 1.407 1.564.499 3.14 1.39 3.8 2.893 1.302 2.964-1.563 6.391-.701 9.51.763 2.761 3.35 3.934 4.708 6.456.594 1.103.68 2.348.513 3.59-.283 2.101-.67 3.635-1.802 5.93-.934 1.898-3.567 5.485-3.567 5.485S48.872 262.21 48.71 262.292" fill="#8dd070" fill-rule="evenodd" data-name="path110"/></g><g data-name="g112"><path d="M58.933 256.964h-.013a.465.465 0 0 1-.426-.504c1.69-18.33-5.94-39.043-11.936-45.252a.463.463 0 1 1 .666-.644c6.116 6.333 13.908 27.394 12.193 45.98a.464.464 0 0 1-.484.42" fill="#fff" fill-rule="evenodd" data-name="path114"/></g><g data-name="g116"><path d="M57.112 234.365a.432.432 0 0 1-.136-.028c-5.808-2.121-13.148-2.814-13.22-2.82a.466.466 0 0 1-.42-.504.45.45 0 0 1 .505-.42c.074.007 7.53.71 13.453 2.874a.463.463 0 0 1-.182.898" fill="#fff" fill-rule="evenodd" data-name="path118"/></g></g></g><g data-name="g120"><g data-name="g122" transform="translate(0 2826.49)" clip-path="url(&quot;#f&quot;)"><g data-name="g128"><path d="m223.68 17.808-60.31 34.83c-.513.295-.93 1.017-.93 1.61v25.079c0 .592.42 1.31.936 1.602l3.333 1.868c.517.292 1.352.288 1.866-.009l60.31-34.828c.513-.297.93-1.018.93-1.612V21.27c0-.594-.42-1.311-.936-1.602l-3.334-1.87c-.516-.291-1.352-.287-1.865.01" fill="#8dd070" fill-rule="evenodd" data-name="path130"/></g><g data-name="g132"><path d="M167.645 82.251V57.173c0-.594.416-1.315.93-1.612l60.31-34.829c.513-.296.93-.055.93.537v25.079c0 .593-.417 1.315-.93 1.612l-60.31 34.828c-.514.297-.93.056-.93-.537" fill="#8dd070" fill-rule="evenodd" data-name="path134"/></g><g data-name="g136"><g data-name="g150"><g data-name="g148" transform="translate(162.44 53.298)" clip-path="url(&quot;#g&quot;)"><g data-name="g146"><path d="M6.136 29.49c-.496.288-1.4.298-1.869.01L.937 27.63C.421 27.34 0 26.623 0 26.029V.95C0 .64.116.301.297 0L5.48 2.96a1.848 1.848 0 0 0-.276.915V28.95c.001.543.384.857.932.539" fill-rule="evenodd" data-name="path144"/></g></g></g></g><g data-name="g152"><g data-name="g166"><g data-name="g164" transform="translate(162.732 17.582)" clip-path="url(&quot;#h&quot;)"><g data-name="g162"><path d="M67.07 3.52c-.073-.469-.456-.637-.92-.37L5.845 37.98c-.258.15-.49.403-.658.696l-5.188-2.96c.168-.279.392-.52.641-.661L60.95.225c.512-.297 1.345-.3 1.865-.009l3.331 1.867c.468.267.86.882.924 1.436" fill="#fff" fill-rule="evenodd" data-name="path160"/></g></g></g></g><g data-name="g168"><path d="M159.89 73.801c-.584-.348-4.958-2.812-5.1-2.892-.43-.263-.585-.899-.185-1.329l7.916-8.214 5.123 2.913-7.911 8.218c-.388.412-.234 1.02.158 1.304" fill="#8dd070" fill-rule="evenodd" data-name="path170"/></g><g data-name="g172"><g data-name="g186"><g data-name="g184" transform="translate(154.374 61.367)" clip-path="url(&quot;#i&quot;)"><g data-name="g182"><path d="M5.517 12.434C4.933 12.086.558 9.623.416 9.542c-.43-.263-.585-.899-.185-1.328L8.148 0l5.123 2.912-7.912 8.218c-.387.412-.233 1.02.158 1.304" fill="#fff" fill-rule="evenodd" data-name="path180"/></g></g></g></g><g data-name="g188"><path d="m167.645 64.28-7.914 8.215c-.536.575-.142 1.364.532 1.427l7.382-.031v-9.61Z" fill="#8dd070" fill-rule="evenodd" data-name="path190"/></g><g data-name="g192"><path d="M177.87 56.593c.09-.052.167-.048.232.016.066.064.098.164.098.302v1.338c0 .138-.03.285-.091.44-.062.154-.12.292-.178.414l-1.787 3.936c.366-.136.699-.191.997-.162.298.03.553.142.766.341.212.198.375.484.49.858.114.374.172.831.172 1.37 0 .655-.084 1.284-.252 1.89a7.339 7.339 0 0 1-.699 1.695 7.135 7.135 0 0 1-1.052 1.42 5.9 5.9 0 0 1-1.317 1.042c-.572.33-1.067.513-1.487.548-.421.036-.772-.029-1.054-.193a1.566 1.566 0 0 1-.642-.742 3.086 3.086 0 0 1-.258-1.077.792.792 0 0 1 .091-.421.658.658 0 0 1 .24-.279l.967-.558c.081-.047.149-.045.203.005a.958.958 0 0 1 .164.254c.05.122.115.226.196.311.082.086.19.142.325.171.134.029.303.017.508-.04.204-.053.453-.167.747-.335.498-.289.9-.675 1.206-1.16.307-.484.46-1.01.46-1.575 0-.566-.153-.884-.46-.952-.306-.068-.708.042-1.206.33l-1.016.586c-.09.052-.167.048-.233-.016-.065-.063-.098-.162-.098-.302V64.71c0-.138.031-.284.092-.44a7.17 7.17 0 0 1 .178-.414l1.714-3.76-3.38 1.95c-.09.052-.167.046-.232-.017-.066-.062-.1-.162-.1-.3v-1.34c0-.138.034-.276.1-.414a.614.614 0 0 1 .232-.285l5.364-3.097Z" fill="#fafafa" fill-rule="evenodd" data-name="path194"/></g><g data-name="g196"><path d="M180.943 55.327c0-.138.034-.277.098-.415a.63.63 0 0 1 .233-.286l4.605-2.658c.09-.052.168-.046.233.016.066.064.098.165.098.303v1.338a.962.962 0 0 1-.098.415.622.622 0 0 1-.233.285l-3.442 1.987-.134 2.492c.22-.266.439-.474.656-.624a7.37 7.37 0 0 1 .532-.345c.457-.265.882-.415 1.274-.453.39-.037.73.047 1.016.251.286.206.51.533.674.98.163.446.245 1.021.245 1.724a9.11 9.11 0 0 1-.251 2.21 7.75 7.75 0 0 1-.686 1.81 6.083 6.083 0 0 1-1.023 1.402c-.391.396-.808.72-1.25.976-.562.324-1.046.503-1.45.535-.404.033-.74-.047-1.005-.24-.265-.192-.465-.472-.599-.842a4.085 4.085 0 0 1-.228-1.274.807.807 0 0 1 .093-.42.657.657 0 0 1 .24-.28l.99-.572c.082-.047.156-.05.221-.005.065.045.11.128.135.252.048.262.125.453.233.572a.638.638 0 0 0 .366.223c.14.027.295.01.466-.052.172-.062.35-.146.539-.255.465-.268.84-.68 1.127-1.235a3.983 3.983 0 0 0 .428-1.85c0-.565-.143-.954-.428-1.167-.287-.211-.662-.189-1.127.066a2.983 2.983 0 0 0-.582.421 2.939 2.939 0 0 0-.349.4c-.09.127-.17.24-.245.34a.942.942 0 0 1-.28.247l-1.128.65c-.09.052-.167.047-.233-.017-.065-.062-.097-.163-.097-.301l.366-6.604Z" fill="#fafafa" fill-rule="evenodd" data-name="path198"/></g><g data-name="g200"><path d="M189.982 59.933c.09-.052.167-.047.232.017.066.063.098.163.098.301V62.1a.96.96 0 0 1-.098.414.617.617 0 0 1-.232.286l-1.139.657c-.09.053-.167.046-.233-.016-.065-.063-.098-.164-.098-.302V61.29c0-.138.033-.276.098-.415a.618.618 0 0 1 .233-.285l1.14-.658Z" fill="#fafafa" fill-rule="evenodd" data-name="path202"/></g><g data-name="g204"><path d="M193.79 57.733c.09-.051.168-.046.233.018.065.062.098.163.098.3V59.9a.97.97 0 0 1-.098.415.619.619 0 0 1-.232.285l-1.14.658c-.09.052-.167.046-.232-.017-.066-.062-.098-.164-.098-.302v-1.847c0-.138.032-.276.098-.415a.622.622 0 0 1 .233-.285l1.139-.658Z" fill="#fafafa" fill-rule="evenodd" data-name="path206"/></g><g data-name="g208"><path d="M197.6 55.534c.089-.051.166-.046.232.018.065.062.097.162.097.3V57.7a.97.97 0 0 1-.097.415.619.619 0 0 1-.233.285l-1.139.657c-.09.053-.167.048-.232-.015-.066-.064-.099-.165-.099-.303v-1.847c0-.138.033-.276.1-.414a.619.619 0 0 1 .231-.286l1.14-.658Z" fill="#fafafa" fill-rule="evenodd" data-name="path210"/></g><g data-name="g212"><path d="M205.767 40.486c.09-.052.168-.047.233.017.065.063.098.163.098.301v1.339c0 .138-.03.284-.092.439-.061.155-.12.293-.178.414l-1.787 3.936c.366-.136.7-.19.998-.161.297.03.552.142.765.34.212.198.375.485.49.858.114.375.172.831.172 1.372 0 .653-.084 1.283-.251 1.889a7.39 7.39 0 0 1-.699 1.695 7.14 7.14 0 0 1-1.053 1.419 5.948 5.948 0 0 1-1.317 1.043c-.572.329-1.067.512-1.487.547-.42.036-.772-.028-1.053-.192a1.565 1.565 0 0 1-.643-.742 3.086 3.086 0 0 1-.258-1.078.81.81 0 0 1 .092-.421.664.664 0 0 1 .238-.279l.969-.558c.08-.047.148-.044.202.006a.964.964 0 0 1 .165.253.95.95 0 0 0 .195.312c.082.085.19.141.326.17.134.03.303.017.508-.039.203-.054.452-.167.746-.336a3.435 3.435 0 0 0 1.207-1.16 2.89 2.89 0 0 0 .46-1.574c0-.567-.154-.884-.46-.952-.306-.068-.709.04-1.207.33l-1.016.586c-.09.052-.167.047-.233-.017-.064-.063-.098-.162-.098-.301v-1.339c0-.138.031-.284.093-.44.06-.154.12-.292.178-.413l1.713-3.762-3.38 1.952c-.09.051-.167.046-.232-.017-.066-.063-.1-.163-.1-.3v-1.34c0-.138.034-.276.1-.415a.61.61 0 0 1 .233-.284l5.363-3.098Z" fill="#fafafa" fill-rule="evenodd" data-name="path214"/></g><g data-name="g216"><path d="M213.165 44.945c0-.64-.145-1.095-.434-1.362-.291-.265-.7-.245-1.231.061-.532.306-.941.76-1.23 1.36a4.242 4.242 0 0 0-.436 1.864c0 .641.145 1.101.435 1.38.29.279.7.265 1.23-.041.532-.306.941-.767 1.232-1.38.29-.614.434-1.241.434-1.882m-4.997 2.885c.009-.734.094-1.4.256-1.997.164-.596.353-1.188.565-1.775l2.327-6.399c.032-.094.075-.2.129-.318a.582.582 0 0 1 .25-.277l1.102-.637c.09-.052.168-.046.233.016.066.064.098.165.098.303a.64.64 0 0 1-.06.28l-1.52 4.232c.483-.265.925-.401 1.33-.409a1.56 1.56 0 0 1 1.04.342c.29.236.515.59.674 1.064.16.472.239 1.05.239 1.729a8.676 8.676 0 0 1-.931 3.902 7.414 7.414 0 0 1-1.053 1.56 5.381 5.381 0 0 1-1.347 1.118c-.49.283-.939.428-1.348.438a1.553 1.553 0 0 1-1.053-.344c-.294-.239-.522-.596-.685-1.075-.165-.477-.246-1.061-.246-1.753" fill="#fafafa" fill-rule="evenodd" data-name="path218"/></g><g data-name="g220"><path d="M218.003 43.755c.089-.051.167-.047.232.017.066.063.098.164.098.302v1.847a.96.96 0 0 1-.098.415.622.622 0 0 1-.232.285l-1.139.658c-.09.052-.167.045-.233-.017-.065-.062-.098-.164-.098-.302v-1.847c0-.138.033-.276.098-.415a.618.618 0 0 1 .233-.285l1.139-.658Z" fill="#fafafa" fill-rule="evenodd" data-name="path222"/></g><g data-name="g224"><path d="M221.812 41.556c.09-.052.167-.047.232.017.065.063.098.163.098.301v1.848a.97.97 0 0 1-.098.415.619.619 0 0 1-.232.285l-1.14.657c-.09.053-.167.047-.232-.016-.066-.063-.098-.164-.098-.302v-1.847c0-.138.032-.276.098-.415a.622.622 0 0 1 .233-.285l1.139-.658Z" fill="#fafafa" fill-rule="evenodd" data-name="path226"/></g><g data-name="g228"><path d="M225.62 39.357c.09-.052.167-.046.233.017.065.062.097.163.097.301v1.847a.97.97 0 0 1-.097.415.619.619 0 0 1-.233.285l-1.139.658c-.09.052-.167.047-.232-.016-.066-.063-.099-.165-.099-.303v-1.847c0-.138.033-.276.1-.414a.619.619 0 0 1 .231-.286l1.14-.657Z" fill="#fafafa" fill-rule="evenodd" data-name="path230"/></g></g></g><g data-name="g232"><g data-name="g234" transform="translate(0 2826.49)" clip-path="url(&quot;#j&quot;)"><g data-name="g240"><path d="M275.502 310.246c.682 0 1.234-.552 1.234-1.234v-79.309a1.233 1.233 0 1 0-2.467 0v79.31c0 .681.552 1.233 1.233 1.233" fill="#455a64" fill-rule="evenodd" data-name="path242"/></g><g data-name="g244"><path d="M226.433 281.378c.491 0 .954-.295 1.146-.78l24.32-61.556a1.232 1.232 0 0 0-.694-1.6 1.23 1.23 0 0 0-1.6.694l-24.32 61.555a1.232 1.232 0 0 0 1.148 1.687" fill="#455a64" fill-rule="evenodd" data-name="path246"/></g><g data-name="g248"><path d="M229.354 273.985c.328 0 .654-.13.896-.387l45.254-47.887 45.17 47.684a1.23 1.23 0 0 0 1.744.048c.495-.47.517-1.25.047-1.744l-46.067-48.631a1.231 1.231 0 0 0-1.792.002l-46.148 48.834a1.233 1.233 0 0 0 .896 2.08" fill="#455a64" fill-rule="evenodd" data-name="path250"/></g><g data-name="g252"><path d="M324.57 281.378a1.233 1.233 0 0 0 1.147-1.687L301.4 218.136a1.232 1.232 0 1 0-2.294.906l24.32 61.556c.193.485.656.78 1.147.78" fill="#455a64" fill-rule="evenodd" data-name="path254"/></g><g data-name="g256"><path d="m228.11 272.083-3.216 8.486a.8.8 0 0 0-.029.216.8.8 0 0 0 0 .155c.029.173.248.394.484.534.54.314 1.418.314 1.957 0 .197-.115.324-.255.381-.4 0-.004 0-.009.005-.014l.023-.115 2.982-7.956-2.588-.906Z" fill="#8dd070" fill-rule="evenodd" data-name="path258"/></g><g data-name="g260"><path d="m322.894 272.083 3.216 8.486a.8.8 0 0 1 .028.216.8.8 0 0 1 0 .155c-.028.173-.247.394-.484.534-.54.314-1.417.314-1.957 0-.197-.115-.322-.255-.38-.4 0-.004 0-.009-.005-.014l-.024-.115-2.98-7.956 2.586-.906Z" fill="#8dd070" fill-rule="evenodd" data-name="path262"/></g><g data-name="g264"><path d="M274.08 302.872v7.018c0 .21.139.42.416.581.556.321 1.456.321 2.011 0 .278-.16.417-.37.417-.58v-7.02c-.948-.475-1.896-.475-2.844 0" fill="#8dd070" fill-rule="evenodd" data-name="path266"/></g><g data-name="g268"><path d="M220.348 218.207c.005-2.208 1.938-4.561 6.03-7.216 7.56-4.906 29.57-17.192 40.15-23.055.02-.079.088-.086.088-.086 8.14-4.941 10.616-26.029 16.252-43.909 1.92-6.093 4.272-9.542 7.06-11.162.662-.385 3.101-1.728 3.647-2.055 5.527-3.313 12.784.667 21.823 5.614 8.326 4.557 14.83 10.39 16.14 25.87.796 9.425.038 27.437-1.877 41.086l.006-.012c-2.772 22.805-6.175 22.844-11.112 26.66-8.502 6.566-27.646 15.8-35.712 18.972-14.637 5.756-26.594-3.12-35.508-7.522-8.913-4.402-19.87-11.269-23.621-13.993-2.231-1.62-3.385-3.257-3.361-4.984.009-.686-.007-3.493-.005-4.208" fill="#8dd070" fill-rule="evenodd" data-name="path270"/></g><g data-name="g272"><g data-name="g286"><g data-name="g284" transform="translate(220.348 129.507)" clip-path="url(&quot;#k&quot;)"><g data-name="g282"><path d="M0 88.7c.005-2.208 1.938-4.562 6.03-7.216 7.561-4.906 29.57-17.192 40.15-23.055.02-.08.088-.087.088-.087 8.14-4.94 10.617-26.028 16.252-43.908 1.92-6.093 4.272-9.543 7.06-11.162.662-.385 3.102-1.729 3.647-2.055 5.528-3.313 12.784.666 21.823 5.614 8.327 4.557 14.831 10.39 16.14 25.87.796 9.425.038 27.436-1.877 41.086l.006-.012c-2.772 22.805-6.174 22.844-11.112 26.659-8.501 6.567-27.646 15.8-35.712 18.972-14.636 5.757-26.594-3.119-35.508-7.52-8.913-4.403-19.869-11.27-23.62-13.995-2.232-1.62-3.385-3.257-3.362-4.984.01-.685-.007-3.492-.005-4.207" fill-rule="evenodd" data-name="path280"/></g></g></g></g><g data-name="g288"><path d="M247.335 237.15c-8.913-4.402-19.87-11.27-23.621-13.994-5.071-3.682-4.604-7.45 2.664-12.165 10.097-6.55 45.96-26.265 45.96-26.265s52.039 30.71 49.8 36.382c-2.238 5.67-29.149 19.572-39.296 23.563-14.635 5.757-26.593-3.12-35.507-7.521" fill="#8dd070" fill-rule="evenodd" data-name="path290"/></g><g data-name="g292"><path d="M290.253 132.593c5.477-2.875 12.596 1.033 21.401 5.858 5.64 3.092 10.447 6.755 13.367 13.612l3.718-2.15c-2.92-6.828-7.717-10.492-13.34-13.575-9.041-4.951-16.296-8.924-21.828-5.614-.48.282-2.402 1.352-3.318 1.869" fill="#8dd070" fill-rule="evenodd" data-name="path294"/></g><g data-name="g296"><g data-name="g310"><g data-name="g308" transform="translate(290.253 129.508)" clip-path="url(&quot;#l&quot;)"><g data-name="g306"><path d="M0 3.085C5.478.21 12.596 4.118 21.402 8.942c5.64 3.093 10.447 6.756 13.367 13.612l3.718-2.149C35.566 13.577 30.77 9.913 25.147 6.83 16.104 1.878 8.85-2.094 3.318 1.216 2.839 1.498.916 2.568 0 3.085" fill="#fff" fill-rule="evenodd" data-name="path304"/></g></g></g></g><g data-name="g312"><path d="M311.657 138.454c-13.528-7.404-23.069-12.665-28.79 5.488-5.634 17.88-8.11 38.967-16.251 43.908 0 0 5.312 1.747 24.24 11.041 7.773 3.817 12.879 7.663 20.158 12.242 10.706 6.737 9.892 11.742 9.892 11.742 5.32-4.41 8.199-43.072 6.89-58.55-1.308-15.48-7.812-21.314-16.139-25.871" fill="#8dd070" fill-rule="evenodd" data-name="path314"/></g><g data-name="g316"><g data-name="g330"><g data-name="g328" transform="translate(266.616 131.613)" clip-path="url(&quot;#m&quot;)"><g data-name="g326"><path d="M45.041 6.84C31.513-.563 21.972-5.823 16.251 12.329c-5.634 17.88-8.11 38.968-16.25 43.91 0 0 5.31 1.746 24.238 11.04 7.774 3.817 12.88 7.663 20.159 12.242 10.706 6.736 9.892 11.742 9.892 11.742 5.32-4.41 8.2-43.072 6.89-58.55-1.308-15.48-7.812-21.315-16.139-25.871" fill-rule="evenodd" data-name="path324"/></g></g></g></g></g></g><g data-name="g332"><g data-name="g334" transform="translate(0 2826.49)" clip-path="url(&quot;#n&quot;)"><g data-name="g340"><path d="M131.383 88.565c7.407.347 12.188 1.652 16.064 6.219 3.785 4.458 23.377 32.29 23.377 32.29s-3.427 9.608-10.927 8.791l-14.722-17.81-13.792-29.49Z" fill="#b16668" fill-rule="evenodd" data-name="path342"/></g><g data-name="g344"><path d="M131.97 88.408s7.887.127 11.485 2.646c3.598 2.52 4.214 3.05 9.506 10.397 5.294 7.348 10.063 13.942 10.063 13.942s-3.75 6.993-12.814 9.75l-15.593-18.796-2.647-17.939Z" fill="#37474f" fill-rule="evenodd" data-name="path346"/></g><g data-name="g348"><path d="M93.906 309.492h12.29l-.246-18.827-12.044 1.883v16.944Z" fill="#b16668" fill-rule="evenodd" data-name="path350"/></g><g data-name="g352"><path d="m135.516 296.87 11.654.4-.46-20.044-12.884-.758 1.69 20.402Z" fill="#b16668" fill-rule="evenodd" data-name="path354"/></g><g data-name="g356"><path d="M119.114 329.279c.355.333.248 2.615-.144 3.23-.419.658-4.492 2.714-8.85 3.026-4.166.298-7.885-.264-10.33-1.816-2.445-1.552-3.629-3.265-3.859-5.638-.23-2.371.033-4.661-1.097-6.488-1.044-1.685-2.709-3.586-3.071-4.5-.788-1.99-.029-4.833-.029-4.833l27.38 17.019Z" fill="#263238" fill-rule="evenodd" data-name="path358"/></g><g data-name="g360"><path d="M107.714 308.566c.03.922.192 1.762.48 2.641.604 1.84 1.522 3.572 2.551 5.22.53.847 1.091 1.68 1.737 2.449 1.26 1.5 2.825 2.73 4.159 4.168 1.333 1.438 2.466 3.18 2.571 5.112.177 3.267-5.03 4.377-7.76 4.863a20.027 20.027 0 0 1-8.87-.446c-3.166-.9-5.45-3.351-5.975-6.509-.151-.907-.095-1.834-.203-2.746-.244-2.083-1.322-3.985-2.54-5.716-.707-1.004-1.475-1.985-1.95-3.11-.851-2.023-.169-4.298.376-6.311.47-1.74 1.002-3.709 1.615-3.545.008.902-.003.995.645 1.608.818.773.853 1.936 1.718 2.619-.405-1.06-.432-1.51-.607-2.323-.053-.244.013-.738.184-.924.23-.251.62-.407 1.003-.536a20.02 20.02 0 0 1 3.967-.903c1.233-.151 4.311-.302 5.533-.027.377.084.743.263.974.562.243.316.288.594.347 1.116.059.522.018 1.87.045 2.738" fill="#455a64" fill-rule="evenodd" data-name="path362"/></g><g data-name="g364"><path d="M111.186 317.111c-1.216-.91-5.605-.923-7.095-.764-1.866.2-3.378.855-4.236 1.488a.968.968 0 0 1-1.248-.1.909.909 0 0 1 .093-1.387c.91-.67 2.555-1.611 4.767-1.767 3.667-.258 6.405.37 6.405.37s1.674 1.077 1.314 2.16" fill="#f5f5f5" fill-rule="evenodd" data-name="path366"/></g><g data-name="g368"><path d="M113.983 320.458c-1.53-.903-6.19-.774-7.68-.614-1.866.2-3.262.934-4.12 1.567a.966.966 0 0 1-1.247-.099.91.91 0 0 1 .092-1.388c.909-.669 4.32-1.751 6.532-1.907 3.667-.258 4.623.49 4.623.49s1.547.6 1.8 1.951" fill="#f5f5f5" fill-rule="evenodd" data-name="path370"/></g><g data-name="g372"><path d="M102.006 311.071c2.534-.26 5.272.022 6.273.387.647.362 1.072 1.382.656 1.642-.816-.453-3.95-.642-5.75-.561-1.208.053-2.73.542-3.965 1.089-.315.14-.685.335-1.01.514a.87.87 0 0 1-1.208-.375.815.815 0 0 1 .318-1.048c.887-.536 2.639-1.437 4.686-1.648" fill="#f5f5f5" fill-rule="evenodd" data-name="path374"/></g><g data-name="g376"><path d="M170.048 310.434c.343.716.243 2.058-.163 2.909-.406.85-4.85 3.356-10.843 2.952-5.994-.405-10.11-2.82-12.395-4.333-2.286-1.513-4.665-1.795-7.633-1.965-2.968-.17-6.865-1.65-7.516-3.039-.651-1.387.098-3.778.098-3.778l38.452 7.254Z" fill="#263238" fill-rule="evenodd" data-name="path378"/></g><g data-name="g380"><path d="M145.86 291.728c.156-.034.314-.067.475-.098.26-.053.53-.104.79-.043.294.07.536.277.74.5.644.7 1.033 1.591 1.53 2.403 1.257 2.05 3.895 3.747 6.775 5.295 1.958 1.053 3.876 1.87 5.898 2.779 2.063.927 4.8 1.495 6.413 2.582 2.352 1.585 2.656 5.568-.024 7.14-2.311 1.358-8.394 2.828-14.773 1.022-3.476-.986-7.334-4.698-11.895-5.056-2.9-.226-8.386-1.04-10.253-3.244-.69-.977.231-4.074.988-6.747.825-2.918 1.611-7.472 2.579-7.215.04.573.128.7.504 1.09.358.37.84.605 1.23.938.717.612 1.158 1.477 1.604 2.308.193.36.423.742.824.893.488.183.854-.125 1.282-.321a2.489 2.489 0 0 1 1.734-.124 10.76 10.76 0 0 0-.306-1.713c-.048-.181-.1-.374-.043-.553.059-.18.217-.308.372-.416 1.117-.785 2.274-1.143 3.556-1.42" fill="#455a64" fill-rule="evenodd" data-name="path382"/></g><g data-name="g384"><path d="M153.461 298.208s-.416-1.113-2.142-1.434c-1.32-.246-3.65.727-5.1 1.921a1.08 1.08 0 1 0 1.392 1.65c.95-.826 3.08-2.328 5.85-2.137" fill="#f5f5f5" fill-rule="evenodd" data-name="path386"/></g><g data-name="g388"><path d="M157.552 300.499s-.853-1.334-2.538-1.308c0 0-3.447.1-5.58 2.088-.544.507-.508 1.37.145 1.729.387.212.86.156 1.19-.139.962-.858 2.888-2.661 6.783-2.37" fill="#f5f5f5" fill-rule="evenodd" data-name="path390"/></g><g data-name="g392"><path d="M162.068 302.564s-.95-1.207-2.635-1.181c0 0-3.212.12-5.345 2.108-.544.508-.506 1.37.145 1.73.388.212.86.156 1.191-.139.961-.858 2.75-2.809 6.644-2.518" fill="#f5f5f5" fill-rule="evenodd" data-name="path394"/></g><g data-name="g396"><path d="M95.77 159.172c-.754 22.88-.807 69.683-.807 69.683-.242 2.846-.488 7.907-.7 18.16-.309 14.867-.357 53.063-.357 53.063s6.431 1.823 12.936-.887c0 0 9.067-51.596 10.923-66.312 1.62-12.843 4.368-47.734 4.368-47.734l5.615 41.928s-1.01 10.928-.384 19.73c.483 6.807 7.408 41.808 7.408 41.808s5.16 2.393 12.244 0c0 0 .105-55.298.225-61.543.136-7.12-.644-80.155-.644-80.155L95.77 159.172Z" fill="#8dd070" fill-rule="evenodd" data-name="path398"/></g><g data-name="g400"><g data-name="g414"><g data-name="g412" transform="translate(93.906 146.913)" clip-path="url(&quot;#o&quot;)"><g data-name="g410"><path d="M1.864 12.259c-.754 22.88-.807 69.683-.807 69.683-.241 2.846-.487 7.907-.7 18.16C.049 114.968 0 153.164 0 153.164s6.432 1.823 12.936-.887c0 0 9.067-51.596 10.924-66.312 1.62-12.843 4.367-47.734 4.367-47.734l5.615 41.928s-1.01 10.929-.384 19.73c.484 6.807 7.408 41.808 7.408 41.808s5.16 2.393 12.245 0c0 0 .104-55.298.224-61.543C53.471 73.035 52.692 0 52.692 0L1.864 12.26Z" fill-rule="evenodd" data-name="path408"/></g></g></g></g><g data-name="g416"><g data-name="g430"><g data-name="g428" transform="translate(122.133 176.874)" clip-path="url(&quot;#p&quot;)"><g data-name="g426"><path d="M0 8.27S8.279 5.94 14.424 0c0 0-2.783 5.211-11.06 10.06l1.77 36.55L0 8.27Z" fill-rule="evenodd" data-name="path424"/></g></g></g></g><g data-name="g432"><path d="M116.09 87.595c-4.637.45-11.126.503-15.728.969-3.189 1.312-9.324 6.66-8.868 10.478 1.706 14.255 4.683 37.799 4.683 37.799l-.912 24.582c6.378 6.364 36.487 8.843 51.861-1.34 0 0-.497-44.489-1.553-51.99-1.897-13.486-3.558-18.49-10.517-19.685-6.957-1.193-18.966-.813-18.966-.813" fill="#455a64" fill-rule="evenodd" data-name="path434"/></g><g data-name="g436"><path d="M114.938 54.06c-.069 7.935 6.308 14.424 14.243 14.494 7.935.07 14.425-6.307 14.495-14.244.069-7.935-6.308-14.424-14.243-14.494-7.935-.07-14.426 6.308-14.495 14.243" fill="#263238" fill-rule="evenodd" data-name="path438"/></g><g data-name="g440"><path d="M104.38 64.184s2.233 10.96 3.15 12.765c.918 1.805 2.843 2.333 2.843 2.333l-.095-7.696-5.899-7.402Z" fill="#263238" fill-rule="evenodd" data-name="path442"/></g><g data-name="g444"><path d="M107.439 48.538s-2.504-.451-4.476 1.53c-1.934 1.944-.917 8.087 1.416 14.116l4.382.543-1.322-16.189Z" fill="#263238" fill-rule="evenodd" data-name="path446"/></g><g data-name="g448"><path d="M110.076 64.74c-.883.519-2.124-1.181-3.199-2.326-1.074-1.144-4.601-2.726-6.4.98-1.832 3.777 1.482 8.818 4.262 9.717 4.79 1.55 5.539-1.525 5.539-1.525l.197 17.86c5.907 7.71 22.487 7.209 15.65-.851l.033-5.274s4.347.7 6.473.39c3.537-.515 5.784-3.284 6.89-7.098 1.774-6.127 2.472-11.08 1.117-23.173-1.484-13.254-16.883-13.526-25.244-8.365-8.362 5.162-5.318 19.666-5.318 19.666" fill="#b16668" fill-rule="evenodd" data-name="path450"/></g><g data-name="g452"><path d="M110.063 66.22c-.442.005-2.099-2.8-3.185-3.806-1.505-1.393.56-13.876.56-13.876s-1.845-3.55 1.105-6.739c2.097-2.268 5.02-5.036 14.44-3.839 6.716.854 14.013 3.015 19.95.162.852 3.686.102 7.783-3.599 10.657 0 0-2.151 1.36-7.785 1.996-5.633.636-14.39-.258-15.587-.432-1.63-.237-1.992 1.34-2.91 5.654-.805 3.786-1.502 10.208-2.989 10.224" fill="#263238" fill-rule="evenodd" data-name="path454"/></g><g data-name="g456"><path d="m107.439 49.51-5.293-2.9c.769-1.518 2.575-2.098 4.038-1.297 1.461.801 2.023 2.68 1.255 4.197" fill="#263238" fill-rule="evenodd" data-name="path458"/></g><g data-name="g460"><path d="M126.158 83.321s-7.872-1.657-10.616-3.147c-1.837-.997-3.342-2.71-3.778-3.804 0 0 .496 2.344 2.127 4.466 1.993 2.596 12.249 4.584 12.249 4.584l.018-2.099Z" fill="#9a4a4d" fill-rule="evenodd" data-name="path462"/></g><g data-name="g464"><path d="M127.54 64.203c-.008.907-.723 1.633-1.595 1.623-.873-.01-1.574-.753-1.565-1.66.007-.907.72-1.634 1.594-1.624.872.01 1.574.754 1.566 1.66" fill="#263238" fill-rule="evenodd" data-name="path466"/></g><g data-name="g468"><path d="m126.585 56.847-3.298 2.01c-.54-.95-.24-2.168.671-2.723.911-.556 2.087-.237 2.627.713" fill="#263238" fill-rule="evenodd" data-name="path470"/></g><g data-name="g472"><path d="m140.163 60.64-2.983-2.5a1.868 1.868 0 0 1 2.694-.3c.824.69.953 1.943.289 2.8" fill="#263238" fill-rule="evenodd" data-name="path474"/></g><g data-name="g476"><path d="M138.884 64.202c-.008.869-.693 1.566-1.53 1.556-.836-.01-1.507-.722-1.5-1.591.008-.869.692-1.566 1.528-1.557.837.01 1.51.723 1.502 1.592" fill="#263238" fill-rule="evenodd" data-name="path478"/></g><g data-name="g480"><path d="m131.64 62.154-.59 9.5 5.125-1.103-4.535-8.397Z" fill="#9a4a4d" fill-rule="evenodd" data-name="path482"/></g><g data-name="g484"><path d="M131.731 78.702c-.188.815-2.033 1.085-4.12.603-2.09-.482-4.816-3.09-4.628-3.905.188-.815 2.82 2.182 4.91 2.664 2.086.482 4.026-.177 3.838.638" fill="#9a4a4d" fill-rule="evenodd" data-name="path486"/></g><g data-name="g488"><path d="M81.802 70.828c3.53-3.8 5.97-6.694 9.167-9.932 1.816-1.84 2.993-3.164 4.754-5.063 1.211-1.306 1.961-2.436 3.183-2.75 1.376-.355 2.756-1.198 3.702-2 .676-.575 1.252-1.256 1.853-1.908a31.256 31.256 0 0 1 6.913-5.623c2.687-1.61 5.603-2.743 8.346-4.257 1.637-.904 3.457-2.5 1.78-4.349-.52-.573-1.222-.943-1.957-1.183-4.442-1.448-8.579-.259-13.168.387a34.395 34.395 0 0 0-5.56 1.26c-.92.29-1.84.615-2.634 1.16-1.237.85-2.063 2.158-2.939 3.378-2.349 3.274-6.326 6.342-9.5 8.748-3.722 2.822-7.366 5.857-11.175 8.526-3.868 2.71-7.664 5.537-11.218 8.648-2.94 2.575-2.64 4.279-2.346 5.09 1.676 4.647 3.913 6.486 6.493 9.53 5.387 6.35 28.783 30.252 28.783 30.252l3.638-6.71a17.017 17.017 0 0 0-3.792-20.95c-4.897-4.261-10.192-8.871-14.323-12.254" fill="#b16668" fill-rule="evenodd" data-name="path490"/></g><g data-name="g492"><path d="M103.082 88.097c-6.696-5.187-18.41-15.194-18.41-15.194s-.46 11.767-8.964 17.516c0 0 15.554 16.64 19.632 20.625 3.797-.864 7.04-3.888 8.133-9.762 1.846-9.93-.39-13.185-.39-13.185" fill="#37474f" fill-rule="evenodd" data-name="path494"/></g><g data-name="g496"><path d="M81.802 70.828s-3.348 3.606-8.503 4.607c0 0 3.852 1.149 10.052-3.327l-1.55-1.28Z" fill="#9a4a4d" fill-rule="evenodd" data-name="path498"/></g><g data-name="g500"><path d="M181.464 320.585c-1.621-.94-3.076-1.122-4.116-.524-1.163.674-1.837 2.353-1.837 4.598v16.253c0 4.822-1.704 8.488-4.797 10.35l18.357-10.583v-6.268c0-5.113-3.484-11.448-7.607-13.826" fill="#f0f0f0" fill-rule="evenodd" data-name="path502"/></g><g data-name="g504"><path d="M210.163 352.75c-1.18-.681-2.228-.83-2.952-.415-.831.474-1.305 1.713-1.305 3.392v10.666c0 2.902-1.08 5.188-2.968 6.277l13.152-7.582v-1.563c0-3.982-2.71-8.92-5.927-10.774" fill="#f0f0f0" fill-rule="evenodd" data-name="path506"/></g><g data-name="g508"><g data-name="g522"><g data-name="g520" transform="translate(170.714 319.716)" clip-path="url(&quot;#q&quot;)"><g data-name="g518"><path d="M10.75.869C9.128-.071 7.674-.254 6.634.345c-1.164.673-1.837 2.353-1.837 4.597v16.254c0 4.822-1.704 8.488-4.797 10.35l18.357-10.583v-6.269c0-5.113-3.484-11.448-7.607-13.825" fill-rule="evenodd" data-name="path516"/></g></g></g></g><g data-name="g524"><g data-name="g538"><g data-name="g536" transform="translate(202.938 352.104)" clip-path="url(&quot;#r&quot;)"><g data-name="g534"><path d="M7.225.647C6.045-.035 4.997-.185 4.273.23c-.831.474-1.305 1.712-1.305 3.392v10.666c0 2.902-1.08 5.188-2.968 6.277l13.152-7.582v-1.563c0-3.982-2.71-8.92-5.927-10.774" fill-rule="evenodd" data-name="path532"/></g></g></g></g><g data-name="g540"><path d="m275.168 350.34-11.05 6.376-1.438.832-29.755 17.16v7.797c0 2.644-.955 4.69-2.702 5.753l43.797-25.257c1.813-1.047 2.81-3.117 2.81-5.82v-7.797l-1.662.956Z" fill="#f0f0f0" fill-rule="evenodd" data-name="path542"/></g><g data-name="g544"><path d="M275.168 349.384 263.695 356l-1.438.832-30.995 17.874h1.663l29.755-17.16 1.439-.83 11.049-6.377 1.662-.956h-1.662Z" fill="#fafafa" fill-rule="evenodd" data-name="path546"/></g><g data-name="g548"><path d="M133.328 158.293v17.16c0 3.442-2.27 4.922-5.072 3.309-2.793-1.613-5.063-5.545-5.063-8.771v-5.853l10.135-5.845Z" fill="#f0f0f0" fill-rule="evenodd" data-name="path550"/></g><g data-name="g552"><path d="M137.56 143.154c-.75-.432-1.406-.54-1.805-.316-.474.275-.765 1.114-.765 2.187V175.453c0 2.261-.848 4.074-2.32 4.996l9.12-5.262v-24.309c0-2.86-1.936-6.402-4.23-7.724" fill="#e6e6e6" fill-rule="evenodd" data-name="path554"/></g><g data-name="g556"><path d="M133.328 157.337v.957l-10.135 5.844h-1.663l11.798-6.8Z" fill="#fafafa" fill-rule="evenodd" data-name="path558"/></g><g data-name="g560"><path d="M261.658 348.868v-10.666c0-4.59-3.027-10.06-6.76-12.213-1.737-1.006-3.325-1.114-4.522-.466l-.257.15-15.406 8.887-1.554.89-26.597 15.347c1.19-.59 2.736-.466 4.432.515 3.733 2.154 6.759 7.624 6.759 12.213v10.667c0 4.597 3.027 10.06 6.751 12.22 3.733 2.154 6.758.408 6.758-3.907v-7.798l30.995-17.874 1.438-.832c-1.256-2.236-2.037-4.797-2.037-7.133" fill="#fafafa" fill-rule="evenodd" data-name="path562"/></g><g data-name="g564"><path d="M234.638 333.271v-24.184c0-5.745-3.774-12.579-8.438-15.272-2.17-1.247-4.15-1.38-5.645-.59l-.382.224-29.39 16.943-1.413.823-12.628 7.283c1.487-.74 3.424-.582 5.553.64 4.664 2.694 8.439 9.528 8.439 15.272v24.185c0 4.597 3.026 10.06 6.759 12.213 3.724 2.153 6.75.183 6.75-4.415v-10.666c0-2.436.857-4.14 2.212-4.872l.107-.058 26.597-15.347 1.554-.89c-.05-.432-.075-.865-.075-1.289" fill="#f5f5f5" fill-rule="evenodd" data-name="path566"/></g><g data-name="g568"><path d="M187.358 297.664v-172.11c0-3.442-2.27-7.549-5.063-9.161-1.305-.749-2.494-.832-3.392-.35l-.2.117-43.646 25.174c.89-.45 2.053-.35 3.334.382 2.793 1.613 5.063 5.72 5.063 9.162v172.11c0 9.186 6.451 20.352 14.4 24.94l1.595.924c7.957 4.589 14.4 1.03 14.4-7.94V324.66c0-2.927.98-5.005 2.569-5.978l.324-.183 12.628-7.282 1.414-.823c-2.137-4.132-3.426-8.63-3.426-12.729" fill="#fafafa" fill-rule="evenodd" data-name="path570"/></g><g data-name="g572"><path d="M232.925 374.707v7.798c0 2.644-.955 4.69-2.702 5.753l-.198.117a5.177 5.177 0 0 1-2.503.623c-1.214 0-2.52-.382-3.85-1.147-4.247-2.46-7.582-8.455-7.582-13.66v-10.666c0-3.982-2.71-8.92-5.927-10.774-1.181-.682-2.229-.832-2.952-.416-.831.474-1.305 1.713-1.305 3.392v10.666c0 2.902-1.08 5.188-2.968 6.277-1.788 1.031-4.024.882-6.277-.424-4.257-2.452-7.59-8.446-7.59-13.65V334.41c0-5.113-3.484-11.448-7.607-13.826-1.622-.94-3.076-1.122-4.116-.524-1.164.674-1.837 2.353-1.837 4.598v16.253c0 4.822-1.704 8.488-4.797 10.35l-.258.15-.016.008c-3.243 1.805-7.441 1.406-11.822-1.13l-1.597-.923c-8.396-4.847-15.23-16.686-15.23-26.38v-172.11c0-2.86-1.937-6.4-4.232-7.723-.748-.432-1.405-.54-1.804-.316-.474.275-.765 1.114-.765 2.187v30.428c0 2.261-.848 4.074-2.32 4.996l-.249.142c-1.455.773-3.225.632-4.996-.391-3.3-1.912-5.895-6.393-5.895-10.218v-5.844h1.663v5.853c0 3.226 2.27 7.158 5.063 8.77 2.802 1.614 5.071.134 5.071-3.308v-30.428c0-1.771.599-3.018 1.563-3.6l.167-.091c.89-.45 2.053-.35 3.333.382 2.794 1.613 5.063 5.72 5.063 9.162v172.11c0 9.186 6.452 20.352 14.4 24.94l1.596.924c7.956 4.589 14.4 1.03 14.4-7.94v-16.253c0-2.927.98-5.005 2.568-5.978l.324-.183c1.489-.74 3.426-.582 5.554.64 4.664 2.694 8.438 9.528 8.438 15.273v24.184c0 4.598 3.027 10.06 6.76 12.213 3.724 2.153 6.75.183 6.75-4.415v-10.666c0-2.436.856-4.14 2.212-4.872l.108-.058c1.189-.59 2.735-.466 4.43.515 3.734 2.154 6.76 7.624 6.76 12.213v10.667c0 4.597 3.027 10.06 6.75 12.22 3.733 2.154 6.76.408 6.76-3.907v-7.798h1.662Z" fill="#455a64" fill-rule="evenodd" data-name="path574"/></g><g data-name="g576"><g data-name="g590"><g data-name="g588" transform="translate(175.511 319.716)" clip-path="url(&quot;#s&quot;)"><g data-name="g586"><path d="M13.56 20.963v-6.269c0-5.113-3.483-11.448-7.607-13.825C4.332-.071 2.877-.254 1.838.345.674 1.018 0 2.698 0 4.942V6.25c0-4.455 7.711-4.304 7.711 8.146v9.94l5.849-3.372Z" fill-rule="evenodd" data-name="path584"/></g></g></g></g><g data-name="g592"><g data-name="g606"><g data-name="g604" transform="translate(205.906 352.104)" clip-path="url(&quot;#t&quot;)"><g data-name="g602"><path d="M10.184 12.984V11.42c0-3.982-2.71-8.92-5.927-10.775C3.076-.035 2.028-.185 1.305.231.474.705 0 1.943 0 3.623v5.335c0-5.335 5.795-2.423 5.795 1.544v5.013l4.39-2.531Z" fill-rule="evenodd" data-name="path600"/></g></g></g></g><g data-name="g608"><g data-name="g622"><g data-name="g620" transform="translate(134.99 142.724)" clip-path="url(&quot;#u&quot;)"><g data-name="g618"><path d="M6.8 32.462V8.153c0-2.86-1.936-6.402-4.23-7.723C1.82-.003 1.163-.11.764.114.291.388 0 1.228 0 2.3v5.464c0-3.706 4.038-2.38 4.038 4.506v21.786l2.763-1.594Z" fill-rule="evenodd" data-name="path616"/></g></g></g></g><g data-name="g624"><path d="M257.67 338.645c-.64.368-1.156 1.265-1.156 2.002 0 .738.517 1.037 1.156.668.639-.368 1.156-1.265 1.156-2.003 0-.737-.517-1.036-1.156-.667" fill="#8dd070" fill-rule="evenodd" data-name="path626"/></g><g data-name="g628"><path d="M257.67 351.927c-.64.369-1.156 1.266-1.156 2.003 0 .737.517 1.037 1.156.668.639-.369 1.156-1.266 1.156-2.003 0-.738-.517-1.036-1.156-.668" fill="#8dd070" fill-rule="evenodd" data-name="path630"/></g><g data-name="g632"><path d="M250.267 328.854c.565.473 1.584.655 2.277.403.693-.251.798-.84.234-1.315-.565-.474-1.585-.655-2.278-.404-.693.252-.798.84-.233 1.316" fill="#8dd070" fill-rule="evenodd" data-name="path634"/></g><g data-name="g636"><g data-name="g758"><g data-name="g756" transform="translate(213.959 330.136)" clip-path="url(&quot;#v&quot;)"><g data-name="g682"><g data-name="g680"><g data-name="g678" clip-path="url(&quot;#w&quot;)"><g data-name="g676"><path d="M.416 19.643a.416.416 0 0 1-.208-.776L32.791.056a.414.414 0 0 1 .568.152.414.414 0 0 1-.152.568L.624 19.587a.41.41 0 0 1-.208.056" fill="#455a64" fill-rule="evenodd" data-name="path674"/></g></g></g></g><g data-name="g694"><g data-name="g692"><g data-name="g690" transform="translate(4.445 4.615)" clip-path="url(&quot;#x&quot;)"><g data-name="g688"><path d="M.416 19.644a.416.416 0 0 1-.208-.776L32.79.056a.415.415 0 1 1 .416.72L.624 19.588a.41.41 0 0 1-.208.056" fill="#455a64" fill-rule="evenodd" data-name="path686"/></g></g></g></g><g data-name="g706"><g data-name="g704"><g data-name="g702" transform="translate(6.69 10.98)" clip-path="url(&quot;#y&quot;)"><g data-name="g700"><path d="M.416 19.643a.416.416 0 0 1-.208-.775L32.791.056a.414.414 0 0 1 .568.152.414.414 0 0 1-.152.568L.624 19.588a.41.41 0 0 1-.208.055" fill="#455a64" fill-rule="evenodd" data-name="path698"/></g></g></g></g><g data-name="g718"><g data-name="g716"><g data-name="g714" transform="translate(6.753 17.548)" clip-path="url(&quot;#z&quot;)"><g data-name="g712"><path d="M.416 19.643a.416.416 0 0 1-.208-.776L32.791.056a.415.415 0 1 1 .416.72L.624 19.587a.41.41 0 0 1-.208.056" fill="#455a64" fill-rule="evenodd" data-name="path710"/></g></g></g></g><g data-name="g730"><g data-name="g728"><g data-name="g726" transform="translate(6.829 24.114)" clip-path="url(&quot;#A&quot;)"><g data-name="g724"><path d="M.416 19.644a.416.416 0 0 1-.208-.776L32.79.056a.415.415 0 1 1 .416.72L.624 19.588a.41.41 0 0 1-.208.056" fill="#455a64" fill-rule="evenodd" data-name="path722"/></g></g></g></g><g data-name="g742"><g data-name="g740"><g data-name="g738" transform="translate(9.074 44.72)" clip-path="url(&quot;#B&quot;)"><g data-name="g736"><path d="M8.23 0v.956L.623 5.346a.395.395 0 0 1-.207.058.414.414 0 0 1-.359-.208.408.408 0 0 1 .15-.565L8.23 0Z" fill="#455a64" fill-rule="evenodd" data-name="path734"/></g></g></g></g><g data-name="g754"><g data-name="g752"><g data-name="g750" transform="translate(13.506 51.896)" clip-path="url(&quot;#C&quot;)"><g data-name="g748"><path d="M3.798 0v.474c0 .166-.008.333-.016.49L.623 2.786a.413.413 0 0 1-.566-.15.41.41 0 0 1 .15-.565L3.799 0Z" fill="#455a64" fill-rule="evenodd" data-name="path746"/></g></g></g></g></g></g></g><g data-name="g760"><path d="M230.621 306.232c-.638.368-1.156 1.265-1.156 2.003 0 .737.518 1.037 1.156.667.64-.368 1.158-1.265 1.158-2.002 0-.738-.518-1.037-1.158-.668" fill="#8dd070" fill-rule="evenodd" data-name="path762"/></g><g data-name="g764"><path d="M230.621 320.732c-.638.368-1.156 1.265-1.156 2.002 0 .738.518 1.037 1.156.668.64-.368 1.158-1.265 1.158-2.003 0-.737-.518-1.037-1.158-.667" fill="#8dd070" fill-rule="evenodd" data-name="path766"/></g><g data-name="g768"><path d="M231.778 335.899c0 .124-.016.25-.05.374l-2.219 1.28a1.176 1.176 0 0 1-.042-.316c0-.74.515-1.638 1.156-2.003.64-.374 1.155-.075 1.155.665" fill="#8dd070" fill-rule="evenodd" data-name="path770"/></g><g data-name="g772"><path d="M221.656 296.161c.565.475 1.584.656 2.278.404.693-.252.797-.84.233-1.315-.564-.475-1.584-.655-2.278-.404-.693.252-.798.84-.233 1.315" fill="#8dd070" fill-rule="evenodd" data-name="path774"/></g><g data-name="g776"><g data-name="g930"><g data-name="g928" transform="translate(185.255 297.624)" clip-path="url(&quot;#D&quot;)"><g data-name="g830"><g data-name="g828"><g data-name="g826" clip-path="url(&quot;#E&quot;)"><g data-name="g824"><path d="M.416 19.886a.417.417 0 0 1-.208-.776L33.254.055a.419.419 0 0 1 .569.153.418.418 0 0 1-.153.568L.624 19.831a.418.418 0 0 1-.208.055" fill="#455a64" fill-rule="evenodd" data-name="path822"/></g></g></g></g><g data-name="g842"><g data-name="g840"><g data-name="g838" transform="translate(4.897 4.756)" clip-path="url(&quot;#F&quot;)"><g data-name="g836"><path d="M.416 19.886a.417.417 0 0 1-.208-.777L33.255.055a.418.418 0 0 1 .568.153.418.418 0 0 1-.153.569L.624 19.83a.418.418 0 0 1-.208.055" fill="#455a64" fill-rule="evenodd" data-name="path834"/></g></g></g></g><g data-name="g854"><g data-name="g852"><g data-name="g850" transform="translate(7.935 11.439)" clip-path="url(&quot;#G&quot;)"><g data-name="g848"><path d="M.416 19.886a.417.417 0 0 1-.207-.777L33.255.054a.419.419 0 0 1 .568.153.418.418 0 0 1-.153.569L.624 19.831a.418.418 0 0 1-.208.055" fill="#455a64" fill-rule="evenodd" data-name="path846"/></g></g></g></g><g data-name="g866"><g data-name="g864"><g data-name="g862" transform="translate(8.438 18.446)" clip-path="url(&quot;#H&quot;)"><g data-name="g860"><path d="M.416 19.886a.417.417 0 0 1-.208-.776L33.254.055a.418.418 0 0 1 .569.153.418.418 0 0 1-.153.569L.624 19.832a.418.418 0 0 1-.208.054" fill="#455a64" fill-rule="evenodd" data-name="path858"/></g></g></g></g><g data-name="g878"><g data-name="g876"><g data-name="g874" transform="translate(8.438 25.55)" clip-path="url(&quot;#I&quot;)"><g data-name="g872"><path d="M.416 19.886a.417.417 0 0 1-.208-.776L33.254.055a.418.418 0 0 1 .569.153.418.418 0 0 1-.153.569L.624 19.83a.418.418 0 0 1-.208.055" fill="#455a64" fill-rule="evenodd" data-name="path870"/></g></g></g></g><g data-name="g890"><g data-name="g888"><g data-name="g886" transform="translate(8.438 32.655)" clip-path="url(&quot;#J&quot;)"><g data-name="g884"><path d="M.416 19.886a.417.417 0 0 1-.208-.776L33.254.055a.418.418 0 0 1 .569.153.418.418 0 0 1-.153.568L.624 19.831a.418.418 0 0 1-.208.055" fill="#455a64" fill-rule="evenodd" data-name="path882"/></g></g></g></g><g data-name="g902"><g data-name="g900"><g data-name="g898" transform="translate(8.442 39.745)" clip-path="url(&quot;#K&quot;)"><g data-name="g896"><path d="M.416 19.886a.417.417 0 0 1-.208-.776L33.254.055a.419.419 0 0 1 .569.153.418.418 0 0 1-.153.568L.624 19.831a.418.418 0 0 1-.208.055" fill="#455a64" fill-rule="evenodd" data-name="path894"/></g></g></g></g><g data-name="g914"><g data-name="g912"><g data-name="g910" transform="translate(10.493 60.946)" clip-path="url(&quot;#L&quot;)"><g data-name="g908"><path d="M8.496 0v.964L.623 5.504a.46.46 0 0 1-.208.058.42.42 0 0 1-.208-.781L8.497 0Z" fill="#455a64" fill-rule="evenodd" data-name="path906"/></g></g></g></g><g data-name="g926"><g data-name="g924"><g data-name="g922" transform="translate(15.198 68.71)" clip-path="url(&quot;#M&quot;)"><g data-name="g920"><path d="M3.79 0v.058a8.6 8.6 0 0 1-.05.931L.624 2.785a.412.412 0 0 1-.565-.15.41.41 0 0 1 .15-.565L3.79 0Z" fill="#455a64" fill-rule="evenodd" data-name="path918"/></g></g></g></g></g></g></g><g data-name="g932"><path d="M184.378 131.593c-.638.37-1.156 1.265-1.156 2.004 0 .736.518 1.036 1.156.666.639-.368 1.157-1.265 1.157-2.002 0-.738-.517-1.036-1.157-.668" fill="#8dd070" fill-rule="evenodd" data-name="path934"/></g><g data-name="g936"><path d="M179.348 119.749c.565.475 1.584.655 2.277.403.693-.251.798-.84.234-1.314-.565-.475-1.585-.655-2.278-.404-.694.252-.797.84-.233 1.315" fill="#8dd070" fill-rule="evenodd" data-name="path938"/></g><g data-name="g940"><path d="M184.378 152.223c-.638.369-1.156 1.265-1.156 2.003 0 .737.518 1.036 1.156.667.639-.368 1.157-1.265 1.157-2.003 0-.737-.517-1.036-1.157-.667" fill="#8dd070" fill-rule="evenodd" data-name="path942"/></g><g data-name="g944"><path d="M184.378 165.976c-.638.368-1.156 1.265-1.156 2.003 0 .737.518 1.036 1.156.667.639-.368 1.157-1.265 1.157-2.003 0-.737-.517-1.035-1.157-.667" fill="#8dd070" fill-rule="evenodd" data-name="path946"/></g><g data-name="g948"><path d="M184.378 179.729c-.638.369-1.156 1.265-1.156 2.003 0 .737.518 1.036 1.156.667.639-.368 1.157-1.265 1.157-2.003 0-.737-.517-1.035-1.157-.667" fill="#8dd070" fill-rule="evenodd" data-name="path950"/></g><g data-name="g952"><path d="M184.378 193.482c-.638.368-1.156 1.266-1.156 2.003 0 .737.518 1.037 1.156.668.639-.369 1.157-1.266 1.157-2.003 0-.738-.517-1.036-1.157-.668" fill="#8dd070" fill-rule="evenodd" data-name="path954"/></g><g data-name="g956"><path d="M184.378 207.235c-.638.369-1.156 1.266-1.156 2.003 0 .738.518 1.037 1.156.668.639-.369 1.157-1.266 1.157-2.003 0-.737-.517-1.037-1.157-.668" fill="#8dd070" fill-rule="evenodd" data-name="path958"/></g><g data-name="g960"><path d="M184.378 220.988c-.638.369-1.156 1.266-1.156 2.003 0 .738.518 1.037 1.156.668.639-.369 1.157-1.266 1.157-2.003 0-.738-.517-1.036-1.157-.668" fill="#8dd070" fill-rule="evenodd" data-name="path962"/></g><g data-name="g964"><path d="M184.378 234.742c-.638.368-1.156 1.265-1.156 2.002 0 .738.518 1.037 1.156.668.639-.368 1.157-1.265 1.157-2.003 0-.737-.517-1.036-1.157-.667" fill="#8dd070" fill-rule="evenodd" data-name="path966"/></g><g data-name="g968"><path d="M184.378 248.494c-.638.37-1.156 1.266-1.156 2.004 0 .737.518 1.036 1.156.667.639-.368 1.157-1.265 1.157-2.003 0-.737-.517-1.036-1.157-.668" fill="#8dd070" fill-rule="evenodd" data-name="path970"/></g><g data-name="g972"><path d="M184.378 262.248c-.638.368-1.156 1.265-1.156 2.003 0 .737.518 1.036 1.156.667.639-.368 1.157-1.265 1.157-2.003 0-.737-.517-1.036-1.157-.667" fill="#8dd070" fill-rule="evenodd" data-name="path974"/></g><g data-name="g976"><path d="M184.378 276c-.638.37-1.156 1.266-1.156 2.004 0 .737.518 1.036 1.156.667.639-.368 1.157-1.265 1.157-2.003 0-.737-.517-1.036-1.157-.667" fill="#8dd070" fill-rule="evenodd" data-name="path978"/></g><g data-name="g980"><path d="M184.378 289.754c-.638.368-1.156 1.265-1.156 2.003 0 .737.518 1.037 1.156.667.639-.368 1.157-1.265 1.157-2.002 0-.738-.517-1.037-1.157-.668" fill="#8dd070" fill-rule="evenodd" data-name="path982"/></g><g data-name="g984"><path d="M184.378 303.507c-.638.37-1.156 1.265-1.156 2.004 0 .736.518 1.035 1.156.666.639-.368 1.157-1.265 1.157-2.002 0-.738-.517-1.036-1.157-.668" fill="#8dd070" fill-rule="evenodd" data-name="path986"/></g><g data-name="g988"><g data-name="g1510"><g data-name="g1508" transform="translate(143.106 120.827)" clip-path="url(&quot;#N&quot;)"><g data-name="g1134"><g data-name="g1132"><g data-name="g1130" clip-path="url(&quot;#O&quot;)"><g data-name="g1128"><path d="M.416 20.29a.416.416 0 0 1-.208-.776L33.912.056a.415.415 0 1 1 .416.72L.623 20.233a.41.41 0 0 1-.207.056" fill="#455a64" fill-rule="evenodd" data-name="path1126"/></g></g></g></g><g data-name="g1146"><g data-name="g1144"><g data-name="g1142" transform="translate(3.084 5.938)" clip-path="url(&quot;#P&quot;)"><g data-name="g1140"><path d="M.416 20.29a.416.416 0 0 1-.208-.776L33.912.056a.415.415 0 1 1 .416.72L.623 20.233a.41.41 0 0 1-.207.056" fill="#455a64" fill-rule="evenodd" data-name="path1138"/></g></g></g></g><g data-name="g1158"><g data-name="g1156"><g data-name="g1154" transform="translate(3.91 12.747)" clip-path="url(&quot;#Q&quot;)"><g data-name="g1152"><path d="M.416 20.29a.416.416 0 0 1-.208-.775L33.91.056a.413.413 0 0 1 .568.153.415.415 0 0 1-.152.567L.623 20.235a.41.41 0 0 1-.207.055" fill="#455a64" fill-rule="evenodd" data-name="path1150"/></g></g></g></g><g data-name="g1170"><g data-name="g1168"><g data-name="g1166" transform="translate(3.91 19.646)" clip-path="url(&quot;#R&quot;)"><g data-name="g1164"><path d="M.416 20.29a.416.416 0 0 1-.208-.776L33.91.056a.415.415 0 1 1 .416.72L.623 20.233a.41.41 0 0 1-.207.056" fill="#455a64" fill-rule="evenodd" data-name="path1162"/></g></g></g></g><g data-name="g1182"><g data-name="g1180"><g data-name="g1178" transform="translate(3.91 26.546)" clip-path="url(&quot;#S&quot;)"><g data-name="g1176"><path d="M.416 20.29a.416.416 0 0 1-.208-.775L33.91.056a.415.415 0 1 1 .416.72L.623 20.234a.41.41 0 0 1-.207.056" fill="#455a64" fill-rule="evenodd" data-name="path1174"/></g></g></g></g><g data-name="g1194"><g data-name="g1192"><g data-name="g1190" transform="translate(3.91 33.446)" clip-path="url(&quot;#T&quot;)"><g data-name="g1188"><path d="M.416 20.29a.416.416 0 0 1-.208-.776L33.91.056a.415.415 0 1 1 .416.72L.623 20.233a.41.41 0 0 1-.207.056" fill="#455a64" fill-rule="evenodd" data-name="path1186"/></g></g></g></g><g data-name="g1206"><g data-name="g1204"><g data-name="g1202" transform="translate(3.91 40.345)" clip-path="url(&quot;#U&quot;)"><g data-name="g1200"><path d="M.416 20.29a.416.416 0 0 1-.208-.775L33.91.057a.415.415 0 1 1 .416.72L.623 20.234a.41.41 0 0 1-.207.055" fill="#455a64" fill-rule="evenodd" data-name="path1198"/></g></g></g></g><g data-name="g1218"><g data-name="g1216"><g data-name="g1214" transform="translate(3.91 47.244)" clip-path="url(&quot;#V&quot;)"><g data-name="g1212"><path d="M.416 20.29a.416.416 0 0 1-.208-.775L33.91.056a.415.415 0 1 1 .416.72L.623 20.235a.41.41 0 0 1-.207.055" fill="#455a64" fill-rule="evenodd" data-name="path1210"/></g></g></g></g><g data-name="g1230"><g data-name="g1228"><g data-name="g1226" transform="translate(3.91 54.144)" clip-path="url(&quot;#W&quot;)"><g data-name="g1224"><path d="M.416 20.291a.416.416 0 0 1-.208-.776L33.91.056a.414.414 0 1 1 .416.72L.623 20.235a.41.41 0 0 1-.207.055" fill="#455a64" fill-rule="evenodd" data-name="path1222"/></g></g></g></g><g data-name="g1242"><g data-name="g1240"><g data-name="g1238" transform="translate(3.91 61.044)" clip-path="url(&quot;#X&quot;)"><g data-name="g1236"><path d="M.416 20.29a.416.416 0 0 1-.208-.776L33.91.056a.415.415 0 1 1 .416.72L.623 20.233a.41.41 0 0 1-.207.056" fill="#455a64" fill-rule="evenodd" data-name="path1234"/></g></g></g></g><g data-name="g1254"><g data-name="g1252"><g data-name="g1250" transform="translate(3.91 67.944)" clip-path="url(&quot;#Y&quot;)"><g data-name="g1248"><path d="M.416 20.29a.416.416 0 0 1-.208-.776L33.91.056a.415.415 0 1 1 .416.72L.623 20.233a.41.41 0 0 1-.207.056" fill="#455a64" fill-rule="evenodd" data-name="path1246"/></g></g></g></g><g data-name="g1266"><g data-name="g1264"><g data-name="g1262" transform="translate(3.91 74.843)" clip-path="url(&quot;#Z&quot;)"><g data-name="g1260"><path d="M.416 20.29a.416.416 0 0 1-.208-.775L33.91.055a.415.415 0 1 1 .416.72L.623 20.235a.41.41 0 0 1-.207.055" fill="#455a64" fill-rule="evenodd" data-name="path1258"/></g></g></g></g><g data-name="g1278"><g data-name="g1276"><g data-name="g1274" transform="translate(3.91 81.743)" clip-path="url(&quot;#aa&quot;)"><g data-name="g1272"><path d="M.416 20.29a.416.416 0 0 1-.208-.775L33.91.057a.415.415 0 1 1 .416.72L.623 20.234a.41.41 0 0 1-.207.055" fill="#455a64" fill-rule="evenodd" data-name="path1270"/></g></g></g></g><g data-name="g1290"><g data-name="g1288"><g data-name="g1286" transform="translate(3.91 88.642)" clip-path="url(&quot;#ab&quot;)"><g data-name="g1284"><path d="M.416 20.29a.416.416 0 0 1-.208-.775L33.91.056a.415.415 0 1 1 .416.72L.623 20.235a.41.41 0 0 1-.207.055" fill="#455a64" fill-rule="evenodd" data-name="path1282"/></g></g></g></g><g data-name="g1302"><g data-name="g1300"><g data-name="g1298" transform="translate(3.91 95.54)" clip-path="url(&quot;#ac&quot;)"><g data-name="g1296"><path d="M.416 20.29a.416.416 0 0 1-.208-.775L33.91.057a.412.412 0 0 1 .568.152.415.415 0 0 1-.152.567L.623 20.236a.41.41 0 0 1-.207.055" fill="#455a64" fill-rule="evenodd" data-name="path1294"/></g></g></g></g><g data-name="g1314"><g data-name="g1312"><g data-name="g1310" transform="translate(3.91 102.442)" clip-path="url(&quot;#ad&quot;)"><g data-name="g1308"><path d="M.416 20.29a.416.416 0 0 1-.208-.776L33.91.056a.415.415 0 1 1 .416.72L.623 20.233a.41.41 0 0 1-.207.056" fill="#455a64" fill-rule="evenodd" data-name="path1306"/></g></g></g></g><g data-name="g1326"><g data-name="g1324"><g data-name="g1322" transform="translate(3.91 109.342)" clip-path="url(&quot;#ae&quot;)"><g data-name="g1320"><path d="M.416 20.29a.416.416 0 0 1-.208-.776L33.91.056a.415.415 0 1 1 .416.72L.623 20.233a.41.41 0 0 1-.207.056" fill="#455a64" fill-rule="evenodd" data-name="path1318"/></g></g></g></g><g data-name="g1338"><g data-name="g1336"><g data-name="g1334" transform="translate(3.91 116.24)" clip-path="url(&quot;#af&quot;)"><g data-name="g1332"><path d="M.416 20.29a.416.416 0 0 1-.208-.775L33.91.057a.415.415 0 1 1 .416.72L.623 20.234a.41.41 0 0 1-.207.055" fill="#455a64" fill-rule="evenodd" data-name="path1330"/></g></g></g></g><g data-name="g1350"><g data-name="g1348"><g data-name="g1346" transform="translate(3.91 123.14)" clip-path="url(&quot;#ag&quot;)"><g data-name="g1344"><path d="M.416 20.291a.416.416 0 0 1-.208-.776L33.91.056a.415.415 0 1 1 .416.72L.623 20.236a.41.41 0 0 1-.207.055" fill="#455a64" fill-rule="evenodd" data-name="path1342"/></g></g></g></g><g data-name="g1362"><g data-name="g1360"><g data-name="g1358" transform="translate(3.91 130.04)" clip-path="url(&quot;#ah&quot;)"><g data-name="g1356"><path d="M.416 20.29a.416.416 0 0 1-.208-.776L33.91.056a.415.415 0 1 1 .416.72L.623 20.233a.41.41 0 0 1-.207.056" fill="#455a64" fill-rule="evenodd" data-name="path1354"/></g></g></g></g><g data-name="g1374"><g data-name="g1372"><g data-name="g1370" transform="translate(3.91 136.94)" clip-path="url(&quot;#ai&quot;)"><g data-name="g1368"><path d="M.416 20.29a.416.416 0 0 1-.208-.776L33.91.056a.415.415 0 1 1 .416.72L.623 20.233a.41.41 0 0 1-.207.056" fill="#455a64" fill-rule="evenodd" data-name="path1366"/></g></g></g></g><g data-name="g1386"><g data-name="g1384"><g data-name="g1382" transform="translate(3.91 143.839)" clip-path="url(&quot;#aj&quot;)"><g data-name="g1380"><path d="M.416 20.29a.416.416 0 0 1-.208-.775L33.91.057a.412.412 0 0 1 .568.152.415.415 0 0 1-.152.567L.623 20.235a.41.41 0 0 1-.207.056" fill="#455a64" fill-rule="evenodd" data-name="path1378"/></g></g></g></g><g data-name="g1398"><g data-name="g1396"><g data-name="g1394" transform="translate(3.91 150.739)" clip-path="url(&quot;#ak&quot;)"><g data-name="g1392"><path d="M.416 20.29a.416.416 0 0 1-.208-.775L33.91.057a.412.412 0 0 1 .568.152.415.415 0 0 1-.152.567L.623 20.235a.41.41 0 0 1-.207.056" fill="#455a64" fill-rule="evenodd" data-name="path1390"/></g></g></g></g><g data-name="g1410"><g data-name="g1408"><g data-name="g1406" transform="translate(3.91 157.64)" clip-path="url(&quot;#al&quot;)"><g data-name="g1404"><path d="M.416 20.29a.416.416 0 0 1-.208-.776L33.91.056a.415.415 0 1 1 .416.72L.623 20.233a.41.41 0 0 1-.207.056" fill="#455a64" fill-rule="evenodd" data-name="path1402"/></g></g></g></g><g data-name="g1422"><g data-name="g1420"><g data-name="g1418" transform="translate(3.91 164.538)" clip-path="url(&quot;#am&quot;)"><g data-name="g1416"><path d="M.416 20.29a.416.416 0 0 1-.208-.775L33.91.056a.415.415 0 1 1 .416.72L.623 20.235a.41.41 0 0 1-.207.055" fill="#455a64" fill-rule="evenodd" data-name="path1414"/></g></g></g></g><g data-name="g1434"><g data-name="g1432"><g data-name="g1430" transform="translate(3.91 171.437)" clip-path="url(&quot;#an&quot;)"><g data-name="g1428"><path d="M.416 20.29a.416.416 0 0 1-.208-.775L33.91.056a.415.415 0 1 1 .416.72L.623 20.235a.41.41 0 0 1-.207.055" fill="#455a64" fill-rule="evenodd" data-name="path1426"/></g></g></g></g><g data-name="g1446"><g data-name="g1444"><g data-name="g1442" transform="translate(3.91 178.338)" clip-path="url(&quot;#ao&quot;)"><g data-name="g1440"><path d="M.416 20.29a.416.416 0 0 1-.208-.776L33.91.056a.415.415 0 1 1 .416.72L.623 20.233a.41.41 0 0 1-.207.056" fill="#455a64" fill-rule="evenodd" data-name="path1438"/></g></g></g></g><g data-name="g1458"><g data-name="g1456"><g data-name="g1454" transform="translate(4.138 185.035)" clip-path="url(&quot;#ap&quot;)"><g data-name="g1452"><path d="M.416 20.29a.416.416 0 0 1-.208-.776L33.912.056a.415.415 0 1 1 .416.72L.624 20.233a.41.41 0 0 1-.208.056" fill="#455a64" fill-rule="evenodd" data-name="path1450"/></g></g></g></g><g data-name="g1470"><g data-name="g1468"><g data-name="g1466" transform="translate(5.958 191.675)" clip-path="url(&quot;#aq&quot;)"><g data-name="g1464"><path d="M.416 20.29a.416.416 0 0 1-.208-.776L33.912.056a.415.415 0 1 1 .416.72L.623 20.233a.41.41 0 0 1-.207.056" fill="#455a64" fill-rule="evenodd" data-name="path1462"/></g></g></g></g><g data-name="g1482"><g data-name="g1480"><g data-name="g1478" transform="translate(9.296 205.278)" clip-path="url(&quot;#ar&quot;)"><g data-name="g1476"><path d="M.213 12.254 21.446 0v.956L.63 12.977a.477.477 0 0 1-.208.05.415.415 0 0 1-.366-.208c-.116-.19-.041-.448.158-.565" fill="#455a64" fill-rule="evenodd" data-name="path1474"/></g></g></g></g><g data-name="g1494"><g data-name="g1492"><g data-name="g1490" transform="translate(14.807 213.284)" clip-path="url(&quot;#as&quot;)"><g data-name="g1488"><path d="M.207 9.047 15.936 0v.956L.623 9.762a.412.412 0 0 1-.565-.15.41.41 0 0 1 .149-.565" fill="#455a64" fill-rule="evenodd" data-name="path1486"/></g></g></g></g><g data-name="g1506"><g data-name="g1504"><g data-name="g1502" transform="translate(21.584 220.3)" clip-path="url(&quot;#at&quot;)"><g data-name="g1500"><path d="M.207 5.118 9.16 0c-.009.332-.017.657-.034.973L.623 5.833a.412.412 0 0 1-.565-.15.41.41 0 0 1 .15-.565" fill="#455a64" fill-rule="evenodd" data-name="path1498"/></g></g></g></g></g></g></g><g data-name="g1512"><g data-name="g1530"><g data-name="g1528" transform="translate(125.68 163.34)" clip-path="url(&quot;#au&quot;)"><g data-name="g1522"><path d="M7.648 0v.956L.623 5.013a.412.412 0 0 1-.565-.15.41.41 0 0 1 .15-.565L7.647 0Z" fill="#455a64" fill-rule="evenodd" data-name="path1520"/></g><g data-name="g1526"><path d="M7.648 7.698v.957l-5.205 3a.412.412 0 0 1-.565-.15.408.408 0 0 1 .15-.564l5.62-3.243Z" fill="#455a64" fill-rule="evenodd" data-name="path1524"/></g></g></g></g><g data-name="g1532"><path d="M187.356 128.578s-.573 5.219-.695 6.46c-.122 1.242-4.093 4.138-6.806 5.426-2.713 1.288-5.667 2.768-3.613 6.516 1.896 3.456 6.736 3.465 9.107 2.939 2.37-.526 5.238-3.39 5.874-7.298.813-4.986-.96-9.844-.793-12.702.168-2.857-1.934-3.23-3.074-1.341" fill="#b16668" fill-rule="evenodd" data-name="path1534"/></g></g></g></g><defs><clipPath id="a"><path d="M0-666.665h415.685v415.685H0v-415.685Z" data-name="path16" transform="translate(0 666.665)"/></clipPath><clipPath id="b"><path d="M0-666.665h415.685v415.685H0v-415.685Z" data-name="path28" transform="translate(0 666.665)"/></clipPath><clipPath id="d"><path d="M552.564-364.156h33.307v70.895h-33.307v-70.895Z" data-name="path60" transform="translate(-552.564 364.156)"/></clipPath><clipPath id="e"><path d="M79.887-362.34h25.834v62.434H79.887v-62.434Z" data-name="path92" transform="translate(-79.887 362.34)"/></clipPath><clipPath id="c"><path d="M0-666.665h415.685v415.685H0v-415.685Z" data-name="path48" transform="translate(0 666.665)"/></clipPath><clipPath id="g"><path d="M260.517-581.187h6.135v29.711h-6.135v-29.71Z" data-name="path140" transform="translate(-260.517 581.187)"/></clipPath><clipPath id="h"><path d="M260.986-638.468h67.07v38.676h-67.07v-38.676Z" data-name="path156" transform="translate(-260.986 638.468)"/></clipPath><clipPath id="i"><path d="M247.58-568.247h13.271v12.434h-13.27v-12.434Z" data-name="path176" transform="translate(-247.58 568.247)"/></clipPath><clipPath id="f"><path d="M0-666.665h415.685v415.685H0v-415.685Z" data-name="path124" transform="translate(0 666.665)"/></clipPath><clipPath id="k"><path d="M353.388-458.964h111.504v121.29H353.388v-121.29Z" data-name="path276" transform="translate(-353.388 458.964)"/></clipPath><clipPath id="l"><path d="M465.5-458.963h38.487v22.554H465.5v-22.554Z" data-name="path300" transform="translate(-465.5 458.963)"/></clipPath><clipPath id="m"><path d="M427.592-455.587h61.495v91.262h-61.495v-91.262Z" data-name="path320" transform="translate(-427.592 455.587)"/></clipPath><clipPath id="j"><path d="M0-666.665h415.685v415.685H0v-415.685Z" data-name="path236" transform="translate(0 666.665)"/></clipPath><clipPath id="o"><path d="M150.604-431.05h53.351v153.765h-53.351V-431.05Z" data-name="path404" transform="translate(-150.604 431.05)"/></clipPath><clipPath id="p"><path d="M195.874-383h14.424v46.612h-14.424V-383Z" data-name="path420" transform="translate(-195.874 383)"/></clipPath><clipPath id="q"><path d="M273.787-153.912h18.357v31.547h-18.357v-31.547Z" data-name="path512" transform="translate(-273.787 153.912)"/></clipPath><clipPath id="r"><path d="M325.467-101.969h13.152v20.566h-13.152v-20.566Z" data-name="path528" transform="translate(-325.467 101.969)"/></clipPath><clipPath id="s"><path d="M281.48-153.912h13.56v24.335h-13.56v-24.335Z" data-name="path580" transform="translate(-281.48 153.912)"/></clipPath><clipPath id="t"><path d="M330.227-101.969h10.184v15.515h-10.184v-15.515Z" data-name="path596" transform="translate(-330.227 101.969)"/></clipPath><clipPath id="u"><path d="M216.494-437.767h6.8v34.056h-6.8v-34.056Z" data-name="path612" transform="translate(-216.494 437.767)"/></clipPath><clipPath id="w"><path d="M343.142-137.201h33.415v19.643h-33.415v-19.643Z" data-name="path644" transform="translate(-343.142 137.201)"/></clipPath><clipPath id="x"><path d="M350.271-129.8h33.414v19.644H350.27V-129.8Z" data-name="path648" transform="translate(-350.271 129.8)"/></clipPath><clipPath id="y"><path d="M353.871-119.593h33.415v19.644h-33.415v-19.644Z" data-name="path652" transform="translate(-353.871 119.593)"/></clipPath><clipPath id="z"><path d="M353.972-109.058h33.416v19.643h-33.416v-19.643Z" data-name="path656" transform="translate(-353.972 109.058)"/></clipPath><clipPath id="A"><path d="M354.094-98.527h33.414v19.644h-33.414v-19.644Z" data-name="path660" transform="translate(-354.094 98.527)"/></clipPath><clipPath id="B"><path d="M357.695-65.479h8.23v5.404h-8.23v-5.404Z" data-name="path664" transform="translate(-357.695 65.479)"/></clipPath><clipPath id="C"><path d="M364.802-53.972h3.798v2.843h-3.798v-2.843Z" data-name="path668" transform="translate(-364.802 53.972)"/></clipPath><clipPath id="v"><path d="M343.142-137.201h40.243v54.739h-40.243v-54.739Z" data-name="path640" transform="translate(-343.142 137.201)"/></clipPath><clipPath id="E"><path d="M297.107-189.342h33.878v19.886h-33.878v-19.886Z" data-name="path784" transform="translate(-297.107 189.342)"/></clipPath><clipPath id="F"><path d="M304.96-181.714h33.879v19.885H304.96v-19.885Z" data-name="path788" transform="translate(-304.96 181.714)"/></clipPath><clipPath id="G"><path d="M309.834-170.997h33.878v19.886h-33.878v-19.886Z" data-name="path792" transform="translate(-309.834 170.997)"/></clipPath><clipPath id="H"><path d="M310.64-159.758h33.877v19.886H310.64v-19.886Z" data-name="path796" transform="translate(-310.64 159.758)"/></clipPath><clipPath id="I"><path d="M310.64-148.365h33.877v19.886H310.64v-19.886Z" data-name="path800" transform="translate(-310.64 148.365)"/></clipPath><clipPath id="J"><path d="M310.64-136.972h33.877v19.887H310.64v-19.887Z" data-name="path804" transform="translate(-310.64 136.972)"/></clipPath><clipPath id="K"><path d="M310.646-125.6h33.878v19.886h-33.878V-125.6Z" data-name="path808" transform="translate(-310.646 125.6)"/></clipPath><clipPath id="L"><path d="M313.935-91.599h8.496v5.562h-8.496v-5.562Z" data-name="path812" transform="translate(-313.935 91.599)"/></clipPath><clipPath id="M"><path d="M321.482-79.145h3.79v2.843h-3.79v-2.843Z" data-name="path816" transform="translate(-321.482 79.145)"/></clipPath><clipPath id="D"><path d="M297.107-189.342h42.32v71.554h-42.32v-71.554Z" data-name="path780" transform="translate(-297.107 189.342)"/></clipPath><clipPath id="O"><path d="M229.51-472.885h34.536v20.29H229.51v-20.29Z" data-name="path996" transform="translate(-229.51 472.885)"/></clipPath><clipPath id="P"><path d="M234.457-463.363h34.536v20.29h-34.536v-20.29Z" data-name="path1000" transform="translate(-234.457 463.363)"/></clipPath><clipPath id="Q"><path d="M235.78-452.443h34.536v20.29H235.78v-20.29Z" data-name="path1004" transform="translate(-235.78 452.443)"/></clipPath><clipPath id="R"><path d="M235.78-441.378h34.536v20.29H235.78v-20.29Z" data-name="path1008" transform="translate(-235.78 441.378)"/></clipPath><clipPath id="S"><path d="M235.78-430.312h34.536v20.291H235.78v-20.291Z" data-name="path1012" transform="translate(-235.78 430.312)"/></clipPath><clipPath id="T"><path d="M235.78-419.246h34.536v20.29H235.78v-20.29Z" data-name="path1016" transform="translate(-235.78 419.246)"/></clipPath><clipPath id="U"><path d="M235.78-408.182h34.536v20.29H235.78v-20.29Z" data-name="path1020" transform="translate(-235.78 408.182)"/></clipPath><clipPath id="V"><path d="M235.78-397.116h34.536v20.29H235.78v-20.29Z" data-name="path1024" transform="translate(-235.78 397.116)"/></clipPath><clipPath id="W"><path d="M235.78-386.051h34.536v20.291H235.78v-20.291Z" data-name="path1028" transform="translate(-235.78 386.051)"/></clipPath><clipPath id="X"><path d="M235.78-374.984h34.536v20.29H235.78v-20.29Z" data-name="path1032" transform="translate(-235.78 374.984)"/></clipPath><clipPath id="Y"><path d="M235.78-363.92h34.536v20.29H235.78v-20.29Z" data-name="path1036" transform="translate(-235.78 363.92)"/></clipPath><clipPath id="Z"><path d="M235.78-352.854h34.536v20.29H235.78v-20.29Z" data-name="path1040" transform="translate(-235.78 352.854)"/></clipPath><clipPath id="aa"><path d="M235.78-341.789h34.536v20.29H235.78v-20.29Z" data-name="path1044" transform="translate(-235.78 341.789)"/></clipPath><clipPath id="ab"><path d="M235.78-330.723h34.536v20.29H235.78v-20.29Z" data-name="path1048" transform="translate(-235.78 330.723)"/></clipPath><clipPath id="ac"><path d="M235.78-319.66h34.536v20.292H235.78v-20.291Z" data-name="path1052" transform="translate(-235.78 319.66)"/></clipPath><clipPath id="ad"><path d="M235.78-308.591h34.536v20.29H235.78v-20.29Z" data-name="path1056" transform="translate(-235.78 308.591)"/></clipPath><clipPath id="ae"><path d="M235.78-297.526h34.536v20.29H235.78v-20.29Z" data-name="path1060" transform="translate(-235.78 297.526)"/></clipPath><clipPath id="af"><path d="M235.78-286.462h34.536v20.29H235.78v-20.29Z" data-name="path1064" transform="translate(-235.78 286.462)"/></clipPath><clipPath id="ag"><path d="M235.78-275.397h34.536v20.292H235.78v-20.292Z" data-name="path1068" transform="translate(-235.78 275.397)"/></clipPath><clipPath id="ah"><path d="M235.78-264.33h34.536v20.29H235.78v-20.29Z" data-name="path1072" transform="translate(-235.78 264.33)"/></clipPath><clipPath id="ai"><path d="M235.78-253.265h34.536v20.29H235.78v-20.29Z" data-name="path1076" transform="translate(-235.78 253.265)"/></clipPath><clipPath id="aj"><path d="M235.78-242.2h34.536v20.29H235.78v-20.29Z" data-name="path1080" transform="translate(-235.78 242.2)"/></clipPath><clipPath id="ak"><path d="M235.78-231.134h34.536v20.29H235.78v-20.29Z" data-name="path1084" transform="translate(-235.78 231.134)"/></clipPath><clipPath id="al"><path d="M235.78-220.067h34.536v20.29H235.78v-20.29Z" data-name="path1088" transform="translate(-235.78 220.067)"/></clipPath><clipPath id="am"><path d="M235.78-209.003h34.536v20.29H235.78v-20.29Z" data-name="path1092" transform="translate(-235.78 209.003)"/></clipPath><clipPath id="an"><path d="M235.78-197.938h34.536v20.291H235.78v-20.291Z" data-name="path1096" transform="translate(-235.78 197.938)"/></clipPath><clipPath id="ao"><path d="M235.78-186.872h34.536v20.29H235.78v-20.29Z" data-name="path1100" transform="translate(-235.78 186.872)"/></clipPath><clipPath id="ap"><path d="M236.146-176.13h34.535v20.29h-34.535v-20.29Z" data-name="path1104" transform="translate(-236.146 176.13)"/></clipPath><clipPath id="aq"><path d="M239.066-165.48h34.536v20.29h-34.536v-20.29Z" data-name="path1108" transform="translate(-239.066 165.48)"/></clipPath><clipPath id="ar"><path d="M244.42-143.665h21.445v13.027H244.42v-13.027Z" data-name="path1112" transform="translate(-244.42 143.665)"/></clipPath><clipPath id="as"><path d="M253.257-130.825h15.935v9.82h-15.935v-9.82Z" data-name="path1116" transform="translate(-253.257 130.825)"/></clipPath><clipPath id="at"><path d="M264.126-119.572h9.158v5.89h-9.158v-5.89Z" data-name="path1120" transform="translate(-264.126 119.572)"/></clipPath><clipPath id="N"><path d="M229.51-472.885h40.494v226.191H229.51v-226.191Z" data-name="path992" transform="translate(-229.51 472.885)"/></clipPath><clipPath id="au"><path d="M201.562-404.704h7.648v11.714h-7.648v-11.714Z" data-name="path1516" transform="translate(-201.562 404.704)"/></clipPath><clipPath id="n"><path d="M0-666.665h415.685v415.685H0v-415.685Z" data-name="path336" transform="translate(0 666.665)"/></clipPath></defs></svg>