<svg xmlns="http://www.w3.org/2000/svg" width="24" height="23.766" viewBox="50 678 24 23.766"><g data-name="receipt (1)"><g data-name="Path 7991"><path d="M74 679.6c0-.882-.718-1.6-1.6-1.6H51.6c-.882 0-1.6.718-1.6 1.6 0 .744.512 1.364 1.2 1.543v19.423l1.2-1.2 2.4 2.4 2.4-2.4 2.4 2.4 2.4-2.4 2.4 2.4 2.4-2.4 2.4 2.4 2.4-2.4 1.2 1.2v-19.423c.688-.179 1.2-.8 1.2-1.543Zm-2 19.034-.4-.4-2.4 2.4-2.4-2.4-2.4 2.4-2.4-2.4-2.4 2.4-2.4-2.4-2.4 2.4-2.4-2.4-.4.4V680h20v18.634Zm.8-18.342V679.2H51.2v1.092a.8.8 0 0 1 .4-1.492h20.8a.8.8 0 0 1 .4 1.492Z" fill="#0c61cb" fill-rule="evenodd"/><path d="M74 679.6c0-.882-.718-1.6-1.6-1.6H51.6c-.882 0-1.6.718-1.6 1.6 0 .744.512 1.364 1.2 1.543v19.423l1.2-1.2 2.4 2.4 2.4-2.4 2.4 2.4 2.4-2.4 2.4 2.4 2.4-2.4 2.4 2.4 2.4-2.4 1.2 1.2v-19.423c.688-.179 1.2-.8 1.2-1.543Zm-2 19.034-.4-.4-2.4 2.4-2.4-2.4-2.4 2.4-2.4-2.4-2.4 2.4-2.4-2.4-2.4 2.4-2.4-2.4-.4.4V680h20v18.634Zm.8-18.342V679.2H51.2v1.092a.8.8 0 0 1 .4-1.492h20.8a.8.8 0 0 1 .4 1.492Z" stroke-linejoin="round" stroke-linecap="round" stroke="#0c61cb" fill="transparent"/></g><g data-name="Path 7992"><path d="M67.6 694h-6a.4.4 0 1 0 0 .8h6a.4.4 0 1 0 0-.8Z" fill="#0c61cb" fill-rule="evenodd"/><path d="M67.6 694h-6a.4.4 0 1 0 0 .8h6a.4.4 0 1 0 0-.8Z" stroke-linejoin="round" stroke-linecap="round" stroke="#0c61cb" fill="transparent"/></g><g data-name="Path 7993"><path d="M69.316 694.116a.412.412 0 0 0-.116.284.42.42 0 0 0 .116.284.42.42 0 0 0 .284.116.42.42 0 0 0 .284-.116.42.42 0 0 0 .116-.284.412.412 0 0 0-.116-.284.419.419 0 0 0-.568 0Z" fill="#0c61cb" fill-rule="evenodd"/><path d="M69.316 694.116a.412.412 0 0 0-.116.284.42.42 0 0 0 .116.284.42.42 0 0 0 .284.116.42.42 0 0 0 .284-.116.42.42 0 0 0 .116-.284.412.412 0 0 0-.116-.284.419.419 0 0 0-.568 0Z" stroke-linejoin="round" stroke-linecap="round" stroke="#0c61cb" fill="transparent"/></g><g data-name="Path 7994"><path d="M69.6 688.4h-6a.4.4 0 1 0 0 .8h6a.4.4 0 1 0 0-.8Z" fill="#0c61cb" fill-rule="evenodd"/><path d="M69.6 688.4h-6a.4.4 0 1 0 0 .8h6a.4.4 0 1 0 0-.8Z" stroke-linejoin="round" stroke-linecap="round" stroke="#0c61cb" fill="transparent"/></g><g data-name="Path 7995"><path d="M69.6 691.2h-4a.4.4 0 1 0 0 .8h4a.4.4 0 1 0 0-.8Z" fill="#0c61cb" fill-rule="evenodd"/><path d="M69.6 691.2h-4a.4.4 0 1 0 0 .8h4a.4.4 0 1 0 0-.8Z" stroke-linejoin="round" stroke-linecap="round" stroke="#0c61cb" fill="transparent"/></g><g data-name="Path 7996"><path d="M61.2 691.6c0 .221.18.4.4.4h.8a.4.4 0 1 0 0-.8h-.8a.4.4 0 0 0-.4.4Z" fill="#0c61cb" fill-rule="evenodd"/><path d="M61.2 691.6c0 .221.18.4.4.4h.8a.4.4 0 1 0 0-.8h-.8a.4.4 0 0 0-.4.4Z" stroke-linejoin="round" stroke-linecap="round" stroke="#0c61cb" fill="transparent"/></g><g data-name="Path 7997"><path d="M68 686a.4.4 0 0 0-.4-.4h-6a.4.4 0 1 0 0 .8h6a.4.4 0 0 0 .4-.4Z" fill="#0c61cb" fill-rule="evenodd"/><path d="M68 686a.4.4 0 0 0-.4-.4h-6a.4.4 0 1 0 0 .8h6a.4.4 0 0 0 .4-.4Z" stroke-linejoin="round" stroke-linecap="round" stroke="#0c61cb" fill="transparent"/></g><g data-name="Path 7998"><path d="M69.316 685.716a.412.412 0 0 0-.116.284.42.42 0 0 0 .116.284.42.42 0 0 0 .284.116.413.413 0 0 0 .284-.116A.42.42 0 0 0 70 686a.42.42 0 0 0-.116-.284.419.419 0 0 0-.568 0Z" fill="#0c61cb" fill-rule="evenodd"/><path d="M69.316 685.716a.412.412 0 0 0-.116.284.42.42 0 0 0 .116.284.42.42 0 0 0 .284.116.413.413 0 0 0 .284-.116A.42.42 0 0 0 70 686a.42.42 0 0 0-.116-.284.419.419 0 0 0-.568 0Z" stroke-linejoin="round" stroke-linecap="round" stroke="#0c61cb" fill="transparent"/></g><g data-name="Path 7999"><path d="M62.284 689.084a.413.413 0 0 0 .116-.284.412.412 0 0 0-.116-.284.419.419 0 0 0-.568 0 .412.412 0 0 0-.116.284c0 .108.044.208.116.284a.42.42 0 0 0 .284.116.42.42 0 0 0 .284-.116Z" fill="#0c61cb" fill-rule="evenodd"/><path d="M62.284 689.084a.413.413 0 0 0 .116-.284.412.412 0 0 0-.116-.284.419.419 0 0 0-.568 0 .412.412 0 0 0-.116.284c0 .108.044.208.116.284a.42.42 0 0 0 .284.116.42.42 0 0 0 .284-.116Z" stroke-linejoin="round" stroke-linecap="round" stroke="#0c61cb" fill="transparent"/></g><g data-name="Path 8000"><path d="M64.284 691.884a.405.405 0 0 0 0-.568.419.419 0 0 0-.568 0 .42.42 0 0 0-.116.284.42.42 0 0 0 .116.284A.42.42 0 0 0 64 692a.42.42 0 0 0 .284-.116Z" fill="#0c61cb" fill-rule="evenodd"/><path d="M64.284 691.884a.405.405 0 0 0 0-.568.419.419 0 0 0-.568 0 .42.42 0 0 0-.116.284.42.42 0 0 0 .116.284A.42.42 0 0 0 64 692a.42.42 0 0 0 .284-.116Z" stroke-linejoin="round" stroke-linecap="round" stroke="#0c61cb" fill="transparent"/></g><g data-name="Path 8001"><path d="M56.8 686.44V686a.4.4 0 1 0-.8 0v.442c-.436.088-.834.32-1.127.667a1.375 1.375 0 0 0-.318 1.041c.041.392.243.755.553.996l.892.694v2.175a1.198 1.198 0 0 1-.8-1.126.4.4 0 1 0-.8 0c0 .965.688 1.773 1.6 1.96v.35a.4.4 0 1 0 .8 0v-.352c.436-.089.834-.32 1.128-.667.244-.29.357-.66.317-1.042a1.459 1.459 0 0 0-.553-.996l-.892-.693v-2.175c.464.166.8.606.8 1.126a.4.4 0 1 0 .8 0c0-.966-.688-1.774-1.6-1.96Zm.4 4.334c.14.108.23.272.25.447a.583.583 0 0 1-.133.442c-.14.165-.32.28-.517.35v-1.551l.4.312Zm-1.6-2.259a.657.657 0 0 1-.25-.448.584.584 0 0 1 .133-.441c.14-.165.32-.28.517-.35v1.55l-.4-.31Z" fill="#0c61cb" fill-rule="evenodd"/><path d="M56.8 686.44V686a.4.4 0 1 0-.8 0v.442c-.436.088-.834.32-1.127.667a1.375 1.375 0 0 0-.318 1.041c.041.392.243.755.553.996l.892.694v2.175a1.198 1.198 0 0 1-.8-1.126.4.4 0 1 0-.8 0c0 .965.688 1.773 1.6 1.96v.35a.4.4 0 1 0 .8 0v-.352c.436-.089.834-.32 1.128-.667.244-.29.357-.66.317-1.042a1.459 1.459 0 0 0-.553-.996l-.892-.693v-2.175c.464.166.8.606.8 1.126a.4.4 0 1 0 .8 0c0-.966-.688-1.774-1.6-1.96Zm.4 4.334c.14.108.23.272.25.447a.583.583 0 0 1-.133.442c-.14.165-.32.28-.517.35v-1.551l.4.312Zm-1.6-2.259a.657.657 0 0 1-.25-.448.584.584 0 0 1 .133-.441c.14-.165.32-.28.517-.35v1.55l-.4-.31Z" stroke-linejoin="round" stroke-linecap="round" stroke="#0c61cb" fill="transparent"/></g><g data-name="Ellipse 444"><path d="M65.6 682.3a.4.4 0 1 1 0 .1z" fill="#0c61cb" fill-rule="evenodd"/><path d="M65.6 682.3a.4.4 0 1 1 0 .1z" stroke-linejoin="round" stroke-linecap="round" stroke="#0c61cb" fill="transparent"/></g><g data-name="Ellipse 445"><path d="M64 682.3a.4.4 0 1 1 0 .1z" fill="#0c61cb" fill-rule="evenodd"/><path d="M64 682.3a.4.4 0 1 1 0 .1z" stroke-linejoin="round" stroke-linecap="round" stroke="#0c61cb" fill="transparent"/></g><g data-name="Ellipse 446"><path d="M67.2 682.3a.4.4 0 1 1 0 .1z" fill="#0c61cb" fill-rule="evenodd"/><path d="M67.2 682.3a.4.4 0 1 1 0 .1z" stroke-linejoin="round" stroke-linecap="round" stroke="#0c61cb" fill="transparent"/></g><g data-name="Ellipse 447"><path d="M62.4 682.3a.4.4 0 1 1 0 .1z" fill="#0c61cb" fill-rule="evenodd"/><path d="M62.4 682.3a.4.4 0 1 1 0 .1z" stroke-linejoin="round" stroke-linecap="round" stroke="#0c61cb" fill="transparent"/></g><g data-name="Ellipse 448"><path d="M68.8 682.3a.4.4 0 1 1 0 .1z" fill="#0c61cb" fill-rule="evenodd"/><path d="M68.8 682.3a.4.4 0 1 1 0 .1z" stroke-linejoin="round" stroke-linecap="round" stroke="#0c61cb" fill="transparent"/></g><g data-name="Ellipse 449"><path d="M57.6 682.3a.4.4 0 1 1 0 .1z" fill="#0c61cb" fill-rule="evenodd"/><path d="M57.6 682.3a.4.4 0 1 1 0 .1z" stroke-linejoin="round" stroke-linecap="round" stroke="#0c61cb" fill="transparent"/></g><g data-name="Ellipse 450"><path d="M59.2 682.3a.4.4 0 1 1 0 .1z" fill="#0c61cb" fill-rule="evenodd"/><path d="M59.2 682.3a.4.4 0 1 1 0 .1z" stroke-linejoin="round" stroke-linecap="round" stroke="#0c61cb" fill="transparent"/></g><g data-name="Ellipse 451"><path d="M60.8 682.3a.4.4 0 1 1 0 .1z" fill="#0c61cb" fill-rule="evenodd"/><path d="M60.8 682.3a.4.4 0 1 1 0 .1z" stroke-linejoin="round" stroke-linecap="round" stroke="#0c61cb" fill="transparent"/></g><g data-name="Ellipse 452"><path d="M70.4 682.3a.4.4 0 1 1 0 .1z" fill="#0c61cb" fill-rule="evenodd"/><path d="M70.4 682.3a.4.4 0 1 1 0 .1z" stroke-linejoin="round" stroke-linecap="round" stroke="#0c61cb" fill="transparent"/></g><g data-name="Ellipse 453"><path d="M56 682.3a.4.4 0 1 1 0 .1z" fill="#0c61cb" fill-rule="evenodd"/><path d="M56 682.3a.4.4 0 1 1 0 .1z" stroke-linejoin="round" stroke-linecap="round" stroke="#0c61cb" fill="transparent"/></g><g data-name="Ellipse 454"><path d="M54.4 682.3a.4.4 0 1 1 0 .1z" fill="#0c61cb" fill-rule="evenodd"/><path d="M54.4 682.3a.4.4 0 1 1 0 .1z" stroke-linejoin="round" stroke-linecap="round" stroke="#0c61cb" fill="transparent"/></g><g data-name="Ellipse 455"><path d="M52.8 682.3a.4.4 0 1 1 0 .1z" fill="#0c61cb" fill-rule="evenodd"/><path d="M52.8 682.3a.4.4 0 1 1 0 .1z" stroke-linejoin="round" stroke-linecap="round" stroke="#0c61cb" fill="transparent"/></g></g></svg>