<svg xmlns="http://www.w3.org/2000/svg" width="24" height="29.999"><path d="M20.166 30H3.833C1.719 30 0 28.316 0 26.25V3.75C0 1.682 1.72 0 3.833 0h10.5c.422 0 .827.18 1.11.491l8.167 9c.251.28.39.638.39 1.01v15.748c0 2.068-1.72 3.75-3.834 3.75ZM3.833 3C3.373 3 3 3.336 3 3.75v22.5c0 .413.373.75.833.75h16.333c.46 0 .834-.337.834-.75V12h-4.93C13.826 12 12 10.082 12 7.725V3H3.833ZM15 4.467v3.258C15 8.428 15.48 9 16.07 9h3.043L15 4.467ZM16.5 24h-9c-.828 0-1.5-.673-1.5-1.5S6.671 21 7.5 21h9c.827 0 1.5.673 1.5 1.5s-.673 1.5-1.5 1.5ZM12 18H7.5c-.828 0-1.5-.673-1.5-1.5 0-.828.672-1.5 1.5-1.5H12c.827 0 1.5.672 1.5 1.5 0 .827-.673 1.5-1.5 1.5Z" fill="#0c61cb" fill-rule="evenodd" data-name="๐จ Icon ะกolor"/></svg>