<svg xmlns="http://www.w3.org/2000/svg" width="32" height="32" viewBox="103 830 32 32"><g data-name="Group 9354"><path d="M103 830h32v32h-32v-32z" fill="#fff" fill-rule="evenodd" data-name="Rectangle 1688"/><g data-name="file-text"><path d="M127.166 861h-16.333c-2.114 0-3.833-1.683-3.833-3.75v-22.5c0-2.068 1.72-3.75 3.833-3.75h10.5c.422 0 .827.18 1.11.491l8.167 9c.251.28.39.638.39 1.01v15.748c0 2.068-1.72 3.75-3.834 3.75Zm-16.333-27c-.46 0-.833.336-.833.75v22.5c0 .413.373.75.833.75h16.333c.46 0 .834-.337.834-.75V843h-4.93c-2.244 0-4.07-1.918-4.07-4.275V834h-8.167ZM122 835.467v3.258c0 .703.48 1.275 1.07 1.275h3.043L122 835.467ZM123.5 855h-9c-.828 0-1.5-.673-1.5-1.5s.672-1.5 1.5-1.5h9c.827 0 1.5.673 1.5 1.5s-.673 1.5-1.5 1.5Zm-4.5-6h-4.5c-.828 0-1.5-.673-1.5-1.5 0-.828.672-1.5 1.5-1.5h4.5c.827 0 1.5.672 1.5 1.5 0 .827-.673 1.5-1.5 1.5Z" fill="#64819f" fill-rule="evenodd" data-name="๐จ Icon ะกolor"/></g></g><defs><clipPath id="a"><path d="M20.166 30H3.833C1.719 30 0 28.316 0 26.25V3.75C0 1.682 1.72 0 3.833 0h10.5c.422 0 .827.18 1.11.491l8.167 9c.251.28.39.638.39 1.01v15.748c0 2.068-1.72 3.75-3.834 3.75ZM3.833 3C3.373 3 3 3.336 3 3.75v22.5c0 .413.373.75.833.75h16.333c.46 0 .834-.337.834-.75V12h-4.93C13.826 12 12 10.082 12 7.725V3H3.833ZM15 4.467v3.258C15 8.428 15.48 9 16.07 9h3.043L15 4.467ZM16.5 24h-9c-.828 0-1.5-.673-1.5-1.5S6.671 21 7.5 21h9c.827 0 1.5.673 1.5 1.5s-.673 1.5-1.5 1.5ZM12 18H7.5c-.828 0-1.5-.673-1.5-1.5 0-.828.672-1.5 1.5-1.5H12c.827 0 1.5.672 1.5 1.5 0 .827-.673 1.5-1.5 1.5Z" data-name="๐จ Icon ะกolor"/></clipPath></defs></svg>