<svg xmlns="http://www.w3.org/2000/svg" width="16.351" height="17.839" viewBox="44 360 16.351 17.839"><g data-name="sal"><path d="M51.176 377.45c.286.26.644.39 1.001.39.356 0 .711-.129.992-.384l6.694-5.951c.458-.417.61-1.059.387-1.636a1.477 1.477 0 0 0-1.387-.95h-1.114v-7.433c0-.82-.666-1.486-1.486-1.486h-8.175c-.82 0-1.487.667-1.487 1.486v7.432h-1.113c-.619 0-1.163.373-1.386.951a1.48 1.48 0 0 0 .392 1.641l6.682 5.94Zm-4.575-7.045c.82 0 1.487-.667 1.487-1.487v-7.432h8.175v7.432c0 .82.667 1.487 1.486 1.487l1.12-.006-6.7 5.946-6.68-5.94H46.6Zm0 0" fill="#0c61cb" fill-rule="evenodd" data-name="path5576"/><path d="M52.919 373.378v-.482a2.605 2.605 0 0 0 1.858-2.491 2.604 2.604 0 0 0-2.602-2.601c-.614 0-1.114-.5-1.114-1.115s.5-1.115 1.114-1.115c.615 0 1.115.5 1.115 1.115a.743.743 0 0 0 1.487 0c0-1.176-.785-2.171-1.858-2.492v-.481a.743.743 0 0 0-1.487 0v.481a2.605 2.605 0 0 0-1.858 2.492 2.604 2.604 0 0 0 2.601 2.601c.615 0 1.115.5 1.115 1.115 0 .614-.5 1.115-1.115 1.115-.614 0-1.114-.5-1.114-1.115a.743.743 0 0 0-1.487 0c0 1.176.785 2.17 1.858 2.491v.482a.743.743 0 0 0 1.487 0Zm0 0" fill="#0c61cb" fill-rule="evenodd" data-name="path5578"/></g></svg>