<svg xmlns="http://www.w3.org/2000/svg" width="18" height="20.355" viewBox="43 299 18 20.355"><g data-name="wallet (1)"><g data-name="Path 3862"><path d="M49.469 314.275c-.687.004-.899-.023-1.414-.301a.894.894 0 0 0-.847 1.572c.5.27.906.412 1.372.474a.894.894 0 0 0 1.786-.013v-.069c1.164-.33 1.796-1.25 1.91-2.06.12-.856-.277-2.011-1.788-2.45-.605-.177-1.35-.412-1.74-.664-.01-.006-.026-.017-.016-.078.007-.04.057-.25.381-.331.761-.19 1.245.139 1.265.152a.894.894 0 0 0 1.03-1.458 3.083 3.083 0 0 0-1.043-.448.894.894 0 0 0-1.785.027v.022c-.846.249-1.473.923-1.61 1.743-.125.751.185 1.468.809 1.871.468.303 1.109.557 2.21.877.21.062.558.207.518.49-.056.4-.572.642-1.038.644Zm.687-1.706c-1.042-.303-1.637-.537-2.054-.806-.42-.272-.629-.76-.543-1.272.103-.618.6-1.125 1.268-1.29.038-.01.076-.019.113-.026a.298.298 0 0 0 .237-.292v-.255a.297.297 0 0 1 .593 0v.218c0 .147.107.272.252.295.59.092.972.345 1.042.395a.294.294 0 0 1 .071.413.297.297 0 0 1-.413.071c-.073-.051-.741-.495-1.752-.244-.532.132-.775.506-.826.812-.047.28.058.533.28.677.453.292 1.213.535 1.897.735 1.477.43 1.395 1.57 1.364 1.795-.092.656-.645 1.41-1.676 1.616a.298.298 0 0 0-.24.292v.304a.297.297 0 0 1-.592 0v-.258a.298.298 0 0 0-.279-.297c-.427-.028-.812-.11-1.407-.431a.294.294 0 0 1-.12-.402.297.297 0 0 1 .401-.12c.61.328.926.376 1.7.373a2.01 2.01 0 0 0 1.009-.278c.348-.212.567-.525.617-.881.073-.523-.28-.951-.942-1.144Z" fill="#0c61cb" fill-rule="evenodd"/><path d="M49.469 314.275c-.687.004-.899-.023-1.414-.301a.894.894 0 0 0-.847 1.572c.5.27.906.412 1.372.474a.894.894 0 0 0 1.786-.013v-.069c1.164-.33 1.796-1.25 1.91-2.06.12-.856-.277-2.011-1.788-2.45-.605-.177-1.35-.412-1.74-.664-.01-.006-.026-.017-.016-.078.007-.04.057-.25.381-.331.761-.19 1.245.139 1.265.152a.894.894 0 0 0 1.03-1.458 3.083 3.083 0 0 0-1.043-.448.894.894 0 0 0-1.785.027v.022c-.846.249-1.473.923-1.61 1.743-.125.751.185 1.468.809 1.871.468.303 1.109.557 2.21.877.21.062.558.207.518.49-.056.4-.572.642-1.038.644Zm.687-1.706c-1.042-.303-1.637-.537-2.054-.806-.42-.272-.629-.76-.543-1.272.103-.618.6-1.125 1.268-1.29.038-.01.076-.019.113-.026a.298.298 0 0 0 .237-.292v-.255a.297.297 0 0 1 .593 0v.218c0 .147.107.272.252.295.59.092.972.345 1.042.395a.294.294 0 0 1 .071.413.297.297 0 0 1-.413.071c-.073-.051-.741-.495-1.752-.244-.532.132-.775.506-.826.812-.047.28.058.533.28.677.453.292 1.213.535 1.897.735 1.477.43 1.395 1.57 1.364 1.795-.092.656-.645 1.41-1.676 1.616a.298.298 0 0 0-.24.292v.304a.297.297 0 0 1-.592 0v-.258a.298.298 0 0 0-.279-.297c-.427-.028-.812-.11-1.407-.431a.294.294 0 0 1-.12-.402.297.297 0 0 1 .401-.12c.61.328.926.376 1.7.373a2.01 2.01 0 0 0 1.009-.278c.348-.212.567-.525.617-.881.073-.523-.28-.951-.942-1.144Z" stroke-linejoin="round" stroke-linecap="round" stroke-width=".6" stroke="#0c61cb" fill="transparent"/></g><g data-name="Path 3863"><path d="M56.12 310.638c-.845 0-1.533.688-1.533 1.533 0 .846.688 1.533 1.533 1.533s1.533-.687 1.533-1.533c0-.845-.688-1.533-1.533-1.533Zm0 2.47a.938.938 0 0 1 0-1.873.938.938 0 0 1 0 1.873Z" fill="#0c61cb" fill-rule="evenodd"/><path d="M56.12 310.638c-.845 0-1.533.688-1.533 1.533 0 .846.688 1.533 1.533 1.533s1.533-.687 1.533-1.533c0-.845-.688-1.533-1.533-1.533Zm0 2.47a.938.938 0 0 1 0-1.873.938.938 0 0 1 0 1.873Z" stroke-linejoin="round" stroke-linecap="round" stroke-width=".6" stroke="#0c61cb" fill="transparent"/></g><g data-name="Path 3864"><path d="M60.444 307.368a2.178 2.178 0 0 0 .09-2.802 30.773 30.773 0 0 0-5.1-5.1 2.176 2.176 0 0 0-2.801.091c-.163.146-.326.291-.488.438a.298.298 0 0 0 .4.442c.161-.146.323-.29.485-.435a1.581 1.581 0 0 1 1.967-.117l-5.218 5.217c-.764.01-1.49.025-2.144.046a110.664 110.664 0 0 1 4.03-3.91.298.298 0 0 0-.403-.438c-.598.55-1.191 1.11-1.78 1.677a76.82 76.82 0 0 0-3.891.18 2.574 2.574 0 0 0-2.39 2.35 52.804 52.804 0 0 0-.185 5.895v.007a2.573 2.573 0 0 0 2.575 8.25 76.049 76.049 0 0 0 10.911 0c.355-.025.693-.12 1.006-.283a.298.298 0 0 0-.275-.53c-.24.125-.5.199-.773.218a75.642 75.642 0 0 1-10.826 0 1.979 1.979 0 0 1-1.839-1.807 52.177 52.177 0 0 1-.183-5.858 52.195 52.195 0 0 1 .183-5.84c.08-.908.755-1.63 1.637-1.783a1.75 1.75 0 0 0-.18.262c-.275.492-.278 1.07-.008 1.511.169.276.588.725 1.525.725l.122-.003c2.502-.1 6.509-.14 9.568.08.98.07 1.753.831 1.839 1.808.046.527.084 1.06.114 1.589H56.12a2.927 2.927 0 0 0-2.924 2.923 2.927 2.927 0 0 0 2.924 2.924h2.296a51.76 51.76 0 0 1-.118 1.661c-.029.32-.135.631-.308.9a.298.298 0 1 0 .502.323 2.59 2.59 0 0 0 .4-1.17c.052-.59.094-1.196.126-1.804a1.07 1.07 0 0 0 .64-.978v-3.711a1.07 1.07 0 0 0-.644-.98 52.22 52.22 0 0 0-.021-.373c.478-.516.966-1.052 1.45-1.595Zm-14.692-2.63c-.157-.257-.15-.605.02-.908.1-.18.394-.573 1.058-.654a76.23 76.23 0 0 1 2.022-.087 110.57 110.57 0 0 0-2.078 2.088c-.486 0-.847-.154-1.022-.44Zm4.877.357 4.837-4.837c.679.554 1.336 1.14 1.96 1.748l-3.137 3.138a97.669 97.669 0 0 0-3.66-.049Zm5.873.161c-.45-.032-.92-.059-1.402-.08l2.75-2.75c.779.79 1.524 1.633 2.215 2.51a1.583 1.583 0 0 1-.067 2.035c-.354.397-.71.79-1.062 1.174a52.08 52.08 0 0 0-.044-.538 2.573 2.573 0 0 0-2.39-2.35Zm2.56 8.77c0 .26-.212.472-.472.472h-2.47a2.33 2.33 0 0 1-2.327-2.327 2.33 2.33 0 0 1 2.327-2.327h2.47c.26 0 .472.212.472.472v3.71Z" fill="#0c61cb" fill-rule="evenodd"/><path d="M60.444 307.368a2.178 2.178 0 0 0 .09-2.802 30.773 30.773 0 0 0-5.1-5.1 2.176 2.176 0 0 0-2.801.091c-.163.146-.326.291-.488.438a.298.298 0 0 0 .4.442c.161-.146.323-.29.485-.435a1.581 1.581 0 0 1 1.967-.117l-5.218 5.217c-.764.01-1.49.025-2.144.046a110.664 110.664 0 0 1 4.03-3.91.298.298 0 0 0-.403-.438c-.598.55-1.191 1.11-1.78 1.677a76.82 76.82 0 0 0-3.891.18 2.574 2.574 0 0 0-2.39 2.35 52.804 52.804 0 0 0-.185 5.895v.007a2.573 2.573 0 0 0 2.575 8.25 76.049 76.049 0 0 0 10.911 0c.355-.025.693-.12 1.006-.283a.298.298 0 0 0-.275-.53c-.24.125-.5.199-.773.218a75.642 75.642 0 0 1-10.826 0 1.979 1.979 0 0 1-1.839-1.807 52.177 52.177 0 0 1-.183-5.858 52.195 52.195 0 0 1 .183-5.84c.08-.908.755-1.63 1.637-1.783a1.75 1.75 0 0 0-.18.262c-.275.492-.278 1.07-.008 1.511.169.276.588.725 1.525.725l.122-.003c2.502-.1 6.509-.14 9.568.08.98.07 1.753.831 1.839 1.808.046.527.084 1.06.114 1.589H56.12a2.927 2.927 0 0 0-2.924 2.923 2.927 2.927 0 0 0 2.924 2.924h2.296a51.76 51.76 0 0 1-.118 1.661c-.029.32-.135.631-.308.9a.298.298 0 1 0 .502.323 2.59 2.59 0 0 0 .4-1.17c.052-.59.094-1.196.126-1.804a1.07 1.07 0 0 0 .64-.978v-3.711a1.07 1.07 0 0 0-.644-.98 52.22 52.22 0 0 0-.021-.373c.478-.516.966-1.052 1.45-1.595Zm-14.692-2.63c-.157-.257-.15-.605.02-.908.1-.18.394-.573 1.058-.654a76.23 76.23 0 0 1 2.022-.087 110.57 110.57 0 0 0-2.078 2.088c-.486 0-.847-.154-1.022-.44Zm4.877.357 4.837-4.837c.679.554 1.336 1.14 1.96 1.748l-3.137 3.138a97.669 97.669 0 0 0-3.66-.049Zm5.873.161c-.45-.032-.92-.059-1.402-.08l2.75-2.75c.779.79 1.524 1.633 2.215 2.51a1.583 1.583 0 0 1-.067 2.035c-.354.397-.71.79-1.062 1.174a52.08 52.08 0 0 0-.044-.538 2.573 2.573 0 0 0-2.39-2.35Zm2.56 8.77c0 .26-.212.472-.472.472h-2.47a2.33 2.33 0 0 1-2.327-2.327 2.33 2.33 0 0 1 2.327-2.327h2.47c.26 0 .472.212.472.472v3.71Z" stroke-linejoin="round" stroke-linecap="round" stroke-width=".6" stroke="#0c61cb" fill="transparent"/></g></g></svg>