<svg xmlns="http://www.w3.org/2000/svg" width="24" height="19.202"><path d="M14.795 19.202c-.08 0-.163-.004-.246-.012-1.056-.104-1.884-.85-2.112-1.9L9.217 2.42l-3.315 7.658c-.191.44-.624.724-1.102.724H1.2a1.2 1.2 0 1 1 0-2.4h2.813L7.02 1.455C7.446.476 8.384-.094 9.451.013c1.056.104 1.884.85 2.112 1.9l3.22 14.87 3.315-7.659a1.2 1.2 0 0 1 1.102-.722h3.6a1.199 1.199 0 1 1 0 2.4h-2.813l-3.007 6.946c-.392.903-1.234 1.454-2.185 1.454" fill="#0c61cb" fill-rule="evenodd" data-name="๐จ Icon ะกolor"/></svg>